<svg version="1.1" width="2000" height="1000" xmlns="http://www.w3.org/2000/svg">
<rect x="0" y="0" width="2000" height="1000" fill="#443d3a" />
<g transform="scale(15.625, 15.625)">
<path d="M 46.7657 -7.74301 L 51.4587 21.8876 L -10.7657 31.743 L -15.4587 2.11236 Z" fill="#a96f57" fill-opacity="0.501961" />
<path d="M 7.36276 49.436 L 53.9054 42.8949 L 58.6372 76.564 L 12.0946 83.1051 Z" fill="#000000" fill-opacity="0.501961" />
<path d="M 69.8155 50.5719 L 79.4281 47.8155 L 82.1845 57.4281 L 72.5719 60.1845 Z" fill="#ffc997" fill-opacity="0.501961" />
<path d="M 43.9378 -2.09529 L 92.4727 -25.7673 L 106.062 2.09529 L 57.5273 25.7673 Z" fill="#0d4a7a" fill-opacity="0.501961" />
<path d="M 46.6038 43.1712 L 38.8392 14.1934 L 51.3962 10.8288 L 59.1608 39.8066 Z" fill="#ad7a5e" fill-opacity="0.501961" />
<path d="M 83.4085 34.6677 L 122.35 18.9342 L 130.592 39.3323 L 91.6498 55.0658 Z" fill="#111a25" fill-opacity="0.501961" />
<path d="M 6.53487 53.8015 L -4.1832 51.3271 L 3.46513 18.1985 L 14.1832 20.6729 Z" fill="#977260" fill-opacity="0.501961" />
<path d="M 40.9331 37.9128 L 38.8625 45.6402 L 33.0669 44.0872 L 35.1375 36.3598 Z" fill="#f8d4a6" fill-opacity="0.501961" />
<path d="M 40.3767 21.5941 L 44.0849 33.0067 L 33.6233 36.4059 L 29.9151 24.9933 Z" fill="#000000" fill-opacity="0.501961" />
<path d="M 27.4556 54.5866 L 61.2568 39.5373 L 66.5444 51.4134 L 32.7432 66.4627 Z" fill="#080501" fill-opacity="0.501961" />
<path d="M 67.2807 61.3564 L 55.3465 62.6107 L 54.7193 56.6436 L 66.6535 55.3893 Z" fill="#c29f7a" fill-opacity="0.501961" />
<path d="M 17.8944 28.413 L 22.0877 31.1362 L 10.1056 49.587 L 5.91229 46.8638 Z" fill="#000000" fill-opacity="0.501961" />
<path d="M 36.9568 48.0678 L 25.9322 54.9568 L 19.0432 43.9322 L 30.0678 37.0432 Z" fill="#010000" fill-opacity="0.501961" />
<path d="M 19.5634 43.8047 L 18.1953 47.5634 L 14.4366 46.1953 L 15.8047 42.4366 Z" fill="#ffd8a3" fill-opacity="0.501961" />
<path d="M 28.03 -5.45977 L 42.9934 -6.50612 L 43.97 7.45977 L 29.0066 8.50612 Z" fill="#bb9d75" fill-opacity="0.501961" />
<path d="M 125.658 24.2173 L 119.61 -0.040048 L 128.342 -2.21735 L 134.39 22.04 Z" fill="#767977" fill-opacity="0.501961" />
<path d="M 87.1493 75.2031 L 79.6248 54.5298 L 122.851 38.7969 L 130.375 59.4702 Z" fill="#28393c" fill-opacity="0.501961" />
<path d="M 54.1511 42.3429 L 49.6571 40.1511 L 51.8489 35.6571 L 56.3429 37.8489 Z" fill="#d8c5ab" fill-opacity="0.501961" />
<path d="M 66.0883 51.0302 L 62.483 45.03 L 65.9117 42.9698 L 69.517 48.97 Z" fill="#b9956c" fill-opacity="0.501961" />
<path d="M 28.7868 -4.3503 L 26.2059 32.5596 L 23.2132 32.3503 L 25.7941 -4.55957 Z" fill="#2c181e" fill-opacity="0.501961" />
<path d="M 5 40.5 L 5 45.5 L -1 45.5 L -1 40.5 Z" fill="#ecbe82" fill-opacity="0.501961" />
<path d="M 73.1516 27.6116 L 53.0065 48.4724 L 50.8484 46.3884 L 70.9935 25.5276 Z" fill="#120d10" fill-opacity="0.501961" />
<path d="M 67.9211 51.6457 L 74.4937 64.007 L 70.0789 66.3543 L 63.5063 53.993 Z" fill="#040202" fill-opacity="0.501961" />
<path d="M 106.819 16.3808 L 84.8322 15.6131 L 85.1812 5.61915 L 107.168 6.38694 Z" fill="#426069" fill-opacity="0.501961" />
<path d="M 94.6968 17.082 L 93.3008 57.0576 L 89.3032 56.918 L 90.6992 16.9424 Z" fill="#00040e" fill-opacity="0.501961" />
<path d="M 49.6073 41.659 L 44.7374 53.7124 L 36.3927 50.341 L 41.2626 38.2876 Z" fill="#050402" fill-opacity="0.501961" />
<path d="M 9.80496 67.205 L 7.72098 65.047 L 14.195 58.795 L 16.279 60.953 Z" fill="#c05739" fill-opacity="0.501961" />
<path d="M 41.2531 28.2483 L 40.8346 22.2629 L 76.7469 19.7517 L 77.1654 25.7371 Z" fill="#895c50" fill-opacity="0.501961" />
<path d="M -6.94472 46.6264 L 9.61957 50.4505 L 8.94472 53.3736 L -7.61957 49.5495 Z" fill="#cda159" fill-opacity="0.501961" />
<path d="M 70.9602 50.4573 L 72.0763 34.4963 L 87.0398 35.5427 L 85.9237 51.5037 Z" fill="#65493f" fill-opacity="0.501961" />
<path d="M 38.8602 39.1614 L 32.0396 40.7361 L 31.1398 36.8386 L 37.9604 35.2639 Z" fill="#c6a988" fill-opacity="0.501961" />
<path d="M 16.4056 0.281008 L 20.3757 -0.206469 L 21.5944 9.71899 L 17.6243 10.2065 Z" fill="#151e26" fill-opacity="0.501961" />
<path d="M 82.7526 47.7207 L 68.8293 46.2573 L 69.2474 42.2793 L 83.1707 43.7427 Z" fill="#0f050a" fill-opacity="0.501961" />
<path d="M 74.5239 31.5356 L 77.2601 24.0181 L 89.4761 28.4644 L 86.7399 35.9819 Z" fill="#0d1521" fill-opacity="0.501961" />
<path d="M 109.571 37.5208 L 107.479 13.6122 L 120.429 12.4792 L 122.521 36.3878 Z" fill="#1a201e" fill-opacity="0.501961" />
<path d="M -0.519455 67.4088 L 10.1464 48.1672 L 14.5195 50.5912 L 3.85364 69.8328 Z" fill="#1f0302" fill-opacity="0.501961" />
<path d="M 34.1437 22.6133 L 35.8868 2.68943 L 43.8563 3.38668 L 42.1132 23.3106 Z" fill="#9e7d5c" fill-opacity="0.501961" />
<path d="M 79.4042 53.8917 L 78.5511 60.8395 L 72.5958 60.1083 L 73.4489 53.1605 Z" fill="#cea590" fill-opacity="0.501961" />
<path d="M 13.3521 49.0934 L 14.6926 38.1754 L 20.6479 38.9066 L 19.3074 49.8246 Z" fill="#8d715a" fill-opacity="0.501961" />
<path d="M 15.1854 18.1196 L 5.78851 14.6994 L 6.81457 11.8804 L 16.2115 15.3006 Z" fill="#261c1f" fill-opacity="0.501961" />
<path d="M 47 30 L 47 34 L 31 34 L 31 30 Z" fill="#0b0a05" fill-opacity="0.501961" />
<path d="M 116 38 L 116 50 L 96 50 L 96 38 Z" fill="#41434b" fill-opacity="0.501961" />
<path d="M 25.0562 60.7791 L 95.0136 63.2221 L 94.9438 65.2209 L 24.9864 62.7779 Z" fill="#171111" fill-opacity="0.501961" />
<path d="M 49.386 1.1588 L 58.1125 16.902 L 54.614 18.8412 L 45.8875 3.09804 Z" fill="#002d59" fill-opacity="0.501961" />
<path d="M 98.5049 17.6881 L 67.5474 19.3105 L 67.4951 18.3119 L 98.4526 16.6895 Z" fill="#100f12" fill-opacity="0.501961" />
<path d="M 30.6242 -2.01086 L 32.3606 7.83721 L 31.3758 8.01086 L 29.6394 -1.83721 Z" fill="#f6daa3" fill-opacity="0.501961" />
<path d="M -7.54418 23.093 L 8.43389 23.9303 L 7.54418 40.907 L -8.43389 40.0697 Z" fill="#4e3d42" fill-opacity="0.501961" />
<path d="M 2.15205 49.4925 L 1.62213 48.6444 L 33.848 28.5075 L 34.3779 29.3556 Z" fill="#141823" fill-opacity="0.501961" />
<path d="M 100.337 27.7233 L 94.36 28.2462 L 93.6628 20.2767 L 99.64 19.7538 Z" fill="#945f49" fill-opacity="0.501961" />
<path d="M 29.2722 34.5484 L 26.2741 34.4437 L 26.7278 21.4516 L 29.7259 21.5563 Z" fill="#7c706e" fill-opacity="0.501961" />
<path d="M 106.399 25.0497 L 103.403 24.8927 L 105.601 -17.0497 L 108.597 -16.8927 Z" fill="#75675d" fill-opacity="0.501961" />
<path d="M 15.5812 42.544 L 12.4625 27.8718 L 14.4188 27.456 L 17.5375 42.1282 Z" fill="#040000" fill-opacity="0.501961" />
<path d="M 50.18 37.3713 L 45.9397 40.0209 L 43.82 36.6287 L 48.0603 33.9791 Z" fill="#b99874" fill-opacity="0.501961" />
<path d="M 49.8189 29.6547 L 40.9297 28.2468 L 42.1811 20.3453 L 51.0703 21.7532 Z" fill="#a37b63" fill-opacity="0.501961" />
<path d="M 77.7562 43.5129 L 61.8854 37.4207 L 62.2438 36.4871 L 78.1146 42.5793 Z" fill="#9b6853" fill-opacity="0.501961" />
<path d="M 34.6349 -12.9941 L 35.6311 -12.907 L 33.3651 12.9941 L 32.3689 12.907 Z" fill="#3d2d40" fill-opacity="0.501961" />
<path d="M 68.8545 32.22 L 67.1844 20.3367 L 71.1455 19.78 L 72.8156 31.6633 Z" fill="#1b2731" fill-opacity="0.501961" />
<path d="M 68.0438 47.4313 L 72.5753 45.3182 L 75.9562 52.5687 L 71.4247 54.6818 Z" fill="#b78e62" fill-opacity="0.501961" />
<path d="M 68.953 38.721 L 75.205 45.195 L 73.047 47.279 L 66.795 40.805 Z" fill="#0f030a" fill-opacity="0.501961" />
<path d="M 53.5465 18.7392 L 78.5805 8.62485 L 80.4535 13.2608 L 55.4195 23.3751 Z" fill="#3f5168" fill-opacity="0.501961" />
<path d="M 50.3366 40.8083 L 58.9687 32.4724 L 59.6634 33.1917 L 51.0313 41.5276 Z" fill="#caa974" fill-opacity="0.501961" />
<path d="M 21.8376 42.1307 L 35.2259 46.2239 L 26.1624 75.8693 L 12.7741 71.7761 Z" fill="#120c08" fill-opacity="0.501961" />
<path d="M 9.36284 30.8503 L 12.2606 31.6267 L 8.63716 45.1497 L 5.73938 44.3733 Z" fill="#766568" fill-opacity="0.501961" />
<path d="M 83.5562 4.46678 L 86.9208 -8.09025 L 100.444 -4.46678 L 97.0792 8.09025 Z" fill="#003e56" fill-opacity="0.501961" />
<path d="M 80.7855 49.4322 L 83.2884 33.6292 L 89.2145 34.5678 L 86.7116 50.3708 Z" fill="#614d4c" fill-opacity="0.501961" />
<path d="M 34.3976 21.0619 L 40.0964 32.7462 L 35.6024 34.9381 L 29.9036 23.2538 Z" fill="#080906" fill-opacity="0.501961" />
<path d="M 67.9039 43.3043 L 64.8948 47.2975 L 64.0961 46.6957 L 67.1052 42.7025 Z" fill="#d2b99c" fill-opacity="0.501961" />
<path d="M 43.1226 7.94871 L 49.1217 8.05342 L 48.8774 22.0513 L 42.8783 21.9466 Z" fill="#694542" fill-opacity="0.501961" />
<path d="M 25.5156 15.4798 L 24.0822 11.7455 L 32.4844 8.52018 L 33.9178 12.2545 Z" fill="#322d2f" fill-opacity="0.501961" />
<path d="M -2.83818 66.7041 L -1.13201 52.8084 L 2.83818 53.2959 L 1.13201 67.1916 Z" fill="#080500" fill-opacity="0.501961" />
<path d="M 122.561 16.602 L 127.055 14.4101 L 131.439 23.398 L 126.945 25.5899 Z" fill="#93592a" fill-opacity="0.501961" />
<path d="M 1.46012 58.8839 L 4.90158 53.969 L 6.53988 55.1161 L 3.09842 60.031 Z" fill="#9b4841" fill-opacity="0.501961" />
<path d="M 77.1515 24.4476 L 78.9511 16.6526 L 82.8485 17.5524 L 81.0489 25.3474 Z" fill="#081721" fill-opacity="0.501961" />
<path d="M 49.5081 35.6151 L 48.9568 33.6926 L 60.4919 30.3849 L 61.0432 32.3074 Z" fill="#362e22" fill-opacity="0.501961" />
<path d="M 16.3985 47.9719 L 15.5413 47.4568 L 17.6015 44.0281 L 18.4587 44.5432 Z" fill="#f3cfa3" fill-opacity="0.501961" />
<path d="M 25.6016 14.4073 L 25.1476 15.2983 L -9.60162 -2.40731 L -9.14763 -3.29832 Z" fill="#513123" fill-opacity="0.501961" />
<path d="M 41.5578 36.179 L 39.2788 42.7977 L 36.4422 41.821 L 38.7212 35.2023 Z" fill="#b09577" fill-opacity="0.501961" />
<path d="M 47.6036 39.4355 L 48.4946 38.9815 L 54.3964 50.5645 L 53.5054 51.0185 Z" fill="#18120e" fill-opacity="0.501961" />
<path d="M 97.6849 5.90469 L 97.301 16.898 L 74.3151 16.0953 L 74.699 5.10201 Z" fill="#344851" fill-opacity="0.501961" />
<path d="M 82.4618 64.5377 L 81.6527 65.1255 L 77.5382 59.4623 L 78.3473 58.8745 Z" fill="#000100" fill-opacity="0.501961" />
<path d="M 80.4356 70.6718 L 79.637 71.2736 L 55.5644 39.3282 L 56.363 38.7264 Z" fill="#1f1712" fill-opacity="0.501961" />
<path d="M 54.761 57.9632 L 66.6133 56.086 L 67.239 60.0368 L 55.3867 61.914 Z" fill="#a28b6e" fill-opacity="0.501961" />
<path d="M 115.673 36.7322 L 54.013 30.2514 L 54.3266 27.2678 L 115.987 33.7486 Z" fill="#1d1d25" fill-opacity="0.501961" />
<path d="M 78.036 46.6247 L 83.6741 48.6768 L 81.964 53.3753 L 76.3259 51.3232 Z" fill="#9d6c44" fill-opacity="0.501961" />
<path d="M 115.663 -2.68174 L 117.318 16.246 L 112.337 16.6817 L 110.682 -2.24596 Z" fill="#614e37" fill-opacity="0.501961" />
<path d="M 64.5538 78.8198 L 68.4536 47.0583 L 69.4462 47.1802 L 65.5464 78.9417 Z" fill="#121315" fill-opacity="0.501961" />
<path d="M -4.47088 3.54241 L -3.59414 1.74482 L 22.4709 14.4576 L 21.5941 16.2552 Z" fill="#a16349" fill-opacity="0.501961" />
<path d="M 18.302 53.1143 L 12.8857 60.302 L 5.69797 54.8857 L 11.1143 47.698 Z" fill="#050e09" fill-opacity="0.501961" />
<path d="M 74.8591 34.335 L 76.1117 43.2474 L 73.1409 43.665 L 71.8883 34.7526 Z" fill="#846f61" fill-opacity="0.501961" />
<path d="M 114.28 40.5747 L 136.496 46.5275 L 135.72 49.4253 L 113.504 43.4725 Z" fill="#544361" fill-opacity="0.501961" />
<path d="M 45.7882 32.1258 L 54.9933 36.0332 L 54.2118 37.8742 L 45.0067 33.9668 Z" fill="#9a6823" fill-opacity="0.501961" />
<path d="M 1.81248 48.3373 L 5.90824 51.2052 L 4.18752 53.6627 L 0.0917552 50.7948 Z" fill="#dca85a" fill-opacity="0.501961" />
<path d="M 38.1279 55.4632 L 44.9018 28.2949 L 45.8721 28.5368 L 39.0982 55.7051 Z" fill="#100c08" fill-opacity="0.501961" />
<path d="M 54.5 36 L 54.5 42 L 51.5 42 L 51.5 36 Z" fill="#af9785" fill-opacity="0.501961" />
<path d="M 30.1424 33.0572 L 31.3737 34.6332 L 25.8576 38.9428 L 24.6263 37.3668 Z" fill="#a18055" fill-opacity="0.501961" />
<path d="M 17.5 57.5 L 17.5 60.5 L 2.5 60.5 L 2.5 57.5 Z" fill="#6a2927" fill-opacity="0.501961" />
<path d="M 122.599 31.8959 L 125.954 29.7174 L 131.401 38.1041 L 128.046 40.2826 Z" fill="#5d4e41" fill-opacity="0.501961" />
<path d="M 87.9385 25.572 L 83.0001 26.3542 L 82.0615 20.428 L 86.9999 19.6458 Z" fill="#8e5a2e" fill-opacity="0.501961" />
<path d="M 126.537 2.99646 L 128.445 12.8127 L 127.463 13.0035 L 125.555 3.18727 Z" fill="#124471" fill-opacity="0.501961" />
<path d="M 19.8637 23.0616 L 25.7898 22.123 L 28.1363 36.9384 L 22.2102 37.877 Z" fill="#4d3239" fill-opacity="0.501961" />
<path d="M 65.107 59.871 L 63.7918 62.5674 L 62.893 62.129 L 64.2082 59.4326 Z" fill="#ba9884" fill-opacity="0.501961" />
<path d="M 69.3663 33.5492 L 68.1968 37.3745 L 58.6337 34.4508 L 59.8032 30.6255 Z" fill="#151014" fill-opacity="0.501961" />
<path d="M 41.4568 -0.914564 L 39.5394 21.0017 L 38.5432 20.9146 L 40.4606 -1.00172 Z" fill="#6f5042" fill-opacity="0.501961" />
<path d="M 41.1916 31.5423 L 40.1991 31.4204 L 40.8084 26.4577 L 41.8009 26.5796 Z" fill="#b47d64" fill-opacity="0.501961" />
<path d="M 19.4395 28.696 L -13.689 21.0477 L -11.4395 11.304 L 21.689 18.9523 Z" fill="#865748" fill-opacity="0.501961" />
<path d="M 71.5034 63.5166 L 76.1059 61.5629 L 76.4966 62.4834 L 71.8941 64.4371 Z" fill="#8a3f36" fill-opacity="0.501961" />
<path d="M 103.419 19.651 L 98.4803 18.8688 L 104.581 -19.651 L 109.52 -18.8688 Z" fill="#515e5d" fill-opacity="0.501961" />
<path d="M 95.1306 53.464 L 91.1312 53.5338 L 90.8694 38.536 L 94.8688 38.4662 Z" fill="#000708" fill-opacity="0.501961" />
<path d="M 27.3651 20.9941 L 26.3689 20.907 L 28.6349 -4.99411 L 29.6311 -4.90695 Z" fill="#5c4f51" fill-opacity="0.501961" />
<path d="M 20.0632 40.1505 L 18.9184 46.0403 L 17.9368 45.8495 L 19.0816 39.9597 Z" fill="#bb9d81" fill-opacity="0.501961" />
<path d="M 17.2162 31.8187 L 25.6667 47.7118 L 24.7838 48.1813 L 16.3333 32.2882 Z" fill="#150f16" fill-opacity="0.501961" />
<path d="M 34.9988 45.5287 L 30.2173 46.9906 L 27.0012 36.4713 L 31.7827 35.0094 Z" fill="#0f0c0a" fill-opacity="0.501961" />
<path d="M 16.143 40.6069 L 4.40163 48.2318 L 3.85699 47.3931 L 15.5984 39.7682 Z" fill="#141617" fill-opacity="0.501961" />
<path d="M 103.229 19.0906 L 101.766 33.0139 L 100.771 32.9094 L 102.234 18.9861 Z" fill="#17141c" fill-opacity="0.501961" />
<path d="M 94.1265 71.9985 L 78.5205 57.9467 L 83.8735 52.0015 L 99.4795 66.0533 Z" fill="#3e423f" fill-opacity="0.501961" />
<path d="M 41.5003 -9.19421 L 44.478 -9.55982 L 48.4997 23.1942 L 45.522 23.5598 Z" fill="#81574d" fill-opacity="0.501961" />
<path d="M 47.7642 24.9963 L 56.1088 28.3678 L 54.2358 33.0037 L 45.8912 29.6322 Z" fill="#96705a" fill-opacity="0.501961" />
<path d="M 103.919 24.8172 L 106.595 21.8446 L 108.081 23.1828 L 105.405 26.1554 Z" fill="#96534d" fill-opacity="0.501961" />
<path d="M 57.3344 11.8347 L 52.7667 13.8684 L 46.6656 0.165251 L 51.2333 -1.86843 Z" fill="#02315a" fill-opacity="0.501961" />
<path d="M 21.0968 26.8496 L 11.3531 29.0991 L 10.9032 27.1504 L 20.6469 24.9009 Z" fill="#4f3842" fill-opacity="0.501961" />
<path d="M 61.2925 60.86 L 62.4163 63.6416 L 58.7075 65.14 L 57.5837 62.3584 Z" fill="#01060a" fill-opacity="0.501961" />
<path d="M 65.0545 47.5097 L 60.5229 45.3966 L 60.9455 44.4903 L 65.4771 46.6034 Z" fill="#87661e" fill-opacity="0.501961" />
<path d="M 37.6794 22.4859 L 35.3329 7.67055 L 36.3206 7.51412 L 38.6671 22.3294 Z" fill="#a5886c" fill-opacity="0.501961" />
<path d="M 54.0025 41.7566 L 62.8658 43.3194 L 61.9975 48.2434 L 53.1342 46.6806 Z" fill="#0f0a02" fill-opacity="0.501961" />
<path d="M 77.3265 26.6092 L 76.5633 30.5357 L 70.6735 29.3908 L 71.4367 25.4643 Z" fill="#5b484f" fill-opacity="0.501961" />
<path d="M 60.7886 48.1494 L 60.0629 51.0602 L 55.2114 49.8506 L 55.9371 46.9398 Z" fill="#684f25" fill-opacity="0.501961" />
<path d="M 68.9966 51.5068 L 71.3925 49.7014 L 75.0034 54.4932 L 72.6075 56.2986 Z" fill="#bea272" fill-opacity="0.501961" />
<path d="M 44.8918 22.0702 L 45.888 21.9831 L 47.1082 35.9298 L 46.112 36.0169 Z" fill="#6e5345" fill-opacity="0.501961" />
<path d="M 40.9867 18.8676 L 42.0285 12.9588 L 43.0133 13.1324 L 41.9715 19.0412 Z" fill="#c7ab7a" fill-opacity="0.501961" />
<path d="M 19.2393 9.98808 L 24.9336 -2.80155 L 26.7607 -1.98808 L 21.0664 10.8016 Z" fill="#926252" fill-opacity="0.501961" />
<path d="M 9 27 L 11 27 L 11 35 L 9 35 Z" fill="#8b7374" fill-opacity="0.501961" />
<path d="M 21.2846 24.1671 L 16.2968 23.8183 L 16.7154 17.8329 L 21.7032 18.1817 Z" fill="#a46b58" fill-opacity="0.501961" />
<path d="M 56.0796 49.2918 L 46.0141 64.2145 L 31.9204 54.7082 L 41.9859 39.7855 Z" fill="#141314" fill-opacity="0.501961" />
<path d="M 48.5 30 L 48.5 22 L 49.5 22 L 49.5 30 Z" fill="#c3a88a" fill-opacity="0.501961" />
<path d="M 5.96884 20.6655 L 1.00611 21.2749 L 0.0311572 13.3345 L 4.99389 12.7251 Z" fill="#9e735b" fill-opacity="0.501961" />
<path d="M 33.8307 -7.85165 L 32.1583 8.0607 L 30.1693 7.85165 L 31.8417 -8.0607 Z" fill="#c2b09c" fill-opacity="0.501961" />
<path d="M 96.9378 31.7679 L 109.062 24.7679 L 111.062 28.2321 L 98.9378 35.2321 Z" fill="#201817" fill-opacity="0.501961" />
<path d="M 120.009 17.1532 L 115.028 16.7174 L 117.991 -17.1532 L 122.972 -16.7174 Z" fill="#373525" fill-opacity="0.501961" />
<path d="M 124.19 5.88272 L 120.481 -0.0536124 L 129.81 -5.88272 L 133.519 0.0536124 Z" fill="#68747c" fill-opacity="0.501961" />
<path d="M 37.5057 42.4943 L 36.707 43.0961 L 32.4943 37.5057 L 33.293 36.9039 Z" fill="#bea284" fill-opacity="0.501961" />
<path d="M 77.657 39.5617 L 71.0792 41.9558 L 68.343 34.4383 L 74.9208 32.0442 Z" fill="#5c4e48" fill-opacity="0.501961" />
<path d="M 97.727 29.4204 L 95.8999 30.2338 L 94.273 26.5796 L 96.1001 25.7662 Z" fill="#8a5c5c" fill-opacity="0.501961" />
<path d="M 55.8354 37.7851 L 63.8159 37.2271 L 64.1646 42.2149 L 56.1841 42.7729 Z" fill="#2f2022" fill-opacity="0.501961" />
<path d="M 40.0333 7.82085 L 39.2902 7.15172 L 41.9667 4.17915 L 42.7098 4.84828 Z" fill="#c28000" fill-opacity="0.501961" />
<path d="M 80.4869 27.451 L 90.0131 21.951 L 91.5131 24.549 L 81.9869 30.049 Z" fill="#484249" fill-opacity="0.501961" />
<path d="M 103.931 21.1316 L 104.088 18.1357 L 118.069 18.8684 L 117.912 21.8643 Z" fill="#2b2a25" fill-opacity="0.501961" />
<path d="M 73.5551 45.0997 L 73.9135 46.0333 L 66.4449 48.9003 L 66.0865 47.9667 Z" fill="#5a3a2e" fill-opacity="0.501961" />
<path d="M 68.4772 36.2355 L 68.9156 37.1343 L 63.5228 39.7645 L 63.0844 38.8657 Z" fill="#a76d4e" fill-opacity="0.501961" />
<path d="M 49.9758 49.9734 L 64.648 53.0921 L 64.0242 56.0266 L 49.352 52.9079 Z" fill="#1a1211" fill-opacity="0.501961" />
<path d="M 55.5 21.5 L 55.5 -7.5 L 66.5 -7.5 L 66.5 21.5 Z" fill="#2c4a6b" fill-opacity="0.501961" />
<path d="M 44.3293 35.6107 L 47.322 35.4015 L 47.6707 40.3893 L 44.678 40.5985 Z" fill="#b49a8b" fill-opacity="0.501961" />
<path d="M 48.6041 34.49 L 42.2093 37.3371 L 41.3959 35.51 L 47.7907 32.6629 Z" fill="#60432f" fill-opacity="0.501961" />
<path d="M 63.2532 36.0642 L 53.8638 18.4053 L 54.7468 17.9358 L 64.1362 35.5947 Z" fill="#42323b" fill-opacity="0.501961" />
<path d="M 97.5021 41.2078 L 127.933 47.1229 L 124.498 64.7922 L 94.0675 58.8771 Z" fill="#303b39" fill-opacity="0.501961" />
<path d="M 14.2759 29.671 L 15.2575 29.8618 L 9.72408 58.329 L 8.74246 58.1382 Z" fill="#090c08" fill-opacity="0.501961" />
<path d="M 12.5377 60.5382 L 13.1255 61.3473 L 7.46233 65.4618 L 6.87455 64.6527 Z" fill="#984524" fill-opacity="0.501961" />
<path d="M 66.0929 31.9856 L 69.9752 17.4967 L 71.9071 18.0144 L 68.0248 32.5033 Z" fill="#2c2c2e" fill-opacity="0.501961" />
<path d="M 7.82652 3.99433 L -2.97138 1.89543 L -1.82652 -3.99433 L 8.97138 -1.89543 Z" fill="#763422" fill-opacity="0.501961" />
<path d="M 81.2977 43.5753 L 81.5056 44.5535 L 72.7023 46.4247 L 72.4944 45.4465 Z" fill="#070405" fill-opacity="0.501961" />
<path d="M 15.3456 43.4838 L 14.3674 43.2759 L 16.6544 32.5162 L 17.6326 32.7241 Z" fill="#251e1d" fill-opacity="0.501961" />
<path d="M 89.0018 5.71811 L 86.4266 1.43227 L 94.9982 -3.71811 L 97.5734 0.567728 Z" fill="#00486d" fill-opacity="0.501961" />
<path d="M 28.814 30.9424 L 41.4279 34.0873 L 41.186 35.0576 L 28.5721 31.9127 Z" fill="#0b0f0b" fill-opacity="0.501961" />
<path d="M 111.317 -5.23892 L 108.658 11.5518 L 106.683 11.2389 L 109.342 -5.55179 Z" fill="#2b3127" fill-opacity="0.501961" />
<path d="M 28.2635 31.7649 L 30.7584 20.0272 L 31.7365 20.2351 L 29.2416 31.9728 Z" fill="#6f5c4e" fill-opacity="0.501961" />
<path d="M 39.0705 22.7007 L 39.9076 34.6715 L 30.9295 35.2993 L 30.0924 23.3285 Z" fill="#0f0f0b" fill-opacity="0.501961" />
<path d="M 26.2049 42.9435 L 19.5094 54.0866 L 17.7951 53.0565 L 24.4906 41.9134 Z" fill="#35130b" fill-opacity="0.501961" />
<path d="M 18.2884 46.4189 L 13.3643 45.5507 L 13.7116 43.5811 L 18.6357 44.4493 Z" fill="#b89c7b" fill-opacity="0.501961" />
<path d="M 88.9516 45.2322 L 92.0703 30.5599 L 93.0484 30.7678 L 89.9297 45.4401 Z" fill="#000913" fill-opacity="0.501961" />
<path d="M 16.8903 23.4393 L 15.8941 23.5265 L 15.1097 14.5607 L 16.1059 14.4735 Z" fill="#4a3026" fill-opacity="0.501961" />
<path d="M 25.6739 16.5797 L 26.6701 16.4926 L 28.3261 35.4203 L 27.3299 35.5074 Z" fill="#363c44" fill-opacity="0.501961" />
<path d="M 104.804 -6.11094 L 105.679 -5.62613 L 89.1955 24.1109 L 88.3209 23.6261 Z" fill="#294048" fill-opacity="0.501961" />
<path d="M 117.331 4.88518 L 111.293 10.1337 L 108.669 7.11482 L 114.707 1.86634 Z" fill="#655743" fill-opacity="0.501961" />
<path d="M 51.6432 30.0088 L 50.6506 29.8869 L 52.3568 15.9912 L 53.3494 16.1131 Z" fill="#7a3f36" fill-opacity="0.501961" />
<path d="M 27.8561 29.8765 L 26.8616 29.981 L 24.1439 4.12348 L 25.1384 4.01895 Z" fill="#3b2620" fill-opacity="0.501961" />
<path d="M 18.4127 -2.00796 L 18.5872 7.99051 L 17.5873 8.00796 L 17.4128 -1.99051 Z" fill="#150e0f" fill-opacity="0.501961" />
<path d="M 63.2523 52.9045 L 60.5559 51.5894 L 62.7477 47.0955 L 65.4441 48.4106 Z" fill="#000c0c" fill-opacity="0.501961" />
<path d="M 77.9772 59.1642 L 71.5824 56.3171 L 74.0228 50.8358 L 80.4176 53.6829 Z" fill="#c0997f" fill-opacity="0.501961" />
<path d="M -2.33467 44.9756 L -1.76109 44.1565 L 2.33467 47.0244 L 1.76109 47.8435 Z" fill="#262d36" fill-opacity="0.501961" />
<path d="M 56.0475 60.117 L 55.0779 58.3678 L 55.9525 57.883 L 56.9221 59.6322 Z" fill="#e2c095" fill-opacity="0.501961" />
<path d="M 90.5964 12.109 L 76.3306 16.7442 L 75.4036 13.891 L 89.6694 9.25579 Z" fill="#44545e" fill-opacity="0.501961" />
<path d="M 76.0284 39.1447 L 76.8553 42.0284 L 73.9716 42.8553 L 73.1447 39.9716 Z" fill="#a97f68" fill-opacity="0.501961" />
<path d="M 48.8505 13.9716 L 49.8467 14.0588 L 49.1495 22.0284 L 48.1533 21.9412 Z" fill="#ad9883" fill-opacity="0.501961" />
<path d="M 83.9424 15.9911 L 92.3996 19.0692 L 92.0576 20.0089 L 83.6004 16.9308 Z" fill="#191819" fill-opacity="0.501961" />
<path d="M 27.2766 38.6942 L 24.3058 38.2766 L 24.7234 35.3058 L 27.6942 35.7234 Z" fill="#91805a" fill-opacity="0.501961" />
<path d="M 8.99772 49.9932 L 4.20591 53.6041 L 3.00228 52.0068 L 7.79409 48.3959 Z" fill="#c39b62" fill-opacity="0.501961" />
<path d="M 51.9127 44.7862 L 45.0413 46.1219 L 44.0873 41.2138 L 50.9587 39.8781 Z" fill="#31231a" fill-opacity="0.501961" />
<path d="M 19.925 -8.95876 L 20.9236 -9.01109 L 22.075 12.9588 L 21.0764 13.0111 Z" fill="#584c49" fill-opacity="0.501961" />
<path d="M 84.2209 47.0506 L 84.4459 48.025 L 71.7791 50.9494 L 71.5541 49.975 Z" fill="#92673d" fill-opacity="0.501961" />
<path d="M 85.1261 34.0369 L 89.5724 46.253 L 84.8739 47.9631 L 80.4276 35.747 Z" fill="#484044" fill-opacity="0.501961" />
<path d="M 65.7915 31.459 L 67.1697 36.2653 L 66.2085 36.541 L 64.8303 31.7347 Z" fill="#000000" fill-opacity="0.501961" />
<path d="M 110.643 36.1802 L 111.27 42.1473 L 95.3574 43.8198 L 94.7302 37.8527 Z" fill="#413543" fill-opacity="0.501961" />
<path d="M 54.8138 48.7587 L 54.2413 45.8138 L 57.1862 45.2413 L 57.7587 48.1862 Z" fill="#622f00" fill-opacity="0.501961" />
<path d="M 45.5945 37.0447 L 45.4726 36.0521 L 54.4055 34.9553 L 54.5274 35.9479 Z" fill="#957044" fill-opacity="0.501961" />
<path d="M 47.4689 9.17702 L 54.3403 7.84135 L 54.5311 8.82298 L 47.6597 10.1586 Z" fill="#01355c" fill-opacity="0.501961" />
<path d="M 79.1816 34.2714 L 76.8919 22.4919 L 80.8184 21.7286 L 83.1081 33.5081 Z" fill="#1c1d1f" fill-opacity="0.501961" />
<path d="M 4.18301 57.951 L 2.68301 60.549 L 1.81699 60.049 L 3.31699 57.451 Z" fill="#8f584e" fill-opacity="0.501961" />
<path d="M 55.7604 35.6472 L 55.131 34.8701 L 58.2396 32.3528 L 58.869 33.1299 Z" fill="#ca9043" fill-opacity="0.501961" />
<path d="M 101.657 18.6957 L 101.127 19.5437 L 94.3428 15.3043 L 94.8728 14.4563 Z" fill="#132d3f" fill-opacity="0.501961" />
<path d="M 39.452 27.2862 L 45.6083 10.3718 L 46.548 10.7138 L 40.3917 27.6282 Z" fill="#7c523f" fill-opacity="0.501961" />
<path d="M 58.398 20.8411 L 58.6074 14.8448 L 67.602 15.1589 L 67.3926 21.1552 Z" fill="#44546f" fill-opacity="0.501961" />
</g>
</svg>
