<svg version="1.1" width="1440" height="1164" xmlns="http://www.w3.org/2000/svg">
<rect x="0" y="0" width="1440" height="1164" fill="#ba997f" />
<g transform="scale(11.25, 11.301)">
<path d="M 27.5772 41.8076 C 42.8076 46.8844, 42.8076 55.1156, 27.5772 60.1924 C 12.3467 65.2692, -12.3467 65.2692, -27.5772 60.1924 C -42.8076 55.1156, -42.8076 46.8844, -27.5772 41.8076 C -12.3467 36.7308, 12.3467 36.7308, 27.5772 41.8076" fill="#148fd7" fill-opacity="0.501961" />
<path d="M 53.5269 -0.313708 C 71.491 5.93468, 71.491 16.0653, 53.5269 22.3137 C 35.5628 28.5621, 6.43721 28.5621, -11.5269 22.3137 C -29.491 16.0653, -29.491 5.93468, -11.5269 -0.313708 C 6.43721 -6.5621, 35.5628 -6.5621, 53.5269 -0.313708" fill="#5cbbd9" fill-opacity="0.501961" />
<path d="M 74.6066 91.8076 C 80.4645 96.8844, 80.4645 105.116, 74.6066 110.192 C 68.7487 115.269, 59.2513 115.269, 53.3934 110.192 C 47.5355 105.116, 47.5355 96.8844, 53.3934 91.8076 C 59.2513 86.7308, 68.7487 86.7308, 74.6066 91.8076" fill="#004e39" fill-opacity="0.501961" />
<path d="M 158.518 54.9081 C 192.494 65.4523, 192.494 82.5477, 158.518 93.0919 C 124.543 103.636, 69.4573 103.636, 35.4817 93.0919 C 1.5061 82.5477, 1.5061 65.4523, 35.4817 54.9081 C 69.4573 44.364, 124.543 44.364, 158.518 54.9081" fill="#d88258" fill-opacity="0.501961" />
<path d="M 122.406 15.3223 C 139.198 25.0854, 139.198 40.9146, 122.406 50.6777 C 105.613 60.4408, 78.387 60.4408, 61.5944 50.6777 C 44.8019 40.9146, 44.8019 25.0854, 61.5944 15.3223 C 78.387 5.55922, 105.613 5.55922, 122.406 15.3223" fill="#f3c07f" fill-opacity="0.501961" />
<path d="M 74.6569 88.2218 C 77.781 92.5176, 77.781 99.4824, 74.6569 103.778 C 71.5327 108.074, 66.4673 108.074, 63.3431 103.778 C 60.219 99.4824, 60.219 92.5176, 63.3431 88.2218 C 66.4673 83.9261, 71.5327 83.9261, 74.6569 88.2218" fill="#007b6d" fill-opacity="0.501961" />
<path d="M 120.657 92.8076 C 123.781 97.8844, 123.781 106.116, 120.657 111.192 C 117.533 116.269, 112.467 116.269, 109.343 111.192 C 106.219 106.116, 106.219 97.8844, 109.343 92.8076 C 112.467 87.7308, 117.533 87.7308, 120.657 92.8076" fill="#452d31" fill-opacity="0.501961" />
<path d="M 7.77817 20.2218 C 12.0739 24.5176, 12.0739 31.4824, 7.77817 35.7782 C 3.48241 40.0739, -3.48241 40.0739, -7.77817 35.7782 C -12.0739 31.4824, -12.0739 24.5176, -7.77817 20.2218 C -3.48241 15.9261, 3.48241 15.9261, 7.77817 20.2218" fill="#3c9ed6" fill-opacity="0.501961" />
<path d="M 47.8492 26.3431 C 56.0503 29.4673, 56.0503 34.5327, 47.8492 37.6569 C 39.6482 40.781, 26.3518 40.781, 18.1508 37.6569 C 9.94975 34.5327, 9.94975 29.4673, 18.1508 26.3431 C 26.3518 23.219, 39.6482 23.219, 47.8492 26.3431" fill="#ff9876" fill-opacity="0.501961" />
<path d="M 93.8492 -2.24264 C 102.05 0.100505, 102.05 3.89949, 93.8492 6.24264 C 85.6482 8.58579, 72.3518 8.58579, 64.1508 6.24264 C 55.9497 3.89949, 55.9497 0.100505, 64.1508 -2.24264 C 72.3518 -4.58579, 85.6482 -4.58579, 93.8492 -2.24264" fill="#70c2c3" fill-opacity="0.501961" />
<path d="M 9.19239 62.1716 C 14.2692 63.7337, 14.2692 66.2663, 9.19239 67.8284 C 4.11557 69.3905, -4.11557 69.3905, -9.19239 67.8284 C -14.2692 66.2663, -14.2692 63.7337, -9.19239 62.1716 C -4.11557 60.6095, 4.11557 60.6095, 9.19239 62.1716" fill="#0066b6" fill-opacity="0.501961" />
<path d="M 46.4853 65.9081 C 51.1716 76.4523, 51.1716 93.5477, 46.4853 104.092 C 41.799 114.636, 34.201 114.636, 29.5147 104.092 C 24.8284 93.5477, 24.8284 76.4523, 29.5147 65.9081 C 34.201 55.364, 41.799 55.364, 46.4853 65.9081" fill="#e0b98e" fill-opacity="0.501961" />
<path d="M 29.3137 87.8579 C 35.5621 95.6684, 35.5621 108.332, 29.3137 116.142 C 23.0653 123.953, 12.9347 123.953, 6.68629 116.142 C 0.437903 108.332, 0.437903 95.6684, 6.68629 87.8579 C 12.9347 80.0474, 23.0653 80.0474, 29.3137 87.8579" fill="#e16353" fill-opacity="0.501961" />
<path d="M 43.6066 41.0503 C 49.4645 43.7839, 49.4645 48.2161, 43.6066 50.9497 C 37.7487 53.6834, 28.2513 53.6834, 22.3934 50.9497 C 16.5355 48.2161, 16.5355 43.7839, 22.3934 41.0503 C 28.2513 38.3166, 37.7487 38.3166, 43.6066 41.0503" fill="#5096be" fill-opacity="0.501961" />
<path d="M 110.536 47.636 C 112.488 51.1508, 112.488 56.8492, 110.536 60.364 C 108.583 63.8787, 105.417 63.8787, 103.464 60.364 C 101.512 56.8492, 101.512 51.1508, 103.464 47.636 C 105.417 44.1213, 108.583 44.1213, 110.536 47.636" fill="#9f3528" fill-opacity="0.501961" />
<path d="M 69.8995 78.0503 C 75.3668 80.7839, 75.3668 85.2161, 69.8995 87.9497 C 64.4322 90.6834, 55.5678 90.6834, 50.1005 87.9497 C 44.6332 85.2161, 44.6332 80.7839, 50.1005 78.0503 C 55.5678 75.3166, 64.4322 75.3166, 69.8995 78.0503" fill="#dd4f33" fill-opacity="0.501961" />
<path d="M 47.4056 17.8787 C 64.1981 19.0503, 64.1981 20.9497, 47.4056 22.1213 C 30.613 23.2929, 3.38695 23.2929, -13.4056 22.1213 C -30.1981 20.9497, -30.1981 19.0503, -13.4056 17.8787 C 3.38695 16.7071, 30.613 16.7071, 47.4056 17.8787" fill="#307eb7" fill-opacity="0.501961" />
<path d="M 90.2426 87.1716 C 92.5858 88.7337, 92.5858 91.2663, 90.2426 92.8284 C 87.8995 94.3905, 84.1005 94.3905, 81.7574 92.8284 C 79.4142 91.2663, 79.4142 88.7337, 81.7574 87.1716 C 84.1005 85.6095, 87.8995 85.6095, 90.2426 87.1716" fill="#286273" fill-opacity="0.501961" />
<path d="M 94.0208 30.3223 C 100.66 40.0854, 100.66 55.9146, 94.0208 65.6777 C 87.3819 75.4408, 76.6181 75.4408, 69.9792 65.6777 C 63.3403 55.9146, 63.3403 40.0854, 69.9792 30.3223 C 76.6181 20.5592, 87.3819 20.5592, 94.0208 30.3223" fill="#d6bb8c" fill-opacity="0.501961" />
<path d="M 97.8284 75.4645 C 99.3905 77.4171, 99.3905 80.5829, 97.8284 82.5355 C 96.2663 84.4882, 93.7337 84.4882, 92.1716 82.5355 C 90.6095 80.5829, 90.6095 77.4171, 92.1716 75.4645 C 93.7337 73.5118, 96.2663 73.5118, 97.8284 75.4645" fill="#313f57" fill-opacity="0.501961" />
<path d="M 136.728 32.9289 C 143.757 36.8342, 143.757 43.1658, 136.728 47.0711 C 129.698 50.9763, 118.302 50.9763, 111.272 47.0711 C 104.243 43.1658, 104.243 36.8342, 111.272 32.9289 C 118.302 29.0237, 129.698 29.0237, 136.728 32.9289" fill="#dde653" fill-opacity="0.501961" />
<path d="M 17.6777 0.221825 C 27.4408 4.51759, 27.4408 11.4824, 17.6777 15.7782 C 7.91456 20.0739, -7.91456 20.0739, -17.6777 15.7782 C -27.4408 11.4824, -27.4408 4.51759, -17.6777 0.221825 C -7.91456 -4.07394, 7.91456 -4.07394, 17.6777 0.221825" fill="#c0c8aa" fill-opacity="0.501961" />
<path d="M 156.941 6.10051 C 175.686 11.5678, 175.686 20.4322, 156.941 25.8995 C 138.196 31.3668, 107.804 31.3668, 89.0589 25.8995 C 70.3137 20.4322, 70.3137 11.5678, 89.0589 6.10051 C 107.804 0.633165, 138.196 0.633165, 156.941 6.10051" fill="#eb9e81" fill-opacity="0.501961" />
<path d="M 120.385 98.4645 C 130.538 100.417, 130.538 103.583, 120.385 105.536 C 110.231 107.488, 93.7689 107.488, 83.6152 105.536 C 73.4616 103.583, 73.4616 100.417, 83.6152 98.4645 C 93.7689 96.5118, 110.231 96.5118, 120.385 98.4645" fill="#e25a3f" fill-opacity="0.501961" />
<path d="M 103.142 57.2218 C 110.953 61.5176, 110.953 68.4824, 103.142 72.7782 C 95.3316 77.0739, 82.6684 77.0739, 74.8579 72.7782 C 67.0474 68.4824, 67.0474 61.5176, 74.8579 57.2218 C 82.6684 52.9261, 95.3316 52.9261, 103.142 57.2218" fill="#e0a659" fill-opacity="0.501961" />
<path d="M 80.3137 38.0503 C 86.5621 40.7839, 86.5621 45.2161, 80.3137 47.9497 C 74.0653 50.6834, 63.9347 50.6834, 57.6863 47.9497 C 51.4379 45.2161, 51.4379 40.7839, 57.6863 38.0503 C 63.9347 35.3166, 74.0653 35.3166, 80.3137 38.0503" fill="#bfba53" fill-opacity="0.501961" />
<path d="M 59.9497 78.5147 C 62.6834 83.201, 62.6834 90.799, 59.9497 95.4853 C 57.2161 100.172, 52.7839 100.172, 50.0503 95.4853 C 47.3166 90.799, 47.3166 83.201, 50.0503 78.5147 C 52.7839 73.8284, 57.2161 73.8284, 59.9497 78.5147" fill="#e56243" fill-opacity="0.501961" />
<path d="M 96.9497 29.6863 C 99.6834 35.9347, 99.6834 46.0653, 96.9497 52.3137 C 94.2161 58.5621, 89.7839 58.5621, 87.0503 52.3137 C 84.3166 46.0653, 84.3166 35.9347, 87.0503 29.6863 C 89.7839 23.4379, 94.2161 23.4379, 96.9497 29.6863" fill="#ddb4b9" fill-opacity="0.501961" />
<path d="M 126.485 53.8579 C 131.172 61.6684, 131.172 74.3316, 126.485 82.1421 C 121.799 89.9526, 114.201 89.9526, 109.515 82.1421 C 104.828 74.3316, 104.828 61.6684, 109.515 53.8579 C 114.201 46.0474, 121.799 46.0474, 126.485 53.8579" fill="#dc765a" fill-opacity="0.501961" />
<path d="M 86.5563 49.8787 C 95.1479 51.0503, 95.1479 52.9497, 86.5563 54.1213 C 77.9648 55.2929, 64.0352 55.2929, 55.4437 54.1213 C 46.8521 52.9497, 46.8521 51.0503, 55.4437 49.8787 C 64.0352 48.7071, 77.9648 48.7071, 86.5563 49.8787" fill="#d1bdba" fill-opacity="0.501961" />
<path d="M 72.1924 99.1716 C 77.2692 100.734, 77.2692 103.266, 72.1924 104.828 C 67.1156 106.391, 58.8844 106.391, 53.8076 104.828 C 48.7308 103.266, 48.7308 100.734, 53.8076 99.1716 C 58.8844 97.6095, 67.1156 97.6095, 72.1924 99.1716" fill="#005e46" fill-opacity="0.501961" />
<path d="M 84.2426 73.2218 C 86.5858 77.5176, 86.5858 84.4824, 84.2426 88.7782 C 81.8995 93.0739, 78.1005 93.0739, 75.7574 88.7782 C 73.4142 84.4824, 73.4142 77.5176, 75.7574 73.2218 C 78.1005 68.9261, 81.8995 68.9261, 84.2426 73.2218" fill="#efb575" fill-opacity="0.501961" />
<path d="M 83.4853 13.3431 C 88.1716 16.4673, 88.1716 21.5327, 83.4853 24.6569 C 78.799 27.781, 71.201 27.781, 66.5147 24.6569 C 61.8284 21.5327, 61.8284 16.4673, 66.5147 13.3431 C 71.201 10.219, 78.799 10.219, 83.4853 13.3431" fill="#d5a34d" fill-opacity="0.501961" />
<path d="M 25.2426 63.3431 C 27.5858 66.4673, 27.5858 71.5327, 25.2426 74.6569 C 22.8995 77.781, 19.1005 77.781, 16.7574 74.6569 C 14.4142 71.5327, 14.4142 66.4673, 16.7574 63.3431 C 19.1005 60.219, 22.8995 60.219, 25.2426 63.3431" fill="#bf5340" fill-opacity="0.501961" />
<path d="M 13.6569 73.9289 C 16.781 77.8342, 16.781 84.1658, 13.6569 88.0711 C 10.5327 91.9763, 5.46734 91.9763, 2.34315 88.0711 C -0.781049 84.1658, -0.781049 77.8342, 2.34315 73.9289 C 5.46734 70.0237, 10.5327 70.0237, 13.6569 73.9289" fill="#e5a497" fill-opacity="0.501961" />
<path d="M 56.2426 56.1716 C 58.5858 57.7337, 58.5858 60.2663, 56.2426 61.8284 C 53.8995 63.3905, 50.1005 63.3905, 47.7574 61.8284 C 45.4142 60.2663, 45.4142 57.7337, 47.7574 56.1716 C 50.1005 54.6095, 53.8995 54.6095, 56.2426 56.1716" fill="#646d64" fill-opacity="0.501961" />
<path d="M 142.506 10.4645 C 153.831 12.4171, 153.831 15.5829, 142.506 17.5355 C 131.181 19.4882, 112.819 19.4882, 101.494 17.5355 C 90.1687 15.5829, 90.1687 12.4171, 101.494 10.4645 C 112.819 8.51184, 131.181 8.51184, 142.506 10.4645" fill="#d6bbae" fill-opacity="0.501961" />
<path d="M 115.192 4.17157 C 120.269 5.73367, 120.269 8.26633, 115.192 9.82843 C 110.116 11.3905, 101.884 11.3905, 96.8076 9.82843 C 91.7308 8.26633, 91.7308 5.73367, 96.8076 4.17157 C 101.884 2.60948, 110.116 2.60948, 115.192 4.17157" fill="#eb7f4a" fill-opacity="0.501961" />
<path d="M 15.8995 19.0503 C 21.3668 21.7839, 21.3668 26.2161, 15.8995 28.9497 C 10.4322 31.6834, 1.56785 31.6834, -3.89949 28.9497 C -9.36684 26.2161, -9.36684 21.7839, -3.89949 19.0503 C 1.56785 16.3166, 10.4322 16.3166, 15.8995 19.0503" fill="#5b9abb" fill-opacity="0.501961" />
<path d="M 17.9497 32.4645 C 20.6834 34.4171, 20.6834 37.5829, 17.9497 39.5355 C 15.2161 41.4882, 10.7839 41.4882, 8.05025 39.5355 C 5.31658 37.5829, 5.31658 34.4171, 8.05025 32.4645 C 10.7839 30.5118, 15.2161 30.5118, 17.9497 32.4645" fill="#f6966f" fill-opacity="0.501961" />
<path d="M 118.828 90.8787 C 120.391 92.0503, 120.391 93.9497, 118.828 95.1213 C 117.266 96.2929, 114.734 96.2929, 113.172 95.1213 C 111.609 93.9497, 111.609 92.0503, 113.172 90.8787 C 114.734 89.7071, 117.266 89.7071, 118.828 90.8787" fill="#0c5164" fill-opacity="0.501961" />
<path d="M 60.435 32.4645 C 67.855 34.4171, 67.855 37.5829, 60.435 39.5355 C 53.0151 41.4882, 40.9849 41.4882, 33.565 39.5355 C 26.145 37.5829, 26.145 34.4171, 33.565 32.4645 C 40.9849 30.5118, 53.0151 30.5118, 60.435 32.4645" fill="#e6a597" fill-opacity="0.501961" />
<path d="M 90.2426 65.1005 C 92.5858 70.5678, 92.5858 79.4322, 90.2426 84.8995 C 87.8995 90.3668, 84.1005 90.3668, 81.7574 84.8995 C 79.4142 79.4322, 79.4142 70.5678, 81.7574 65.1005 C 84.1005 59.6332, 87.8995 59.6332, 90.2426 65.1005" fill="#d6814e" fill-opacity="0.501961" />
<path d="M 72.8284 71.636 C 74.3905 75.1508, 74.3905 80.8492, 72.8284 84.364 C 71.2663 87.8787, 68.7337 87.8787, 67.1716 84.364 C 65.6095 80.8492, 65.6095 75.1508, 67.1716 71.636 C 68.7337 68.1213, 71.2663 68.1213, 72.8284 71.636" fill="#e4573c" fill-opacity="0.501961" />
<path d="M 110.243 93.3431 C 112.586 96.4673, 112.586 101.533, 110.243 104.657 C 107.899 107.781, 104.101 107.781, 101.757 104.657 C 99.4142 101.533, 99.4142 96.4673, 101.757 93.3431 C 104.101 90.219, 107.899 90.219, 110.243 93.3431" fill="#8e4d3f" fill-opacity="0.501961" />
<path d="M 67.3137 -6.6066 C 73.5621 -0.748737, 73.5621 8.74874, 67.3137 14.6066 C 61.0653 20.4645, 50.9347 20.4645, 44.6863 14.6066 C 38.4379 8.74874, 38.4379 -0.748737, 44.6863 -6.6066 C 50.9347 -12.4645, 61.0653 -12.4645, 67.3137 -6.6066" fill="#8faba8" fill-opacity="0.501961" />
<path d="M 60.1213 61.5147 C 61.2929 66.201, 61.2929 73.799, 60.1213 78.4853 C 58.9497 83.1716, 57.0503 83.1716, 55.8787 78.4853 C 54.7071 73.799, 54.7071 66.201, 55.8787 61.5147 C 57.0503 56.8284, 58.9497 56.8284, 60.1213 61.5147" fill="#e7af91" fill-opacity="0.501961" />
<path d="M 84.6569 9.87868 C 87.781 11.0503, 87.781 12.9497, 84.6569 14.1213 C 81.5327 15.2929, 76.4673 15.2929, 73.3431 14.1213 C 70.219 12.9497, 70.219 11.0503, 73.3431 9.87868 C 76.4673 8.70711, 81.5327 8.70711, 84.6569 9.87868" fill="#f3644a" fill-opacity="0.501961" />
<path d="M 113.536 65.9792 C 115.488 72.6181, 115.488 83.3819, 113.536 90.0208 C 111.583 96.6597, 108.417 96.6597, 106.464 90.0208 C 104.512 83.3819, 104.512 72.6181, 106.464 65.9792 C 108.417 59.3403, 111.583 59.3403, 113.536 65.9792" fill="#d69f6f" fill-opacity="0.501961" />
<path d="M 127.828 69.4437 C 129.391 78.0352, 129.391 91.9648, 127.828 100.556 C 126.266 109.148, 123.734 109.148, 122.172 100.556 C 120.609 91.9648, 120.609 78.0352, 122.172 69.4437 C 123.734 60.8521, 126.266 60.8521, 127.828 69.4437" fill="#ef8d7a" fill-opacity="0.501961" />
<path d="M 37.1213 75.2929 C 38.2929 75.6834, 38.2929 76.3166, 37.1213 76.7071 C 35.9497 77.0976, 34.0503 77.0976, 32.8787 76.7071 C 31.7071 76.3166, 31.7071 75.6834, 32.8787 75.2929 C 34.0503 74.9024, 35.9497 74.9024, 37.1213 75.2929" fill="#00609b" fill-opacity="0.501961" />
<path d="M 86.1213 91.5858 C 87.2929 92.3668, 87.2929 93.6332, 86.1213 94.4142 C 84.9497 95.1953, 83.0503 95.1953, 81.8787 94.4142 C 80.7071 93.6332, 80.7071 92.3668, 81.8787 91.5858 C 83.0503 90.8047, 84.9497 90.8047, 86.1213 91.5858" fill="#004c93" fill-opacity="0.501961" />
<path d="M 53.1213 42.1716 C 54.2929 43.7337, 54.2929 46.2663, 53.1213 47.8284 C 51.9497 49.3905, 50.0503 49.3905, 48.8787 47.8284 C 47.7071 46.2663, 47.7071 43.7337, 48.8787 42.1716 C 50.0503 40.6095, 51.9497 40.6095, 53.1213 42.1716" fill="#a2443d" fill-opacity="0.501961" />
<path d="M 98.5355 74.636 C 100.488 78.1508, 100.488 83.8492, 98.5355 87.364 C 96.5829 90.8787, 93.4171 90.8787, 91.4645 87.364 C 89.5118 83.8492, 89.5118 78.1508, 91.4645 74.636 C 93.4171 71.1213, 96.5829 71.1213, 98.5355 74.636" fill="#925e53" fill-opacity="0.501961" />
<path d="M 75.1213 87.8076 C 76.2929 92.8844, 76.2929 101.116, 75.1213 106.192 C 73.9497 111.269, 72.0503 111.269, 70.8787 106.192 C 69.7071 101.116, 69.7071 92.8844, 70.8787 87.8076 C 72.0503 82.7308, 73.9497 82.7308, 75.1213 87.8076" fill="#136c59" fill-opacity="0.501961" />
<path d="M 104.121 39.636 C 105.293 43.1508, 105.293 48.8492, 104.121 52.364 C 102.95 55.8787, 101.05 55.8787, 99.8787 52.364 C 98.7071 48.8492, 98.7071 43.1508, 99.8787 39.636 C 101.05 36.1213, 102.95 36.1213, 104.121 39.636" fill="#e16a49" fill-opacity="0.501961" />
<path d="M 69.5355 86.7574 C 71.4882 89.1005, 71.4882 92.8995, 69.5355 95.2426 C 67.5829 97.5858, 64.4171 97.5858, 62.4645 95.2426 C 60.5118 92.8995, 60.5118 89.1005, 62.4645 86.7574 C 64.4171 84.4142, 67.5829 84.4142, 69.5355 86.7574" fill="#60a28c" fill-opacity="0.501961" />
<path d="M 102.435 25.7574 C 109.855 28.1005, 109.855 31.8995, 102.435 34.2426 C 95.0151 36.5858, 82.9849 36.5858, 75.565 34.2426 C 68.145 31.8995, 68.145 28.1005, 75.565 25.7574 C 82.9849 23.4142, 95.0151 23.4142, 102.435 25.7574" fill="#e5a29d" fill-opacity="0.501961" />
<path d="M 22.5355 79.2218 C 24.4882 83.5176, 24.4882 90.4824, 22.5355 94.7782 C 20.5829 99.0739, 17.4171 99.0739, 15.4645 94.7782 C 13.5118 90.4824, 13.5118 83.5176, 15.4645 79.2218 C 17.4171 74.9261, 20.5829 74.9261, 22.5355 79.2218" fill="#b4635d" fill-opacity="0.501961" />
<path d="M 112.414 95.1716 C 113.195 96.7337, 113.195 99.2663, 112.414 100.828 C 111.633 102.391, 110.367 102.391, 109.586 100.828 C 108.805 99.2663, 108.805 96.7337, 109.586 95.1716 C 110.367 93.6095, 111.633 93.6095, 112.414 95.1716" fill="#18484d" fill-opacity="0.501961" />
<path d="M 103.314 95.636 C 109.562 99.1508, 109.562 104.849, 103.314 108.364 C 97.0653 111.879, 86.9347 111.879, 80.6863 108.364 C 74.4379 104.849, 74.4379 99.1508, 80.6863 95.636 C 86.9347 92.1213, 97.0653 92.1213, 103.314 95.636" fill="#e5785f" fill-opacity="0.501961" />
<path d="M 134.314 1.87868 C 140.562 3.05025, 140.562 4.94975, 134.314 6.12132 C 128.065 7.29289, 117.935 7.29289, 111.686 6.12132 C 105.438 4.94975, 105.438 3.05025, 111.686 1.87868 C 117.935 0.707107, 128.065 0.707107, 134.314 1.87868" fill="#df744f" fill-opacity="0.501961" />
<path d="M 117.121 73.0503 C 118.293 75.7839, 118.293 80.2161, 117.121 82.9497 C 115.95 85.6834, 114.05 85.6834, 112.879 82.9497 C 111.707 80.2161, 111.707 75.7839, 112.879 73.0503 C 114.05 70.3166, 115.95 70.3166, 117.121 73.0503" fill="#b24f42" fill-opacity="0.501961" />
<path d="M 41.364 25.0503 C 44.8787 27.7839, 44.8787 32.2161, 41.364 34.9497 C 37.8492 37.6834, 32.1508 37.6834, 28.636 34.9497 C 25.1213 32.2161, 25.1213 27.7839, 28.636 25.0503 C 32.1508 22.3166, 37.8492 22.3166, 41.364 25.0503" fill="#f08e68" fill-opacity="0.501961" />
<path d="M 49.6569 65.3431 C 52.781 68.4673, 52.781 73.5327, 49.6569 76.6569 C 46.5327 79.781, 41.4673 79.781, 38.3431 76.6569 C 35.219 73.5327, 35.219 68.4673, 38.3431 65.3431 C 41.4673 62.219, 46.5327 62.219, 49.6569 65.3431" fill="#d7c778" fill-opacity="0.501961" />
<path d="M 126.485 24.1716 C 131.172 25.7337, 131.172 28.2663, 126.485 29.8284 C 121.799 31.3905, 114.201 31.3905, 109.515 29.8284 C 104.828 28.2663, 104.828 25.7337, 109.515 24.1716 C 114.201 22.6095, 121.799 22.6095, 126.485 24.1716" fill="#d2b4af" fill-opacity="0.501961" />
<path d="M 128.95 54.4645 C 131.683 56.4171, 131.683 59.5829, 128.95 61.5355 C 126.216 63.4882, 121.784 63.4882, 119.05 61.5355 C 116.317 59.5829, 116.317 56.4171, 119.05 54.4645 C 121.784 52.5118, 126.216 52.5118, 128.95 54.4645" fill="#c74e3e" fill-opacity="0.501961" />
<path d="M 48.5355 49.1716 C 50.4882 50.7337, 50.4882 53.2663, 48.5355 54.8284 C 46.5829 56.3905, 43.4171 56.3905, 41.4645 54.8284 C 39.5118 53.2663, 39.5118 50.7337, 41.4645 49.1716 C 43.4171 47.6095, 46.5829 47.6095, 48.5355 49.1716" fill="#a65951" fill-opacity="0.501961" />
<path d="M 41.3137 41.3431 C 47.5621 44.4673, 47.5621 49.5327, 41.3137 52.6569 C 35.0653 55.781, 24.9347 55.781, 18.6863 52.6569 C 12.4379 49.5327, 12.4379 44.4673, 18.6863 41.3431 C 24.9347 38.219, 35.0653 38.219, 41.3137 41.3431" fill="#6696af" fill-opacity="0.501961" />
<path d="M 11.8995 60.8787 C 17.3668 62.0503, 17.3668 63.9497, 11.8995 65.1213 C 6.43215 66.2929, -2.43215 66.2929, -7.89949 65.1213 C -13.3668 63.9497, -13.3668 62.0503, -7.89949 60.8787 C -2.43215 59.7071, 6.43215 59.7071, 11.8995 60.8787" fill="#2a7fac" fill-opacity="0.501961" />
<path d="M 110.414 46.1716 C 111.195 47.7337, 111.195 50.2663, 110.414 51.8284 C 109.633 53.3905, 108.367 53.3905, 107.586 51.8284 C 106.805 50.2663, 106.805 47.7337, 107.586 46.1716 C 108.367 44.6095, 109.633 44.6095, 110.414 46.1716" fill="#376456" fill-opacity="0.501961" />
<path d="M 114.485 -2.12132 C 119.172 -0.949747, 119.172 0.949747, 114.485 2.12132 C 109.799 3.29289, 102.201 3.29289, 97.5147 2.12132 C 92.8284 0.949747, 92.8284 -0.949747, 97.5147 -2.12132 C 102.201 -3.29289, 109.799 -3.29289, 114.485 -2.12132" fill="#a6c2b5" fill-opacity="0.501961" />
<path d="M 38.6569 77.4645 C 41.781 79.4171, 41.781 82.5829, 38.6569 84.5355 C 35.5327 86.4882, 30.4673 86.4882, 27.3431 84.5355 C 24.219 82.5829, 24.219 79.4171, 27.3431 77.4645 C 30.4673 75.5118, 35.5327 75.5118, 38.6569 77.4645" fill="#cdc2a0" fill-opacity="0.501961" />
<path d="M 90.1213 55.0503 C 91.2929 57.7839, 91.2929 62.2161, 90.1213 64.9497 C 88.9497 67.6834, 87.0503 67.6834, 85.8787 64.9497 C 84.7071 62.2161, 84.7071 57.7839, 85.8787 55.0503 C 87.0503 52.3166, 88.9497 52.3166, 90.1213 55.0503" fill="#d4d59a" fill-opacity="0.501961" />
<path d="M 87.9497 14.4645 C 90.6834 16.4171, 90.6834 19.5829, 87.9497 21.5355 C 85.2161 23.4882, 80.7839 23.4882, 78.0503 21.5355 C 75.3166 19.5829, 75.3166 16.4171, 78.0503 14.4645 C 80.7839 12.5118, 85.2161 12.5118, 87.9497 14.4645" fill="#c9d16c" fill-opacity="0.501961" />
<path d="M 41.364 58.4645 C 44.8787 60.4171, 44.8787 63.5829, 41.364 65.5355 C 37.8492 67.4882, 32.1508 67.4882, 28.636 65.5355 C 25.1213 63.5829, 25.1213 60.4171, 28.636 58.4645 C 32.1508 56.5118, 37.8492 56.5118, 41.364 58.4645" fill="#cd7577" fill-opacity="0.501961" />
<path d="M 58.5355 38.1716 C 60.4882 39.7337, 60.4882 42.2663, 58.5355 43.8284 C 56.5829 45.3905, 53.4171 45.3905, 51.4645 43.8284 C 49.5118 42.2663, 49.5118 39.7337, 51.4645 38.1716 C 53.4171 36.6095, 56.5829 36.6095, 58.5355 38.1716" fill="#ec7667" fill-opacity="0.501961" />
<path d="M 66.4142 56.8787 C 67.1953 58.0503, 67.1953 59.9497, 66.4142 61.1213 C 65.6332 62.2929, 64.3668 62.2929, 63.5858 61.1213 C 62.8047 59.9497, 62.8047 58.0503, 63.5858 56.8787 C 64.3668 55.7071, 65.6332 55.7071, 66.4142 56.8787" fill="#506f48" fill-opacity="0.501961" />
<path d="M 65.8284 18.8787 C 67.3905 20.0503, 67.3905 21.9497, 65.8284 23.1213 C 64.2663 24.2929, 61.7337 24.2929, 60.1716 23.1213 C 58.6095 21.9497, 58.6095 20.0503, 60.1716 18.8787 C 61.7337 17.7071, 64.2663 17.7071, 65.8284 18.8787" fill="#fb6655" fill-opacity="0.501961" />
<path d="M 16.9497 67.1716 C 19.6834 68.7337, 19.6834 71.2663, 16.9497 72.8284 C 14.2161 74.3905, 9.78392 74.3905, 7.05025 72.8284 C 4.31658 71.2663, 4.31658 68.7337, 7.05025 67.1716 C 9.78392 65.6095, 14.2161 65.6095, 16.9497 67.1716" fill="#dc7a58" fill-opacity="0.501961" />
<path d="M 53.4767 -3.53553 C 74.1744 -1.58291, 74.1744 1.58291, 53.4767 3.53553 C 32.7789 5.48816, -0.778872 5.48816, -21.4767 3.53553 C -42.1744 1.58291, -42.1744 -1.58291, -21.4767 -3.53553 C -0.778872 -5.48816, 32.7789 -5.48816, 53.4767 -3.53553" fill="#9ab494" fill-opacity="0.501961" />
<path d="M 64.4142 74.3431 C 65.1953 77.4673, 65.1953 82.5327, 64.4142 85.6569 C 63.6332 88.781, 62.3668 88.781, 61.5858 85.6569 C 60.8047 82.5327, 60.8047 77.4673, 61.5858 74.3431 C 62.3668 71.219, 63.6332 71.219, 64.4142 74.3431" fill="#d54227" fill-opacity="0.501961" />
<path d="M 6.94975 82.9081 C 9.68342 93.4523, 9.68342 110.548, 6.94975 121.092 C 4.21608 131.636, -0.216077 131.636, -2.94975 121.092 C -5.68342 110.548, -5.68342 93.4523, -2.94975 82.9081 C -0.216077 72.364, 4.21608 72.364, 6.94975 82.9081" fill="#dea186" fill-opacity="0.501961" />
<path d="M 92.8284 87.8787 C 94.3905 89.0503, 94.3905 90.9497, 92.8284 92.1213 C 91.2663 93.2929, 88.7337 93.2929, 87.1716 92.1213 C 85.6095 90.9497, 85.6095 89.0503, 87.1716 87.8787 C 88.7337 86.7071, 91.2663 86.7071, 92.8284 87.8787" fill="#31526e" fill-opacity="0.501961" />
<path d="M 73.9497 21.4645 C 76.6834 23.4171, 76.6834 26.5829, 73.9497 28.5355 C 71.2161 30.4882, 66.7839 30.4882, 64.0503 28.5355 C 61.3166 26.5829, 61.3166 23.4171, 64.0503 21.4645 C 66.7839 19.5118, 71.2161 19.5118, 73.9497 21.4645" fill="#c0cb59" fill-opacity="0.501961" />
<path d="M 119.414 88.8787 C 120.195 90.0503, 120.195 91.9497, 119.414 93.1213 C 118.633 94.2929, 117.367 94.2929, 116.586 93.1213 C 115.805 91.9497, 115.805 90.0503, 116.586 88.8787 C 117.367 87.7071, 118.633 87.7071, 119.414 88.8787" fill="#1b5169" fill-opacity="0.501961" />
<path d="M 28.2426 92.636 C 30.5858 96.1508, 30.5858 101.849, 28.2426 105.364 C 25.8995 108.879, 22.1005 108.879, 19.7574 105.364 C 17.4142 101.849, 17.4142 96.1508, 19.7574 92.636 C 22.1005 89.1213, 25.8995 89.1213, 28.2426 92.636" fill="#f48357" fill-opacity="0.501961" />
<path d="M 50.4142 53.8787 C 51.1953 55.0503, 51.1953 56.9497, 50.4142 58.1213 C 49.6332 59.2929, 48.3668 59.2929, 47.5858 58.1213 C 46.8047 56.9497, 46.8047 55.0503, 47.5858 53.8787 C 48.3668 52.7071, 49.6332 52.7071, 50.4142 53.8787" fill="#e5c7aa" fill-opacity="0.501961" />
<path d="M 78.4142 75.9289 C 79.1953 79.8342, 79.1953 86.1658, 78.4142 90.0711 C 77.6332 93.9763, 76.3668 93.9763, 75.5858 90.0711 C 74.8047 86.1658, 74.8047 79.8342, 75.5858 75.9289 C 76.3668 72.0237, 77.6332 72.0237, 78.4142 75.9289" fill="#d5c5a4" fill-opacity="0.501961" />
<path d="M 99.2426 56.8787 C 101.586 58.0503, 101.586 59.9497, 99.2426 61.1213 C 96.8995 62.2929, 93.1005 62.2929, 90.7574 61.1213 C 88.4142 59.9497, 88.4142 58.0503, 90.7574 56.8787 C 93.1005 55.7071, 96.8995 55.7071, 99.2426 56.8787" fill="#d47141" fill-opacity="0.501961" />
<path d="M 79.5355 59.1716 C 81.4882 60.7337, 81.4882 63.2663, 79.5355 64.8284 C 77.5829 66.3905, 74.4171 66.3905, 72.4645 64.8284 C 70.5118 63.2663, 70.5118 60.7337, 72.4645 59.1716 C 74.4171 57.6095, 77.5829 57.6095, 79.5355 59.1716" fill="#dcde52" fill-opacity="0.501961" />
<path d="M 56.364 15.4645 C 59.8787 17.4171, 59.8787 20.5829, 56.364 22.5355 C 52.8492 24.4882, 47.1508 24.4882, 43.636 22.5355 C 40.1213 20.5829, 40.1213 17.4171, 43.636 15.4645 C 47.1508 13.5118, 52.8492 13.5118, 56.364 15.4645" fill="#6894b3" fill-opacity="0.501961" />
<path d="M 55.1213 63.1716 C 56.2929 64.7337, 56.2929 67.2663, 55.1213 68.8284 C 53.9497 70.3905, 52.0503 70.3905, 50.8787 68.8284 C 49.7071 67.2663, 49.7071 64.7337, 50.8787 63.1716 C 52.0503 61.6095, 53.9497 61.6095, 55.1213 63.1716" fill="#d15438" fill-opacity="0.501961" />
<path d="M 67.4142 65.8076 C 68.1953 70.8844, 68.1953 79.1156, 67.4142 84.1924 C 66.6332 89.2692, 65.3668 89.2692, 64.5858 84.1924 C 63.8047 79.1156, 63.8047 70.8844, 64.5858 65.8076 C 65.3668 60.7308, 66.6332 60.7308, 67.4142 65.8076" fill="#e49e84" fill-opacity="0.501961" />
<path d="M 4.24264 69.5858 C 6.58579 70.3668, 6.58579 71.6332, 4.24264 72.4142 C 1.89949 73.1953, -1.89949 73.1953, -4.24264 72.4142 C -6.58579 71.6332, -6.58579 70.3668, -4.24264 69.5858 C -1.89949 68.8047, 1.89949 68.8047, 4.24264 69.5858" fill="#954843" fill-opacity="0.501961" />
<path d="M 111.536 64.4645 C 113.488 66.4171, 113.488 69.5829, 111.536 71.5355 C 109.583 73.4882, 106.417 73.4882, 104.464 71.5355 C 102.512 69.5829, 102.512 66.4171, 104.464 64.4645 C 106.417 62.5118, 109.583 62.5118, 111.536 64.4645" fill="#cfc869" fill-opacity="0.501961" />
<path d="M 104.121 54.7574 C 105.293 57.1005, 105.293 60.8995, 104.121 63.2426 C 102.95 65.5858, 101.05 65.5858, 99.8787 63.2426 C 98.7071 60.8995, 98.7071 57.1005, 99.8787 54.7574 C 101.05 52.4142, 102.95 52.4142, 104.121 54.7574" fill="#e3bb7b" fill-opacity="0.501961" />
<path d="M 75.1421 5.87868 C 82.9526 7.05025, 82.9526 8.94975, 75.1421 10.1213 C 67.3316 11.2929, 54.6684 11.2929, 46.8579 10.1213 C 39.0474 8.94975, 39.0474 7.05025, 46.8579 5.87868 C 54.6684 4.70711, 67.3316 4.70711, 75.1421 5.87868" fill="#99b3b3" fill-opacity="0.501961" />
<path d="M 2.82843 62.4645 C 4.39052 64.4171, 4.39052 67.5829, 2.82843 69.5355 C 1.26633 71.4882, -1.26633 71.4882, -2.82843 69.5355 C -4.39052 67.5829, -4.39052 64.4171, -2.82843 62.4645 C -1.26633 60.5118, 1.26633 60.5118, 2.82843 62.4645" fill="#4990b0" fill-opacity="0.501961" />
<path d="M 73.5355 13.8787 C 75.4882 15.0503, 75.4882 16.9497, 73.5355 18.1213 C 71.5829 19.2929, 68.4171 19.2929, 66.4645 18.1213 C 64.5118 16.9497, 64.5118 15.0503, 66.4645 13.8787 C 68.4171 12.7071, 71.5829 12.7071, 73.5355 13.8787" fill="#fc6962" fill-opacity="0.501961" />
<path d="M 103.314 8.58579 C 109.562 9.36684, 109.562 10.6332, 103.314 11.4142 C 97.0653 12.1953, 86.9347 12.1953, 80.6863 11.4142 C 74.4379 10.6332, 74.4379 9.36684, 80.6863 8.58579 C 86.9347 7.80474, 97.0653 7.80474, 103.314 8.58579" fill="#e2894e" fill-opacity="0.501961" />
<path d="M 51.4142 75.4645 C 52.1953 77.4171, 52.1953 80.5829, 51.4142 82.5355 C 50.6332 84.4882, 49.3668 84.4882, 48.5858 82.5355 C 47.8047 80.5829, 47.8047 77.4171, 48.5858 75.4645 C 49.3668 73.5118, 50.6332 73.5118, 51.4142 75.4645" fill="#dbaf86" fill-opacity="0.501961" />
<path d="M 61.1213 60.4645 C 62.2929 62.4171, 62.2929 65.5829, 61.1213 67.5355 C 59.9497 69.4882, 58.0503 69.4882, 56.8787 67.5355 C 55.7071 65.5829, 55.7071 62.4171, 56.8787 60.4645 C 58.0503 58.5118, 59.9497 58.5118, 61.1213 60.4645" fill="#d8beb0" fill-opacity="0.501961" />
<path d="M 129.121 49.7574 C 130.293 52.1005, 130.293 55.8995, 129.121 58.2426 C 127.95 60.5858, 126.05 60.5858, 124.879 58.2426 C 123.707 55.8995, 123.707 52.1005, 124.879 49.7574 C 126.05 47.4142, 127.95 47.4142, 129.121 49.7574" fill="#ffa177" fill-opacity="0.501961" />
<path d="M 25.6066 45.3431 C 31.4645 48.4673, 31.4645 53.5327, 25.6066 56.6569 C 19.7487 59.781, 10.2513 59.781, 4.3934 56.6569 C -1.46447 53.5327, -1.46447 48.4673, 4.3934 45.3431 C 10.2513 42.219, 19.7487 42.219, 25.6066 45.3431" fill="#5190b3" fill-opacity="0.501961" />
<path d="M 107.414 89.1716 C 108.195 90.7337, 108.195 93.2663, 107.414 94.8284 C 106.633 96.3905, 105.367 96.3905, 104.586 94.8284 C 103.805 93.2663, 103.805 90.7337, 104.586 89.1716 C 105.367 87.6095, 106.633 87.6095, 107.414 89.1716" fill="#55686a" fill-opacity="0.501961" />
<path d="M 107.899 19.4645 C 113.367 21.4171, 113.367 24.5829, 107.899 26.5355 C 102.432 28.4882, 93.5678 28.4882, 88.1005 26.5355 C 82.6332 24.5829, 82.6332 21.4171, 88.1005 19.4645 C 93.5678 17.5118, 102.432 17.5118, 107.899 19.4645" fill="#ea927c" fill-opacity="0.501961" />
<path d="M 96.7071 73.4645 C 97.0976 75.4171, 97.0976 78.5829, 96.7071 80.5355 C 96.3166 82.4882, 95.6834 82.4882, 95.2929 80.5355 C 94.9024 78.5829, 94.9024 75.4171, 95.2929 73.4645 C 95.6834 71.5118, 96.3166 71.5118, 96.7071 73.4645" fill="#14556b" fill-opacity="0.501961" />
<path d="M 7.12132 33.4645 C 8.29289 35.4171, 8.29289 38.5829, 7.12132 40.5355 C 5.94975 42.4882, 4.05025 42.4882, 2.87868 40.5355 C 1.70711 38.5829, 1.70711 35.4171, 2.87868 33.4645 C 4.05025 31.5118, 5.94975 31.5118, 7.12132 33.4645" fill="#a0b6b7" fill-opacity="0.501961" />
<path d="M 83.5355 56.2929 C 85.4882 56.6834, 85.4882 57.3166, 83.5355 57.7071 C 81.5829 58.0976, 78.4171 58.0976, 76.4645 57.7071 C 74.5118 57.3166, 74.5118 56.6834, 76.4645 56.2929 C 78.4171 55.9024, 81.5829 55.9024, 83.5355 56.2929" fill="#e53d16" fill-opacity="0.501961" />
<path d="M 57.1213 54.1716 C 58.2929 55.7337, 58.2929 58.2663, 57.1213 59.8284 C 55.9497 61.3905, 54.0503 61.3905, 52.8787 59.8284 C 51.7071 58.2663, 51.7071 55.7337, 52.8787 54.1716 C 54.0503 52.6095, 55.9497 52.6095, 57.1213 54.1716" fill="#706554" fill-opacity="0.501961" />
<path d="M 56.2426 29.4645 C 58.5858 31.4171, 58.5858 34.5829, 56.2426 36.5355 C 53.8995 38.4882, 50.1005 38.4882, 47.7574 36.5355 C 45.4142 34.5829, 45.4142 31.4171, 47.7574 29.4645 C 50.1005 27.5118, 53.8995 27.5118, 56.2426 29.4645" fill="#d7b4aa" fill-opacity="0.501961" />
<path d="M 64.1213 53.5858 C 65.2929 54.3668, 65.2929 55.6332, 64.1213 56.4142 C 62.9497 57.1953, 61.0503 57.1953, 59.8787 56.4142 C 58.7071 55.6332, 58.7071 54.3668, 59.8787 53.5858 C 61.0503 52.8047, 62.9497 52.8047, 64.1213 53.5858" fill="#948a2f" fill-opacity="0.501961" />
<path d="M 72.1213 52.4645 C 73.2929 54.4171, 73.2929 57.5829, 72.1213 59.5355 C 70.9497 61.4882, 69.0503 61.4882, 67.8787 59.5355 C 66.7071 57.5829, 66.7071 54.4171, 67.8787 52.4645 C 69.0503 50.5118, 70.9497 50.5118, 72.1213 52.4645" fill="#d6c9b4" fill-opacity="0.501961" />
<path d="M 45.8995 42.8787 C 51.3668 44.0503, 51.3668 45.9497, 45.8995 47.1213 C 40.4322 48.2929, 31.5678 48.2929, 26.1005 47.1213 C 20.6332 45.9497, 20.6332 44.0503, 26.1005 42.8787 C 31.5678 41.7071, 40.4322 41.7071, 45.8995 42.8787" fill="#77a3b8" fill-opacity="0.501961" />
<path d="M 27.6066 18.8787 C 33.4645 20.0503, 33.4645 21.9497, 27.6066 23.1213 C 21.7487 24.2929, 12.2513 24.2929, 6.3934 23.1213 C 0.535534 21.9497, 0.535534 20.0503, 6.3934 18.8787 C 12.2513 17.7071, 21.7487 17.7071, 27.6066 18.8787" fill="#448ab2" fill-opacity="0.501961" />
<path d="M 96.8284 82.8787 C 98.3905 84.0503, 98.3905 85.9497, 96.8284 87.1213 C 95.2663 88.2929, 92.7337 88.2929, 91.1716 87.1213 C 89.6095 85.9497, 89.6095 84.0503, 91.1716 82.8787 C 92.7337 81.7071, 95.2663 81.7071, 96.8284 82.8787" fill="#ca4d2d" fill-opacity="0.501961" />
<path d="M 104.828 71.1005 C 106.391 76.5678, 106.391 85.4322, 104.828 90.8995 C 103.266 96.3668, 100.734 96.3668, 99.1716 90.8995 C 97.6095 85.4322, 97.6095 76.5678, 99.1716 71.1005 C 100.734 65.6332, 103.266 65.6332, 104.828 71.1005" fill="#e28c70" fill-opacity="0.501961" />
<path d="M 119.536 94.5858 C 121.488 95.3668, 121.488 96.6332, 119.536 97.4142 C 117.583 98.1953, 114.417 98.1953, 112.464 97.4142 C 110.512 96.6332, 110.512 95.3668, 112.464 94.5858 C 114.417 93.8047, 117.583 93.8047, 119.536 94.5858" fill="#36413f" fill-opacity="0.501961" />
<path d="M 57.0711 24.5858 C 60.9763 25.3668, 60.9763 26.6332, 57.0711 27.4142 C 53.1658 28.1953, 46.8342 28.1953, 42.9289 27.4142 C 39.0237 26.6332, 39.0237 25.3668, 42.9289 24.5858 C 46.8342 23.8047, 53.1658 23.8047, 57.0711 24.5858" fill="#fb8c70" fill-opacity="0.501961" />
<path d="M 136.192 6.17157 C 141.269 7.73367, 141.269 10.2663, 136.192 11.8284 C 131.116 13.3905, 122.884 13.3905, 117.808 11.8284 C 112.731 10.2663, 112.731 7.73367, 117.808 6.17157 C 122.884 4.60948, 131.116 4.60948, 136.192 6.17157" fill="#dbc191" fill-opacity="0.501961" />
<path d="M 38.8284 83.4645 C 40.3905 85.4171, 40.3905 88.5829, 38.8284 90.5355 C 37.2663 92.4882, 34.7337 92.4882, 33.1716 90.5355 C 31.6095 88.5829, 31.6095 85.4171, 33.1716 83.4645 C 34.7337 81.5118, 37.2663 81.5118, 38.8284 83.4645" fill="#e1bca9" fill-opacity="0.501961" />
<path d="M 122.414 49.8787 C 123.195 51.0503, 123.195 52.9497, 122.414 54.1213 C 121.633 55.2929, 120.367 55.2929, 119.586 54.1213 C 118.805 52.9497, 118.805 51.0503, 119.586 49.8787 C 120.367 48.7071, 121.633 48.7071, 122.414 49.8787" fill="#77716f" fill-opacity="0.501961" />
<path d="M 14.8284 90.7574 C 16.3905 93.1005, 16.3905 96.8995, 14.8284 99.2426 C 13.2663 101.586, 10.7337 101.586, 9.17157 99.2426 C 7.60948 96.8995, 7.60948 93.1005, 9.17157 90.7574 C 10.7337 88.4142, 13.2663 88.4142, 14.8284 90.7574" fill="#b25b61" fill-opacity="0.501961" />
<path d="M 14.5355 71.3431 C 16.4882 74.4673, 16.4882 79.5327, 14.5355 82.6569 C 12.5829 85.781, 9.41709 85.781, 7.46447 82.6569 C 5.51184 79.5327, 5.51184 74.4673, 7.46447 71.3431 C 9.41709 68.219, 12.5829 68.219, 14.5355 71.3431" fill="#d8a493" fill-opacity="0.501961" />
<path d="M 118.828 97.7574 C 120.391 100.101, 120.391 103.899, 118.828 106.243 C 117.266 108.586, 114.734 108.586, 113.172 106.243 C 111.609 103.899, 111.609 100.101, 113.172 97.7574 C 114.734 95.4142, 117.266 95.4142, 118.828 97.7574" fill="#dd6f48" fill-opacity="0.501961" />
<path d="M 114.828 74.2218 C 116.391 78.5176, 116.391 85.4824, 114.828 89.7782 C 113.266 94.0739, 110.734 94.0739, 109.172 89.7782 C 107.609 85.4824, 107.609 78.5176, 109.172 74.2218 C 110.734 69.9261, 113.266 69.9261, 114.828 74.2218" fill="#d87a62" fill-opacity="0.501961" />
<path d="M 92.7071 78.1716 C 93.0976 79.7337, 93.0976 82.2663, 92.7071 83.8284 C 92.3166 85.3905, 91.6834 85.3905, 91.2929 83.8284 C 90.9024 82.2663, 90.9024 79.7337, 91.2929 78.1716 C 91.6834 76.6095, 92.3166 76.6095, 92.7071 78.1716" fill="#0f5b7c" fill-opacity="0.501961" />
<path d="M 31.6066 39.2929 C 37.4645 39.6834, 37.4645 40.3166, 31.6066 40.7071 C 25.7487 41.0976, 16.2513 41.0976, 10.3934 40.7071 C 4.53553 40.3166, 4.53553 39.6834, 10.3934 39.2929 C 16.2513 38.9024, 25.7487 38.9024, 31.6066 39.2929" fill="#8b8b89" fill-opacity="0.501961" />
<path d="M 63.8284 27.8787 C 65.3905 29.0503, 65.3905 30.9497, 63.8284 32.1213 C 62.2663 33.2929, 59.7337 33.2929, 58.1716 32.1213 C 56.6095 30.9497, 56.6095 29.0503, 58.1716 27.8787 C 59.7337 26.7071, 62.2663 26.7071, 63.8284 27.8787" fill="#bbcf46" fill-opacity="0.501961" />
<path d="M 37.8284 74.5858 C 39.3905 75.3668, 39.3905 76.6332, 37.8284 77.4142 C 36.2663 78.1953, 33.7337 78.1953, 32.1716 77.4142 C 30.6095 76.6332, 30.6095 75.3668, 32.1716 74.5858 C 33.7337 73.8047, 36.2663 73.8047, 37.8284 74.5858" fill="#679697" fill-opacity="0.501961" />
<path d="M 42.1213 76.4645 C 43.2929 78.4171, 43.2929 81.5829, 42.1213 83.5355 C 40.9497 85.4882, 39.0503 85.4882, 37.8787 83.5355 C 36.7071 81.5829, 36.7071 78.4171, 37.8787 76.4645 C 39.0503 74.5118, 40.9497 74.5118, 42.1213 76.4645" fill="#d9c657" fill-opacity="0.501961" />
<path d="M 112.121 88.1716 C 113.293 89.7337, 113.293 92.2663, 112.121 93.8284 C 110.95 95.3905, 109.05 95.3905, 107.879 93.8284 C 106.707 92.2663, 106.707 89.7337, 107.879 88.1716 C 109.05 86.6095, 110.95 86.6095, 112.121 88.1716" fill="#d8b784" fill-opacity="0.501961" />
<path d="M 33.8995 31.4645 C 39.3668 33.4171, 39.3668 36.5829, 33.8995 38.5355 C 28.4322 40.4882, 19.5678 40.4882, 14.1005 38.5355 C 8.63316 36.5829, 8.63316 33.4171, 14.1005 31.4645 C 19.5678 29.5118, 28.4322 29.5118, 33.8995 31.4645" fill="#e98c66" fill-opacity="0.501961" />
<path d="M 98.4142 87.9289 C 99.1953 91.8342, 99.1953 98.1658, 98.4142 102.071 C 97.6332 105.976, 96.3668 105.976, 95.5858 102.071 C 94.8047 98.1658, 94.8047 91.8342, 95.5858 87.9289 C 96.3668 84.0237, 97.6332 84.0237, 98.4142 87.9289" fill="#d89c80" fill-opacity="0.501961" />
<path d="M 86.0711 36.5858 C 89.9763 37.3668, 89.9763 38.6332, 86.0711 39.4142 C 82.1658 40.1953, 75.8342 40.1953, 71.9289 39.4142 C 68.0237 38.6332, 68.0237 37.3668, 71.9289 36.5858 C 75.8342 35.8047, 82.1658 35.8047, 86.0711 36.5858" fill="#bfc955" fill-opacity="0.501961" />
<path d="M 62.364 68.1716 C 65.8787 69.7337, 65.8787 72.2663, 62.364 73.8284 C 58.8492 75.3905, 53.1508 75.3905, 49.636 73.8284 C 46.1213 72.2663, 46.1213 69.7337, 49.636 68.1716 C 53.1508 66.6095, 58.8492 66.6095, 62.364 68.1716" fill="#e3946b" fill-opacity="0.501961" />
<path d="M 70.4142 68.4645 C 71.1953 70.4171, 71.1953 73.5829, 70.4142 75.5355 C 69.6332 77.4882, 68.3668 77.4882, 67.5858 75.5355 C 66.8047 73.5829, 66.8047 70.4171, 67.5858 68.4645 C 68.3668 66.5118, 69.6332 66.5118, 70.4142 68.4645" fill="#dc482b" fill-opacity="0.501961" />
<path d="M 93.8284 71.1716 C 95.3905 72.7337, 95.3905 75.2663, 93.8284 76.8284 C 92.2663 78.3905, 89.7337 78.3905, 88.1716 76.8284 C 86.6095 75.2663, 86.6095 72.7337, 88.1716 71.1716 C 89.7337 69.6095, 92.2663 69.6095, 93.8284 71.1716" fill="#e47850" fill-opacity="0.501961" />
<path d="M 75.1213 65.7574 C 76.2929 68.1005, 76.2929 71.8995, 75.1213 74.2426 C 73.9497 76.5858, 72.0503 76.5858, 70.8787 74.2426 C 69.7071 71.8995, 69.7071 68.1005, 70.8787 65.7574 C 72.0503 63.4142, 73.9497 63.4142, 75.1213 65.7574" fill="#e2897e" fill-opacity="0.501961" />
<path d="M 122.485 32.7574 C 127.172 35.1005, 127.172 38.8995, 122.485 41.2426 C 117.799 43.5858, 110.201 43.5858, 105.515 41.2426 C 100.828 38.8995, 100.828 35.1005, 105.515 32.7574 C 110.201 30.4142, 117.799 30.4142, 122.485 32.7574" fill="#daca64" fill-opacity="0.501961" />
<path d="M 48.1213 88.9289 C 49.2929 92.8342, 49.2929 99.1658, 48.1213 103.071 C 46.9497 106.976, 45.0503 106.976, 43.8787 103.071 C 42.7071 99.1658, 42.7071 92.8342, 43.8787 88.9289 C 45.0503 85.0237, 46.9497 85.0237, 48.1213 88.9289" fill="#dabca1" fill-opacity="0.501961" />
<path d="M 92.2426 44.636 C 94.5858 48.1508, 94.5858 53.8492, 92.2426 57.364 C 89.8995 60.8787, 86.1005 60.8787, 83.7574 57.364 C 81.4142 53.8492, 81.4142 48.1508, 83.7574 44.636 C 86.1005 41.1213, 89.8995 41.1213, 92.2426 44.636" fill="#d7b5a8" fill-opacity="0.501961" />
<path d="M 108.414 51.0503 C 109.195 53.7839, 109.195 58.2161, 108.414 60.9497 C 107.633 63.6834, 106.367 63.6834, 105.586 60.9497 C 104.805 58.2161, 104.805 53.7839, 105.586 51.0503 C 106.367 48.3166, 107.633 48.3166, 108.414 51.0503" fill="#c44431" fill-opacity="0.501961" />
<path d="M 107.536 99.5858 C 109.488 100.367, 109.488 101.633, 107.536 102.414 C 105.583 103.195, 102.417 103.195, 100.464 102.414 C 98.5118 101.633, 98.5118 100.367, 100.464 99.5858 C 102.417 98.8047, 105.583 98.8047, 107.536 99.5858" fill="#c6431f" fill-opacity="0.501961" />
<path d="M 11.0711 101.293 C 14.9763 101.683, 14.9763 102.317, 11.0711 102.707 C 7.16582 103.098, 0.834175 103.098, -3.07107 102.707 C -6.97631 102.317, -6.97631 101.683, -3.07107 101.293 C 0.834175 100.902, 7.16582 100.902, 11.0711 101.293" fill="#ceccaf" fill-opacity="0.501961" />
<path d="M 64.1213 97.1716 C 65.2929 98.7337, 65.2929 101.266, 64.1213 102.828 C 62.9497 104.391, 61.0503 104.391, 59.8787 102.828 C 58.7071 101.266, 58.7071 98.7337, 59.8787 97.1716 C 61.0503 95.6095, 62.9497 95.6095, 64.1213 97.1716" fill="#0d6c59" fill-opacity="0.501961" />
<path d="M 86.7782 -1.41421 C 91.0739 -0.633165, 91.0739 0.633165, 86.7782 1.41421 C 82.4824 2.19526, 75.5176 2.19526, 71.2218 1.41421 C 66.9261 0.633165, 66.9261 -0.633165, 71.2218 -1.41421 C 75.5176 -2.19526, 82.4824 -2.19526, 86.7782 -1.41421" fill="#64b38f" fill-opacity="0.501961" />
<path d="M 80.1213 62.9289 C 81.2929 66.8342, 81.2929 73.1658, 80.1213 77.0711 C 78.9497 80.9763, 77.0503 80.9763, 75.8787 77.0711 C 74.7071 73.1658, 74.7071 66.8342, 75.8787 62.9289 C 77.0503 59.0237, 78.9497 59.0237, 80.1213 62.9289" fill="#dfcc6e" fill-opacity="0.501961" />
<path d="M 110.778 9.58579 C 115.074 10.3668, 115.074 11.6332, 110.778 12.4142 C 106.482 13.1953, 99.5176 13.1953, 95.2218 12.4142 C 90.9261 11.6332, 90.9261 10.3668, 95.2218 9.58579 C 99.5176 8.80474, 106.482 8.80474, 110.778 9.58579" fill="#decb79" fill-opacity="0.501961" />
<path d="M 19.4853 12.8787 C 24.1716 14.0503, 24.1716 15.9497, 19.4853 17.1213 C 14.799 18.2929, 7.20101 18.2929, 2.51472 17.1213 C -2.17157 15.9497, -2.17157 14.0503, 2.51472 12.8787 C 7.20101 11.7071, 14.799 11.7071, 19.4853 12.8787" fill="#a9c9c7" fill-opacity="0.501961" />
<path d="M 16.4142 64.1716 C 17.1953 65.7337, 17.1953 68.2663, 16.4142 69.8284 C 15.6332 71.3905, 14.3668 71.3905, 13.5858 69.8284 C 12.8047 68.2663, 12.8047 65.7337, 13.5858 64.1716 C 14.3668 62.6095, 15.6332 62.6095, 16.4142 64.1716" fill="#dfbb93" fill-opacity="0.501961" />
<path d="M 46.9497 35.8787 C 49.6834 37.0503, 49.6834 38.9497, 46.9497 40.1213 C 44.2161 41.2929, 39.7839 41.2929, 37.0503 40.1213 C 34.3166 38.9497, 34.3166 37.0503, 37.0503 35.8787 C 39.7839 34.7071, 44.2161 34.7071, 46.9497 35.8787" fill="#d7b9a3" fill-opacity="0.501961" />
<path d="M 60.2426 98.8787 C 62.5858 100.05, 62.5858 101.95, 60.2426 103.121 C 57.8995 104.293, 54.1005 104.293, 51.7574 103.121 C 49.4142 101.95, 49.4142 100.05, 51.7574 98.8787 C 54.1005 97.7071, 57.8995 97.7071, 60.2426 98.8787" fill="#096754" fill-opacity="0.501961" />
<path d="M 60.1213 85.3431 C 61.2929 88.4673, 61.2929 93.5327, 60.1213 96.6569 C 58.9497 99.781, 57.0503 99.781, 55.8787 96.6569 C 54.7071 93.5327, 54.7071 88.4673, 55.8787 85.3431 C 57.0503 82.219, 58.9497 82.219, 60.1213 85.3431" fill="#d75239" fill-opacity="0.501961" />
<path d="M 18.4142 66.4645 C 19.1953 68.4171, 19.1953 71.5829, 18.4142 73.5355 C 17.6332 75.4882, 16.3668 75.4882, 15.5858 73.5355 C 14.8047 71.5829, 14.8047 68.4171, 15.5858 66.4645 C 16.3668 64.5118, 17.6332 64.5118, 18.4142 66.4645" fill="#f86929" fill-opacity="0.501961" />
<path d="M 85.4142 55.2929 C 86.1953 55.6834, 86.1953 56.3166, 85.4142 56.7071 C 84.6332 57.0976, 83.3668 57.0976, 82.5858 56.7071 C 81.8047 56.3166, 81.8047 55.6834, 82.5858 55.2929 C 83.3668 54.9024, 84.6332 54.9024, 85.4142 55.2929" fill="#df3111" fill-opacity="0.501961" />
<path d="M 24.1213 65.4645 C 25.2929 67.4171, 25.2929 70.5829, 24.1213 72.5355 C 22.9497 74.4882, 21.0503 74.4882, 19.8787 72.5355 C 18.7071 70.5829, 18.7071 67.4171, 19.8787 65.4645 C 21.0503 63.5118, 22.9497 63.5118, 24.1213 65.4645" fill="#946f64" fill-opacity="0.501961" />
<path d="M 101.95 1.58579 C 104.683 2.36684, 104.683 3.63316, 101.95 4.41421 C 99.2161 5.19526, 94.7839 5.19526, 92.0503 4.41421 C 89.3166 3.63316, 89.3166 2.36684, 92.0503 1.58579 C 94.7839 0.804738, 99.2161 0.804738, 101.95 1.58579" fill="#afbab2" fill-opacity="0.501961" />
<path d="M 79.2426 17.4645 C 81.5858 19.4171, 81.5858 22.5829, 79.2426 24.5355 C 76.8995 26.4882, 73.1005 26.4882, 70.7574 24.5355 C 68.4142 22.5829, 68.4142 19.4171, 70.7574 17.4645 C 73.1005 15.5118, 76.8995 15.5118, 79.2426 17.4645" fill="#c2c75e" fill-opacity="0.501961" />
<path d="M 61.2426 47.8787 C 63.5858 49.0503, 63.5858 50.9497, 61.2426 52.1213 C 58.8995 53.2929, 55.1005 53.2929, 52.7574 52.1213 C 50.4142 50.9497, 50.4142 49.0503, 52.7574 47.8787 C 55.1005 46.7071, 58.8995 46.7071, 61.2426 47.8787" fill="#daca99" fill-opacity="0.501961" />
<path d="M 47.7279 7.75736 C 54.7574 10.1005, 54.7574 13.8995, 47.7279 16.2426 C 40.6985 18.5858, 29.3015 18.5858, 22.2721 16.2426 C 15.2426 13.8995, 15.2426 10.1005, 22.2721 7.75736 C 29.3015 5.41421, 40.6985 5.41421, 47.7279 7.75736" fill="#8cb5b6" fill-opacity="0.501961" />
<path d="M 47.7071 41.2929 C 48.0976 41.6834, 48.0976 42.3166, 47.7071 42.7071 C 47.3166 43.0976, 46.6834 43.0976, 46.2929 42.7071 C 45.9024 42.3166, 45.9024 41.6834, 46.2929 41.2929 C 46.6834 40.9024, 47.3166 40.9024, 47.7071 41.2929" fill="#5a1f27" fill-opacity="0.501961" />
<path d="M 72.4142 93.2218 C 73.1953 97.5176, 73.1953 104.482, 72.4142 108.778 C 71.6332 113.074, 70.3668 113.074, 69.5858 108.778 C 68.8047 104.482, 68.8047 97.5176, 69.5858 93.2218 C 70.3668 88.9261, 71.6332 88.9261, 72.4142 93.2218" fill="#075c46" fill-opacity="0.501961" />
<path d="M 7.07107 63.5858 C 10.9763 64.3668, 10.9763 65.6332, 7.07107 66.4142 C 3.16582 67.1953, -3.16582 67.1953, -7.07107 66.4142 C -10.9763 65.6332, -10.9763 64.3668, -7.07107 63.5858 C -3.16582 62.8047, 3.16582 62.8047, 7.07107 63.5858" fill="#13689b" fill-opacity="0.501961" />
<path d="M 75.4142 91.1716 C 76.1953 92.7337, 76.1953 95.2663, 75.4142 96.8284 C 74.6332 98.3905, 73.3668 98.3905, 72.5858 96.8284 C 71.8047 95.2663, 71.8047 92.7337, 72.5858 91.1716 C 73.3668 89.6095, 74.6332 89.6095, 75.4142 91.1716" fill="#5e8d7b" fill-opacity="0.501961" />
<path d="M 61.7071 75.1716 C 62.0976 76.7337, 62.0976 79.2663, 61.7071 80.8284 C 61.3166 82.3905, 60.6834 82.3905, 60.2929 80.8284 C 59.9024 79.2663, 59.9024 76.7337, 60.2929 75.1716 C 60.6834 73.6095, 61.3166 73.6095, 61.7071 75.1716" fill="#d62f0d" fill-opacity="0.501961" />
<path d="M 34.8284 69.1716 C 36.3905 70.7337, 36.3905 73.2663, 34.8284 74.8284 C 33.2663 76.3905, 30.7337 76.3905, 29.1716 74.8284 C 27.6095 73.2663, 27.6095 70.7337, 29.1716 69.1716 C 30.7337 67.6095, 33.2663 67.6095, 34.8284 69.1716" fill="#cfc563" fill-opacity="0.501961" />
<path d="M 85.7071 60.1716 C 86.0976 61.7337, 86.0976 64.2663, 85.7071 65.8284 C 85.3166 67.3905, 84.6834 67.3905, 84.2929 65.8284 C 83.9024 64.2663, 83.9024 61.7337, 84.2929 60.1716 C 84.6834 58.6095, 85.3166 58.6095, 85.7071 60.1716" fill="#8a612e" fill-opacity="0.501961" />
<path d="M 115.828 50.4645 C 117.391 52.4171, 117.391 55.5829, 115.828 57.5355 C 114.266 59.4882, 111.734 59.4882, 110.172 57.5355 C 108.609 55.5829, 108.609 52.4171, 110.172 50.4645 C 111.734 48.5118, 114.266 48.5118, 115.828 50.4645" fill="#f28c74" fill-opacity="0.501961" />
<path d="M 93.2426 11.8787 C 95.5858 13.0503, 95.5858 14.9497, 93.2426 16.1213 C 90.8995 17.2929, 87.1005 17.2929, 84.7574 16.1213 C 82.4142 14.9497, 82.4142 13.0503, 84.7574 11.8787 C 87.1005 10.7071, 90.8995 10.7071, 93.2426 11.8787" fill="#e2cb6f" fill-opacity="0.501961" />
<path d="M 11.3137 23.4645 C 17.5621 25.4171, 17.5621 28.5829, 11.3137 30.5355 C 5.06532 32.4882, -5.06532 32.4882, -11.3137 30.5355 C -17.5621 28.5829, -17.5621 25.4171, -11.3137 23.4645 C -5.06532 21.5118, 5.06532 21.5118, 11.3137 23.4645" fill="#75a5bb" fill-opacity="0.501961" />
<path d="M 87.2426 84.8787 C 89.5858 86.0503, 89.5858 87.9497, 87.2426 89.1213 C 84.8995 90.2929, 81.1005 90.2929, 78.7574 89.1213 C 76.4142 87.9497, 76.4142 86.0503, 78.7574 84.8787 C 81.1005 83.7071, 84.8995 83.7071, 87.2426 84.8787" fill="#d39553" fill-opacity="0.501961" />
<path d="M 44.0711 20.5858 C 47.9763 21.3668, 47.9763 22.6332, 44.0711 23.4142 C 40.1658 24.1953, 33.8342 24.1953, 29.9289 23.4142 C 26.0237 22.6332, 26.0237 21.3668, 29.9289 20.5858 C 33.8342 19.8047, 40.1658 19.8047, 44.0711 20.5858" fill="#7c9eb2" fill-opacity="0.501961" />
<path d="M 49.7071 47.5858 C 50.0976 48.3668, 50.0976 49.6332, 49.7071 50.4142 C 49.3166 51.1953, 48.6834 51.1953, 48.2929 50.4142 C 47.9024 49.6332, 47.9024 48.3668, 48.2929 47.5858 C 48.6834 46.8047, 49.3166 46.8047, 49.7071 47.5858" fill="#9a2721" fill-opacity="0.501961" />
<path d="M 46.4142 75.4645 C 47.1953 77.4171, 47.1953 80.5829, 46.4142 82.5355 C 45.6332 84.4882, 44.3668 84.4882, 43.5858 82.5355 C 42.8047 80.5829, 42.8047 77.4171, 43.5858 75.4645 C 44.3668 73.5118, 45.6332 73.5118, 46.4142 75.4645" fill="#da8159" fill-opacity="0.501961" />
<path d="M 43.8284 40.2929 C 45.3905 40.6834, 45.3905 41.3166, 43.8284 41.7071 C 42.2663 42.0976, 39.7337 42.0976, 38.1716 41.7071 C 36.6095 41.3166, 36.6095 40.6834, 38.1716 40.2929 C 39.7337 39.9024, 42.2663 39.9024, 43.8284 40.2929" fill="#925a51" fill-opacity="0.501961" />
<path d="M 110.485 6.58579 C 115.172 7.36684, 115.172 8.63316, 110.485 9.41421 C 105.799 10.1953, 98.201 10.1953, 93.5147 9.41421 C 88.8284 8.63316, 88.8284 7.36684, 93.5147 6.58579 C 98.201 5.80474, 105.799 5.80474, 110.485 6.58579" fill="#e77553" fill-opacity="0.501961" />
<path d="M 105.414 48.8787 C 106.195 50.0503, 106.195 51.9497, 105.414 53.1213 C 104.633 54.2929, 103.367 54.2929, 102.586 53.1213 C 101.805 51.9497, 101.805 50.0503, 102.586 48.8787 C 103.367 47.7071, 104.633 47.7071, 105.414 48.8787" fill="#de3016" fill-opacity="0.501961" />
<path d="M 10.1213 67.5858 C 11.2929 68.3668, 11.2929 69.6332, 10.1213 70.4142 C 8.94975 71.1953, 7.05025 71.1953, 5.87868 70.4142 C 4.70711 69.6332, 4.70711 68.3668, 5.87868 67.5858 C 7.05025 66.8047, 8.94975 66.8047, 10.1213 67.5858" fill="#a44f40" fill-opacity="0.501961" />
<path d="M 5.24264 41.1005 C 7.58579 46.5678, 7.58579 55.4322, 5.24264 60.8995 C 2.89949 66.3668, -0.899495 66.3668, -3.24264 60.8995 C -5.58579 55.4322, -5.58579 46.5678, -3.24264 41.1005 C -0.899495 35.6332, 2.89949 35.6332, 5.24264 41.1005" fill="#6d9aad" fill-opacity="0.501961" />
<path d="M 47.4142 57.9289 C 48.1953 61.8342, 48.1953 68.1658, 47.4142 72.0711 C 46.6332 75.9763, 45.3668 75.9763, 44.5858 72.0711 C 43.8047 68.1658, 43.8047 61.8342, 44.5858 57.9289 C 45.3668 54.0237, 46.6332 54.0237, 47.4142 57.9289" fill="#d9b889" fill-opacity="0.501961" />
<path d="M 67.8284 16.8787 C 69.3905 18.0503, 69.3905 19.9497, 67.8284 21.1213 C 66.2663 22.2929, 63.7337 22.2929, 62.1716 21.1213 C 60.6095 19.9497, 60.6095 18.0503, 62.1716 16.8787 C 63.7337 15.7071, 66.2663 15.7071, 67.8284 16.8787" fill="#f27262" fill-opacity="0.501961" />
<path d="M 107.485 28.8787 C 112.172 30.0503, 112.172 31.9497, 107.485 33.1213 C 102.799 34.2929, 95.201 34.2929, 90.5147 33.1213 C 85.8284 31.9497, 85.8284 30.0503, 90.5147 28.8787 C 95.201 27.7071, 102.799 27.7071, 107.485 28.8787" fill="#ddbba6" fill-opacity="0.501961" />
<path d="M 26.8284 55.8787 C 28.3905 57.0503, 28.3905 58.9497, 26.8284 60.1213 C 25.2663 61.2929, 22.7337 61.2929, 21.1716 60.1213 C 19.6095 58.9497, 19.6095 57.0503, 21.1716 55.8787 C 22.7337 54.7071, 25.2663 54.7071, 26.8284 55.8787" fill="#89a6b0" fill-opacity="0.501961" />
<path d="M 116.121 78.1716 C 117.293 79.7337, 117.293 82.2663, 116.121 83.8284 C 114.95 85.3905, 113.05 85.3905, 111.879 83.8284 C 110.707 82.2663, 110.707 79.7337, 111.879 78.1716 C 113.05 76.6095, 114.95 76.6095, 116.121 78.1716" fill="#b54d39" fill-opacity="0.501961" />
<path d="M 106.121 94.4645 C 107.293 96.4171, 107.293 99.5829, 106.121 101.536 C 104.95 103.488, 103.05 103.488, 101.879 101.536 C 100.707 99.5829, 100.707 96.4171, 101.879 94.4645 C 103.05 92.5118, 104.95 92.5118, 106.121 94.4645" fill="#de6d4e" fill-opacity="0.501961" />
<path d="M 15.4853 6.58579 C 20.1716 7.36684, 20.1716 8.63316, 15.4853 9.41421 C 10.799 10.1953, 3.20101 10.1953, -1.48528 9.41421 C -6.17157 8.63316, -6.17157 7.36684, -1.48528 6.58579 C 3.20101 5.80474, 10.799 5.80474, 15.4853 6.58579" fill="#ccbea9" fill-opacity="0.501961" />
<path d="M 88.6066 30.8787 C 94.4645 32.0503, 94.4645 33.9497, 88.6066 35.1213 C 82.7487 36.2929, 73.2513 36.2929, 67.3934 35.1213 C 61.5355 33.9497, 61.5355 32.0503, 67.3934 30.8787 C 73.2513 29.7071, 82.7487 29.7071, 88.6066 30.8787" fill="#e1a09b" fill-opacity="0.501961" />
<path d="M 41.8284 53.5858 C 43.3905 54.3668, 43.3905 55.6332, 41.8284 56.4142 C 40.2663 57.1953, 37.7337 57.1953, 36.1716 56.4142 C 34.6095 55.6332, 34.6095 54.3668, 36.1716 53.5858 C 37.7337 52.8047, 40.2663 52.8047, 41.8284 53.5858" fill="#a75a58" fill-opacity="0.501961" />
<path d="M 115.828 39.7574 C 117.391 42.1005, 117.391 45.8995, 115.828 48.2426 C 114.266 50.5858, 111.734 50.5858, 110.172 48.2426 C 108.609 45.8995, 108.609 42.1005, 110.172 39.7574 C 111.734 37.4142, 114.266 37.4142, 115.828 39.7574" fill="#e1d76d" fill-opacity="0.501961" />
<path d="M 97.8284 92.1005 C 99.3905 97.5678, 99.3905 106.432, 97.8284 111.899 C 96.2663 117.367, 93.7337 117.367, 92.1716 111.899 C 90.6095 106.432, 90.6095 97.5678, 92.1716 92.1005 C 93.7337 86.6332, 96.2663 86.6332, 97.8284 92.1005" fill="#d78b6e" fill-opacity="0.501961" />
<path d="M 122.121 53.8787 C 123.293 55.0503, 123.293 56.9497, 122.121 58.1213 C 120.95 59.2929, 119.05 59.2929, 117.879 58.1213 C 116.707 56.9497, 116.707 55.0503, 117.879 53.8787 C 119.05 52.7071, 120.95 52.7071, 122.121 53.8787" fill="#a85245" fill-opacity="0.501961" />
<path d="M 56.1213 77.4645 C 57.2929 79.4171, 57.2929 82.5829, 56.1213 84.5355 C 54.9497 86.4882, 53.0503 86.4882, 51.8787 84.5355 C 50.7071 82.5829, 50.7071 79.4171, 51.8787 77.4645 C 53.0503 75.5118, 54.9497 75.5118, 56.1213 77.4645" fill="#d04a2a" fill-opacity="0.501961" />
<path d="M 100.414 48.2721 C 101.195 55.3015, 101.195 66.6985, 100.414 73.7279 C 99.6332 80.7574, 98.3668 80.7574, 97.5858 73.7279 C 96.8047 66.6985, 96.8047 55.3015, 97.5858 48.2721 C 98.3668 41.2426, 99.6332 41.2426, 100.414 48.2721" fill="#db935c" fill-opacity="0.501961" />
<path d="M 26.8995 22.5858 C 32.3668 23.3668, 32.3668 24.6332, 26.8995 25.4142 C 21.4322 26.1953, 12.5678 26.1953, 7.10051 25.4142 C 1.63316 24.6332, 1.63316 23.3668, 7.10051 22.5858 C 12.5678 21.8047, 21.4322 21.8047, 26.8995 22.5858" fill="#6ea1b8" fill-opacity="0.501961" />
<path d="M 94.4142 65.8787 C 95.1953 67.0503, 95.1953 68.9497, 94.4142 70.1213 C 93.6332 71.2929, 92.3668 71.2929, 91.5858 70.1213 C 90.8047 68.9497, 90.8047 67.0503, 91.5858 65.8787 C 92.3668 64.7071, 93.6332 64.7071, 94.4142 65.8787" fill="#dccf9f" fill-opacity="0.501961" />
<path d="M 107.121 43.5858 C 108.293 44.3668, 108.293 45.6332, 107.121 46.4142 C 105.95 47.1953, 104.05 47.1953, 102.879 46.4142 C 101.707 45.6332, 101.707 44.3668, 102.879 43.5858 C 104.05 42.8047, 105.95 42.8047, 107.121 43.5858" fill="#b57262" fill-opacity="0.501961" />
<path d="M 75.0711 39.7574 C 78.9763 42.1005, 78.9763 45.8995, 75.0711 48.2426 C 71.1658 50.5858, 64.8342 50.5858, 60.9289 48.2426 C 57.0237 45.8995, 57.0237 42.1005, 60.9289 39.7574 C 64.8342 37.4142, 71.1658 37.4142, 75.0711 39.7574" fill="#c0c46a" fill-opacity="0.501961" />
<path d="M 20.4142 62.8787 C 21.1953 64.0503, 21.1953 65.9497, 20.4142 67.1213 C 19.6332 68.2929, 18.3668 68.2929, 17.5858 67.1213 C 16.8047 65.9497, 16.8047 64.0503, 17.5858 62.8787 C 18.3668 61.7071, 19.6332 61.7071, 20.4142 62.8787" fill="#ff7935" fill-opacity="0.501961" />
</g>
</svg>
