<svg version="1.1" width="1500" height="1511" xmlns="http://www.w3.org/2000/svg">
<rect x="0" y="0" width="1500" height="1511" fill="#646454" />
<g transform="scale(11.7188, 11.8047)">
<path d="M 9.11292 14.5105 L 1.02108 42.12 L 98.7281 32.7252 L 98.1685 -12.2435 Z" fill="#d7ca99" fill-opacity="0.501961" />
<path d="M -11.4104 136.394 L 143 113.961 L 82.0772 143 L -16 54.4754 Z" fill="#390a0e" fill-opacity="0.501961" />
<path d="M 109.243 39.1702 L 63.0788 57.1104 L 94.0988 116.329 L 143 129.965 Z" fill="#332f39" fill-opacity="0.501961" />
<path d="M 38.7595 35.383 L 16.8574 48.7216 L 27.4029 18.8643 L 40.7705 18.2279 Z" fill="#660d00" fill-opacity="0.501961" />
<path d="M 104.619 10.6682 L 44.9291 36.5931 L 69.4469 77.4084 L 53.1319 11.3336 Z" fill="#cccaa2" fill-opacity="0.501961" />
<path d="M 51.9665 108.005 L 42.1498 63.2382 L 77.3046 85.9473 L 90.8733 110.283 Z" fill="#7dab7a" fill-opacity="0.501961" />
<path d="M 68.7137 24.8576 L 29.7439 69.8922 L 143 -0.225096 L 85.8718 80.451 Z" fill="#466464" fill-opacity="0.501961" />
<path d="M 23.3058 10.1502 L 90.5926 36.5777 L 95.9478 65.3843 L 94.4688 17.3689 Z" fill="#b9c1a6" fill-opacity="0.501961" />
<path d="M 11.4732 71.5792 L 18.8881 40.8352 L 79.7105 86.9598 L 75.2595 66.8914 Z" fill="#194548" fill-opacity="0.501961" />
<path d="M 53.8557 7.94028 L 10.2746 6.57313 L 15.1452 -16 L 37.028 1.66902 Z" fill="#00273b" fill-opacity="0.501961" />
<path d="M 2.26411 51.7824 L 14.514 57.22 L 23.8259 18.1511 L 9.53771 11.5025 Z" fill="#bdb071" fill-opacity="0.501961" />
<path d="M 65.6491 56.8084 L 50.1724 46.2795 L 55.5039 64.3999 L 66.3377 68.5895 Z" fill="#f5b86a" fill-opacity="0.501961" />
<path d="M 118.384 72.4485 L 137.706 -3.04743 L 79.2103 2.28992 L 83.7456 -9.39229 Z" fill="#3d625c" fill-opacity="0.501961" />
<path d="M -15.7306 75.228 L 18.7459 74.3068 L 18.4667 125.135 L -16 129.468 Z" fill="#6b1f11" fill-opacity="0.501961" />
<path d="M 58.6683 80.5975 L 92.7657 70.8472 L 67.5713 27.3208 L 89.2068 34.9053 Z" fill="#2d3d4b" fill-opacity="0.501961" />
<path d="M 39.3646 20.4065 L 33.4886 41.7629 L 44.7763 38.1943 L 54.3996 20.8028 Z" fill="#e3932f" fill-opacity="0.501961" />
<path d="M 89.8931 143 L 104.721 126.966 L 21.8678 94.754 L 13.7181 143 Z" fill="#334943" fill-opacity="0.501961" />
<path d="M 135.721 143 L 95.6402 122.342 L 90.0051 81.2975 L 110.059 58.7612 Z" fill="#59342c" fill-opacity="0.501961" />
<path d="M 66.8606 27.3387 L 71.487 23.7873 L 80.2752 40.2704 L 45.1873 60.85 Z" fill="#756243" fill-opacity="0.501961" />
<path d="M 40.3194 29.6894 L 40.383 34.7698 L 55.0166 46.5563 L 61.6673 26.3499 Z" fill="#d3cca1" fill-opacity="0.501961" />
<path d="M 106.241 101.764 L 112.869 110.999 L 114.525 120.959 L 103.913 113.836 Z" fill="#b57057" fill-opacity="0.501961" />
<path d="M 77.4201 4.22177 L -16 13.6558 L 49.2143 19.8346 L 43.8052 -12.8366 Z" fill="#9caba6" fill-opacity="0.501961" />
<path d="M 44.1134 83.5945 L 74.214 91.7108 L 105.953 109.732 L 102.915 106.741 Z" fill="#2a4241" fill-opacity="0.501961" />
<path d="M 19.9166 42.2777 L 62.2192 83.2053 L 23.5103 73.1789 L 56.7011 43.4997 Z" fill="#457d6b" fill-opacity="0.501961" />
<path d="M 32.4386 37.4628 L 43.4034 17.8657 L 29.2078 21.9958 L 18.6105 44.7095 Z" fill="#803002" fill-opacity="0.501961" />
<path d="M 31.2402 62.9278 L 37.5691 61.7983 L 61.3951 70.9098 L 54.2461 57.6558 Z" fill="#572b07" fill-opacity="0.501961" />
<path d="M 120.001 22.2606 L 138.026 -16 L 143 13.1912 L 104.887 -16 Z" fill="#173a51" fill-opacity="0.501961" />
<path d="M 65.6768 44.4296 L 73.9388 50.7847 L 75.8671 38.3727 L 65.5664 31.3409 Z" fill="#a69b73" fill-opacity="0.501961" />
<path d="M 122.704 45.4246 L 121.23 74.1388 L 139.802 83.1738 L 142.085 0.231266 Z" fill="#877785" fill-opacity="0.501961" />
<path d="M 31.8795 64.9983 L 83.2104 95.9984 L 58.5751 70.8356 L 72.8698 73.9604 Z" fill="#87a080" fill-opacity="0.501961" />
<path d="M 94.3055 119.091 L 13.1946 87.6146 L 98.6397 143 L 94.7161 114.146 Z" fill="#5d6544" fill-opacity="0.501961" />
<path d="M 67.9566 54.7976 L 54.8537 52.9087 L 66.0467 63.8446 L 66.6185 60.3652 Z" fill="#c5cdb4" fill-opacity="0.501961" />
<path d="M 64.8605 43.0299 L 62.4989 28.9256 L 56.279 44.9729 L 82.351 68.4922 Z" fill="#3f3a2f" fill-opacity="0.501961" />
<path d="M 77.206 25.696 L 98.1774 42.0464 L 80.2944 2.61226 L 55.9224 26.6677 Z" fill="#bcc3a0" fill-opacity="0.501961" />
<path d="M 84.9148 46.0364 L 143 21.6895 L 94.2762 17.5908 L 95.7416 78.5987 Z" fill="#616c67" fill-opacity="0.501961" />
<path d="M 57.1504 86.7983 L 58.1063 85.7807 L 40.3157 86.783 L 78.9022 94.5132 Z" fill="#1c4045" fill-opacity="0.501961" />
<path d="M 95.5346 112.077 L 67.8246 93.7702 L 58.0551 89.8962 L 56.363 106.363 Z" fill="#979b6d" fill-opacity="0.501961" />
<path d="M 15.1271 57.057 L 52.3461 42.5465 L 23.5729 41.6925 L 26.3466 73.8819 Z" fill="#1f474e" fill-opacity="0.501961" />
<path d="M 92.7676 87.76 L 103.137 75.7977 L 114.458 106.672 L 104.947 22.0201 Z" fill="#2d3e37" fill-opacity="0.501961" />
<path d="M 29.8323 9.58888 L 23.5205 15.2662 L 41.1472 18.2125 L 49.8034 14.4628 Z" fill="#dccbae" fill-opacity="0.501961" />
<path d="M 64.9573 63.0529 L 78.1828 89.7344 L 90.8063 48.8804 L 84.6086 32.7991 Z" fill="#2d4353" fill-opacity="0.501961" />
<path d="M -16 21.7824 L 28.1508 2.2682 L 46.4345 9.07929 L 19.9037 -16 Z" fill="#2b343e" fill-opacity="0.501961" />
<path d="M 48.8818 8.72455 L 50.9513 17.4676 L 87.2834 6.74632 L 104.111 -16 Z" fill="#7d9891" fill-opacity="0.501961" />
<path d="M 11.0274 114.121 L 15.8793 122.58 L 4.84735 133.351 L 5.71229 91.0322 Z" fill="#222823" fill-opacity="0.501961" />
<path d="M 57.9829 54.8549 L 58.7852 62.3452 L 58.4743 67.7549 L 51.2209 62.5978 Z" fill="#e26000" fill-opacity="0.501961" />
<path d="M -5.95797 94.9105 L 18.4581 66.8056 L 12.6303 100.627 L -2.18029 42.8512 Z" fill="#843427" fill-opacity="0.501961" />
<path d="M 14.2295 17.2438 L 38.0263 5.89469 L 6.6858 10.7568 L -4.76667 47.9788 Z" fill="#86807b" fill-opacity="0.501961" />
<path d="M 111.551 143 L 102.118 114.852 L 120.667 120.628 L 143 109.877 Z" fill="#79232a" fill-opacity="0.501961" />
<path d="M 3.26271 61.577 L 16.0026 21.7706 L 16.1133 61.954 L 7.15013 35.0871 Z" fill="#a39d4c" fill-opacity="0.501961" />
<path d="M 21.1192 117.162 L 16.7956 84.488 L 40.3924 143 L 49.8812 101.044 Z" fill="#2a2c33" fill-opacity="0.501961" />
<path d="M 83.1005 74.0515 L 11.6418 58.5789 L 58.3973 67.831 L 60.7803 83.371 Z" fill="#2d4541" fill-opacity="0.501961" />
<path d="M 79.3162 94.3458 L 70.3196 86.8204 L 68.1141 79.2013 L 82.6281 95.092 Z" fill="#b3bb9d" fill-opacity="0.501961" />
<path d="M 119.942 21.3941 L 133.124 -16 L 124.002 52.6653 L 116.992 75.2067 Z" fill="#387570" fill-opacity="0.501961" />
<path d="M 49.0055 27.0051 L 33.7608 17.0421 L 44.8735 20.4817 L 55.8449 12.1723 Z" fill="#a66732" fill-opacity="0.501961" />
<path d="M 48.4844 41.3329 L 44.4249 57.0489 L 33.7403 44.8481 L 34.0841 58.8618 Z" fill="#5e868c" fill-opacity="0.501961" />
<path d="M 75.765 45.5486 L 77.7813 31.1443 L 72.3316 41.2298 L 72.1891 46.2775 Z" fill="#c0702b" fill-opacity="0.501961" />
<path d="M 102.862 77.3136 L 102.447 100.07 L 113.137 96.813 L 113.377 117.589 Z" fill="#6d6253" fill-opacity="0.501961" />
<path d="M 92.6164 125.761 L 88.4773 109.507 L 87.8489 102.768 L 97.8533 123.613 Z" fill="#888e57" fill-opacity="0.501961" />
<path d="M 17.8685 52.2344 L 17.8955 54.8085 L 28.7113 72.5885 L 18.6243 68.0774 Z" fill="#0d2627" fill-opacity="0.501961" />
<path d="M 91.6933 34.3848 L 90.7693 80.0766 L 103.469 25.9916 L 98.4459 47.0794 Z" fill="#73757d" fill-opacity="0.501961" />
<path d="M 7.6746 24.5469 L 20.2998 34.5415 L 23.1723 30.2592 L 20.1579 18.308 Z" fill="#b6c497" fill-opacity="0.501961" />
<path d="M 41.7697 25.1394 L 33.1279 27.6516 L 27.0939 44.648 L 40.1917 35.1528 Z" fill="#a3520a" fill-opacity="0.501961" />
<path d="M 5.32584 71.5507 L 13.4872 48.6046 L 1.14536 54.828 L 1.59488 49.7026 Z" fill="#92514f" fill-opacity="0.501961" />
<path d="M 59.9999 34.4012 L 84.9709 34.0552 L 71.2558 29.369 L 65.453 27.9204 Z" fill="#474b48" fill-opacity="0.501961" />
<path d="M 42.0749 35.0058 L 36.8833 45.4897 L 35.9023 37.9214 L 61.836 44.9504 Z" fill="#a8ab6e" fill-opacity="0.501961" />
<path d="M 23.4307 46.243 L 24.5978 13.1531 L 6.31874 0.98308 L 27.9754 20.9115 Z" fill="#4d695a" fill-opacity="0.501961" />
<path d="M 9.83386 15.6621 L 7.36673 13.6962 L 17.1317 18.7178 L 8.96491 20.3047 Z" fill="#ba4838" fill-opacity="0.501961" />
<path d="M 43.1894 108.514 L 97.8245 119.145 L 43.3242 116.792 L 34.9624 97.469 Z" fill="#444531" fill-opacity="0.501961" />
<path d="M 120.007 51.987 L 117.267 17.4169 L 96.8732 10.4427 L 99.9215 33.3594 Z" fill="#656151" fill-opacity="0.501961" />
<path d="M 34.8423 85.2093 L 69.0384 87.0565 L 34.597 61.7099 L 48.2833 71.017 Z" fill="#709359" fill-opacity="0.501961" />
<path d="M 44.9095 73.3638 L 43.5499 76.1798 L 43.3308 76.681 L 20 69.6753 Z" fill="#1b523a" fill-opacity="0.501961" />
<path d="M 38.0514 64.3498 L 51.6674 52.2378 L 47.6978 67.9238 L 61.8624 68.3355 Z" fill="#243a39" fill-opacity="0.501961" />
<path d="M 8.69282 82.0401 L 53.7805 94.3181 L 41.4734 95.6174 L 37.7599 105.425 Z" fill="#655739" fill-opacity="0.501961" />
<path d="M 8.45247 9.97675 L 91.5528 16.5464 L 21.7624 5.98932 L 37.2718 7.17904 Z" fill="#98a196" fill-opacity="0.501961" />
<path d="M 68.7947 -9.05656 L 21.9915 -1.19436 L 80.6074 -0.58103 L 65.2982 23.9415 Z" fill="#888d81" fill-opacity="0.501961" />
<path d="M 66.014 76.7588 L 92.6292 103.264 L 83.3381 58.7486 L 80.2308 77.4872 Z" fill="#4d5362" fill-opacity="0.501961" />
<path d="M 47.0522 -1.27025 L -3.63889 14.2549 L 18.0894 4.54428 L 43.5649 9.08945 Z" fill="#2e5657" fill-opacity="0.501961" />
<path d="M 125.246 120.072 L 143 85.4484 L 116.553 71.1415 L 143 24.4165 Z" fill="#846267" fill-opacity="0.501961" />
<path d="M 25.9284 10.6539 L 9.16763 33.3145 L 7.25761 24.122 L 38.3973 17.9958 Z" fill="#b0b293" fill-opacity="0.501961" />
<path d="M 110.356 114.185 L 107.734 106.34 L 106.535 113.896 L 110.945 117.391 Z" fill="#e28265" fill-opacity="0.501961" />
<path d="M 8.52988 76.292 L 8.41887 60.4824 L 28.009 95.8513 L 17.4569 71.1953 Z" fill="#797973" fill-opacity="0.501961" />
<path d="M 63.6471 39.8669 L 69.2102 31.7362 L 73.6921 40.8614 L 68.9816 45.9531 Z" fill="#6c888e" fill-opacity="0.501961" />
<path d="M 58.4486 15.3302 L 49.2071 42.8225 L 83.7609 8.06167 L 92.8297 16.7387 Z" fill="#cbc4a4" fill-opacity="0.501961" />
<path d="M 17.5307 83.378 L 21.2793 86.6126 L 12.8998 65.7716 L 17.2413 130.797 Z" fill="#7e241b" fill-opacity="0.501961" />
<path d="M 46.0852 107.657 L 54.4889 89.916 L 73.1654 143 L 30.8698 63.339 Z" fill="#517658" fill-opacity="0.501961" />
<path d="M 49.0678 46.2255 L 51.9953 55.3026 L 53.7959 39.4797 L 46.4544 38.2346 Z" fill="#8fa186" fill-opacity="0.501961" />
<path d="M 16.6181 36.1828 L 10.1776 34.4943 L 17.4875 21.0466 L 12.5601 46.5719 Z" fill="#9a9533" fill-opacity="0.501961" />
<path d="M 143 95.222 L 112.17 120.995 L 114.716 76.7704 L 103.472 95.2642 Z" fill="#42372a" fill-opacity="0.501961" />
<path d="M 57.2145 65.0479 L 69.7434 68.1245 L 64.9125 63.552 L 65.7867 54.9356 Z" fill="#dabe89" fill-opacity="0.501961" />
<path d="M 117.93 88.7622 L 119.861 100.183 L 143 72.4139 L 111.034 81.3139 Z" fill="#375b42" fill-opacity="0.501961" />
<path d="M 97.3941 8.18241 L 78.3743 11.8206 L 72.5025 33.2437 L 93.8921 16.6506 Z" fill="#b7be87" fill-opacity="0.501961" />
<path d="M 69.443 47.0382 L 75.2956 43.302 L 69.3781 52.1441 L 61.6321 41.1583 Z" fill="#9f7032" fill-opacity="0.501961" />
<path d="M 29.8725 -9.51968 L 61.6113 8.26033 L 78.0834 5.77436 L 80.154 9.14287 Z" fill="#abb39e" fill-opacity="0.501961" />
<path d="M 75.1423 122.705 L 87.0675 124.447 L 71.8412 117.833 L 63.1189 122.976 Z" fill="#7e6f58" fill-opacity="0.501961" />
<path d="M 0.259614 -6.3881 L 28.5739 -16 L 4.39647 11.946 L 12.0534 21.0664 Z" fill="#7d5d57" fill-opacity="0.501961" />
<path d="M 5.17004 119.877 L -2.63502 124.001 L 5.30931 133.934 L -11.0425 63.8118 Z" fill="#83412d" fill-opacity="0.501961" />
<path d="M 55.3028 70.01 L 51.6436 68.5924 L 42.7706 65.9541 L 53.3938 84.9569 Z" fill="#759e84" fill-opacity="0.501961" />
<path d="M 53.5265 104.332 L 71.4036 102.748 L 86.5214 109.558 L 52.9043 110.54 Z" fill="#858561" fill-opacity="0.501961" />
<path d="M 57.6095 70.8998 L 60.1018 77.6237 L 60.4281 77.6072 L 52.1634 73.1419 Z" fill="#c2a982" fill-opacity="0.501961" />
<path d="M 84.107 33.0063 L 87.1559 34.2976 L 95.697 41.8633 L 69.8512 31.1091 Z" fill="#396473" fill-opacity="0.501961" />
<path d="M 33.3194 79.2043 L 21.874 81.6991 L 40.9946 84.8104 L 49.1773 71.2009 Z" fill="#687937" fill-opacity="0.501961" />
<path d="M 57.0243 21.2607 L 51.3807 25.8723 L 30.8223 18.2224 L 52.2863 21.2477 Z" fill="#b95b22" fill-opacity="0.501961" />
<path d="M 33.8935 0.206141 L -16 -13.4451 L 25.552 -4.65616 L 7.19097 9.78739 Z" fill="#15252a" fill-opacity="0.501961" />
<path d="M 77.8747 49.0187 L 67.1791 52.1776 L 68.005 71.5018 L 86.9974 54.9199 Z" fill="#33383d" fill-opacity="0.501961" />
<path d="M 72.5671 26.3076 L 59.2128 31.7137 L 74.482 31.1995 L 70.883 49.5612 Z" fill="#644a36" fill-opacity="0.501961" />
<path d="M 92.3895 23.8353 L 98.6115 15.743 L 100 42.8144 L 93.4268 30.4251 Z" fill="#688a72" fill-opacity="0.501961" />
<path d="M 43.4425 21.5615 L 56.2383 37.6404 L 43.1541 39.1498 L 43.2012 33.7994 Z" fill="#d2c18f" fill-opacity="0.501961" />
<path d="M 105.901 114.917 L 97.7743 128.155 L 94.9891 101.137 L 97.5264 61.459 Z" fill="#413432" fill-opacity="0.501961" />
<path d="M 85.496 13.4418 L 97.0161 39.362 L 50.4867 15.408 L 80.122 25.8769 Z" fill="#b3c29e" fill-opacity="0.501961" />
<path d="M 98.1762 -16 L 111.972 10.8715 L 101.598 10.2841 L 113.832 -16 Z" fill="#33493b" fill-opacity="0.501961" />
<path d="M 39.2769 19.3476 L 32.5707 33.0976 L 25.5455 35.4484 L 15.4561 42.7541 Z" fill="#643a1b" fill-opacity="0.501961" />
<path d="M 14.2602 89.4773 L -16 96.1088 L 11.6617 101.199 L -9.01482 124.656 Z" fill="#3f2e29" fill-opacity="0.501961" />
<path d="M 100.761 106.756 L 101.214 72.618 L 107.709 103.312 L 103.993 99.3659 Z" fill="#725147" fill-opacity="0.501961" />
<path d="M 75.0172 47.3353 L 73.7865 34.9816 L 77.7804 38.513 L 72.1098 48.7019 Z" fill="#d48a3f" fill-opacity="0.501961" />
<path d="M 42.031 104.939 L 94.6374 143 L 59.5761 143 L 47.9058 98.0177 Z" fill="#3a5954" fill-opacity="0.501961" />
<path d="M 50.9215 15.0701 L 59.8892 9.78204 L 34.3836 17.5774 L 31.6544 10.4591 Z" fill="#c7c7af" fill-opacity="0.501961" />
<path d="M 44.5606 60.9805 L 56.3958 69.2005 L 75.8144 75.7123 L 78.8531 74.8676 Z" fill="#332a22" fill-opacity="0.501961" />
<path d="M 30.9571 43.9824 L 20.6299 63.0646 L 20.022 43.1762 L 43.702 49.3424 Z" fill="#285f6c" fill-opacity="0.501961" />
<path d="M 29.8396 -9.0678 L 49.1758 9.94763 L 47.6917 -5.55048 L 29.6903 -6.33648 Z" fill="#51838f" fill-opacity="0.501961" />
<path d="M 86.3815 90.9542 L 99.407 93.4373 L 94.7464 97.9532 L 94.9673 120.268 Z" fill="#6a494f" fill-opacity="0.501961" />
<path d="M 70.8985 91.0642 L 83.9734 95.0782 L 68.8449 82.3108 L 65.3887 83.4899 Z" fill="#a2ae8b" fill-opacity="0.501961" />
<path d="M 70.6377 99.6603 L 58.4921 102.427 L 55.9601 88.5384 L 66.8988 93.7766 Z" fill="#96a67b" fill-opacity="0.501961" />
<path d="M 1.17601 42.9904 L 7.76587 -4.63866 L 5.42545 43.9843 L -1.07364 46.0433 Z" fill="#70766b" fill-opacity="0.501961" />
<path d="M 18.4155 41.4063 L 15.7299 30.1977 L 22.8968 27.9638 L 15.4185 45.6001 Z" fill="#c1c699" fill-opacity="0.501961" />
<path d="M 27.0372 39.4808 L 22.8227 41.3429 L 18.289 42.4588 L 38.7221 27.5833 Z" fill="#ac3c11" fill-opacity="0.501961" />
<path d="M 8.25611 108.201 L 19.6135 111.009 L 17.8492 114.859 L 16.7302 101.063 Z" fill="#8b2619" fill-opacity="0.501961" />
<path d="M 12.7071 25.6364 L 7.02853 38.1693 L 12.4377 49.1206 L 6.69359 22.9746 Z" fill="#c2b890" fill-opacity="0.501961" />
<path d="M 39.8542 40.4679 L 44.3427 41.2732 L 47.4007 45.3976 L 38.9008 49.3939 Z" fill="#1f4950" fill-opacity="0.501961" />
<path d="M 47.0507 143 L 18.8901 87.5512 L 17.7671 123.336 L 29.9733 101.152 Z" fill="#2b2e36" fill-opacity="0.501961" />
<path d="M 24.4523 16.33 L 19.7721 17.1695 L 21.0878 26.2838 L 26.1639 29.308 Z" fill="#808952" fill-opacity="0.501961" />
<path d="M 17.4806 68.7771 L 27.4604 93.5638 L 20.7033 89.5757 L 29.6814 75.7851 Z" fill="#697d5f" fill-opacity="0.501961" />
<path d="M 36.9832 8.29636 L 23.8901 5.53662 L 27.2731 3.35798 L 41.2769 13.9483 Z" fill="#73887e" fill-opacity="0.501961" />
<path d="M 94.9656 38.1665 L 116.26 53.4899 L 97.4389 13.8511 L 102.752 50.1025 Z" fill="#4c5948" fill-opacity="0.501961" />
<path d="M 67.08 71.5551 L 60.9963 51.5391 L 65.0784 63.9615 L 68.0444 66.42 Z" fill="#beac71" fill-opacity="0.501961" />
<path d="M 39.712 16.3768 L 10.9269 13.7552 L 11.3067 11.585 L 11.075 16.6711 Z" fill="#c3beaa" fill-opacity="0.501961" />
<path d="M 107.076 106.031 L 113.677 108.029 L 104.643 116.939 L 106.249 112.846 Z" fill="#b6725d" fill-opacity="0.501961" />
<path d="M 67.8393 29.9469 L 60.3782 32.6202 L 58.0655 33.1518 L 59.4691 43.5563 Z" fill="#594d31" fill-opacity="0.501961" />
<path d="M 1.5972 125.783 L -13.5977 122.827 L -7.49876 126.86 L 1.97981 122.03 Z" fill="#b59b86" fill-opacity="0.501961" />
<path d="M 33.3754 53.3333 L 34.0867 52.229 L 45.8576 57.3689 L 45.8638 46.6983 Z" fill="#688a89" fill-opacity="0.501961" />
<path d="M 74.3663 84.8279 L 74.8692 71.6799 L 94.1993 44.0248 L 80.8118 91.221 Z" fill="#36505e" fill-opacity="0.501961" />
<path d="M 106.419 0.073554 L 114.747 1.50632 L 75.0804 -16 L 70.0228 6.55183 Z" fill="#728d7d" fill-opacity="0.501961" />
<path d="M 126.506 127 L 130.836 66.5288 L 138.478 138.317 L 15.8125 129.102 Z" fill="#89564e" fill-opacity="0.501961" />
<path d="M 68.2262 87.9897 L 19.5783 83.8162 L 80.7224 92.7597 L 71.6905 95.1197 Z" fill="#38544f" fill-opacity="0.501961" />
<path d="M 57.1931 42.3276 L 58.724 54.141 L 76.6538 50.2818 L 54.2714 51.5592 Z" fill="#5c7865" fill-opacity="0.501961" />
<path d="M 2.99238 105.341 L -16 96.4546 L -13.4091 104.354 L -16 116.742 Z" fill="#b77261" fill-opacity="0.501961" />
<path d="M 43.5949 68.5131 L 30.5698 72.615 L 43.6209 54.5703 L 26.528 50.8461 Z" fill="#5f7868" fill-opacity="0.501961" />
<path d="M 66.4113 54.2938 L 65.0575 61.1553 L 53.221 51.8986 L 55.2416 56.3017 Z" fill="#d6c8a0" fill-opacity="0.501961" />
<path d="M 105.32 104 L 112.061 95.4802 L 111.658 100.407 L 112.925 103.274 Z" fill="#4b6f67" fill-opacity="0.501961" />
<path d="M 5.54905 13.9103 L 6.73729 32.5069 L 0.470425 16.6683 L 5.48251 5.20806 Z" fill="#587271" fill-opacity="0.501961" />
<path d="M 85.4443 123.824 L 81.669 120.221 L 84.2055 114.442 L 69.5799 113.4 Z" fill="#3b402e" fill-opacity="0.501961" />
<path d="M 37.8388 43.6655 L 36.8558 27.9339 L 39.7954 32.8961 L 43.2059 33.5738 Z" fill="#c89c43" fill-opacity="0.501961" />
<path d="M 110.759 108.762 L 106.219 36.0926 L 111.69 46.5654 L 102.556 64.9435 Z" fill="#3a3734" fill-opacity="0.501961" />
<path d="M 39.6389 92.681 L 57.2057 94.4198 L 32.0539 95.6479 L 36.4221 93.0652 Z" fill="#5d6826" fill-opacity="0.501961" />
<path d="M 9.48309 52.0951 L 5.59527 35.5919 L 12.6674 70.0173 L -0.364783 38.2069 Z" fill="#918376" fill-opacity="0.501961" />
<path d="M 25.6405 31.905 L 25.7078 23.9138 L 37.1361 18.2456 L 33.4716 44.4803 Z" fill="#6e3818" fill-opacity="0.501961" />
<path d="M 20.1488 43.2663 L 17.5945 45.2647 L 17.4754 59.1073 L 27.7665 39.4768 Z" fill="#264948" fill-opacity="0.501961" />
<path d="M 78.8199 93.2776 L 66.9468 87.893 L 74.6901 87.8535 L 82.8416 93.3337 Z" fill="#a3b488" fill-opacity="0.501961" />
<path d="M 23.598 12.6991 L 23.5753 14.048 L 19.9352 14.2241 L 9.53874 7.3138 Z" fill="#377976" fill-opacity="0.501961" />
<path d="M 61.543 51.5746 L 60.4477 47.1762 L 59.9981 37.7954 L 70.3321 57.9792 Z" fill="#41453c" fill-opacity="0.501961" />
<path d="M 86.3897 14.9149 L 95.225 40.727 L 72.9355 17.6652 L 75.1758 4.74377 Z" fill="#bcbf95" fill-opacity="0.501961" />
<path d="M 91.1919 57.5101 L 90.5407 75.7615 L 95.7333 74.6077 L 96.8411 47.3364 Z" fill="#716a73" fill-opacity="0.501961" />
<path d="M 35.8233 4.06039 L -16 -8.38606 L 13.1279 -16 L 49.1547 9.02248 Z" fill="#282e32" fill-opacity="0.501961" />
<path d="M -11.1625 -16 L 11.6164 0.619206 L -16 11.3783 L 4.16043 29.3738 Z" fill="#6e443c" fill-opacity="0.501961" />
<path d="M 98.7083 -16 L 92.9438 25.639 L 92.684 23.0065 L 100.139 20.5268 Z" fill="#817d58" fill-opacity="0.501961" />
<path d="M 117.09 45.1455 L 112.203 98.1147 L 122.428 48.6748 L 124.245 31.7199 Z" fill="#325b4d" fill-opacity="0.501961" />
<path d="M 124.872 122.223 L 124.571 122.772 L 123.715 125.395 L 111.107 122.442 Z" fill="#745756" fill-opacity="0.501961" />
<path d="M 113.733 110.466 L 121.533 110.495 L 97.6708 136.173 L 121.307 143 Z" fill="#6a1f1a" fill-opacity="0.501961" />
<path d="M 19.3678 75.3847 L 14.9321 81.3095 L 9.18216 86.7576 L 10.1725 91.3137 Z" fill="#a63f28" fill-opacity="0.501961" />
<path d="M 58.8794 46.5432 L 58.816 34.7458 L 51.2553 58.8467 L 55.012 50.7868 Z" fill="#8d874c" fill-opacity="0.501961" />
<path d="M 109.791 54.4474 L 108.047 47.5717 L 89.0659 83.2973 L 91.1584 91.7818 Z" fill="#313a3c" fill-opacity="0.501961" />
<path d="M 5.7859 38.521 L 5.61597 52.4718 L 18.2017 35.0734 L -5.97703 33.9835 Z" fill="#b49d5a" fill-opacity="0.501961" />
<path d="M 34.4836 69.7791 L 31.4055 65.9866 L 41.575 66.6856 L 48.5039 66.917 Z" fill="#749577" fill-opacity="0.501961" />
<path d="M 23.0633 88.5063 L 23.4525 82.7973 L 25.9842 95.5783 L 39.1408 104.363 Z" fill="#816d52" fill-opacity="0.501961" />
<path d="M 136.342 15.1097 L 121.829 10.0971 L 117.756 21.2431 L 116.89 -16 Z" fill="#27414f" fill-opacity="0.501961" />
<path d="M 35.204 40.6774 L 33.6121 38.245 L 38.9217 41.286 L 36.088 42.6303 Z" fill="#cfb42e" fill-opacity="0.501961" />
<path d="M 9.89539 77.9068 L 21.4665 86.9784 L 6.11575 81.9591 L 4.84031 112.424 Z" fill="#452c26" fill-opacity="0.501961" />
<path d="M 13.6362 78.6969 L -8.70656 85.5518 L -3.19263 82.394 L 18.5086 75.5069 Z" fill="#a42c1a" fill-opacity="0.501961" />
<path d="M 53.4421 70.3126 L 24.9955 79.5098 L 26.4893 78.1186 L 31.5775 72.9638 Z" fill="#346958" fill-opacity="0.501961" />
<path d="M 67.5689 91.6781 L 31.6173 85.2005 L 69.4288 90.122 L 84.9803 98.1257 Z" fill="#24494d" fill-opacity="0.501961" />
<path d="M 90.8648 5.57099 L 87.0582 30.4752 L 96.8615 12.2646 L 87.2192 11.3938 Z" fill="#aeb672" fill-opacity="0.501961" />
<path d="M 50.9593 143 L 56.0956 111.451 L 65.2145 115.125 L 29.5914 127.917 Z" fill="#303b46" fill-opacity="0.501961" />
<path d="M 109.399 41.1266 L 123.225 31.1658 L 122.127 10.7183 L 143 24.4455 Z" fill="#517575" fill-opacity="0.501961" />
<path d="M 9.51339 51.8129 L 13.384 59.7727 L 21.0713 68.1803 L 14.4276 70.0701 Z" fill="#473c3b" fill-opacity="0.501961" />
<path d="M 50.7997 8.90732 L 52.9213 10.7487 L 64.3276 10.1126 L 42.6056 5.16528 Z" fill="#5d8572" fill-opacity="0.501961" />
<path d="M 29.4925 138.978 L 21.1527 111.795 L 30.0779 121.42 L 23.1711 136.127 Z" fill="#544d4e" fill-opacity="0.501961" />
<path d="M 59.825 75.4042 L 53.9117 68.6471 L 51.7941 70.9314 L 41.5293 65.2052 Z" fill="#afac87" fill-opacity="0.501961" />
<path d="M 54.3975 68.6823 L 54.8521 63.2092 L 52.8608 57.1805 L 60.2488 54.4518 Z" fill="#cc681f" fill-opacity="0.501961" />
<path d="M 46.4807 61.236 L 51.9355 58.9049 L 48.1941 45.346 L 47.6516 40.5163 Z" fill="#384a4a" fill-opacity="0.501961" />
<path d="M 52.1456 1.93983 L 39.2466 -4.19855 L 59.9688 -11.1321 L 61.626 1.19907 Z" fill="#c2c0b0" fill-opacity="0.501961" />
<path d="M 127.225 115.75 L 114.03 72.3786 L 105.843 46.9285 L 124.784 129.197 Z" fill="#474339" fill-opacity="0.501961" />
<path d="M 81.3755 104.318 L 72.984 94.2602 L 79.6078 107.146 L 39.7298 101.194 Z" fill="#667a5b" fill-opacity="0.501961" />
<path d="M 77.2174 38.5967 L 74.5857 33.8874 L 71.3016 51.2202 L 72.4041 49.9232 Z" fill="#c27f36" fill-opacity="0.501961" />
<path d="M 6.03263 77.0102 L 9.32692 51.6093 L -1.09251 75.5166 L 20.3896 72.6947 Z" fill="#805349" fill-opacity="0.501961" />
<path d="M 17.2967 80.6938 L 16.5925 76.0195 L 15.4384 70.0029 L 28.135 73.009 Z" fill="#817d51" fill-opacity="0.501961" />
<path d="M -13.5106 129.62 L 3.67128 110.269 L 5.98524 121.952 L -12.0254 102.775 Z" fill="#92311a" fill-opacity="0.501961" />
<path d="M 104.93 19.4227 L 90.5331 26.2946 L 114.168 22.6587 L 67.0976 -16 Z" fill="#637763" fill-opacity="0.501961" />
<path d="M 64.9046 42.7111 L 68.7731 42.0192 L 70.3574 36.5984 L 67.8878 34.2917 Z" fill="#8ea39a" fill-opacity="0.501961" />
<path d="M 7.32253 109.374 L -16 105.395 L 16.7103 115.848 L -14.7213 80.1203 Z" fill="#37241d" fill-opacity="0.501961" />
<path d="M 107.707 95.9566 L 106.863 92.2781 L 112.279 85.8241 L 115.581 96.0748 Z" fill="#282627" fill-opacity="0.501961" />
<path d="M 73.5993 53.1959 L 77.9324 32.1388 L 86.6013 63.6141 L 72.2657 54.4927 Z" fill="#3e424a" fill-opacity="0.501961" />
</g>
</svg>
