<svg version="1.1" width="1500" height="1897" xmlns="http://www.w3.org/2000/svg">
<rect x="0" y="0" width="1500" height="1897" fill="#7f654b" />
<g transform="scale(14.8515, 14.8203)">
<path d="M 116 30 L 39 -16 L -16 40 Z" fill="#fba154" fill-opacity="0.501961" />
<path d="M 95 105 L 99 27 L 48 57 Z" fill="#001d31" fill-opacity="0.501961" />
<path d="M 108 122 L 32 121 L 31 76 Z" fill="#33302b" fill-opacity="0.501961" />
<path d="M 18 44 L 12 56 L 60 50 Z" fill="#d6ce9f" fill-opacity="0.501961" />
<path d="M 116 26 L 32 41 L 86 -16 Z" fill="#d29352" fill-opacity="0.501961" />
<path d="M 54 84 L 55 60 L 34 70 Z" fill="#c8bf7f" fill-opacity="0.501961" />
<path d="M 65 100 L 54 38 L 98 32 Z" fill="#262f3d" fill-opacity="0.501961" />
<path d="M 4 62 L 44 143 L 8 120 Z" fill="#b7845f" fill-opacity="0.501961" />
<path d="M 34 66 L 48 55 L 17 55 Z" fill="#01255f" fill-opacity="0.501961" />
<path d="M -16 6 L 76 -16 L 113 38 Z" fill="#b37a50" fill-opacity="0.501961" />
<path d="M 106 109 L 70 92 L 116 131 Z" fill="#d3aa6a" fill-opacity="0.501961" />
<path d="M 50 30 L 78 17 L 26 24 Z" fill="#e5c97d" fill-opacity="0.501961" />
<path d="M 37 143 L 51 100 L 29 98 Z" fill="#2b292d" fill-opacity="0.501961" />
<path d="M 93 44 L 54 77 L 103 108 Z" fill="#324939" fill-opacity="0.501961" />
<path d="M 15 36 L 45 40 L -8 47 Z" fill="#313d53" fill-opacity="0.501961" />
<path d="M 56 82 L 44 143 L 74 92 Z" fill="#8b6f4d" fill-opacity="0.501961" />
<path d="M 11 47 L 30 58 L 57 42 Z" fill="#aba181" fill-opacity="0.501961" />
<path d="M 65 16 L 25 24 L 45 13 Z" fill="#9e3911" fill-opacity="0.501961" />
<path d="M 11 67 L 1 51 L 10 46 Z" fill="#1d2e45" fill-opacity="0.501961" />
<path d="M 78 14 L 116 26 L 116 13 Z" fill="#882e16" fill-opacity="0.501961" />
<path d="M 82 106 L 107 143 L 98 116 Z" fill="#0f2b26" fill-opacity="0.501961" />
<path d="M 95 143 L 64 102 L 111 138 Z" fill="#ab7a48" fill-opacity="0.501961" />
<path d="M -16 -1 L 9 8 L -1 60 Z" fill="#cd8659" fill-opacity="0.501961" />
<path d="M 100 63 L 99 109 L 116 103 Z" fill="#e3cc82" fill-opacity="0.501961" />
<path d="M 73 30 L 50 39 L 29 34 Z" fill="#f1c461" fill-opacity="0.501961" />
<path d="M 34 40 L 71 53 L 67 39 Z" fill="#505b78" fill-opacity="0.501961" />
<path d="M 66 102 L 52 84 L 80 104 Z" fill="#233437" fill-opacity="0.501961" />
<path d="M 47 88 L 58 67 L 51 60 Z" fill="#bea973" fill-opacity="0.501961" />
<path d="M 34 81 L 29 98 L 15 71 Z" fill="#a98066" fill-opacity="0.501961" />
<path d="M 55 136 L 83 143 L 49 116 Z" fill="#cbac6e" fill-opacity="0.501961" />
<path d="M 29 95 L 13 76 L 29 113 Z" fill="#8e2d15" fill-opacity="0.501961" />
<path d="M 95 46 L 52 40 L 76 34 Z" fill="#121c3e" fill-opacity="0.501961" />
<path d="M -10 34 L -16 24 L 20 24 Z" fill="#c8cda0" fill-opacity="0.501961" />
<path d="M 99 38 L 81 95 L 98 99 Z" fill="#3e574a" fill-opacity="0.501961" />
<path d="M 113 -11 L 81 14 L 32 8 Z" fill="#bc9a68" fill-opacity="0.501961" />
<path d="M 55 102 L 77 118 L 76 130 Z" fill="#27332e" fill-opacity="0.501961" />
<path d="M 49 54 L 89 53 L 62 71 Z" fill="#2b2228" fill-opacity="0.501961" />
<path d="M 2 98 L -13 111 L 8 133 Z" fill="#553d28" fill-opacity="0.501961" />
<path d="M 91 22 L 70 25 L 102 30 Z" fill="#a44720" fill-opacity="0.501961" />
<path d="M 40 60 L 52 59 L 41 88 Z" fill="#a0996b" fill-opacity="0.501961" />
<path d="M 77 103 L 65 87 L 102 108 Z" fill="#b78e60" fill-opacity="0.501961" />
<path d="M 29 29 L 6 27 L -3 36 Z" fill="#bc4e22" fill-opacity="0.501961" />
<path d="M 11 53 L 32 80 L 38 68 Z" fill="#584d53" fill-opacity="0.501961" />
<path d="M -16 3 L 68 5 L 42 -16 Z" fill="#92795f" fill-opacity="0.501961" />
<path d="M 75 23 L 34 31 L 55 33 Z" fill="#ca6434" fill-opacity="0.501961" />
<path d="M 38 56 L 6 45 L 53 43 Z" fill="#a89978" fill-opacity="0.501961" />
<path d="M 8 -2 L -1 20 L 12 23 Z" fill="#aa5335" fill-opacity="0.501961" />
<path d="M 102 24 L 80 17 L 62 24 Z" fill="#d6b16a" fill-opacity="0.501961" />
<path d="M 8 67 L 16 65 L 13 49 Z" fill="#b0936e" fill-opacity="0.501961" />
<path d="M 69 143 L 51 105 L 68 122 Z" fill="#956a38" fill-opacity="0.501961" />
<path d="M 1 74 L 6 92 L 7 74 Z" fill="#783222" fill-opacity="0.501961" />
<path d="M 62 52 L 95 101 L 56 80 Z" fill="#323633" fill-opacity="0.501961" />
<path d="M 50 48 L 78 48 L 60 53 Z" fill="#847c71" fill-opacity="0.501961" />
<path d="M 56 41 L 67 43 L 50 45 Z" fill="#9a8f79" fill-opacity="0.501961" />
<path d="M 82 26 L 57 33 L 102 33 Z" fill="#cfac61" fill-opacity="0.501961" />
<path d="M -16 75 L -1 22 L 1 115 Z" fill="#b09c6d" fill-opacity="0.501961" />
<path d="M 45 16 L 8 20 L 25 12 Z" fill="#d09f6d" fill-opacity="0.501961" />
<path d="M 4 100 L 8 82 L 23 127 Z" fill="#b5885f" fill-opacity="0.501961" />
<path d="M 78 94 L 66 92 L 57 82 Z" fill="#c99a5f" fill-opacity="0.501961" />
<path d="M 116 41 L 73 41 L 94 33 Z" fill="#314163" fill-opacity="0.501961" />
<path d="M 70 39 L 91 51 L 90 43 Z" fill="#1e1511" fill-opacity="0.501961" />
<path d="M 50 56 L 27 56 L 29 65 Z" fill="#252e49" fill-opacity="0.501961" />
<path d="M 50 29 L 19 26 L 39 22 Z" fill="#d9b875" fill-opacity="0.501961" />
<path d="M 24 116 L 15 107 L 15 90 Z" fill="#7e402d" fill-opacity="0.501961" />
<path d="M 39 44 L 33 40 L 23 43 Z" fill="#273850" fill-opacity="0.501961" />
<path d="M 92 57 L 116 32 L 116 6 Z" fill="#817d6e" fill-opacity="0.501961" />
<path d="M 3 5 L 42 11 L 1 16 Z" fill="#b8633a" fill-opacity="0.501961" />
<path d="M 26 85 L 33 84 L 17 71 Z" fill="#5b5457" fill-opacity="0.501961" />
<path d="M 1 0 L 48 2 L 67 -16 Z" fill="#ac6138" fill-opacity="0.501961" />
<path d="M 17 30 L 4 38 L 33 33 Z" fill="#dca656" fill-opacity="0.501961" />
<path d="M 32 93 L 27 92 L 24 85 Z" fill="#d0b681" fill-opacity="0.501961" />
<path d="M 24 63 L 53 75 L 49 88 Z" fill="#928060" fill-opacity="0.501961" />
<path d="M 49 53 L 14 56 L 33 48 Z" fill="#9c9b85" fill-opacity="0.501961" />
<path d="M 12 37 L 23 38 L 2 42 Z" fill="#302a2c" fill-opacity="0.501961" />
<path d="M 51 85 L 71 94 L 28 101 Z" fill="#4e4745" fill-opacity="0.501961" />
<path d="M 61 51 L 57 62 L 44 55 Z" fill="#292f3f" fill-opacity="0.501961" />
<path d="M 5 90 L 4 116 L 18 138 Z" fill="#9f684f" fill-opacity="0.501961" />
<path d="M -13 38 L -9 16 L 12 27 Z" fill="#c9b780" fill-opacity="0.501961" />
<path d="M 0 38 L 22 28 L 5 30 Z" fill="#ad4c29" fill-opacity="0.501961" />
<path d="M 82 125 L 81 110 L 59 103 Z" fill="#7c5239" fill-opacity="0.501961" />
<path d="M 37 133 L 41 111 L 44 143 Z" fill="#736857" fill-opacity="0.501961" />
<path d="M 12 48 L 27 52 L 12 55 Z" fill="#cbaa66" fill-opacity="0.501961" />
<path d="M 55 39 L 68 33 L 43 33 Z" fill="#dea853" fill-opacity="0.501961" />
<path d="M 87 18 L 75 14 L 67 17 Z" fill="#b75b22" fill-opacity="0.501961" />
<path d="M 66 110 L 53 103 L 71 123 Z" fill="#2c3732" fill-opacity="0.501961" />
<path d="M -9 143 L 27 111 L 38 138 Z" fill="#97836a" fill-opacity="0.501961" />
<path d="M 75 -4 L 102 4 L 54 3 Z" fill="#b29e71" fill-opacity="0.501961" />
<path d="M 98 46 L 70 50 L 87 60 Z" fill="#4a3d3f" fill-opacity="0.501961" />
<path d="M 104 -1 L 83 -16 L 28 2 Z" fill="#99643d" fill-opacity="0.501961" />
<path d="M 36 99 L 45 85 L 45 124 Z" fill="#393533" fill-opacity="0.501961" />
<path d="M 75 22 L 64 28 L 94 28 Z" fill="#b25b2d" fill-opacity="0.501961" />
<path d="M 76 110 L 62 103 L 59 94 Z" fill="#986d43" fill-opacity="0.501961" />
<path d="M -1 62 L 10 63 L 10 45 Z" fill="#4b4542" fill-opacity="0.501961" />
<path d="M 47 47 L 56 48 L 56 44 Z" fill="#2c3d66" fill-opacity="0.501961" />
<path d="M 81 119 L 96 126 L 84 126 Z" fill="#a99969" fill-opacity="0.501961" />
<path d="M 19 68 L 35 86 L 27 84 Z" fill="#ab7c55" fill-opacity="0.501961" />
<path d="M 17 30 L 39 32 L 33 27 Z" fill="#cd572a" fill-opacity="0.501961" />
<path d="M 46 41 L 66 42 L 62 37 Z" fill="#363c60" fill-opacity="0.501961" />
<path d="M 38 62 L 55 87 L 50 64 Z" fill="#a09766" fill-opacity="0.501961" />
<path d="M 68 54 L 57 72 L 80 54 Z" fill="#1e1b1e" fill-opacity="0.501961" />
<path d="M 40 48 L 59 49 L 45 54 Z" fill="#beaa7e" fill-opacity="0.501961" />
<path d="M 82 88 L 90 101 L 93 88 Z" fill="#546450" fill-opacity="0.501961" />
<path d="M 40 19 L 67 16 L 50 13 Z" fill="#9f4820" fill-opacity="0.501961" />
<path d="M 29 99 L 36 100 L 42 78 Z" fill="#4f4441" fill-opacity="0.501961" />
<path d="M 7 64 L 3 71 L 3 64 Z" fill="#d9b077" fill-opacity="0.501961" />
<path d="M 23 71 L 32 70 L 14 58 Z" fill="#484043" fill-opacity="0.501961" />
<path d="M 40 58 L 37 69 L 17 56 Z" fill="#38435d" fill-opacity="0.501961" />
<path d="M 88 101 L 69 96 L 95 113 Z" fill="#896f59" fill-opacity="0.501961" />
<path d="M 4 45 L -3 54 L -12 38 Z" fill="#bda978" fill-opacity="0.501961" />
<path d="M 17 90 L 14 64 L 5 67 Z" fill="#8b5742" fill-opacity="0.501961" />
<path d="M 39 17 L 51 4 L 81 4 Z" fill="#c18451" fill-opacity="0.501961" />
<path d="M -1 16 L 27 22 L 9 23 Z" fill="#a4583b" fill-opacity="0.501961" />
<path d="M 28 -1 L 32 4 L 12 3 Z" fill="#97917d" fill-opacity="0.501961" />
<path d="M 116 24 L 116 3 L 95 9 Z" fill="#ccb177" fill-opacity="0.501961" />
<path d="M 31 120 L 36 104 L 40 132 Z" fill="#3c3936" fill-opacity="0.501961" />
<path d="M 27 20 L 29 15 L 10 19 Z" fill="#c0a37d" fill-opacity="0.501961" />
<path d="M 4 54 L 11 51 L 3 47 Z" fill="#273143" fill-opacity="0.501961" />
<path d="M 87 28 L 109 32 L 90 23 Z" fill="#a14f2d" fill-opacity="0.501961" />
<path d="M -5 70 L 3 0 L -16 35 Z" fill="#c89867" fill-opacity="0.501961" />
<path d="M 20 104 L 29 113 L 20 95 Z" fill="#ba9566" fill-opacity="0.501961" />
<path d="M 65 98 L 75 108 L 78 105 Z" fill="#232c28" fill-opacity="0.501961" />
<path d="M 83 116 L 101 124 L 83 107 Z" fill="#253029" fill-opacity="0.501961" />
<path d="M 111 69 L 96 115 L 115 122 Z" fill="#b8a16d" fill-opacity="0.501961" />
<path d="M 89 8 L 101 4 L 81 4 Z" fill="#b55b2f" fill-opacity="0.501961" />
<path d="M 49 62 L 57 70 L 46 88 Z" fill="#b29e6a" fill-opacity="0.501961" />
<path d="M 70 35 L 91 34 L 69 47 Z" fill="#28324c" fill-opacity="0.501961" />
<path d="M 16 18 L 3 19 L 20 13 Z" fill="#cf9663" fill-opacity="0.501961" />
<path d="M 53 71 L 40 89 L 47 68 Z" fill="#928855" fill-opacity="0.501961" />
<path d="M 45 124 L 45 108 L 42 116 Z" fill="#1f1b18" fill-opacity="0.501961" />
<path d="M 34 22 L 23 23 L 39 17 Z" fill="#af4f23" fill-opacity="0.501961" />
<path d="M 8 114 L 23 128 L 11 122 Z" fill="#755d55" fill-opacity="0.501961" />
<path d="M 78 90 L 71 88 L 67 72 Z" fill="#485d53" fill-opacity="0.501961" />
<path d="M 31 38 L 20 41 L 34 41 Z" fill="#767273" fill-opacity="0.501961" />
<path d="M 34 103 L 34 94 L 32 100 Z" fill="#856f5d" fill-opacity="0.501961" />
<path d="M 79 19 L 23 24 L 49 30 Z" fill="#d4ae6c" fill-opacity="0.501961" />
<path d="M 55 88 L 52 107 L 63 107 Z" fill="#6a5e53" fill-opacity="0.501961" />
<path d="M -9 -1 L 48 -11 L 24 2 Z" fill="#bc6f43" fill-opacity="0.501961" />
<path d="M 1 4 L 17 -3 L 12 3 Z" fill="#69605d" fill-opacity="0.501961" />
<path d="M 60 91 L 86 108 L 69 104 Z" fill="#363730" fill-opacity="0.501961" />
<path d="M 76 127 L 86 143 L 79 104 Z" fill="#714e37" fill-opacity="0.501961" />
<path d="M 52 55 L 72 43 L 82 49 Z" fill="#3d4657" fill-opacity="0.501961" />
<path d="M 98 23 L 115 17 L 116 42 Z" fill="#d8c685" fill-opacity="0.501961" />
<path d="M 41 47 L 35 44 L 52 43 Z" fill="#c0a878" fill-opacity="0.501961" />
<path d="M 0 10 L 19 10 L 11 6 Z" fill="#a18062" fill-opacity="0.501961" />
<path d="M 23 85 L 29 96 L 30 91 Z" fill="#c49c6a" fill-opacity="0.501961" />
<path d="M 28 70 L 11 58 L 20 71 Z" fill="#98775b" fill-opacity="0.501961" />
<path d="M 42 33 L 33 29 L 56 28 Z" fill="#ce6b37" fill-opacity="0.501961" />
<path d="M 18 72 L 30 82 L 31 91 Z" fill="#5d5659" fill-opacity="0.501961" />
<path d="M 97 102 L 99 53 L 86 58 Z" fill="#3a4d40" fill-opacity="0.501961" />
<path d="M 29 48 L 18 51 L 39 51 Z" fill="#77868c" fill-opacity="0.501961" />
<path d="M 39 102 L 41 92 L 59 118 Z" fill="#4b372e" fill-opacity="0.501961" />
<path d="M 39 32 L 31 38 L 58 37 Z" fill="#e6a94f" fill-opacity="0.501961" />
<path d="M 21 119 L 26 123 L 22 115 Z" fill="#7c4a41" fill-opacity="0.501961" />
<path d="M 16 72 L 22 81 L 17 80 Z" fill="#c78154" fill-opacity="0.501961" />
<path d="M 36 108 L 30 97 L 29 106 Z" fill="#2e2a2f" fill-opacity="0.501961" />
<path d="M 13 59 L 14 65 L 21 70 Z" fill="#b8946a" fill-opacity="0.501961" />
<path d="M 22 85 L 24 99 L 13 74 Z" fill="#7e3420" fill-opacity="0.501961" />
<path d="M 47 65 L 50 59 L 55 64 Z" fill="#c8a372" fill-opacity="0.501961" />
<path d="M 35 39 L 49 39 L 44 44 Z" fill="#403e51" fill-opacity="0.501961" />
<path d="M 3 122 L 2 96 L -7 128 Z" fill="#534a39" fill-opacity="0.501961" />
<path d="M 39 10 L 50 7 L 60 10 Z" fill="#c8ad72" fill-opacity="0.501961" />
<path d="M 4 72 L 18 91 L 11 67 Z" fill="#9f7354" fill-opacity="0.501961" />
<path d="M 7 53 L 5 64 L 9 73 Z" fill="#80664f" fill-opacity="0.501961" />
<path d="M 3 143 L -16 117 L -4 70 Z" fill="#897a59" fill-opacity="0.501961" />
<path d="M 37 58 L 52 59 L 53 52 Z" fill="#2a2e3a" fill-opacity="0.501961" />
<path d="M 55 98 L 36 107 L 46 86 Z" fill="#53453d" fill-opacity="0.501961" />
<path d="M 38 22 L 16 26 L 41 29 Z" fill="#cfa86a" fill-opacity="0.501961" />
<path d="M 51 82 L 55 90 L 52 87 Z" fill="#373b42" fill-opacity="0.501961" />
<path d="M 3 85 L 2 95 L 6 93 Z" fill="#7a3d27" fill-opacity="0.501961" />
<path d="M 96 84 L 100 65 L 94 62 Z" fill="#54624d" fill-opacity="0.501961" />
<path d="M 61 6 L 42 8 L 44 3 Z" fill="#b37144" fill-opacity="0.501961" />
<path d="M 29 13 L 30 9 L 44 13 Z" fill="#a75530" fill-opacity="0.501961" />
<path d="M 61 83 L 69 88 L 64 65 Z" fill="#523e32" fill-opacity="0.501961" />
<path d="M 37 127 L 98 143 L 116 126 Z" fill="#716543" fill-opacity="0.501961" />
<path d="M 65 23 L 84 20 L 67 17 Z" fill="#d1ae71" fill-opacity="0.501961" />
<path d="M 100 55 L 116 60 L 101 97 Z" fill="#a89967" fill-opacity="0.501961" />
<path d="M 15 44 L 26 36 L 0 42 Z" fill="#4f4c48" fill-opacity="0.501961" />
<path d="M 71 60 L 80 95 L 96 68 Z" fill="#2f433a" fill-opacity="0.501961" />
<path d="M 14 74 L 10 64 L 16 68 Z" fill="#6a493d" fill-opacity="0.501961" />
<path d="M 97 31 L 116 31 L 103 37 Z" fill="#d6b67b" fill-opacity="0.501961" />
<path d="M 27 46 L 22 47 L 31 48 Z" fill="#dcad60" fill-opacity="0.501961" />
<path d="M 36 122 L 49 143 L 36 139 Z" fill="#766a57" fill-opacity="0.501961" />
<path d="M 2 40 L 7 40 L 6 37 Z" fill="#dfac40" fill-opacity="0.501961" />
<path d="M 12 50 L 8 44 L 10 60 Z" fill="#2d3846" fill-opacity="0.501961" />
<path d="M 29 111 L 29 104 L 32 111 Z" fill="#945332" fill-opacity="0.501961" />
<path d="M 56 42 L 66 45 L 51 45 Z" fill="#998a70" fill-opacity="0.501961" />
<path d="M 93 33 L 94 44 L 97 34 Z" fill="#3c485f" fill-opacity="0.501961" />
<path d="M 44 80 L 43 68 L 38 65 Z" fill="#a79a70" fill-opacity="0.501961" />
<path d="M -6 2 L 65 -2 L 27 -10 Z" fill="#b47b4e" fill-opacity="0.501961" />
<path d="M 8 86 L 8 100 L 13 103 Z" fill="#c19c66" fill-opacity="0.501961" />
<path d="M 54 73 L 56 86 L 52 82 Z" fill="#c6a87b" fill-opacity="0.501961" />
<path d="M 42 37 L 14 34 L 32 31 Z" fill="#dba959" fill-opacity="0.501961" />
<path d="M 88 94 L 71 62 L 71 80 Z" fill="#283731" fill-opacity="0.501961" />
<path d="M 42 37 L 37 39 L 48 39 Z" fill="#dc7222" fill-opacity="0.501961" />
<path d="M 59 8 L 67 12 L 77 8 Z" fill="#baa472" fill-opacity="0.501961" />
<path d="M 16 106 L 16 90 L 10 88 Z" fill="#9c6b4a" fill-opacity="0.501961" />
<path d="M 36 36 L 29 37 L 33 38 Z" fill="#c05a1d" fill-opacity="0.501961" />
<path d="M 46 15 L 37 20 L 50 19 Z" fill="#96431d" fill-opacity="0.501961" />
<path d="M 96 6 L 116 -1 L 112 9 Z" fill="#8d3f28" fill-opacity="0.501961" />
<path d="M 23 122 L 15 106 L 17 127 Z" fill="#a4866f" fill-opacity="0.501961" />
</g>
</svg>
