<svg version="1.1" width="1280" height="959" xmlns="http://www.w3.org/2000/svg">
<rect x="0" y="0" width="1280" height="959" fill="#88685f" />
<g transform="scale(10, 10.0947)">
<path d="M 136.995 89.2389 C 123.09 100.533, 99.4181 102.13, 84.1225 92.8055 C 68.8268 83.481, 67.6993 66.7661, 81.604 55.4718 C 95.5088 44.1775, 119.18 42.5806, 134.476 51.9051 C 149.772 61.2297, 150.899 77.9446, 136.995 89.2389" fill="#000000" fill-opacity="0.501961" />
<path d="M 10.9449 59.4698 C -13.7028 69.3267, -26.4724 57.042, -17.5768 32.0313 C -8.68126 7.02056, 18.511 -21.2452, 43.1587 -31.1021 C 67.8064 -40.959, 80.576 -28.6744, 71.6804 -3.66368 C 62.7849 21.3471, 35.5926 49.6129, 10.9449 59.4698" fill="#ffdee1" fill-opacity="0.501961" />
<path d="M 79.3247 11.5089 C 62.811 10.1725, 61.827 3.93645, 77.1269 -2.41976 C 92.4267 -8.77597, 118.217 -12.8453, 134.73 -11.5089 C 151.244 -10.1725, 152.228 -3.93645, 136.928 2.41976 C 121.628 8.77597, 95.8383 12.8453, 79.3247 11.5089" fill="#ffffec" fill-opacity="0.501961" />
<path d="M 85.3186 30.6643 C 75.2904 38.6076, 57.1584 47.7862, 44.8197 51.1652 C 32.481 54.5442, 30.6079 50.8441, 40.6361 42.9007 C 50.6644 34.9574, 68.7963 25.7789, 81.135 22.3999 C 93.4738 19.0209, 95.3468 22.721, 85.3186 30.6643" fill="#00001b" fill-opacity="0.501961" />
<path d="M 42.8816 15.1415 C 69.413 12.5035, 112.527 9.79371, 139.18 9.08912 C 165.833 8.38453, 165.932 9.95191, 139.4 12.59 C 112.869 15.228, 69.7545 17.9378, 43.1016 18.6423 C 16.4487 19.3469, 16.3502 17.7796, 42.8816 15.1415" fill="#000e15" fill-opacity="0.501961" />
<path d="M 123.627 57.792 C 137.497 63.604, 138.91 75.5251, 126.783 84.4185 C 114.657 93.312, 93.5821 95.81, 79.7123 89.998 C 65.8424 84.1859, 64.4294 72.2648, 76.5562 63.3714 C 88.683 54.478, 109.757 51.98, 123.627 57.792" fill="#0e000f" fill-opacity="0.501961" />
<path d="M 80.7883 54.6399 C 78.8343 48.6205, 78.8588 38.8691, 80.8432 32.8596 C 82.8276 26.8501, 86.0203 26.8582, 87.9744 32.8776 C 89.9285 38.897, 89.9039 48.6483, 87.9195 54.6578 C 85.9352 60.6673, 82.7424 60.6593, 80.7883 54.6399" fill="#ffc87d" fill-opacity="0.501961" />
<path d="M 67.3903 21.9211 C 80.5371 21.7176, 101.433 24.5165, 114.063 28.1725 C 126.693 31.8285, 126.274 34.9572, 113.127 35.1607 C 99.9803 35.3641, 79.0841 32.5653, 66.4542 28.9093 C 53.8244 25.2532, 54.2434 22.1245, 67.3903 21.9211" fill="#1e0419" fill-opacity="0.501961" />
<path d="M 58.8569 46.7817 C 65.9169 45.7356, 68.8226 49.9409, 65.3469 56.1745 C 61.8713 62.4081, 53.3304 68.3095, 46.2704 69.3556 C 39.2103 70.4017, 36.3047 66.1964, 39.7803 59.9628 C 43.256 53.7292, 51.7969 47.8278, 58.8569 46.7817" fill="#fbb47a" fill-opacity="0.501961" />
<path d="M 42.6259 105.329 C 35.4932 106.509, 32.6472 102.394, 36.2693 96.1367 C 39.8913 89.8798, 48.6097 83.851, 55.7423 82.6709 C 62.875 81.4909, 65.721 85.6065, 62.0989 91.8633 C 58.4769 98.1202, 49.7585 104.149, 42.6259 105.329" fill="#ffc17c" fill-opacity="0.501961" />
<path d="M 4.75043 78.2855 C 8.8945 75.5259, 16.2858 73.4746, 21.2594 73.7039 C 26.2329 73.9332, 26.9054 76.3562, 22.7613 79.1158 C 18.6172 81.8755, 11.2259 83.9267, 6.25236 83.6974 C 1.27879 83.4681, 0.606356 81.0452, 4.75043 78.2855" fill="#ffce8c" fill-opacity="0.501961" />
<path d="M 129.212 3.30988 C 116.513 8.35796, 95.1448 12.1759, 81.4839 11.8375 C 67.823 11.4991, 67.0428 7.13244, 79.7413 2.08436 C 92.4398 -2.96373, 113.808 -6.78167, 127.469 -6.44325 C 141.13 -6.10483, 141.911 -1.73821, 129.212 3.30988" fill="#fff9b1" fill-opacity="0.501961" />
<path d="M 10.1816 69.089 C -1.50038 69.3521, -2.01867 66.468, 9.02396 62.6473 C 20.0666 58.8266, 38.4885 55.516, 50.1705 55.2529 C 61.8525 54.9899, 62.3708 57.8739, 51.3281 61.6947 C 40.2855 65.5154, 21.8636 68.826, 10.1816 69.089" fill="#79360f" fill-opacity="0.501961" />
<path d="M 82.1266 36.588 C 85.961 33.689, 92.1002 33.7883, 95.8389 36.8096 C 99.5776 39.8309, 99.5 44.6302, 95.6656 47.5292 C 91.8312 50.4281, 85.692 50.3289, 81.9534 47.3075 C 78.2147 44.2862, 78.2922 39.4869, 82.1266 36.588" fill="#ffc170" fill-opacity="0.501961" />
<path d="M 42.5639 40.1079 C 30.3442 41.8332, 11.1883 39.4205, -0.221941 34.7191 C -11.6322 30.0176, -10.976 24.8077, 1.24369 23.0825 C 13.4634 21.3572, 32.6193 23.7698, 44.0295 28.4713 C 55.4398 33.1728, 54.7836 38.3827, 42.5639 40.1079" fill="#e6c5d6" fill-opacity="0.501961" />
<path d="M 126.893 66.4708 C 132.034 78.5174, 128.788 80.6809, 119.645 71.3031 C 110.502 61.9253, 98.9227 44.5574, 93.7824 32.5108 C 88.6421 20.4642, 91.8872 18.3007, 101.031 27.6785 C 110.174 37.0563, 121.753 54.4242, 126.893 66.4708" fill="#351226" fill-opacity="0.501961" />
<path d="M 77.4668 89.4585 C 79.9075 88.7258, 83.7541 89.014, 86.0584 90.1021 C 88.3627 91.1903, 88.2521 92.6664, 85.8114 93.3991 C 83.3707 94.1317, 79.5241 93.8436, 77.2198 92.7554 C 74.9156 91.6672, 75.0261 90.1911, 77.4668 89.4585" fill="#ffdca0" fill-opacity="0.501961" />
<path d="M 13.0439 5.35208 C 32.0865 0.289066, 63.4964 -3.69894, 83.1999 -3.55539 C 102.903 -3.41183, 103.439 0.808926, 84.3969 5.87194 C 65.3544 10.9349, 33.9445 14.923, 14.2409 14.7794 C -5.46267 14.6358, -5.99856 10.4151, 13.0439 5.35208" fill="#f2d4bd" fill-opacity="0.501961" />
<path d="M 47.3938 26.1376 C 56.7809 24.7366, 72.0844 23.6763, 81.5751 23.7692 C 91.0658 23.8621, 91.1497 25.0732, 81.7625 26.4741 C 72.3754 27.8751, 57.0718 28.9355, 47.5812 28.8425 C 38.0905 28.7496, 38.0066 27.5385, 47.3938 26.1376" fill="#2b1e31" fill-opacity="0.501961" />
<path d="M 75.6726 51.1087 C 71.1229 52.4507, 63.6356 52.9438, 58.9493 52.2102 C 54.2629 51.4765, 54.1521 49.7939, 58.7017 48.4519 C 63.2514 47.1099, 70.7387 46.6168, 75.4251 47.3505 C 80.1114 48.0841, 80.2223 49.7667, 75.6726 51.1087" fill="#f5d6c7" fill-opacity="0.501961" />
<path d="M 71.4473 47.109 C 65.1929 47.7654, 58.0335 43.6472, 55.4563 37.9109 C 52.879 32.1746, 55.8599 26.9924, 62.1142 26.3361 C 68.3685 25.6798, 75.5279 29.7979, 78.1052 35.5342 C 80.6824 41.2705, 77.7016 46.4527, 71.4473 47.109" fill="#1b2d4b" fill-opacity="0.501961" />
<path d="M 129.721 21.6739 C 137.349 25.0496, 136.881 29.0026, 128.675 30.5032 C 120.469 32.0039, 107.634 30.4839, 100.005 27.1083 C 92.3771 23.7327, 92.8452 19.7797, 101.051 18.279 C 109.257 16.7784, 122.092 18.2983, 129.721 21.6739" fill="#be6637" fill-opacity="0.501961" />
<path d="M -4.28258 61.3477 C -14.3919 57.7415, -15.3472 49.992, -6.41634 44.0386 C 2.51449 38.0853, 17.9495 36.1825, 28.0588 39.7887 C 38.1681 43.3949, 39.1234 51.1444, 30.1926 57.0978 C 21.2617 63.0511, 5.82669 64.9538, -4.28258 61.3477" fill="#9d6b78" fill-opacity="0.501961" />
<path d="M 75.3973 89.771 C 75.5561 93.0542, 73.1774 94.8142, 70.0842 93.7019 C 66.991 92.5897, 64.3547 89.0264, 64.1959 85.7432 C 64.0371 82.46, 66.4159 80.7, 69.5091 81.8123 C 72.6023 82.9245, 75.2385 86.4878, 75.3973 89.771" fill="#3c0305" fill-opacity="0.501961" />
<path d="M 43.4108 82.1119 C 49.5426 80.3542, 50.7213 82.4449, 46.0436 86.7816 C 41.3658 91.1183, 32.603 96.0588, 26.4712 97.8166 C 20.3394 99.5743, 19.1607 97.4836, 23.8384 93.1469 C 28.5162 88.8102, 37.279 83.8697, 43.4108 82.1119" fill="#682215" fill-opacity="0.501961" />
<path d="M 124.923 35.2156 C 130.154 39.2381, 135.324 47.7667, 136.471 54.2647 C 137.618 60.7628, 134.308 62.7696, 129.077 58.7471 C 123.846 54.7246, 118.676 46.196, 117.529 39.698 C 116.382 33.1999, 119.692 31.1931, 124.923 35.2156" fill="#ce6182" fill-opacity="0.501961" />
<path d="M 70.2053 78.9347 C 66.5375 85.1104, 61.6089 84.6322, 59.197 77.8665 C 56.7851 71.1008, 57.8032 60.6097, 61.4709 54.434 C 65.1387 48.2583, 70.0672 48.7366, 72.4792 55.5023 C 74.8911 62.268, 73.873 72.759, 70.2053 78.9347" fill="#ab5e35" fill-opacity="0.501961" />
<path d="M 41.4214 73.939 C 38.3831 76.3341, 32.8289 78.8059, 29.0158 79.4599 C 25.2026 80.1139, 24.5745 78.7024, 27.6127 76.3072 C 30.651 73.9121, 36.2052 71.4403, 40.0184 70.7863 C 43.8315 70.1324, 44.4597 71.5439, 41.4214 73.939" fill="#004446" fill-opacity="0.501961" />
<path d="M 60.7148 61.3647 C 64.0307 62.6681, 64.1907 65.1214, 61.0721 66.8444 C 57.9535 68.5673, 52.7372 68.9075, 49.4213 67.6041 C 46.1053 66.3007, 45.9454 63.8474, 49.064 62.1245 C 52.1826 60.4015, 57.3988 60.0614, 60.7148 61.3647" fill="#ffd27c" fill-opacity="0.501961" />
<path d="M 70.3272 17.1842 C 65.2639 18.6385, 56.9106 19.3852, 51.6697 18.8521 C 46.4287 18.319, 46.2847 16.7079, 51.348 15.2537 C 56.4113 13.7994, 64.7646 13.0527, 70.0056 13.5858 C 75.2465 14.1189, 75.3905 15.73, 70.3272 17.1842" fill="#24090b" fill-opacity="0.501961" />
<path d="M 92.0296 -11.2092 C 95.7391 -16.2601, 99.5351 -15.3361, 100.508 -9.14543 C 101.481 -2.95475, 99.2632 6.15834, 95.5537 11.2092 C 91.8442 16.2601, 88.0482 15.3361, 87.0751 9.14543 C 86.1019 2.95475, 88.3201 -6.15834, 92.0296 -11.2092" fill="#efd4b2" fill-opacity="0.501961" />
<path d="M 8.75231 94.5155 C 15.8736 89.9788, 28.098 84.0137, 36.0563 81.1922 C 44.0146 78.3707, 44.6931 79.7611, 37.5717 84.2978 C 30.4504 88.8346, 18.226 94.7996, 10.2678 97.6211 C 2.30949 100.443, 1.631 99.0522, 8.75231 94.5155" fill="#dc9f69" fill-opacity="0.501961" />
<path d="M 37.8363 50.8423 C 41.8475 49.1738, 43.5592 50.9885, 41.6596 54.8954 C 39.76 58.8024, 34.9684 63.3222, 30.9573 64.9907 C 26.9462 66.6591, 25.2345 64.8445, 27.134 60.9375 C 29.0336 57.0305, 33.8252 52.5107, 37.8363 50.8423" fill="#321717" fill-opacity="0.501961" />
<path d="M 36.7097 71.8803 C 26.3022 74.8953, 9.08909 77.7044, -1.73694 78.1544 C -12.563 78.6045, -12.9023 76.5252, -2.49485 73.5101 C 7.91261 70.4951, 25.1257 67.6861, 35.9518 67.236 C 46.7778 66.7859, 47.1171 68.8653, 36.7097 71.8803" fill="#cb7d34" fill-opacity="0.501961" />
<path d="M 43.5955 54.8476 C 49.1471 52.08, 58.5512 48.7218, 64.6002 47.3468 C 70.6491 45.9717, 71.0522 47.1006, 65.5006 49.8682 C 59.9489 52.6357, 50.5448 55.9939, 44.4959 57.369 C 38.447 58.744, 38.0438 57.6151, 43.5955 54.8476" fill="#ebd6cf" fill-opacity="0.501961" />
<path d="M 94.0449 96.9656 C 91.5661 83.9863, 92.6066 63.196, 96.369 50.529 C 100.131 37.8621, 105.191 38.1153, 107.669 51.0946 C 110.148 64.0739, 109.108 84.8642, 105.345 97.5312 C 101.583 110.198, 96.5237 109.945, 94.0449 96.9656" fill="#160512" fill-opacity="0.501961" />
<path d="M -2.85369 21.0147 C 41.0912 19.2787, 112.365 17.3925, 156.34 16.8019 C 200.315 16.2112, 200.34 17.1397, 156.395 18.8757 C 112.45 20.6117, 41.1764 22.4979, -2.79881 23.0885 C -46.774 23.6792, -46.7986 22.7507, -2.85369 21.0147" fill="#c4985d" fill-opacity="0.501961" />
<path d="M 76.5507 99.3341 C 70.1584 92.745, 60.4539 81.4932, 54.8751 74.2025 C 49.2963 66.9118, 49.9558 66.343, 56.3481 72.9321 C 62.7404 79.5211, 72.4449 90.7729, 78.0237 98.0637 C 83.6025 105.354, 82.943 105.923, 76.5507 99.3341" fill="#3c1930" fill-opacity="0.501961" />
<path d="M 38.4661 43.9858 C 47.2682 42.7675, 61.5938 42.2167, 70.4634 42.7554 C 79.333 43.2942, 79.3877 44.7185, 70.5857 45.9368 C 61.7837 47.1551, 47.4581 47.7059, 38.5885 47.1672 C 29.7189 46.6284, 29.6641 45.2041, 38.4661 43.9858" fill="#1c1b2d" fill-opacity="0.501961" />
<path d="M 35.5356 15.0581 C 29.5764 15.0888, 29.3426 13.6287, 35.0134 11.797 C 40.6842 9.96522, 50.1121 8.45541, 56.0713 8.42473 C 62.0306 8.39405, 62.2644 9.85411, 56.5936 11.6859 C 50.9228 13.5176, 41.4948 15.0274, 35.5356 15.0581" fill="#fff7d9" fill-opacity="0.501961" />
<path d="M 54.8624 100.121 C 49.9965 96.852, 46.5115 89.4726, 47.0785 83.6382 C 47.6456 77.8039, 52.0499 75.7239, 56.9158 78.9925 C 61.7818 82.2612, 65.2667 89.6406, 64.6997 95.4749 C 64.1327 101.309, 59.7284 103.389, 54.8624 100.121" fill="#e59d80" fill-opacity="0.501961" />
<path d="M 79.1928 38.5004 C 76.3298 34.7907, 77.8055 31.9103, 82.4889 32.0668 C 87.1723 32.2234, 93.2898 35.3576, 96.1528 39.0673 C 99.0158 42.777, 97.5401 45.6574, 92.8567 45.5008 C 88.1733 45.3443, 82.0558 42.2101, 79.1928 38.5004" fill="#fbb477" fill-opacity="0.501961" />
<path d="M 81.4278 57.0161 C 80.5147 54.7007, 81.0948 51.2978, 82.7234 49.4156 C 84.3521 47.5334, 86.4126 47.8846, 87.3257 50.2001 C 88.2388 52.5156, 87.6587 55.9184, 86.0301 57.8006 C 84.4014 59.6828, 82.3409 59.3316, 81.4278 57.0161" fill="#ffc1a2" fill-opacity="0.501961" />
<path d="M 64.7508 9.56526 C 67.5162 7.26028, 70.5528 8.1999, 71.5331 11.664 C 72.5134 15.128, 71.0663 19.8047, 68.3008 22.1097 C 65.5353 24.4147, 62.4988 23.4751, 61.5185 20.011 C 60.5382 16.547, 61.9853 11.8702, 64.7508 9.56526" fill="#49312b" fill-opacity="0.501961" />
<path d="M 31.2868 10.1919 C 13.8522 12.4976, 13.6853 11.5059, 30.914 7.97701 C 48.1426 4.44807, 76.2427 -0.281838, 93.6773 -2.58754 C 111.112 -4.89323, 111.279 -3.9016, 94.0501 -0.372662 C 76.8215 3.15628, 48.7213 7.88618, 31.2868 10.1919" fill="#b588a4" fill-opacity="0.501961" />
<path d="M 50.4555 33.1834 C 43.4587 34.0554, 32.0998 34.1865, 25.0847 33.4761 C 18.0697 32.7658, 18.0549 31.483, 25.0517 30.611 C 32.0485 29.7389, 43.4074 29.6079, 50.4225 30.3182 C 57.4375 31.0286, 57.4523 32.3114, 50.4555 33.1834" fill="#fce5c9" fill-opacity="0.501961" />
<path d="M 83.9955 28.0156 C 80.0976 24.1721, 81.3578 21.4516, 86.8102 21.9393 C 92.2626 22.427, 99.8424 25.9382, 103.74 29.7818 C 107.638 33.6254, 106.378 36.3458, 100.926 35.8581 C 95.4732 35.3704, 87.8933 31.8592, 83.9955 28.0156" fill="#120c1f" fill-opacity="0.501961" />
<path d="M 64.8721 60.2044 C 66.2058 61.3962, 66.6481 63.664, 65.8601 65.2697 C 65.0721 66.8753, 63.3521 67.2108, 62.0185 66.0189 C 60.6848 64.8271, 60.2425 62.5593, 61.0305 60.9537 C 61.8185 59.348, 63.5385 59.0125, 64.8721 60.2044" fill="#43040f" fill-opacity="0.501961" />
<path d="M -5.77979 67.0546 C -8.60663 53.6795, -6.93076 53.1845, -2.03663 65.949 C 2.8575 78.7136, 9.11658 99.904, 11.9434 113.279 C 14.7703 126.654, 13.0944 127.149, 8.20026 114.385 C 3.30613 101.62, -2.95295 80.4298, -5.77979 67.0546" fill="#573134" fill-opacity="0.501961" />
<path d="M 57.3005 23.8001 C 47.9903 26.2689, 32.6462 28.6967, 23.0285 29.2228 C 13.4108 29.7488, 13.1616 28.1738, 22.4719 25.705 C 31.7822 23.2361, 47.1263 20.8083, 56.7439 20.2823 C 66.3616 19.7563, 66.6108 21.3312, 57.3005 23.8001" fill="#d3b3d1" fill-opacity="0.501961" />
<path d="M 91.5357 36.1432 C 94.1421 34.2321, 97.2634 35.1009, 98.5074 38.0839 C 99.7514 41.0669, 98.647 45.0344, 96.0406 46.9455 C 93.4342 48.8566, 90.3129 47.9878, 89.0689 45.0048 C 87.8249 42.0218, 88.9294 38.0543, 91.5357 36.1432" fill="#fcb977" fill-opacity="0.501961" />
<path d="M 83.6055 89.5838 C 86.7917 90.1217, 87.6564 92.535, 85.5369 94.974 C 83.4175 97.4131, 79.1164 98.9542, 75.9303 98.4162 C 72.7441 97.8783, 71.8794 95.465, 73.9989 93.026 C 76.1183 90.5869, 80.4194 89.0458, 83.6055 89.5838" fill="#f9b683" fill-opacity="0.501961" />
<path d="M 37.5349 35.6361 C 39.1494 36.088, 39.3813 37.2836, 38.0531 38.3065 C 36.7248 39.3294, 34.3393 39.7922, 32.7248 39.3403 C 31.1104 38.8884, 30.8784 37.6929, 32.2067 36.67 C 33.535 35.6471, 35.9205 35.1842, 37.5349 35.6361" fill="#a76c47" fill-opacity="0.501961" />
<path d="M -7.1807 6.50068 C -13.5022 6.10685, -13.587 4.8059, -7.37007 3.59494 C -1.15313 2.38398, 9.01131 1.72156, 15.3328 2.11539 C 21.6544 2.50922, 21.7391 3.81016, 15.5222 5.02113 C 9.30526 6.23209, -0.859174 6.89451, -7.1807 6.50068" fill="#ffee9e" fill-opacity="0.501961" />
<path d="M 100.049 13.8922 C 98.4716 13.5034, 97.6278 11.9451, 98.1643 10.4115 C 98.7008 8.87803, 100.414 7.95004, 101.992 8.33884 C 103.569 8.72763, 104.413 10.286, 103.877 11.8195 C 103.34 13.353, 101.627 14.281, 100.049 13.8922" fill="#492322" fill-opacity="0.501961" />
<path d="M 6.3095 81.7871 C 10.3665 77.4942, 18.2704 72.7381, 23.9634 71.164 C 29.6563 69.5899, 30.9826 71.7939, 26.9256 76.0867 C 22.8686 80.3796, 14.9647 85.1357, 9.2717 86.7098 C 3.57873 88.2839, 2.25251 86.0799, 6.3095 81.7871" fill="#de9c76" fill-opacity="0.501961" />
<path d="M 93.42 58.028 C 93.5603 50.5787, 99.6342 43.5612, 106.986 42.3541 C 114.339 41.147, 120.185 46.2074, 120.045 53.6568 C 119.905 61.1061, 113.831 68.1236, 106.478 69.3307 C 99.1262 70.5378, 93.2797 65.4774, 93.42 58.028" fill="#39151e" fill-opacity="0.501961" />
<path d="M 107.142 40.533 C 103.511 39.3207, 103.58 37.5952, 107.298 36.679 C 111.015 35.7628, 116.972 36.0029, 120.604 37.2152 C 124.236 38.4275, 124.166 40.1529, 120.449 41.0691 C 116.731 41.9853, 110.774 41.7453, 107.142 40.533" fill="#c36d76" fill-opacity="0.501961" />
<path d="M 99.5427 62.987 C 100.207 67.304, 98.4334 68.1225, 95.5803 64.8152 C 92.7272 61.508, 89.8755 55.3273, 89.2108 51.0103 C 88.5461 46.6934, 90.3201 45.8749, 93.1732 49.1821 C 96.0263 52.4894, 98.878 58.6701, 99.5427 62.987" fill="#1d0a16" fill-opacity="0.501961" />
<path d="M 19.5127 17.779 C 1.4454 17.6965, 1.4346 17.0634, 19.4886 16.365 C 37.5426 15.6665, 66.8247 15.1672, 84.892 15.2497 C 102.959 15.3322, 102.97 15.9652, 84.9161 16.6637 C 66.8621 17.3621, 37.58 17.8615, 19.5127 17.779" fill="#2b1f33" fill-opacity="0.501961" />
<path d="M 58.389 62.9587 C 61.5162 64.0818, 61.7187 66.3393, 58.8412 68.0009 C 55.9637 69.6626, 51.0959 70.0992, 47.9686 68.976 C 44.8414 67.8529, 44.6389 65.5954, 47.5164 63.9338 C 50.3939 62.2721, 55.2617 61.8356, 58.389 62.9587" fill="#fece86" fill-opacity="0.501961" />
<path d="M 107.514 16.7117 C 96.6734 16.3896, 96.6099 15.0418, 107.372 13.7013 C 118.134 12.3609, 135.646 11.5354, 146.486 11.8575 C 157.327 12.1797, 157.39 13.5275, 146.628 14.8679 C 135.866 16.2084, 118.354 17.0339, 107.514 16.7117" fill="#569c79" fill-opacity="0.501961" />
<path d="M 165.085 -0.536323 C 189.286 -0.552759, 189.406 1.59667, 165.352 4.26456 C 141.299 6.93245, 102.181 9.10853, 77.9804 9.12496 C 53.7796 9.1414, 53.66 6.99197, 77.7133 4.32408 C 101.767 1.65619, 140.884 -0.519886, 165.085 -0.536323" fill="#ffebb1" fill-opacity="0.501961" />
<path d="M 113.465 14.4299 C 109.633 15.0459, 109.248 13.966, 112.605 12.018 C 115.961 10.07, 121.789 7.99142, 125.621 7.37542 C 129.453 6.75943, 129.838 7.83926, 126.481 9.78729 C 123.124 11.7353, 117.297 13.8139, 113.465 14.4299" fill="#0b4354" fill-opacity="0.501961" />
<path d="M 81.5765 61.9069 C 81.8463 69.5558, 79.6532 81.4731, 76.6782 88.5249 C 73.7032 95.5767, 71.0727 95.0926, 70.8029 87.4437 C 70.5332 79.7948, 72.7262 67.8776, 75.7012 60.8258 C 78.6762 53.774, 81.3067 54.258, 81.5765 61.9069" fill="#1e0a12" fill-opacity="0.501961" />
<path d="M 64.4461 74.8534 C 66.0796 74.1794, 68.2551 74.7852, 69.3052 76.2064 C 70.3552 77.6277, 69.8823 79.3262, 68.2488 80.0002 C 66.6153 80.6742, 64.4398 80.0684, 63.3897 78.6472 C 62.3396 77.2259, 62.8126 75.5274, 64.4461 74.8534" fill="#d9a599" fill-opacity="0.501961" />
<path d="M 2.99886 31.7804 C 9.77975 32.2084, 19.681 35.8628, 25.1138 39.943 C 30.5467 44.0231, 29.4539 46.9838, 22.673 46.5559 C 15.8921 46.128, 5.99092 42.4735, 0.558053 38.3934 C -4.87481 34.3132, -3.78203 31.3525, 2.99886 31.7804" fill="#b597c4" fill-opacity="0.501961" />
<path d="M 59.564 73.9817 C 60.5112 76.3376, 59.2215 78.3045, 56.6834 78.375 C 54.1452 78.4455, 51.3198 76.5929, 50.3725 74.2371 C 49.4253 71.8813, 50.715 69.9144, 53.2531 69.8438 C 55.7913 69.7733, 58.6167 71.6259, 59.564 73.9817" fill="#312939" fill-opacity="0.501961" />
<path d="M 79.7711 24.2408 C 77.406 25.2082, 77.0796 24.6657, 79.0419 23.0291 C 81.0043 21.3925, 84.5123 19.2816, 86.8773 18.3143 C 89.2423 17.347, 89.5688 17.8895, 87.6065 19.5261 C 85.6441 21.1626, 82.1361 23.2735, 79.7711 24.2408" fill="#d5ab6a" fill-opacity="0.501961" />
<path d="M 52.5346 49.2241 C 45.7364 50.1459, 43.0833 46.1221, 46.6086 40.2369 C 50.134 34.3516, 58.503 28.8334, 65.3011 27.9116 C 72.0993 26.9898, 74.7525 31.0135, 71.2271 36.8988 C 67.7017 42.7841, 59.3328 48.3023, 52.5346 49.2241" fill="#32283a" fill-opacity="0.501961" />
<path d="M 93.0331 7.79215 C 94.6232 6.92195, 95.0397 7.39884, 93.9634 8.85733 C 92.887 10.3158, 90.7255 12.2036, 89.1354 13.0738 C 87.5453 13.944, 87.1288 13.4671, 88.2051 12.0086 C 89.2814 10.5501, 91.443 8.66236, 93.0331 7.79215" fill="#906d5b" fill-opacity="0.501961" />
<path d="M 58.9253 48.1546 C 62.3804 47.7469, 62.642 48.6438, 59.5097 50.1579 C 56.3773 51.672, 51.0372 53.2299, 47.582 53.6376 C 44.1269 54.0453, 43.8653 53.1484, 46.9976 51.6343 C 50.13 50.1202, 55.4701 48.5623, 58.9253 48.1546" fill="#f0ddd4" fill-opacity="0.501961" />
<path d="M 95.661 94.4095 C 88.2277 96.3939, 84.5649 92.2306, 87.4798 85.1106 C 90.3947 77.9905, 98.7837 70.61, 106.217 68.6256 C 113.65 66.6413, 117.313 70.8046, 114.398 77.9246 C 111.483 85.0446, 103.094 92.4252, 95.661 94.4095" fill="#0d0510" fill-opacity="0.501961" />
<path d="M 26.3297 62.5364 C 24.8917 67.1851, 19.9791 72.1869, 15.3571 73.7084 C 10.7351 75.2298, 8.15396 72.6947, 9.59195 68.0461 C 11.0299 63.3975, 15.9425 58.3956, 20.5645 56.8741 C 25.1865 55.3527, 27.7677 57.8878, 26.3297 62.5364" fill="#965920" fill-opacity="0.501961" />
<path d="M 32.3534 80.9688 C 28.6865 82.5143, 28.0621 81.5555, 30.9588 78.8271 C 33.8555 76.0987, 39.1763 72.6339, 42.8431 71.0883 C 46.51 69.5428, 47.1344 70.5016, 44.2378 73.2301 C 41.3411 75.9585, 36.0203 79.4232, 32.3534 80.9688" fill="#174e5c" fill-opacity="0.501961" />
<path d="M 76.5769 46.5724 C 72.3804 46.5449, 66.4399 44.2578, 63.3083 41.4641 C 60.1768 38.6703, 61.0402 36.4278, 65.2367 36.4553 C 69.4332 36.4827, 75.3738 38.7698, 78.5053 41.5636 C 81.6368 44.3573, 80.7734 46.5999, 76.5769 46.5724" fill="#344e68" fill-opacity="0.501961" />
<path d="M 49.0542 78.632 C 53.9928 77.5711, 54.1733 78.178, 49.4572 79.9876 C 44.7411 81.7972, 36.9144 84.1242, 31.9758 85.1852 C 27.0371 86.2461, 26.8567 85.6392, 31.5727 83.8296 C 36.2888 82.02, 44.1155 79.693, 49.0542 78.632" fill="#e1aa92" fill-opacity="0.501961" />
<path d="M 71.3293 18.3482 C 74.6824 17.703, 80.1006 17.7901, 83.4312 18.5429 C 86.7618 19.2957, 86.7436 20.429, 83.3905 21.0743 C 80.0374 21.7196, 74.6192 21.6324, 71.2886 20.8797 C 67.958 20.1269, 67.9762 18.9935, 71.3293 18.3482" fill="#e7b463" fill-opacity="0.501961" />
<path d="M 1.72477 16.2992 C -11.6817 16.8286, -11.7251 16.1969, 1.62785 14.8883 C 14.9808 13.5797, 36.6735 12.0896, 50.0799 11.5602 C 63.4864 11.0308, 63.5297 11.6625, 50.1768 12.9711 C 36.8239 14.2797, 15.1312 15.7698, 1.72477 16.2992" fill="#fbebbf" fill-opacity="0.501961" />
<path d="M 134.219 103.056 C 134.889 115.834, 132.2 116.336, 128.213 104.178 C 124.226 92.0196, 120.451 71.8054, 119.781 59.0279 C 119.111 46.2504, 121.8 45.7482, 125.787 57.9062 C 129.774 70.0643, 133.549 90.2785, 134.219 103.056" fill="#2e2044" fill-opacity="0.501961" />
<path d="M 10.7017 32.463 C 7.16567 29.455, 7.99448 26.3041, 12.5528 25.4252 C 17.1112 24.5464, 23.673 26.2723, 27.209 29.2803 C 30.745 32.2883, 29.9161 35.4392, 25.3578 36.3181 C 20.7994 37.197, 14.2376 35.471, 10.7017 32.463" fill="#e2c7f1" fill-opacity="0.501961" />
<path d="M 57.6849 59.8478 C 55.5868 59.1753, 55.6702 58.5476, 57.8711 58.4458 C 60.072 58.3441, 63.557 58.8068, 65.6551 59.4793 C 67.7532 60.1518, 67.6699 60.7795, 65.469 60.8812 C 63.2681 60.983, 59.783 60.5203, 57.6849 59.8478" fill="#4c0701" fill-opacity="0.501961" />
<path d="M 4.06447 76.7613 C 3.69058 74.633, 5.12481 73.1319, 7.2679 73.4085 C 9.41099 73.685, 11.4514 75.6345, 11.8253 77.7628 C 12.1992 79.8911, 10.765 81.3922, 8.62187 81.1156 C 6.47878 80.8391, 4.43836 78.8896, 4.06447 76.7613" fill="#eec592" fill-opacity="0.501961" />
<path d="M 78.826 30.1204 C 67.1567 30.3002, 48.2486 29.9586, 36.5934 29.3575 C 24.9382 28.7564, 24.9497 28.1233, 36.6189 27.9435 C 48.2882 27.7637, 67.1964 28.1053, 78.8515 28.7064 C 90.5067 29.3075, 90.4952 29.9406, 78.826 30.1204" fill="#593c3f" fill-opacity="0.501961" />
<path d="M 7.75562 64.999 C 12.1226 62.7132, 12.952 63.7959, 9.6083 67.4173 C 6.26455 71.0387, 0.0137936 75.8274, -4.35316 78.1132 C -8.72011 80.399, -9.54959 79.3163, -6.20584 75.6949 C -2.86209 72.0735, 3.38867 67.2848, 7.75562 64.999" fill="#512a1f" fill-opacity="0.501961" />
<path d="M 36.0078 94.8991 C 31.5966 96.5086, 31.1266 95.6126, 34.958 92.8979 C 38.7894 90.1833, 45.4713 86.6779, 49.8825 85.0685 C 54.2936 83.459, 54.7637 84.355, 50.9323 87.0696 C 47.1009 89.7843, 40.419 93.2897, 36.0078 94.8991" fill="#de9059" fill-opacity="0.501961" />
<path d="M 96.1012 22.5242 C 82.8661 20.7249, 82.933 20.0952, 96.2507 21.1179 C 109.568 22.1406, 131.094 24.4284, 144.329 26.2277 C 157.564 28.0271, 157.497 28.6567, 144.179 27.634 C 130.862 26.6113, 109.336 24.3236, 96.1012 22.5242" fill="#7b4020" fill-opacity="0.501961" />
<path d="M 43.4683 41.2358 C 41.0585 41.9579, 38.939 40.5106, 38.7343 38.0033 C 38.5296 35.4959, 40.3172 32.878, 42.727 32.1559 C 45.1369 31.4339, 47.2564 32.8811, 47.4611 35.3885 C 47.6658 37.8958, 45.8781 40.5137, 43.4683 41.2358" fill="#f1d1a4" fill-opacity="0.501961" />
<path d="M 42.2433 67.7733 C 44.6309 65.6508, 49.0899 63.3476, 52.2027 62.6289 C 55.3154 61.9102, 55.9033 63.0483, 53.5156 65.1707 C 51.128 67.2932, 46.669 69.5965, 43.5562 70.3151 C 40.4435 71.0338, 39.8556 69.8958, 42.2433 67.7733" fill="#f0ce8e" fill-opacity="0.501961" />
<path d="M 107.52 1.79658 C 103.826 5.58131, 97.1745 10.8886, 92.6642 13.6507 C 88.1538 16.4128, 87.4923 15.5838, 91.1867 11.7991 C 94.8811 8.01439, 101.532 2.70712, 106.043 -0.0550039 C 110.553 -2.81713, 111.215 -1.98815, 107.52 1.79658" fill="#f5e2ab" fill-opacity="0.501961" />
<path d="M 89.6401 34.1606 C 91.1422 38.6369, 90.698 45.7137, 88.6479 49.967 C 86.5977 54.2204, 83.7181 54.0396, 82.2159 49.5633 C 80.7138 45.087, 81.1581 38.0102, 83.2082 33.7568 C 85.2583 29.5035, 88.138 29.6843, 89.6401 34.1606" fill="#e19f6d" fill-opacity="0.501961" />
<path d="M 92.5212 39.2803 C 93.2218 36.5235, 94.758 36.3814, 95.9524 38.9629 C 97.1468 41.5445, 97.5471 45.8721, 96.8465 48.6289 C 96.1459 51.3858, 94.6097 51.5279, 93.4153 48.9463 C 92.2209 46.3648, 91.8206 42.0372, 92.5212 39.2803" fill="#f2b573" fill-opacity="0.501961" />
<path d="M 29.0988 88.0856 C 33.4151 86.0582, 40.7452 83.8983, 45.4711 83.2614 C 50.1971 82.6245, 50.5292 83.7518, 46.213 85.7792 C 41.8968 87.8066, 34.5666 89.9664, 29.8407 90.6033 C 25.1147 91.2402, 24.7826 90.113, 29.0988 88.0856" fill="#512524" fill-opacity="0.501961" />
<path d="M 76.1906 49.9544 C 82.5126 50.1143, 82.9088 52.2242, 77.0756 54.6668 C 71.2425 57.1095, 61.3888 58.96, 55.0669 58.8 C 48.7449 58.6401, 48.3487 56.5302, 54.1819 54.0876 C 60.015 51.6449, 69.8687 49.7944, 76.1906 49.9544" fill="#ae7662" fill-opacity="0.501961" />
<path d="M 14.4183 99.8303 C 9.84933 103.35, 9.42989 102.875, 13.4814 98.7709 C 17.533 94.6666, 24.5213 88.4865, 29.0902 84.9673 C 33.6592 81.4481, 34.0786 81.9224, 30.0271 86.0267 C 25.9755 90.131, 18.9872 96.3111, 14.4183 99.8303" fill="#f2b67e" fill-opacity="0.501961" />
<path d="M 32.702 69.859 C 33.599 66.9868, 36.5304 63.6135, 39.2493 62.3245 C 41.9681 61.0355, 43.445 62.3189, 42.5479 65.191 C 41.6509 68.0631, 38.7195 71.4364, 36.0006 72.7255 C 33.2818 74.0145, 31.8049 72.7311, 32.702 69.859" fill="#9e501e" fill-opacity="0.501961" />
<path d="M 19.0989 21.4826 C 22.5679 21.1002, 28.1907 21.1133, 31.6578 21.5119 C 35.1249 21.9104, 35.1234 22.5436, 31.6545 22.9261 C 28.1855 23.3085, 22.5628 23.2954, 19.0956 22.8968 C 15.6285 22.4982, 15.63 21.8651, 19.0989 21.4826" fill="#985f48" fill-opacity="0.501961" />
<path d="M 72.6151 13.025 C 74.0817 14.7768, 73.4205 16.2828, 71.1383 16.3888 C 68.8561 16.4947, 65.8171 15.1605, 64.3505 13.4087 C 62.884 11.6569, 63.5451 10.1509, 65.8273 10.0449 C 68.1096 9.93896, 71.1486 11.2732, 72.6151 13.025" fill="#150e1d" fill-opacity="0.501961" />
<path d="M 77.65 18.1845 C 75.1456 17.0688, 74.8158 14.7333, 76.9135 12.9679 C 79.0111 11.2025, 82.7419 10.6758, 85.2463 11.7915 C 87.7507 12.9071, 88.0804 15.2427, 85.9827 17.0081 C 83.8851 18.7734, 80.1544 19.3002, 77.65 18.1845" fill="#392220" fill-opacity="0.501961" />
<path d="M 72.9979 10.5715 C 73.7313 8.94486, 75.6775 7.11102, 77.3449 6.47556 C 79.0123 5.8401, 79.7694 6.64365, 79.036 8.27034 C 78.3026 9.89702, 76.3564 11.7309, 74.689 12.3663 C 73.0216 13.0018, 72.2645 12.1982, 72.9979 10.5715" fill="#feebd1" fill-opacity="0.501961" />
<path d="M 39.6589 11.1079 C 33.7365 12.3117, 24.1879 12.0777, 18.3316 10.5852 C 12.4753 9.09272, 12.5288 6.90689, 18.4512 5.70304 C 24.3737 4.49918, 33.9222 4.73318, 39.7786 6.22569 C 45.6349 7.71819, 45.5813 9.90402, 39.6589 11.1079" fill="#c3a7d0" fill-opacity="0.501961" />
<path d="M 125.516 86.5149 C 134.62 87.3115, 135.393 91.3084, 127.243 95.4423 C 119.093 99.5762, 105.105 102.282, 96.0015 101.485 C 86.8976 100.688, 86.1245 96.6916, 94.2748 92.5577 C 102.425 88.4238, 116.412 85.7183, 125.516 86.5149" fill="#371838" fill-opacity="0.501961" />
<path d="M 92.8165 24.774 C 94.231 22.3839, 95.5033 22.6943, 95.6583 25.4672 C 95.8132 28.2402, 94.7922 32.4257, 93.3777 34.8157 C 91.9631 37.2058, 90.6908 36.8954, 90.5359 34.1225 C 90.3809 31.3495, 91.402 27.164, 92.8165 24.774" fill="#1d1023" fill-opacity="0.501961" />
<path d="M 82.0899 32.8468 C 79.4068 33.4722, 78.4508 32.1078, 79.9548 29.7994 C 81.4588 27.4911, 84.8532 25.1128, 87.5364 24.4874 C 90.2196 23.862, 91.1755 25.2263, 89.6715 27.5347 C 88.1675 29.8431, 84.7731 32.2214, 82.0899 32.8468" fill="#250d16" fill-opacity="0.501961" />
<path d="M 115.384 29.6248 C 111.931 30.6101, 106.371 30.4827, 102.966 29.3402 C 99.5618 28.1978, 99.6013 26.4729, 103.055 25.4876 C 106.508 24.5023, 112.068 24.6297, 115.472 25.7721 C 118.877 26.9146, 118.838 28.6395, 115.384 29.6248" fill="#b95c59" fill-opacity="0.501961" />
<path d="M 6.59699 24.3914 C 5.45389 31.0524, 1.81044 31.6945, -1.54088 25.8256 C -4.8922 19.9566, -6.68233 9.79908, -5.53923 3.13806 C -4.39613 -3.52296, -0.752681 -4.16506, 2.59864 1.70388 C 5.94997 7.57282, 7.74009 17.7304, 6.59699 24.3914" fill="#e7c796" fill-opacity="0.501961" />
<path d="M 12.8854 50.8766 C 7.65856 51.8967, 6.71393 49.9314, 10.7755 46.487 C 14.837 43.0426, 22.3667 39.4234, 27.5935 38.4033 C 32.8203 37.3832, 33.765 39.3484, 29.7034 42.7928 C 25.6419 46.2373, 18.1122 49.8565, 12.8854 50.8766" fill="#cbb1a6" fill-opacity="0.501961" />
<path d="M 21.485 58.2708 C 18.5893 63.0673, 12.905 70.037, 8.78881 73.8381 C 4.67264 77.6393, 3.68331 76.8324, 6.57908 72.036 C 9.47485 67.2395, 15.1591 60.2698, 19.2753 56.4686 C 23.3915 52.6675, 24.3808 53.4744, 21.485 58.2708" fill="#b9804c" fill-opacity="0.501961" />
<path d="M 28.4135 4.08443 C 40.2999 2.50152, 59.6347 0.565114, 71.5989 -0.240641 C 83.5631 -1.0464, 83.6262 -0.416384, 71.7398 1.16653 C 59.8534 2.74945, 40.5187 4.68585, 28.5544 5.49161 C 16.5902 6.29736, 16.5271 5.66735, 28.4135 4.08443" fill="#f1cd8a" fill-opacity="0.501961" />
<path d="M 74.3258 62.0362 C 74.8503 64.4621, 73.5929 67.5319, 71.5173 68.8927 C 69.4418 70.2536, 67.334 69.3902, 66.8095 66.9643 C 66.285 64.5385, 67.5424 61.4687, 69.618 60.1079 C 71.6936 58.747, 73.8013 59.6104, 74.3258 62.0362" fill="#cb842e" fill-opacity="0.501961" />
<path d="M 30.9358 53.6047 C 31.678 57.2188, 30.8872 62.7957, 29.1696 66.061 C 27.452 69.3263, 25.458 69.0436, 24.7159 65.4295 C 23.9738 61.8154, 24.7646 56.2385, 26.4822 52.9732 C 28.1997 49.7078, 30.1937 49.9906, 30.9358 53.6047" fill="#663b26" fill-opacity="0.501961" />
<path d="M 93.7812 53.1515 C 94.9773 59.3265, 94.8428 69.31, 93.4809 75.4505 C 92.1191 81.591, 90.0455 81.5631, 88.8494 75.3882 C 87.6534 69.2132, 87.7878 59.2296, 89.1497 53.0892 C 90.5116 46.9487, 92.5852 46.9766, 93.7812 53.1515" fill="#0f0515" fill-opacity="0.501961" />
<path d="M 30.9819 64.2345 C 31.5069 66.458, 31.5965 70.0818, 31.182 72.3286 C 30.7675 74.5753, 30.0059 74.5942, 29.481 72.3706 C 28.956 70.1471, 28.8664 66.5232, 29.2809 64.2765 C 29.6954 62.0298, 30.457 62.0109, 30.9819 64.2345" fill="#eaa341" fill-opacity="0.501961" />
<path d="M 79.0305 -0.157641 C 73.3623 2.84704, 63.6514 6.21791, 57.3406 7.3714 C 51.0298 8.52488, 50.5089 7.02419, 56.1771 4.01951 C 61.8453 1.01482, 71.5562 -2.35604, 77.867 -3.50953 C 84.1778 -4.66302, 84.6988 -3.16233, 79.0305 -0.157641" fill="#c29283" fill-opacity="0.501961" />
<path d="M 103.295 30.8199 C 105.939 29.8042, 110.166 29.9474, 112.736 31.1396 C 115.306 32.3319, 115.245 34.1217, 112.6 35.1374 C 109.956 36.153, 105.729 36.0099, 103.159 34.8176 C 100.589 33.6254, 100.65 31.8355, 103.295 30.8199" fill="#2e151b" fill-opacity="0.501961" />
<path d="M 40.527 47.4835 C 40.0032 52.3078, 37.8403 59.7477, 35.6959 64.1009 C 33.5515 68.4541, 32.2377 68.0722, 32.7615 63.2478 C 33.2852 58.4235, 35.4482 50.9836, 37.5926 46.6304 C 39.7369 42.2772, 41.0507 42.6591, 40.527 47.4835" fill="#341d26" fill-opacity="0.501961" />
<path d="M 50.3472 18.42 C 54.2331 18.8559, 54.2258 19.489, 50.3307 19.8342 C 46.4357 20.1793, 40.1279 20.1059, 36.242 19.67 C 32.356 19.2342, 32.3634 18.6011, 36.2584 18.2559 C 40.1535 17.9107, 46.4612 17.9842, 50.3472 18.42" fill="#905d3c" fill-opacity="0.501961" />
<path d="M 80.6397 36.4829 C 79.5173 35.9191, 79.6115 35.293, 80.8502 35.0845 C 82.0888 34.8759, 84.0029 35.164, 85.1253 35.7278 C 86.2477 36.2917, 86.1535 36.9178, 84.9148 37.1263 C 83.6762 37.3348, 81.7621 37.0468, 80.6397 36.4829" fill="#7b4c4e" fill-opacity="0.501961" />
<path d="M 21.634 63.5106 C 20.5014 67.3822, 17.5753 73.1018, 15.0984 76.2856 C 12.6216 79.4695, 11.5318 78.912, 12.6644 75.0404 C 13.7969 71.1688, 16.723 65.4492, 19.1999 62.2654 C 21.6768 59.0815, 22.7666 59.6391, 21.634 63.5106" fill="#7e4727" fill-opacity="0.501961" />
<path d="M 40.6832 35.4512 C 38.3719 35.712, 36.0298 34.0969, 35.4522 31.8437 C 34.8745 29.5906, 36.2799 27.5527, 38.5912 27.2919 C 40.9026 27.0311, 43.2446 28.6462, 43.8223 30.8993 C 44.3999 33.1524, 42.9945 35.1904, 40.6832 35.4512" fill="#fce8ab" fill-opacity="0.501961" />
<path d="M 70.801 14.4224 C 77.0729 14.4441, 87.2001 15.1111, 93.4206 15.9122 C 99.6412 16.7133, 99.5996 17.3451, 93.3277 17.3233 C 87.0558 17.3016, 76.9287 16.6346, 70.7081 15.8335 C 64.4875 15.0324, 64.5292 14.4007, 70.801 14.4224" fill="#271b25" fill-opacity="0.501961" />
<path d="M 131.256 67.7591 C 125.627 68.3403, 117.424 66.0205, 112.933 62.5775 C 108.443 59.1346, 109.365 55.8724, 114.994 55.2911 C 120.623 54.7099, 128.826 57.0298, 133.317 60.4727 C 137.807 63.9157, 136.885 67.1779, 131.256 67.7591" fill="#4d2c3b" fill-opacity="0.501961" />
<path d="M 79.6104 50.374 C 77.1356 44.115, 73.7245 33.769, 71.9914 27.2655 C 70.2584 20.762, 70.8597 20.5637, 73.3345 26.8227 C 75.8093 33.0816, 79.2205 43.4276, 80.9535 49.9311 C 82.6866 56.4346, 82.0853 56.6329, 79.6104 50.374" fill="#38404a" fill-opacity="0.501961" />
<path d="M 26.8836 26.5431 C 20.7501 26.4879, 20.6717 25.5623, 26.7084 24.4757 C 32.7451 23.3891, 42.6109 22.553, 48.7444 22.6081 C 54.8778 22.6633, 54.9563 23.5889, 48.9196 24.6755 C 42.8829 25.7621, 33.017 26.5982, 26.8836 26.5431" fill="#dcc0e2" fill-opacity="0.501961" />
<path d="M 60.2832 38.9602 C 55.0975 41.5789, 46.2778 44.6361, 40.5838 45.7885 C 34.8898 46.941, 34.4778 45.7523, 39.6635 43.1336 C 44.8493 40.5149, 53.669 37.4577, 59.363 36.3053 C 65.0569 35.1528, 65.4689 36.3415, 60.2832 38.9602" fill="#1b152d" fill-opacity="0.501961" />
<path d="M 28.6408 78.1893 C 22.9943 79.5725, 22.7441 78.827, 28.0819 76.524 C 33.4198 74.2211, 42.3244 71.2329, 47.9709 69.8496 C 53.6174 68.4664, 53.8676 69.212, 48.5297 71.515 C 43.1919 73.8179, 34.2873 76.8061, 28.6408 78.1893" fill="#28515e" fill-opacity="0.501961" />
<path d="M -9.76185 93.1191 C -14.748 89.324, -13.7257 86.6419, -7.4785 87.1284 C -1.23126 87.6149, 7.87522 91.0858, 12.8614 94.8809 C 17.8476 98.676, 16.8253 101.358, 10.578 100.872 C 4.3308 100.385, -4.77568 96.9142, -9.76185 93.1191" fill="#4c3a51" fill-opacity="0.501961" />
<path d="M 82.0015 55.9714 C 81.3443 54.2807, 81.9962 52.039, 83.4576 50.9644 C 84.9189 49.8897, 86.6363 50.3891, 87.2935 52.0798 C 87.9506 53.7705, 87.2987 56.0123, 85.8374 57.0869 C 84.3761 58.1615, 82.6587 57.6621, 82.0015 55.9714" fill="#fdc5a4" fill-opacity="0.501961" />
<path d="M 18.4641 17.7788 C 22.9693 18.8881, 22.8602 19.7872, 18.2205 19.7869 C 13.5807 19.7866, 6.1672 18.8872, 1.66198 17.7779 C -2.84324 16.6686, -2.73416 15.7695, 1.90562 15.7698 C 6.5454 15.77, 13.9589 16.6695, 18.4641 17.7788" fill="#968285" fill-opacity="0.501961" />
<path d="M -7.74743 65.8639 C 0.188245 59.2561, 14.2681 50.4925, 23.7008 46.2899 C 33.1336 42.0873, 34.3471 44.0371, 26.4115 50.6449 C 18.4758 57.2528, 4.39593 66.0163, -5.03679 70.2189 C -14.4695 74.4216, -15.6831 72.4718, -7.74743 65.8639" fill="#b0777f" fill-opacity="0.501961" />
<path d="M 80.1268 23.2251 C 78.5946 23.1786, 77.5924 21.9216, 77.8882 20.4175 C 78.184 18.9135, 79.6659 17.7319, 81.1981 17.7785 C 82.7302 17.825, 83.7325 19.082, 83.4366 20.586 C 83.1408 22.0901, 81.6589 23.2716, 80.1268 23.2251" fill="#daad6e" fill-opacity="0.501961" />
<path d="M 65.5921 22.5897 C 69.8172 19.7265, 70.5301 20.53, 67.1844 24.3843 C 63.8387 28.2386, 57.7013 33.6841, 53.4762 36.5473 C 49.251 39.4104, 48.5381 38.6069, 51.8838 34.7526 C 55.2296 30.8984, 61.3669 25.4528, 65.5921 22.5897" fill="#562127" fill-opacity="0.501961" />
<path d="M 61.9196 47.8666 C 64.33 46.5714, 68.4795 45.8369, 71.188 46.2263 C 73.8965 46.6156, 74.1382 47.9812, 71.7279 49.2765 C 69.3175 50.5718, 65.168 51.3062, 62.4595 50.9169 C 59.751 50.5275, 59.5093 49.1619, 61.9196 47.8666" fill="#d8bebb" fill-opacity="0.501961" />
<path d="M 122.01 52.2726 C 125.688 56.9353, 124.127 59.1198, 118.524 57.152 C 112.921 55.1842, 105.398 49.8091, 101.721 45.1465 C 98.0437 40.4838, 99.6045 38.2992, 105.207 40.2671 C 110.81 42.2349, 118.333 47.61, 122.01 52.2726" fill="#31141e" fill-opacity="0.501961" />
<path d="M 14.5617 91.6878 C 10.4629 92.7593, 9.79894 91.454, 13.0786 88.7723 C 16.3583 86.0907, 22.3397 83.0481, 26.4385 81.9766 C 30.5372 80.9051, 31.2012 82.2104, 27.9215 84.8921 C 24.6418 87.5737, 18.6604 90.6163, 14.5617 91.6878" fill="#b48a5b" fill-opacity="0.501961" />
<path d="M 94.2557 29.1514 C 91.3648 30.3686, 87.119 29.6679, 84.7725 27.5863 C 82.426 25.5048, 82.8673 22.8307, 85.7582 21.6135 C 88.6491 20.3963, 92.8949 21.0971, 95.2414 23.1786 C 97.5879 25.2601, 97.1466 27.9342, 94.2557 29.1514" fill="#170e18" fill-opacity="0.501961" />
<path d="M 108.058 16.7663 C 111.673 15.0421, 117.844 13.8326, 121.843 14.065 C 125.841 14.2973, 126.152 15.8835, 122.537 17.6077 C 118.922 19.332, 112.751 20.5414, 108.752 20.3091 C 104.754 20.0767, 104.443 18.4906, 108.058 16.7663" fill="#a5a767" fill-opacity="0.501961" />
<path d="M 103.993 9.29334 C 106.949 8.68201, 107.551 9.84963, 105.336 11.9013 C 103.121 13.953, 98.9294 16.1117, 95.9731 16.7231 C 93.0167 17.3344, 92.4154 16.1668, 94.63 14.1151 C 96.8446 12.0635, 101.037 9.90467, 103.993 9.29334" fill="#372434" fill-opacity="0.501961" />
<path d="M 134.104 36.4361 C 128.114 39.4853, 117.81 41.9775, 111.089 42.0026 C 104.368 42.0278, 103.775 39.5763, 109.765 36.5272 C 115.755 33.478, 126.059 30.9858, 132.78 30.9606 C 139.501 30.9355, 140.093 33.3869, 134.104 36.4361" fill="#a6606a" fill-opacity="0.501961" />
<path d="M 111.966 94.1323 C 113.744 96.2804, 112.926 97.9625, 110.138 97.8894 C 107.351 97.8163, 103.65 96.0157, 101.873 93.8677 C 100.095 91.7196, 100.914 90.0375, 103.701 90.1106 C 106.488 90.1837, 110.189 91.9843, 111.966 94.1323" fill="#593f4a" fill-opacity="0.501961" />
<path d="M 19.6649 72.7441 C 22.3903 71.5266, 23.8492 72.8402, 22.9236 75.678 C 21.9979 78.5158, 19.0381 81.8033, 16.3127 83.0208 C 13.5873 84.2383, 12.1283 82.9248, 13.054 80.0869 C 13.9797 77.2491, 16.9395 73.9616, 19.6649 72.7441" fill="#f1a781" fill-opacity="0.501961" />
<path d="M 72.6394 21.8263 C 76.1469 20.8713, 79.1667 23.0387, 79.3843 26.6673 C 79.602 30.296, 76.9351 34.0117, 73.4276 34.9668 C 69.9202 35.9218, 66.9004 33.7544, 66.6827 30.1258 C 66.4651 26.4971, 69.132 22.7814, 72.6394 21.8263" fill="#212b45" fill-opacity="0.501961" />
<path d="M 74.218 57.4543 C 78.002 58.5011, 83.7419 61.0783, 87.0385 63.2107 C 90.3351 65.343, 89.94 66.2231, 86.156 65.1763 C 82.372 64.1295, 76.632 61.5523, 73.3355 59.4199 C 70.0389 57.2875, 70.434 56.4075, 74.218 57.4543" fill="#200f1c" fill-opacity="0.501961" />
<path d="M 61.4185 7.39734 C 64.6782 7.76698, 65.048 9.44774, 62.2445 11.1514 C 59.4409 12.8551, 54.5256 13.9366, 51.2659 13.567 C 48.0062 13.1973, 47.6364 11.5166, 50.4399 9.81286 C 53.2435 8.10917, 58.1588 7.0277, 61.4185 7.39734" fill="#fde6b7" fill-opacity="0.501961" />
<path d="M 5.42065 90.9679 C 6.18258 87.5185, 8.0173 82.1301, 9.5186 78.9325 C 11.0199 75.7349, 11.6193 75.939, 10.8573 79.3883 C 10.0954 82.8377, 8.26069 88.2261, 6.75938 91.4237 C 5.25808 94.6213, 4.65871 94.4172, 5.42065 90.9679" fill="#d4af85" fill-opacity="0.501961" />
<path d="M 51.8887 29.5704 C 55.4817 27.8411, 56.3262 28.9235, 53.7749 31.988 C 51.2237 35.0526, 46.2428 38.9388, 42.6498 40.6681 C 39.0568 42.3974, 38.2123 41.315, 40.7636 38.2505 C 43.3148 35.186, 48.2957 31.2998, 51.8887 29.5704" fill="#daad9d" fill-opacity="0.501961" />
<path d="M 13.6691 11.5342 C 18.465 13.6166, 18.1188 15.4981, 12.8957 15.7366 C 7.67274 15.9751, -0.449169 14.4804, -5.24504 12.398 C -10.0409 10.3156, -9.69465 8.43417, -4.47164 8.19563 C 0.751364 7.9571, 8.87327 9.45183, 13.6691 11.5342" fill="#f8df9f" fill-opacity="0.501961" />
<path d="M 2.90777 1.46738 C 0.603723 0.735779, 0.58222 -0.514269, 2.85974 -1.32468 C 5.13725 -2.13509, 8.85134 -2.19898, 11.1554 -1.46738 C 13.4594 -0.735779, 13.4809 0.514269, 11.2034 1.32468 C 8.92589 2.13509, 5.21181 2.19898, 2.90777 1.46738" fill="#ac7c55" fill-opacity="0.501961" />
<path d="M 49.8715 79.7348 C 47.9778 80.4592, 44.7994 81.0098, 42.7723 80.9646 C 40.7453 80.9194, 40.6372 80.2955, 42.531 79.5711 C 44.4247 78.8467, 47.6031 78.2961, 49.6301 78.3413 C 51.6571 78.3865, 51.7652 79.0104, 49.8715 79.7348" fill="#cfaeae" fill-opacity="0.501961" />
<path d="M 68.6317 71.6107 C 65.798 73.1213, 61.0026 73.6143, 57.9208 72.7117 C 54.8391 71.8092, 54.638 69.853, 57.4717 68.3424 C 60.3053 66.8317, 65.1007 66.3388, 68.1825 67.2413 C 71.2642 68.1438, 71.4653 70.1, 68.6317 71.6107" fill="#9c511c" fill-opacity="0.501961" />
<path d="M 56.4783 73.5475 C 59.6785 76.4682, 64.3996 81.6307, 67.0234 85.0785 C 69.6471 88.5262, 69.1799 88.9535, 65.9798 86.0328 C 62.7797 83.1122, 58.0585 77.9497, 55.4347 74.5019 C 52.811 71.0542, 53.2782 70.6269, 56.4783 73.5475" fill="#341634" fill-opacity="0.501961" />
<path d="M 38.9818 80.2832 C 36.2436 80.8402, 31.8619 80.6156, 29.1949 79.7816 C 26.528 78.9477, 26.5858 77.82, 29.324 77.2631 C 32.0622 76.7061, 36.4439 76.9306, 39.1109 77.7646 C 41.7778 78.5986, 41.72 79.7262, 38.9818 80.2832" fill="#315264" fill-opacity="0.501961" />
<path d="M 69.9419 101.492 C 68.4958 105.028, 67.05 104.81, 66.7127 101.005 C 66.3753 97.1997, 67.2741 91.249, 68.7202 87.7135 C 70.1663 84.1779, 71.612 84.3963, 71.9494 88.2012 C 72.2868 92.0062, 71.388 97.9568, 69.9419 101.492" fill="#823f2a" fill-opacity="0.501961" />
<path d="M 14.8534 44.833 C 9.81021 44.7379, 1.87823 43.2655, -2.86314 41.5444 C -7.60451 39.8232, -7.35983 38.505, -2.31662 38.6001 C 2.72659 38.6953, 10.6586 40.1676, 15.3999 41.8888 C 20.1413 43.61, 19.8966 44.9281, 14.8534 44.833" fill="#93739b" fill-opacity="0.501961" />
<path d="M 60.2334 29.967 C 57.5344 30.1644, 53.3963 29.3195, 50.9906 28.0799 C 48.585 26.8403, 48.8229 25.6754, 51.5219 25.4779 C 54.2209 25.2805, 58.359 26.1254, 60.7646 27.365 C 63.1703 28.6046, 62.9324 29.7695, 60.2334 29.967" fill="#512b35" fill-opacity="0.501961" />
<path d="M 76.0081 35.3195 C 79.7359 36.1085, 80.3205 38.6458, 77.3139 40.9865 C 74.3073 43.3273, 68.848 44.5853, 65.1202 43.7962 C 61.3924 43.0072, 60.8078 40.4699, 63.8144 38.1291 C 66.821 35.7884, 72.2803 34.5304, 76.0081 35.3195" fill="#405a6d" fill-opacity="0.501961" />
<path d="M 46.3258 16.8956 C 43.4039 16.4693, 43.4117 15.8362, 46.3431 15.4815 C 49.2746 15.1268, 54.0196 15.1849, 56.9415 15.6112 C 59.8634 16.0375, 59.8557 16.6706, 56.9242 17.0253 C 53.9928 17.38, 49.2477 17.3219, 46.3258 16.8956" fill="#140719" fill-opacity="0.501961" />
<path d="M 40.3544 12.0057 C 40.3692 10.486, 41.1174 10.2419, 42.0256 11.4605 C 42.9337 12.6791, 43.6579 14.8989, 43.6431 16.4186 C 43.6283 17.9383, 42.88 18.1824, 41.9719 16.9638 C 41.0637 15.7452, 40.3395 13.5254, 40.3544 12.0057" fill="#c9b9b8" fill-opacity="0.501961" />
<path d="M 29.0622 60.3892 C 26.6631 59.6096, 26.7477 58.727, 29.2513 58.4178 C 31.7549 58.1086, 35.7294 58.4898, 38.1285 59.2694 C 40.5276 60.0489, 40.443 60.9315, 37.9394 61.2408 C 35.4358 61.55, 31.4613 61.1687, 29.0622 60.3892" fill="#220b1d" fill-opacity="0.501961" />
<path d="M 75.8588 72.7612 C 74.641 69.0001, 75.2246 63.1575, 77.1624 59.7115 C 79.1002 56.2655, 81.6583 56.5211, 82.8762 60.2823 C 84.0941 64.0435, 83.5105 69.886, 81.5727 73.332 C 79.6349 76.778, 77.0767 76.5224, 75.8588 72.7612" fill="#100811" fill-opacity="0.501961" />
<path d="M 38.1529 36.844 C 37.3739 37.6805, 35.8419 38.1398, 34.7311 37.8698 C 33.6203 37.5998, 33.3514 36.7028, 34.1305 35.8663 C 34.9095 35.0297, 36.4415 34.5705, 37.5523 34.8405 C 38.6631 35.1105, 38.932 36.0075, 38.1529 36.844" fill="#9b5e45" fill-opacity="0.501961" />
<path d="M 44.3354 12.9762 C 39.15 13.9193, 30.6739 14.6816, 25.4034 14.679 C 20.133 14.6764, 20.064 13.9098, 25.2494 12.9667 C 30.4348 12.0237, 38.911 11.2613, 44.1814 11.2639 C 49.4519 11.2665, 49.5208 12.0332, 44.3354 12.9762" fill="#f4eae2" fill-opacity="0.501961" />
<path d="M 26.8891 55.4003 C 26.2261 52.8579, 27.5226 49.7136, 29.7847 48.3773 C 32.0468 47.041, 34.418 48.0186, 35.0809 50.561 C 35.7438 53.1033, 34.4474 56.2476, 32.1853 57.584 C 29.9232 58.9203, 27.552 57.9426, 26.8891 55.4003" fill="#8e6458" fill-opacity="0.501961" />
<path d="M 94.4018 19.9565 C 87.4399 20.0922, 76.1758 19.6794, 69.2426 19.0346 C 62.3093 18.3897, 62.3325 17.757, 69.2943 17.6213 C 76.2562 17.4856, 87.5203 17.8984, 94.4535 18.5432 C 101.387 19.1881, 101.364 19.8208, 94.4018 19.9565" fill="#bd8e45" fill-opacity="0.501961" />
<path d="M 98.0037 8.6396 C 100.233 8.28189, 100.464 8.92352, 98.5213 10.0727 C 96.5782 11.2219, 93.1961 12.4435, 90.9671 12.8012 C 88.7381 13.1589, 88.5064 12.5173, 90.4495 11.3681 C 92.3926 10.2189, 95.7747 8.99731, 98.0037 8.6396" fill="#f3dfb6" fill-opacity="0.501961" />
<path d="M 103.976 33.7506 C 104.36 36.7715, 102.904 37.4976, 100.723 35.3722 C 98.5416 33.2468, 96.462 29.0748, 96.0776 26.0538 C 95.6931 23.0329, 97.1496 22.3069, 99.3306 24.4323 C 101.512 26.5576, 103.591 30.7296, 103.976 33.7506" fill="#3f304c" fill-opacity="0.501961" />
<path d="M 10.4073 24.325 C 5.62876 23.802, 5.64629 23.1691, 10.4464 22.9113 C 15.2466 22.6536, 23.0116 22.8687, 27.7901 23.3917 C 32.5687 23.9147, 32.5511 24.5476, 27.751 24.8054 C 22.9508 25.0631, 15.1858 24.848, 10.4073 24.325" fill="#ab89be" fill-opacity="0.501961" />
<path d="M 75.0558 45.5292 C 68.6349 46.3235, 58.185 46.9793, 51.7152 46.9941 C 45.2454 47.0088, 45.2058 46.3769, 51.6266 45.5826 C 58.0475 44.7884, 68.4974 44.1325, 74.9672 44.1177 C 81.437 44.103, 81.4767 44.7349, 75.0558 45.5292" fill="#2a1b2a" fill-opacity="0.501961" />
<path d="M 25.1708 20.0585 C 22.5523 19.3119, 22.6222 18.4529, 25.3271 18.1399 C 28.0319 17.8268, 32.3474 18.1783, 34.9659 18.925 C 37.5845 19.6716, 37.5145 20.5306, 34.8096 20.8437 C 32.1048 21.1567, 27.7893 20.8052, 25.1708 20.0585" fill="#e1b591" fill-opacity="0.501961" />
<path d="M 59.3708 59.9106 C 57.5291 58.8978, 57.7382 58.1541, 59.8379 58.2495 C 61.9376 58.3449, 65.1328 59.2433, 66.9745 60.2561 C 68.8163 61.2689, 68.6071 62.0126, 66.5074 61.9172 C 64.4078 61.8218, 61.2126 60.9234, 59.3708 59.9106" fill="#55160f" fill-opacity="0.501961" />
<path d="M 83.9382 98.8052 C 80.8955 99.5641, 77.0747 98.0278, 75.4041 95.3739 C 73.7336 92.7201, 74.8459 89.9536, 77.8886 89.1948 C 80.9313 88.4359, 84.7521 89.9722, 86.4227 92.6261 C 88.0932 95.2799, 86.9809 98.0464, 83.9382 98.8052" fill="#dba77f" fill-opacity="0.501961" />
<path d="M 149.048 30.556 C 134.758 28.7261, 111.687 25.1336, 97.5168 22.5319 C 83.347 19.9302, 83.4444 19.3046, 97.7344 21.1345 C 112.024 22.9645, 135.096 26.557, 149.265 29.1587 C 163.435 31.7603, 163.338 32.386, 149.048 30.556" fill="#88462d" fill-opacity="0.501961" />
<path d="M 40.4286 82.7145 C 41.6467 81.9337, 43.707 81.7748, 45.0304 82.3597 C 46.3538 82.9446, 46.4391 84.0517, 45.221 84.8325 C 44.0029 85.6132, 41.9427 85.7721, 40.6193 85.1872 C 39.2959 84.6024, 39.2106 83.4953, 40.4286 82.7145" fill="#3b151d" fill-opacity="0.501961" />
<path d="M 44.2484 3.41605 C 24.6537 4.59605, -7.14116 5.87656, -26.7673 6.27614 C -46.3935 6.67572, -46.419 6.04307, -26.8242 4.86307 C -7.2295 3.68307, 24.5653 2.40257, 44.1915 2.00299 C 63.8177 1.6034, 63.8431 2.23606, 44.2484 3.41605" fill="#f8d99e" fill-opacity="0.501961" />
<path d="M 88.6826 9.74345 C 89.7197 8.90542, 91.6374 8.13413, 92.9659 8.02073 C 94.2944 7.90733, 94.5307 8.49477, 93.4936 9.3328 C 92.4565 10.1708, 90.5389 10.9421, 89.2103 11.0555 C 87.8818 11.1689, 87.6456 10.5815, 88.6826 9.74345" fill="#9a765f" fill-opacity="0.501961" />
<path d="M 130.618 -9.04995 C 137.577 -9.22527, 139.319 -5.28836, 134.508 -0.256613 C 129.698 4.77514, 120.157 8.99631, 113.198 9.17164 C 106.239 9.34696, 104.497 5.41005, 109.307 0.378301 C 114.118 -4.65345, 123.659 -8.87462, 130.618 -9.04995" fill="#f5dc9e" fill-opacity="0.501961" />
<path d="M 32.2246 65.8369 C 32.6242 67.6901, 32.639 70.6979, 32.2576 72.555 C 31.8762 74.4121, 31.243 74.4152, 30.8434 72.5619 C 30.4438 70.7087, 30.429 67.7009, 30.8104 65.8438 C 31.1918 63.9867, 31.825 63.9836, 32.2246 65.8369" fill="#e2a348" fill-opacity="0.501961" />
<path d="M 64.4283 100.028 C 60.2486 104.829, 52.4061 106.116, 46.9115 102.902 C 41.4169 99.6876, 40.3509 93.1899, 44.5306 88.3887 C 48.7102 83.5875, 56.5528 82.3009, 62.0474 85.515 C 67.542 88.7291, 68.608 95.2267, 64.4283 100.028" fill="#dc976d" fill-opacity="0.501961" />
<path d="M 40.4626 64.082 C 36.7439 65.3368, 36.0103 64.136, 38.8239 61.3999 C 41.6375 58.6637, 46.933 55.4284, 50.6516 54.1735 C 54.3703 52.9187, 55.104 54.1195, 52.2903 56.8556 C 49.4767 59.5918, 44.1812 62.8271, 40.4626 64.082" fill="#bb785f" fill-opacity="0.501961" />
<path d="M 86.8689 31.4869 C 88.1053 31.8941, 89.4556 33.2204, 89.885 34.4493 C 90.3143 35.6781, 89.6601 36.3442, 88.4238 35.937 C 87.1874 35.5297, 85.8371 34.2034, 85.4077 32.9745 C 84.9784 31.7457, 85.6326 31.0796, 86.8689 31.4869" fill="#ffc47c" fill-opacity="0.501961" />
<path d="M 80.3204 32.8774 C 81.048 33.7718, 81.307 35.371, 80.8988 36.4494 C 80.4906 37.5277, 79.5699 37.6768, 78.8423 36.7824 C 78.1146 35.888, 77.8557 34.2887, 78.2639 33.2104 C 78.672 32.1321, 79.5928 31.983, 80.3204 32.8774" fill="#ebab71" fill-opacity="0.501961" />
<path d="M 78.9333 87.4139 C 78.6112 85.2677, 79.8581 82.622, 81.7185 81.5046 C 83.5788 80.3871, 85.3481 81.221, 85.6702 83.3671 C 85.9923 85.5132, 84.7454 88.1589, 82.885 89.2764 C 81.0247 90.3939, 79.2554 89.56, 78.9333 87.4139" fill="#5b3037" fill-opacity="0.501961" />
<path d="M 114.603 11.2064 C 119.868 9.12404, 128.697 6.91014, 134.322 6.26154 C 139.947 5.61295, 140.239 6.77527, 134.973 8.85767 C 129.708 10.9401, 120.879 13.154, 115.254 13.8026 C 109.628 14.4511, 109.337 13.2888, 114.603 11.2064" fill="#1a454e" fill-opacity="0.501961" />
<path d="M 74.7642 8.63819 C 78.3321 5.98209, 84.7448 3.04756, 89.0871 2.08374 C 93.4295 1.11992, 94.0573 2.49178, 90.4893 5.14788 C 86.9214 7.80397, 80.5087 10.7385, 76.1664 11.7023 C 71.824 12.6661, 71.1962 11.2943, 74.7642 8.63819" fill="#f5e5cd" fill-opacity="0.501961" />
<path d="M 43.1832 69.1854 C 41.8091 70.1925, 41.3278 69.7812, 42.108 68.2668 C 42.8882 66.7524, 44.6345 64.7084, 46.0086 63.7014 C 47.3826 62.6944, 47.864 63.1057, 47.0838 64.62 C 46.3036 66.1344, 44.5572 68.1784, 43.1832 69.1854" fill="#ffdb94" fill-opacity="0.501961" />
<path d="M 70.9498 63.4312 C 70.2036 62.6992, 69.5739 61.2588, 69.5434 60.2139 C 69.5128 59.1691, 70.093 58.9155, 70.8392 59.6475 C 71.5854 60.3794, 72.2151 61.8198, 72.2456 62.8647 C 72.2762 63.9095, 71.696 64.1631, 70.9498 63.4312" fill="#efb76f" fill-opacity="0.501961" />
<path d="M 96.7049 40.6484 C 92.4001 42.194, 85.2121 43.1794, 80.6502 42.8494 C 76.0882 42.5194, 75.8797 40.9988, 80.1845 39.4532 C 84.4894 37.9075, 91.6773 36.9221, 96.2393 37.2521 C 100.801 37.5822, 101.01 39.1027, 96.7049 40.6484" fill="#e9b578" fill-opacity="0.501961" />
<path d="M 17.7405 84.8517 C 13.1749 86.8009, 12.8813 86.24, 17.0846 83.5988 C 21.2879 80.9575, 28.3965 77.2362, 32.962 75.2869 C 37.5276 73.3377, 37.8212 73.8986, 33.6179 76.5399 C 29.4146 79.1811, 22.306 82.9024, 17.7405 84.8517" fill="#3c4c5c" fill-opacity="0.501961" />
<path d="M 11.9391 85.2546 C 11.4334 86.2996, 10.8039 86.2315, 10.533 85.1027 C 10.2622 83.9738, 10.4526 82.2116, 10.9583 81.1667 C 11.4641 80.1218, 12.0936 80.1898, 12.3644 81.3186 C 12.6352 82.4475, 12.4448 84.2097, 11.9391 85.2546" fill="#6d5964" fill-opacity="0.501961" />
<path d="M 142.087 57.3658 C 148.356 63.6346, 147.103 65.3222, 139.289 61.1352 C 131.475 56.9482, 120.059 48.4722, 113.79 42.2034 C 107.522 35.9347, 108.775 34.247, 116.589 38.434 C 124.403 42.621, 135.819 51.0971, 142.087 57.3658" fill="#ad606e" fill-opacity="0.501961" />
<path d="M 23.137 96.5957 C 23.5446 94.2067, 25.3041 90.9215, 27.0668 89.2583 C 28.8296 87.595, 29.9281 88.1833, 29.5205 90.5724 C 29.1129 92.9615, 27.3534 96.2466, 25.5907 97.9099 C 23.8279 99.5732, 22.7294 98.9848, 23.137 96.5957" fill="#4e2631" fill-opacity="0.501961" />
<path d="M 53.0529 52.9741 C 49.1386 52.936, 48.9582 51.85, 52.65 50.5485 C 56.3418 49.2469, 62.5078 48.2227, 66.4221 48.2608 C 70.3364 48.2988, 70.5168 49.3848, 66.825 50.6864 C 63.1332 51.9879, 56.9672 53.0121, 53.0529 52.9741" fill="#f2dcc8" fill-opacity="0.501961" />
<path d="M 90.6691 2.92805 C 87.5357 2.7213, 87.1777 1.24275, 89.8695 -0.374366 C 92.5612 -1.99149, 97.2833 -3.13481, 100.417 -2.92805 C 103.55 -2.7213, 103.908 -1.24275, 101.216 0.374366 C 98.5245 1.99149, 93.8024 3.13481, 90.6691 2.92805" fill="#ceaca3" fill-opacity="0.501961" />
<path d="M 115.665 19.8846 C 109.799 19.6757, 109.78 19.0428, 115.621 18.4711 C 121.463 17.8993, 130.953 17.6052, 136.819 17.8141 C 142.685 18.023, 142.704 18.6558, 136.863 19.2276 C 131.021 19.7994, 121.531 20.0935, 115.665 19.8846" fill="#d2ab56" fill-opacity="0.501961" />
<path d="M 95.6355 57.4286 C 98.2427 52.8903, 104.188 47.3887, 108.914 45.1405 C 113.641 42.8923, 115.359 44.7488, 112.752 49.2872 C 110.144 53.8256, 104.199 59.3271, 99.4728 61.5753 C 94.7463 63.8235, 93.0283 61.967, 95.6355 57.4286" fill="#421e25" fill-opacity="0.501961" />
<path d="M 7.13395 66.1981 C 8.94983 66.2183, 9.07912 66.8381, 7.42271 67.5826 C 5.7663 68.327, 2.95145 68.9141, 1.13556 68.8939 C -0.680324 68.8738, -0.809607 68.2539, 0.846801 67.5095 C 2.50321 66.7651, 5.31806 66.178, 7.13395 66.1981" fill="#25121d" fill-opacity="0.501961" />
<path d="M 70.3173 79.1323 C 69.5605 80.413, 68.3714 80.3916, 67.6613 79.0844 C 66.9512 77.7772, 66.989 75.6793, 67.7458 74.3986 C 68.5025 73.1178, 69.6916 73.1393, 70.4017 74.4464 C 71.1118 75.7536, 71.074 77.8515, 70.3173 79.1323" fill="#bc876e" fill-opacity="0.501961" />
<path d="M 123.874 32.1831 C 118.142 33.8626, 108.683 35.771, 102.747 36.4455 C 96.8115 37.12, 96.6471 36.3053, 102.38 34.6257 C 108.113 32.9461, 117.572 31.0377, 123.507 30.3632 C 129.443 29.6887, 129.607 30.5035, 123.874 32.1831" fill="#4d252c" fill-opacity="0.501961" />
<path d="M 28.7601 69.5853 C 29.3837 71.6536, 28.8205 71.9429, 27.5022 70.2316 C 26.184 68.5202, 24.6098 65.4562, 23.9862 63.388 C 23.3626 61.3197, 23.9258 61.0303, 25.2441 62.7417 C 26.5624 64.453, 28.1366 67.517, 28.7601 69.5853" fill="#653217" fill-opacity="0.501961" />
<path d="M 79.761 55.3868 C 77.6412 59.9708, 73.652 67.0935, 70.8508 71.2958 C 68.0496 75.4981, 67.4971 75.1887, 69.6169 70.6047 C 71.7367 66.0208, 75.7259 58.8981, 78.5271 54.6958 C 81.3284 50.4935, 81.8808 50.8029, 79.761 55.3868" fill="#7e4825" fill-opacity="0.501961" />
</g>
</svg>
