<svg version="1.1" width="1280" height="964" xmlns="http://www.w3.org/2000/svg">
<rect x="0" y="0" width="1280" height="964" fill="#7f6e58" />
<g transform="scale(10, 10.0417)">
<path d="M 87 111 L 50 51 L 110 4 Z" fill="#fbdc9b" fill-opacity="0.501961" />
<path d="M 42.6274 21.0883 C 55.1242 49.2061, 55.1242 94.7939, 42.6274 122.912 C 30.1306 151.029, 9.86936 151.029, -2.62742 122.912 C -15.1242 94.7939, -15.1242 49.2061, -2.62742 21.0883 C 9.86936 -7.02944, 30.1306 -7.02944, 42.6274 21.0883" fill="#2a1a16" fill-opacity="0.501961" />
<path d="M 76.9497 34.8076 C 79.6834 39.8844, 79.6834 48.1156, 76.9497 53.1924 C 74.2161 58.2692, 69.7839 58.2692, 67.0503 53.1924 C 64.3166 48.1156, 64.3166 39.8844, 67.0503 34.8076 C 69.7839 29.7308, 74.2161 29.7308, 76.9497 34.8076" fill="#000028" fill-opacity="0.501961" />
<path d="M 139.62 80.2967 L 124.292 94.8276 L 63.2123 82.0125 L 57.1749 57.5362 Z" fill="#f4ce87" fill-opacity="0.501961" />
<path d="M 69.4853 5.75736 C 74.1716 8.10051, 74.1716 11.8995, 69.4853 14.2426 C 64.799 16.5858, 57.201 16.5858, 52.5147 14.2426 C 47.8284 11.8995, 47.8284 8.10051, 52.5147 5.75736 C 57.201 3.41421, 64.799 3.41421, 69.4853 5.75736" fill="#000000" fill-opacity="0.501961" />
<path d="M 138.815 -30.7988 C 161.22 -18.3838, 169.688 10.0435, 157.729 32.6952 C 145.769 55.347, 117.911 63.6455, 95.5056 51.2305 C 73.1002 38.8155, 64.6322 10.3882, 76.5918 -12.2636 C 88.5513 -34.9153, 116.41 -43.2139, 138.815 -30.7988" fill="#a29284" fill-opacity="0.501961" />
<path d="M 39.9754 41.8287 L 28.6292 45.7355 L 26.0246 38.1713 L 37.3708 34.2645 Z" fill="#ffe4a2" fill-opacity="0.501961" />
<path d="M 100 68 L 95 5 L 80 67 Z" fill="#ffe38d" fill-opacity="0.501961" />
<path d="M 64.5014 38.2742 C 63.2224 42.9299, 58.928 48.8738, 54.9095 51.5502 C 50.891 54.2266, 48.6702 52.6221, 49.9491 47.9664 C 51.2281 43.3106, 55.5225 37.3668, 59.541 34.6903 C 63.5595 32.0139, 65.7803 33.6185, 64.5014 38.2742" fill="#fdd7a2" fill-opacity="0.501961" />
<path d="M 10.6764 83.266 L 8.72854 2.43911 L 23.8768 111 L 7.41497 105.788 Z" fill="#b47238" fill-opacity="0.501961" />
<path d="M 101.114 65.7248 C 95.7516 61.4706, 96.953 57.9621, 103.798 57.8883 C 110.643 57.8146, 120.539 61.2035, 125.902 65.4577 C 131.265 69.7119, 130.064 73.2204, 123.219 73.2942 C 116.374 73.3679, 106.477 69.979, 101.114 65.7248" fill="#271d2d" fill-opacity="0.501961" />
<path d="M 28.688 48.3373 L 23.5781 2.91365 L 10.3159 46.871 L 32.3758 69.9767 Z" fill="#141b28" fill-opacity="0.501961" />
<path d="M 30.9633 64.75 C 31.3747 56.964, 37.2415 53.7071, 44.0672 57.4756 C 50.8929 61.2441, 56.0927 70.6109, 55.6814 78.397 C 55.27 86.183, 49.4032 89.4399, 42.5775 85.6714 C 35.7518 81.9029, 30.552 72.5361, 30.9633 64.75" fill="#a14627" fill-opacity="0.501961" />
<path d="M 44 64 L 33 11 L 54 8 Z" fill="#1e2735" fill-opacity="0.501961" />
<path d="M 5.65685 11.2721 C 8.78105 18.3015, 8.78105 29.6985, 5.65685 36.7279 C 2.53266 43.7574, -2.53266 43.7574, -5.65685 36.7279 C -8.78105 29.6985, -8.78105 18.3015, -5.65685 11.2721 C -2.53266 4.24264, 2.53266 4.24264, 5.65685 11.2721" fill="#001622" fill-opacity="0.501961" />
<path d="M 101.849 89.8787 C 110.05 91.0503, 110.05 92.9497, 101.849 94.1213 C 93.6482 95.2929, 80.3518 95.2929, 72.1508 94.1213 C 63.9497 92.9497, 63.9497 91.0503, 72.1508 89.8787 C 80.3518 88.7071, 93.6482 88.7071, 101.849 89.8787" fill="#4d553f" fill-opacity="0.501961" />
<path d="M 79 49 L 49 16 L 85 16 Z" fill="#7f7a82" fill-opacity="0.501961" />
<path d="M 117.778 30.0503 C 122.074 32.7839, 122.074 37.2161, 117.778 39.9497 C 113.482 42.6834, 106.518 42.6834, 102.222 39.9497 C 97.9261 37.2161, 97.9261 32.7839, 102.222 30.0503 C 106.518 27.3166, 113.482 27.3166, 117.778 30.0503" fill="#524e68" fill-opacity="0.501961" />
<path d="M 8.8308 3.2336 L 28.6817 0.796214 L 29.1692 4.7664 L 9.31828 7.20379 Z" fill="#00000d" fill-opacity="0.501961" />
<path d="M 70.4495 51.7717 L 63.1774 38.6524 L 67.5505 36.2283 L 74.8226 49.3476 Z" fill="#090d17" fill-opacity="0.501961" />
<path d="M 22 84 L 41 42 L 21 46 Z" fill="#221c29" fill-opacity="0.501961" />
<path d="M -16 73.4406 L -5.00544 39.1937 L 6.65018 37.0336 L 12.0262 111 Z" fill="#3a6357" fill-opacity="0.501961" />
<path d="M 9 47 L 14 47 L 14 13 L 9 13 Z" fill="#a87241" fill-opacity="0.501961" />
<path d="M 31.2426 15.7574 C 33.5858 18.1005, 33.5858 21.8995, 31.2426 24.2426 C 28.8995 26.5858, 25.1005 26.5858, 22.7574 24.2426 C 20.4142 21.8995, 20.4142 18.1005, 22.7574 15.7574 C 25.1005 13.4142, 28.8995 13.4142, 31.2426 15.7574" fill="#8e875a" fill-opacity="0.501961" />
<path d="M 86 8 L 97 8 L 97 35 L 86 35 Z" fill="#d2aa54" fill-opacity="0.501961" />
<path d="M 96 58 L 60 70 L 97 37 Z" fill="#f2d89b" fill-opacity="0.501961" />
<path d="M 53.7477 21.3726 L 34.4345 17.8813 L 38.7733 27.1559 L 64.9662 29.8383 Z" fill="#253538" fill-opacity="0.501961" />
<path d="M 68 88 L 86 83 L 53 27 Z" fill="#ddbd84" fill-opacity="0.501961" />
<path d="M 99 53 L 108 68 L 102 72 Z" fill="#332735" fill-opacity="0.501961" />
<path d="M 53.8598 63.5946 C 49.9725 57.9909, 44.8503 48.2827, 42.419 41.9108 C 39.9877 35.5389, 41.168 34.9162, 45.0554 40.5198 C 48.9427 46.1235, 54.0649 55.8316, 56.4962 62.2035 C 58.9275 68.5755, 57.7472 69.1982, 53.8598 63.5946" fill="#3d433c" fill-opacity="0.501961" />
<path d="M 15.4525 13.6997 L 19.2169 30.7863 L 54.5668 22.8809 L 13.5379 48.2109 Z" fill="#22242d" fill-opacity="0.501961" />
<path d="M 38.5355 35.4645 C 40.4882 37.4171, 40.4882 40.5829, 38.5355 42.5355 C 36.5829 44.4882, 33.4171 44.4882, 31.4645 42.5355 C 29.5118 40.5829, 29.5118 37.4171, 31.4645 35.4645 C 33.4171 33.5118, 36.5829 33.5118, 38.5355 35.4645" fill="#ea9f67" fill-opacity="0.501961" />
<path d="M 119.253 5.36262 C 119.219 13.9828, 113.989 25.6356, 107.57 31.39 C 101.152 37.1443, 95.976 34.8211, 96.0096 26.201 C 96.0432 17.5808, 101.274 5.92801, 107.692 0.173658 C 114.11 -5.5807, 119.286 -3.25752, 119.253 5.36262" fill="#85848c" fill-opacity="0.501961" />
<path d="M 82.6569 32.3431 C 85.781 35.4673, 85.781 40.5327, 82.6569 43.6569 C 79.5327 46.781, 74.4673 46.781, 71.3431 43.6569 C 68.219 40.5327, 68.219 35.4673, 71.3431 32.3431 C 74.4673 29.219, 79.5327 29.219, 82.6569 32.3431" fill="#6f5b62" fill-opacity="0.501961" />
<path d="M 56.5054 24.0774 L 37.7006 14.2028 L 62.4477 16.8285 L 107.003 5.74355 Z" fill="#a08e68" fill-opacity="0.501961" />
<path d="M 64.9497 5.05025 C 67.6834 7.78392, 67.6834 12.2161, 64.9497 14.9497 C 62.2161 17.6834, 57.7839 17.6834, 55.0503 14.9497 C 52.3166 12.2161, 52.3166 7.78392, 55.0503 5.05025 C 57.7839 2.31658, 62.2161 2.31658, 64.9497 5.05025" fill="#01151c" fill-opacity="0.501961" />
<path d="M 132.358 7.81821 L 33.1805 7.30857 L 10.4614 14.1928 L 70.5278 -16 Z" fill="#7b6c72" fill-opacity="0.501961" />
<path d="M 137.681 102.034 L 80.5199 111 L -14.2086 97.654 L 75.6541 92.2538 Z" fill="#a08556" fill-opacity="0.501961" />
<path d="M 54.0825 24.2975 L 60.7025 33.0825 L 51.9175 39.7025 L 45.2975 30.9175 Z" fill="#54796e" fill-opacity="0.501961" />
<path d="M 70.2793 93.4333 C 66.4188 93.8899, 60.8012 92.3261, 57.7319 89.9404 C 54.6627 87.5546, 55.3041 85.2505, 59.1646 84.7938 C 63.0251 84.3372, 68.6428 85.901, 71.712 88.2867 C 74.7812 90.6725, 74.1398 92.9766, 70.2793 93.4333" fill="#466253" fill-opacity="0.501961" />
<path d="M 19.8284 56.2218 C 21.3905 60.5176, 21.3905 67.4824, 19.8284 71.7782 C 18.2663 76.0739, 15.7337 76.0739, 14.1716 71.7782 C 12.6095 67.4824, 12.6095 60.5176, 14.1716 56.2218 C 15.7337 51.9261, 18.2663 51.9261, 19.8284 56.2218" fill="#957753" fill-opacity="0.501961" />
<path d="M 51.7055 41.4028 C 55.1941 37.4387, 61.8317 32.2726, 66.531 29.864 C 71.2303 27.4554, 72.2118 28.7164, 68.7232 32.6806 C 65.2346 36.6447, 58.597 41.8109, 53.8977 44.2194 C 49.1983 46.628, 48.2169 45.367, 51.7055 41.4028" fill="#c9b890" fill-opacity="0.501961" />
<path d="M 36.5666 94.063 L 31.9505 83.1831 L 21.5056 54.1257 L 22.7575 91.5682 Z" fill="#272428" fill-opacity="0.501961" />
<path d="M 31.2426 9.17157 C 33.5858 10.7337, 33.5858 13.2663, 31.2426 14.8284 C 28.8995 16.3905, 25.1005 16.3905, 22.7574 14.8284 C 20.4142 13.2663, 20.4142 10.7337, 22.7574 9.17157 C 25.1005 7.60948, 28.8995 7.60948, 31.2426 9.17157" fill="#020f17" fill-opacity="0.501961" />
<path d="M 99.8234 22.8854 L 98.6076 36.6069 L 114.451 51.7254 L 86.9578 37.4133 Z" fill="#d5b678" fill-opacity="0.501961" />
<path d="M 52.7259 73.6702 L 56.1428 62.7592 L 27.7496 55.0424 L 41.0834 81.0238 Z" fill="#8e472b" fill-opacity="0.501961" />
<path d="M 107.814 95.1924 L 110.906 68.6964 L 143 90.7822 L 96.2748 105.758 Z" fill="#b39771" fill-opacity="0.501961" />
<path d="M 21.5355 25.9792 C 23.4882 32.6181, 23.4882 43.3819, 21.5355 50.0208 C 19.5829 56.6597, 16.4171 56.6597, 14.4645 50.0208 C 12.5118 43.3819, 12.5118 32.6181, 14.4645 25.9792 C 16.4171 19.3403, 19.5829 19.3403, 21.5355 25.9792" fill="#191b21" fill-opacity="0.501961" />
<path d="M 38 52 L 46 30 L 47 67 Z" fill="#222025" fill-opacity="0.501961" />
<path d="M 93.435 60.9792 C 100.855 67.6181, 100.855 78.3819, 93.435 85.0208 C 86.0151 91.6597, 73.9849 91.6597, 66.565 85.0208 C 59.145 78.3819, 59.145 67.6181, 66.565 60.9792 C 73.9849 54.3403, 86.0151 54.3403, 93.435 60.9792" fill="#dfbf7b" fill-opacity="0.501961" />
<path d="M 103.121 47.1005 C 104.293 52.5678, 104.293 61.4322, 103.121 66.8995 C 101.95 72.3668, 100.05 72.3668, 98.8787 66.8995 C 97.7071 61.4322, 97.7071 52.5678, 98.8787 47.1005 C 100.05 41.6332, 101.95 41.6332, 103.121 47.1005" fill="#564951" fill-opacity="0.501961" />
<path d="M 78.2165 48.0365 L 71.1458 56.463 L 65.7835 51.9635 L 72.8542 43.537 Z" fill="#2b262e" fill-opacity="0.501961" />
<path d="M 12.2468 43.996 L 14.6937 18.8541 L 23.6115 8.46577 L 7.34957 12.044 Z" fill="#996941" fill-opacity="0.501961" />
<path d="M 65.2129 9.57277 L 52.7165 13.1561 L 50.7871 6.42723 L 63.2835 2.84394 Z" fill="#0d1718" fill-opacity="0.501961" />
<path d="M 53.5125 48.6266 C 52.1883 45.0086, 54.1058 41.1762, 57.7954 40.0668 C 61.485 38.9573, 65.5496 40.991, 66.8738 44.6091 C 68.1981 48.2272, 66.2805 52.0596, 62.5909 53.169 C 58.9013 54.2784, 54.8367 52.2447, 53.5125 48.6266" fill="#d0a47d" fill-opacity="0.501961" />
<path d="M 49.1921 -16 L 125.316 12.6437 L 32.5515 -0.505779 L 38.7325 20.7084 Z" fill="#877978" fill-opacity="0.501961" />
<path d="M 77 26 L 90 31 L 64 31 Z" fill="#bcb08f" fill-opacity="0.501961" />
<path d="M 104.124 59.9768 L 143 5.85622 L 120.312 -16 L 137.554 64.0521 Z" fill="#9a7c68" fill-opacity="0.501961" />
<path d="M 125.685 75.1523 L 104.255 62.2764 L 106.315 58.8477 L 127.745 71.7236 Z" fill="#362c30" fill-opacity="0.501961" />
<path d="M 26.364 1.17157 C 29.8787 2.73367, 29.8787 5.26633, 26.364 6.82843 C 22.8492 8.39052, 17.1508 8.39052, 13.636 6.82843 C 10.1213 5.26633, 10.1213 2.73367, 13.636 1.17157 C 17.1508 -0.390524, 22.8492 -0.390524, 26.364 1.17157" fill="#071517" fill-opacity="0.501961" />
<path d="M 53 88 L 66 98 L 52 104 Z" fill="#caae79" fill-opacity="0.501961" />
<path d="M 10 12 L 13 -16 L -15 -16 Z" fill="#604950" fill-opacity="0.501961" />
<path d="M 37 89 L 40 89 L 40 94 L 37 94 Z" fill="#b3784c" fill-opacity="0.501961" />
<path d="M 90.2609 39.3528 L 80.8224 52.0339 L 93.3962 7.39408 L 87.7092 9.95294 Z" fill="#c49d4f" fill-opacity="0.501961" />
<path d="M 10 42 L -9 29 L -10 77 Z" fill="#5b6d5f" fill-opacity="0.501961" />
<path d="M 57.597 85.4783 L 52.6355 68.1756 L 58.403 66.5217 L 63.3645 83.8244 Z" fill="#517867" fill-opacity="0.501961" />
<path d="M 87.0464 16.0228 L 87.3142 20.944 L 71.8 22.1809 L 46.7973 23.2913 Z" fill="#635a6b" fill-opacity="0.501961" />
<path d="M 49.3832 51.2034 L 45.2274 53.9654 L 54.0074 61.0444 L 43.7769 5.61317 Z" fill="#637163" fill-opacity="0.501961" />
<path d="M 69.1865 76.056 L 48.5669 45.1911 L 86.5069 63.6029 L 83.1727 43.9306 Z" fill="#e1c18c" fill-opacity="0.501961" />
<path d="M 99 63 L 88 49 L 92 25 Z" fill="#ebd8a6" fill-opacity="0.501961" />
<path d="M 108.593 12.5122 C 113.274 13.8259, 115.184 18.3523, 112.859 22.6222 C 110.535 26.8922, 104.856 29.2887, 100.175 27.9751 C 95.4943 26.6614, 93.5842 22.135, 95.9087 17.865 C 98.2333 13.5951, 103.912 11.1986, 108.593 12.5122" fill="#a19a8f" fill-opacity="0.501961" />
<path d="M 48.0678 111 L 53.0807 85.4852 L 60.0411 87.8923 L 47.085 77.6223 Z" fill="#4e3f2e" fill-opacity="0.501961" />
<path d="M 26.0965 42.5395 L 35.1593 42.7903 L 33.536 34.7366 L 29.4295 47.7246 Z" fill="#c9b285" fill-opacity="0.501961" />
<path d="M 110.462 69.2746 C 112.736 70.1481, 114.888 72.8067, 115.269 75.213 C 115.649 77.6192, 114.114 78.8617, 111.84 77.9883 C 109.566 77.1149, 107.414 74.4562, 107.033 72.05 C 106.653 69.6437, 108.188 68.4012, 110.462 69.2746" fill="#b89e74" fill-opacity="0.501961" />
<path d="M 37 71 L 37 86 L 24 68 Z" fill="#542519" fill-opacity="0.501961" />
<path d="M 56.5364 19.0702 L 56.3455 18.0886 L 103.464 8.92977 L 103.654 9.9114 Z" fill="#c0ac6a" fill-opacity="0.501961" />
<path d="M 1 23 L 7 23 L 7 37 L 1 37 Z" fill="#0d1819" fill-opacity="0.501961" />
<path d="M 33 22 L 55 22 L 55 28 L 33 28 Z" fill="#272e2f" fill-opacity="0.501961" />
<path d="M 64.6585 31.9571 L 46.5819 13.3622 L 53.638 15.5097 L 76.3625 30.4326 Z" fill="#817f7d" fill-opacity="0.501961" />
<path d="M 123.771 29.1617 L 123.195 40.1467 L 98.2293 38.8383 L 98.805 27.8533 Z" fill="#726669" fill-opacity="0.501961" />
<path d="M 27 20 L 32 20 L 32 28 L 27 28 Z" fill="#967f55" fill-opacity="0.501961" />
<path d="M 48 10 L 71 10 L 71 12 L 48 12 Z" fill="#0e1719" fill-opacity="0.501961" />
<path d="M 43 58 L 34 58 L 34 72 L 43 72 Z" fill="#9e4d2d" fill-opacity="0.501961" />
<path d="M 89 89 L 92 89 L 92 95 L 89 95 Z" fill="#4b5143" fill-opacity="0.501961" />
<path d="M 72.9495 0.949607 C 78.8217 -1.30754, 88.4752 -1.69997, 94.5113 0.0730982 C 100.547 1.84617, 100.68 5.11331, 94.8079 7.37046 C 88.9357 9.62761, 79.2822 10.02, 73.2461 8.24697 C 67.2101 6.4739, 67.0773 3.20676, 72.9495 0.949607" fill="#918077" fill-opacity="0.501961" />
<path d="M 45.2498 61.5129 L 49.9779 57.819 L 56.7502 66.4871 L 52.0221 70.181 Z" fill="#9f4728" fill-opacity="0.501961" />
<path d="M 66 36 L 65 36 L 65 42 L 66 42 Z" fill="#111323" fill-opacity="0.501961" />
<path d="M 8 46 L 3 46 L 3 95 L 8 95 Z" fill="#33443b" fill-opacity="0.501961" />
<path d="M 21.7071 90.0503 C 22.0976 92.7839, 22.0976 97.2161, 21.7071 99.9497 C 21.3166 102.683, 20.6834 102.683, 20.2929 99.9497 C 19.9024 97.2161, 19.9024 92.7839, 20.2929 90.0503 C 20.6834 87.3166, 21.3166 87.3166, 21.7071 90.0503" fill="#cdb283" fill-opacity="0.501961" />
<path d="M 53.0413 28.6038 L 56.3509 42.6278 L 43.1323 25.774 L 49.0188 27.0749 Z" fill="#757f6c" fill-opacity="0.501961" />
<path d="M 112.31 47.8078 C 113.622 48.9095, 114.508 51.1802, 114.29 52.8794 C 114.071 54.5786, 112.83 55.0629, 111.518 53.9611 C 110.206 52.8593, 109.32 50.5887, 109.539 48.8895 C 109.757 47.1903, 110.998 46.706, 112.31 47.8078" fill="#cdad7b" fill-opacity="0.501961" />
<path d="M 108.243 60.7574 C 110.586 63.1005, 110.586 66.8995, 108.243 69.2426 C 105.899 71.5858, 102.101 71.5858, 99.7574 69.2426 C 97.4142 66.8995, 97.4142 63.1005, 99.7574 60.7574 C 102.101 58.4142, 105.899 58.4142, 108.243 60.7574" fill="#43373b" fill-opacity="0.501961" />
<path d="M 128.667 65.8686 L 98.1928 55.1806 L 101.111 38.8635 L 98.7763 46.1855 Z" fill="#806f6b" fill-opacity="0.501961" />
<path d="M 36 -16 L 26 -1 L 82 0 Z" fill="#b79776" fill-opacity="0.501961" />
<path d="M 56.5525 17.9985 L 56.3434 19.9875 L 37.4475 18.0015 L 37.6566 16.0125 Z" fill="#a08b7e" fill-opacity="0.501961" />
<path d="M 34.3673 56.5303 L 48.912 53.247 L 31.7672 41.9853 L 21.1335 65.3602 Z" fill="#312c32" fill-opacity="0.501961" />
<path d="M 26.1477 41.0017 L 36.4843 37.2395 L 37.8523 40.9983 L 27.5157 44.7605 Z" fill="#e3cc90" fill-opacity="0.501961" />
<path d="M 55.4916 4.20897 L 24.1292 -6.83708 L 43.7506 4.94843 L 34.0555 21.1276 Z" fill="#615663" fill-opacity="0.501961" />
<path d="M 19 56 L 19 56 L 19 76 L 19 76 Z" fill="#96a284" fill-opacity="0.501961" />
<path d="M 40.8254 38.4221 L 32.7362 34.4767 L 33.1746 33.5779 L 41.2638 37.5233 Z" fill="#914e39" fill-opacity="0.501961" />
<path d="M 26 8 L 37 7 L 31 4 Z" fill="#a18571" fill-opacity="0.501961" />
<path d="M 110.924 70.2067 L 142.759 86.9261 L 93.3955 69.8422 L 83.2723 92.4438 Z" fill="#caad76" fill-opacity="0.501961" />
<path d="M 63.9186 0.811148 L 65.5159 2.01478 L 54.0814 17.1889 L 52.4841 15.9852 Z" fill="#212526" fill-opacity="0.501961" />
<path d="M 62.2426 36.636 C 64.5858 40.1508, 64.5858 45.8492, 62.2426 49.364 C 59.8995 52.8787, 56.1005 52.8787, 53.7574 49.364 C 51.4142 45.8492, 51.4142 40.1508, 53.7574 36.636 C 56.1005 33.1213, 59.8995 33.1213, 62.2426 36.636" fill="#d5af84" fill-opacity="0.501961" />
<path d="M 17 66 L 9 54 L 13 82 Z" fill="#9f6430" fill-opacity="0.501961" />
<path d="M 28.9677 29.9239 L 17.5675 15.9658 L 24.9622 44.6166 L 46.7696 17.9396 Z" fill="#302f37" fill-opacity="0.501961" />
<path d="M 101.443 63.6176 L 124.275 76.1649 L 127.907 74.6017 L 126.673 63.4595 Z" fill="#463a36" fill-opacity="0.501961" />
<path d="M 0 13 L 8 13 L 8 18 L 0 18 Z" fill="#644b47" fill-opacity="0.501961" />
<path d="M 65 7 L 117 7 L 117 1 L 65 1 Z" fill="#7f7474" fill-opacity="0.501961" />
<path d="M 85.0858 28.7425 L 86.2634 15.2127 L 61.3339 21.3526 L 68.8374 24.4679 Z" fill="#756970" fill-opacity="0.501961" />
<path d="M 102.635 41.8712 C 106.015 46.6142, 105.217 47.3329, 100.853 43.4766 C 96.488 39.6202, 90.2096 32.6491, 86.8294 27.9062 C 83.4492 23.1633, 84.2472 22.4445, 88.6118 26.3009 C 92.9764 30.1572, 99.2548 37.1283, 102.635 41.8712" fill="#d4ac5e" fill-opacity="0.501961" />
<path d="M 74 28 L 97 28 L 97 29 L 74 29 Z" fill="#d8c598" fill-opacity="0.501961" />
<path d="M 60.5751 93.3502 L 93.4947 95.6522 L 93.4249 96.6498 L 60.5053 94.3478 Z" fill="#a88957" fill-opacity="0.501961" />
<path d="M 89.1213 25.9289 C 90.2929 29.8342, 90.2929 36.1658, 89.1213 40.0711 C 87.9497 43.9763, 86.0503 43.9763, 84.8787 40.0711 C 83.7071 36.1658, 83.7071 29.8342, 84.8787 25.9289 C 86.0503 22.0237, 87.9497 22.0237, 89.1213 25.9289" fill="#b99756" fill-opacity="0.501961" />
<path d="M 16 14 L 24 14 L 24 23 L 16 23 Z" fill="#3f4345" fill-opacity="0.501961" />
<path d="M 96.6057 55.1033 L 59.8014 74.6752 L 63.7944 46.1363 L 81.274 77.7962 Z" fill="#ddc089" fill-opacity="0.501961" />
<path d="M 33.3895 24.0491 L 46.05 43.859 L 46.0795 29.2733 L 35.0175 22.4051 Z" fill="#1d1e23" fill-opacity="0.501961" />
<path d="M 67.0858 45.5421 L 60.3755 55.4906 L 52.9142 50.4579 L 59.6245 40.5094 Z" fill="#d0aa80" fill-opacity="0.501961" />
<path d="M 32.3909 4.69825 L 19.1944 8.75267 L 37.9503 8.28189 L 26.2304 -9.86737 Z" fill="#7e6a62" fill-opacity="0.501961" />
<path d="M 91.5806 87.0389 L 113.151 94.2315 L 143 111 L 118.477 86.4075 Z" fill="#a58963" fill-opacity="0.501961" />
<path d="M 46.7745 102.4 L 42.2379 73.7567 L 43.2255 73.6003 L 47.7621 102.243 Z" fill="#82633f" fill-opacity="0.501961" />
<path d="M 43 63 L 45 63 L 45 69 L 43 69 Z" fill="#444a47" fill-opacity="0.501961" />
<path d="M -2.59611 10.2522 L -2.38684 7.25951 L 4.59611 7.7478 L 4.38684 10.7405 Z" fill="#0d0d0e" fill-opacity="0.501961" />
<path d="M 27.1213 43.6447 C 28.2929 63.1709, 28.2929 94.8291, 27.1213 114.355 C 25.9497 133.882, 24.0503 133.882, 22.8787 114.355 C 21.7071 94.8291, 21.7071 63.1709, 22.8787 43.6447 C 24.0503 24.1184, 25.9497 24.1184, 27.1213 43.6447" fill="#2e292f" fill-opacity="0.501961" />
<path d="M 92.9987 9.99211 L 81.6525 13.8989 L 81.0013 12.0079 L 92.3475 8.10107 Z" fill="#dfae4d" fill-opacity="0.501961" />
<path d="M 9.46517 93.009 L 10.465 92.9916 L 10.5348 96.991 L 9.53498 97.0084 Z" fill="#f0bc7f" fill-opacity="0.501961" />
<path d="M 20.7071 57.5147 C 21.0976 62.201, 21.0976 69.799, 20.7071 74.4853 C 20.3166 79.1716, 19.6834 79.1716, 19.2929 74.4853 C 18.9024 69.799, 18.9024 62.201, 19.2929 57.5147 C 19.6834 52.8284, 20.3166 52.8284, 20.7071 57.5147" fill="#516b6b" fill-opacity="0.501961" />
<path d="M 108.485 91.5858 C 113.172 92.3668, 113.172 93.6332, 108.485 94.4142 C 103.799 95.1953, 96.201 95.1953, 91.5147 94.4142 C 86.8284 93.6332, 86.8284 92.3668, 91.5147 91.5858 C 96.201 90.8047, 103.799 90.8047, 108.485 91.5858" fill="#505443" fill-opacity="0.501961" />
<path d="M 93 52 L 95 88 L 86 82 Z" fill="#dcb76e" fill-opacity="0.501961" />
<path d="M 113.914 82.423 L 125.872 81.6099 L 127.719 76.0461 L 115.259 76.5882 Z" fill="#cbae82" fill-opacity="0.501961" />
<path d="M -1 94 L -16 79 L 0 29 Z" fill="#626f5f" fill-opacity="0.501961" />
<path d="M 10.894 40.3535 L 6.32624 42.3872 L 5.10603 39.6465 L 9.67376 37.6128 Z" fill="#898469" fill-opacity="0.501961" />
<path d="M 63.5355 87.8787 C 65.4882 89.0503, 65.4882 90.9497, 63.5355 92.1213 C 61.5829 93.2929, 58.4171 93.2929, 56.4645 92.1213 C 54.5118 90.9497, 54.5118 89.0503, 56.4645 87.8787 C 58.4171 86.7071, 61.5829 86.7071, 63.5355 87.8787" fill="#475b4f" fill-opacity="0.501961" />
<path d="M 42.9875 111 L 31.3386 91.5339 L 29.8396 107.77 L 32.1061 96.7393 Z" fill="#947d5a" fill-opacity="0.501961" />
<path d="M 42 18 L 32 8 L 47 12 Z" fill="#4f4248" fill-opacity="0.501961" />
<path d="M 111.336 26.4029 L 108.496 28.8719 L 100.395 21.9223 L 92.879 -16 Z" fill="#9c958f" fill-opacity="0.501961" />
<path d="M 88.9308 11.6004 L 92.0089 20.0576 L 91.0692 20.3996 L 87.9911 11.9424 Z" fill="#887444" fill-opacity="0.501961" />
<path d="M 72.3884 44.0479 C 68.0808 42.9313, 66.7358 39.1272, 69.3842 35.5512 C 72.0327 31.9752, 77.6717 29.9814, 81.9793 31.0979 C 86.2869 32.2145, 87.6319 36.0186, 84.9835 39.5946 C 82.335 43.1706, 76.696 45.1644, 72.3884 44.0479" fill="#79696a" fill-opacity="0.501961" />
<path d="M 52.2834 62.55 L 54.1628 63.234 L 49.7166 75.45 L 47.8372 74.766 Z" fill="#772a18" fill-opacity="0.501961" />
<path d="M 13.7597 23.6942 C 14.569 27.9214, 13.5494 28.2879, 11.4824 24.5127 C 9.41543 20.7376, 7.08371 14.2505, 6.27439 10.0233 C 5.46507 5.79613, 6.48463 5.42967, 8.55164 9.20478 C 10.6186 12.9799, 12.9504 19.467, 13.7597 23.6942" fill="#95683d" fill-opacity="0.501961" />
<path d="M 78.4238 52.8016 C 76.9561 54.2015, 74.1766 54.9163, 72.2156 54.3982 C 70.2546 53.88, 69.8547 52.325, 71.3224 50.925 C 72.7901 49.5251, 75.5696 48.8103, 77.5307 49.3285 C 79.4917 49.8467, 79.8915 51.4016, 78.4238 52.8016" fill="#3d3334" fill-opacity="0.501961" />
<path d="M 43.0707 85.5126 L 39.6607 89.1694 L 38.9293 88.4874 L 42.3393 84.8306 Z" fill="#18160f" fill-opacity="0.501961" />
<path d="M 41.0102 42.4909 L 40.2116 43.0927 L 32.9898 33.5091 L 33.7884 32.9073 Z" fill="#a66c52" fill-opacity="0.501961" />
<path d="M 92 11 L 97 11 L 97 17 L 92 17 Z" fill="#eac270" fill-opacity="0.501961" />
<path d="M 56.2135 59.6818 C 56.8282 61.5606, 55.8339 62.5007, 53.9925 61.7815 C 52.1512 61.0624, 50.1601 58.9563, 49.5453 57.0776 C 48.9306 55.1988, 49.9249 54.2587, 51.7663 54.9779 C 53.6076 55.697, 55.5987 57.8031, 56.2135 59.6818" fill="#627361" fill-opacity="0.501961" />
<path d="M 32.1445 85.8069 C 29.7826 83.1629, 30.2054 82.6916, 33.089 84.7543 C 35.9725 86.8169, 40.2247 90.6323, 42.5867 93.2763 C 44.9486 95.9202, 44.5257 96.3915, 41.6422 94.3289 C 38.7587 92.2663, 34.5064 88.4508, 32.1445 85.8069" fill="#85593a" fill-opacity="0.501961" />
<path d="M 57 60 L 54 39 L 50 44 Z" fill="#d8bb90" fill-opacity="0.501961" />
<path d="M 101.029 42.7646 L 98.7971 35.8847 L 122.99 23.5143 L 122.619 4.05648 Z" fill="#847d7c" fill-opacity="0.501961" />
<path d="M 58.0913 35.9744 L 73.8538 29.8884 L 54.5247 42.5439 L 53.3545 39.9314 Z" fill="#cfb589" fill-opacity="0.501961" />
<path d="M 36 77 L 35 55 L 30 75 Z" fill="#7c301c" fill-opacity="0.501961" />
<path d="M 69.5738 33.7546 L 67.3965 42.4873 L 66.4262 42.2454 L 68.6035 33.5127 Z" fill="#262428" fill-opacity="0.501961" />
<path d="M 46.3103 44.9967 L 50.9525 36.4977 L 60.682 29.0745 L 57.5299 34.5516 Z" fill="#52665a" fill-opacity="0.501961" />
<path d="M 11.4075 7.84838 C 15.5894 6.06944, 22.5664 3.787, 26.9912 2.7504 C 31.4159 1.7138, 31.6128 2.31559, 27.4309 4.09452 C 23.249 5.87346, 16.2719 8.1559, 11.8472 9.1925 C 7.42245 10.2291, 7.22558 9.62731, 11.4075 7.84838" fill="#181d23" fill-opacity="0.501961" />
<path d="M 68.526 14.0541 L 69.0266 16.835 L 85.8572 11.054 L 99.1333 3.83307 Z" fill="#8f7e58" fill-opacity="0.501961" />
<path d="M 110.814 44.8023 C 105.682 45.4005, 103.242 42.0666, 105.363 37.3559 C 107.484 32.6452, 113.363 28.3415, 118.494 27.7433 C 123.626 27.1452, 126.066 30.4791, 123.945 35.1898 C 121.824 39.9005, 115.945 44.2042, 110.814 44.8023" fill="#746766" fill-opacity="0.501961" />
<path d="M -5 -11 L 34 -16 L 37 3 Z" fill="#a18e83" fill-opacity="0.501961" />
<path d="M 40.4516 64.7627 L 47.9631 78.8899 L 43.5484 81.2373 L 36.0369 67.1101 Z" fill="#995d3a" fill-opacity="0.501961" />
<path d="M 81.5117 58.525 C 78.3559 63.1023, 77.8106 62.7804, 80.2939 57.806 C 82.7771 52.8316, 87.3484 45.0884, 90.5042 40.5111 C 93.66 35.9338, 94.2053 36.2557, 91.7221 41.2301 C 89.2388 46.2045, 84.6675 53.9477, 81.5117 58.525" fill="#eedeac" fill-opacity="0.501961" />
<path d="M 112.825 46.8864 L 113.291 53.583 L 106.745 46.9526 L 87.6091 37.9008 Z" fill="#ccae78" fill-opacity="0.501961" />
<path d="M 51.4142 13.8787 C 52.1953 15.0503, 52.1953 16.9497, 51.4142 18.1213 C 50.6332 19.2929, 49.3668 19.2929, 48.5858 18.1213 C 47.8047 16.9497, 47.8047 15.0503, 48.5858 13.8787 C 49.3668 12.7071, 50.6332 12.7071, 51.4142 13.8787" fill="#b19e8c" fill-opacity="0.501961" />
<path d="M 19.9309 86.3874 L 15.0814 55.769 L 16.0691 55.6126 L 20.9186 86.231 Z" fill="#6a4836" fill-opacity="0.501961" />
<path d="M 64 75 L 101 75 L 101 83 L 64 83 Z" fill="#d4b47a" fill-opacity="0.501961" />
<path d="M 34 82 L 36 82 L 36 84 L 34 84 Z" fill="#031616" fill-opacity="0.501961" />
<path d="M 67.4142 38.8787 C 68.1953 40.0503, 68.1953 41.9497, 67.4142 43.1213 C 66.6332 44.2929, 65.3668 44.2929, 64.5858 43.1213 C 63.8047 41.9497, 63.8047 40.0503, 64.5858 38.8787 C 65.3668 37.7071, 66.6332 37.7071, 67.4142 38.8787" fill="#2d2b2f" fill-opacity="0.501961" />
<path d="M 88 91 L 101 108 L 69 88 Z" fill="#8d7f5d" fill-opacity="0.501961" />
<path d="M 49.7929 32.0423 C 43.5672 31.554, 43.5265 30.4059, 49.7019 29.4779 C 55.8774 28.5498, 65.9305 28.1933, 72.1561 28.6815 C 78.3818 29.1697, 78.4225 30.3178, 72.2471 31.2459 C 66.0716 32.1739, 56.0185 32.5305, 49.7929 32.0423" fill="#778072" fill-opacity="0.501961" />
<path d="M 59.5355 -3.53553 C 61.4882 -1.58291, 61.4882 1.58291, 59.5355 3.53553 C 57.5829 5.48816, 54.4171 5.48816, 52.4645 3.53553 C 50.5118 1.58291, 50.5118 -1.58291, 52.4645 -3.53553 C 54.4171 -5.48816, 57.5829 -5.48816, 59.5355 -3.53553" fill="#918076" fill-opacity="0.501961" />
<path d="M 11 13 L 14 13 L 14 26 L 11 26 Z" fill="#a57446" fill-opacity="0.501961" />
<path d="M 21 -2 L 30 -16 L 8 3 Z" fill="#89726f" fill-opacity="0.501961" />
<path d="M 22.1774 58.9726 L 47.1272 54.5163 L 36.5967 45.4932 L 22.1127 85.9637 Z" fill="#2e282b" fill-opacity="0.501961" />
<path d="M 82.6251 43.2908 L 76.5486 57.4548 L 79.5828 58.7184 L 87.3628 36.3681 Z" fill="#d2ac5f" fill-opacity="0.501961" />
<path d="M 72 5 L 81 5 L 81 10 L 72 10 Z" fill="#8a8389" fill-opacity="0.501961" />
<path d="M 24.6328 97.3598 L 23.8667 98.0025 L 19.3672 92.6402 L 20.1333 91.9975 Z" fill="#b2956d" fill-opacity="0.501961" />
<path d="M 11.9018 55.811 L 10.9141 55.9674 L 8.09825 38.189 L 9.08593 38.0326 Z" fill="#845128" fill-opacity="0.501961" />
<path d="M 67.2597 47.3385 L 65.8521 46.4537 L 53.797 55.3424 L 63.3786 72.0248 Z" fill="#d5b58c" fill-opacity="0.501961" />
<path d="M 89 26 L 94 26 L 94 28 L 89 28 Z" fill="#e5d6b4" fill-opacity="0.501961" />
<path d="M 62.8284 23.5858 C 64.3905 24.3668, 64.3905 25.6332, 62.8284 26.4142 C 61.2663 27.1953, 58.7337 27.1953, 57.1716 26.4142 C 55.6095 25.6332, 55.6095 24.3668, 57.1716 23.5858 C 58.7337 22.8047, 61.2663 22.8047, 62.8284 23.5858" fill="#505a4e" fill-opacity="0.501961" />
<path d="M 107.931 64.1388 L 104.559 72.4835 L 98.0691 69.8612 L 101.441 61.5165 Z" fill="#4b3d40" fill-opacity="0.501961" />
<path d="M 54 77 L 55 77 L 55 80 L 54 80 Z" fill="#b19777" fill-opacity="0.501961" />
<path d="M 42.4709 83.6386 L 54.0955 90.9775 L 50.5441 83.3781 L 34.9826 111 Z" fill="#644e37" fill-opacity="0.501961" />
<path d="M 55.7102 58.5487 L 47.0315 55.2214 L 44.7787 68.9516 L 50.4591 49.7468 Z" fill="#626b5a" fill-opacity="0.501961" />
<path d="M 55.4945 71.6577 L 62.4137 88.95 L 65.3412 91.1777 L 62.3144 78.3836 Z" fill="#566554" fill-opacity="0.501961" />
<path d="M 45 96 L 49 92 L 46 80 Z" fill="#43372d" fill-opacity="0.501961" />
<path d="M 104 82 L 115 72 L 118 98 Z" fill="#ac926d" fill-opacity="0.501961" />
<path d="M 126.553 23.02 L 131.906 28.9652 L 127.447 32.98 L 122.094 27.0348 Z" fill="#b7925d" fill-opacity="0.501961" />
<path d="M 13.7803 12.067 L 9.02111 2.70948 L -16 -4.14294 L -6.23883 -2.36886 Z" fill="#55474d" fill-opacity="0.501961" />
<path d="M 109.389 49.5088 L 101.58 44.504 L 110.929 61.9526 L 101.421 56.5457 Z" fill="#78686b" fill-opacity="0.501961" />
<path d="M 65.7071 23.2929 C 66.0976 23.6834, 66.0976 24.3166, 65.7071 24.7071 C 65.3166 25.0976, 64.6834 25.0976, 64.2929 24.7071 C 63.9024 24.3166, 63.9024 23.6834, 64.2929 23.2929 C 64.6834 22.9024, 65.3166 22.9024, 65.7071 23.2929" fill="#dcd2b8" fill-opacity="0.501961" />
<path d="M 13 54 L 16 54 L 16 76 L 13 76 Z" fill="#a16735" fill-opacity="0.501961" />
<path d="M 115.512 6.1639 L 115.442 7.16147 L 96.4883 5.8361 L 96.558 4.83853 Z" fill="#6f6568" fill-opacity="0.501961" />
<path d="M 86.6749 73.0996 L 77.3364 74.479 L 69.9946 82.3126 L 88.2661 60.251 Z" fill="#e2cd92" fill-opacity="0.501961" />
<path d="M 18 12 L 35 12 L 35 14 L 18 14 Z" fill="#262728" fill-opacity="0.501961" />
<path d="M 55 93 L 76 93 L 76 94 L 55 94 Z" fill="#b1996b" fill-opacity="0.501961" />
<path d="M 138.305 -0.707107 C 160.565 -0.316582, 160.565 0.316582, 138.305 0.707107 C 116.045 1.09763, 79.9548 1.09763, 57.6949 0.707107 C 35.435 0.316582, 35.435 -0.316582, 57.6949 -0.707107 C 79.9548 -1.09763, 116.045 -1.09763, 138.305 -0.707107" fill="#a68b70" fill-opacity="0.501961" />
<path d="M 33 57 L 42 57 L 42 62 L 33 62 Z" fill="#90371f" fill-opacity="0.501961" />
<path d="M 87.3945 55.8817 L 62.012 64.594 L 61.2569 77.1661 L 93.4513 58.4465 Z" fill="#e2c483" fill-opacity="0.501961" />
<path d="M 37.7071 7.29289 C 38.0976 7.68342, 38.0976 8.31658, 37.7071 8.70711 C 37.3166 9.09763, 36.6834 9.09763, 36.2929 8.70711 C 35.9024 8.31658, 35.9024 7.68342, 36.2929 7.29289 C 36.6834 6.90237, 37.3166 6.90237, 37.7071 7.29289" fill="#dadfbf" fill-opacity="0.501961" />
<path d="M 68.1924 8.17157 C 73.2692 9.73367, 73.2692 12.2663, 68.1924 13.8284 C 63.1156 15.3905, 54.8844 15.3905, 49.8076 13.8284 C 44.7308 12.2663, 44.7308 9.73367, 49.8076 8.17157 C 54.8844 6.60948, 63.1156 6.60948, 68.1924 8.17157" fill="#1b2223" fill-opacity="0.501961" />
<path d="M 46.8284 35.9289 C 48.3905 39.8342, 48.3905 46.1658, 46.8284 50.0711 C 45.2663 53.9763, 42.7337 53.9763, 41.1716 50.0711 C 39.6095 46.1658, 39.6095 39.8342, 41.1716 35.9289 C 42.7337 32.0237, 45.2663 32.0237, 46.8284 35.9289" fill="#272425" fill-opacity="0.501961" />
<path d="M 82.4723 41.3678 L 76.3157 49.2479 L 75.5277 48.6322 L 81.6843 40.7521 Z" fill="#8b7975" fill-opacity="0.501961" />
</g>
</svg>
