<svg version="1.1" width="1200" height="897" xmlns="http://www.w3.org/2000/svg">
<rect x="0" y="0" width="1200" height="897" fill="#717164" />
<g transform="scale(9.375, 9.44211)">
<path d="M 49.3553 -31.3553 C 68.8816 -11.8291, 68.8816 19.8291, 49.3553 39.3553 C 29.8291 58.8816, -1.82912 58.8816, -21.3553 39.3553 C -40.8816 19.8291, -40.8816 -11.8291, -21.3553 -31.3553 C -1.82912 -50.8816, 29.8291 -50.8816, 49.3553 -31.3553" fill="#e2aa81" fill-opacity="0.501961" />
<path d="M 123.648 54.3518 C 142.784 73.4875, 142.784 104.513, 123.648 123.648 C 104.513 142.784, 73.4875 142.784, 54.3518 123.648 C 35.2161 104.513, 35.2161 73.4875, 54.3518 54.3518 C 73.4875 35.2161, 104.513 35.2161, 123.648 54.3518" fill="#265657" fill-opacity="0.501961" />
<path d="M 77.8995 -4.89949 C 83.3668 0.567845, 83.3668 9.43215, 77.8995 14.8995 C 72.4322 20.3668, 63.5678 20.3668, 58.1005 14.8995 C 52.6332 9.43215, 52.6332 0.567845, 58.1005 -4.89949 C 63.5678 -10.3668, 72.4322 -10.3668, 77.8995 -4.89949" fill="#cb9879" fill-opacity="0.501961" />
<path d="M 86.0208 81.9792 C 92.6597 88.6181, 92.6597 99.3819, 86.0208 106.021 C 79.3819 112.66, 68.6181 112.66, 61.9792 106.021 C 55.3403 99.3819, 55.3403 88.6181, 61.9792 81.9792 C 68.6181 75.3403, 79.3819 75.3403, 86.0208 81.9792" fill="#7d9d8c" fill-opacity="0.501961" />
<path d="M 113.657 31.3431 C 116.781 34.4673, 116.781 39.5327, 113.657 42.6569 C 110.533 45.781, 105.467 45.781, 102.343 42.6569 C 99.219 39.5327, 99.219 34.4673, 102.343 31.3431 C 105.467 28.219, 110.533 28.219, 113.657 31.3431" fill="#bcc6a7" fill-opacity="0.501961" />
<path d="M 55.2426 69.7574 C 57.5858 72.1005, 57.5858 75.8995, 55.2426 78.2426 C 52.8995 80.5858, 49.1005 80.5858, 46.7574 78.2426 C 44.4142 75.8995, 44.4142 72.1005, 46.7574 69.7574 C 49.1005 67.4142, 52.8995 67.4142, 55.2426 69.7574" fill="#aacfab" fill-opacity="0.501961" />
<path d="M 101.192 8.80761 C 106.269 13.8844, 106.269 22.1156, 101.192 27.1924 C 96.1156 32.2692, 87.8844 32.2692, 82.8076 27.1924 C 77.7308 22.1156, 77.7308 13.8844, 82.8076 8.80761 C 87.8844 3.7308, 96.1156 3.7308, 101.192 8.80761" fill="#5b4138" fill-opacity="0.501961" />
<path d="M 7.77817 -1.77817 C 12.0739 2.51759, 12.0739 9.48241, 7.77817 13.7782 C 3.48241 18.0739, -3.48241 18.0739, -7.77817 13.7782 C -12.0739 9.48241, -12.0739 2.51759, -7.77817 -1.77817 C -3.48241 -6.07394, 3.48241 -6.07394, 7.77817 -1.77817" fill="#6b4430" fill-opacity="0.501961" />
<path d="M 60.0711 37.9289 C 63.9763 41.8342, 63.9763 48.1658, 60.0711 52.0711 C 56.1658 55.9763, 49.8342 55.9763, 45.9289 52.0711 C 42.0237 48.1658, 42.0237 41.8342, 45.9289 37.9289 C 49.8342 34.0237, 56.1658 34.0237, 60.0711 37.9289" fill="#335659" fill-opacity="0.501961" />
<path d="M 68.364 30.636 C 71.8787 34.1508, 71.8787 39.8492, 68.364 43.364 C 64.8492 46.8787, 59.1508 46.8787, 55.636 43.364 C 52.1213 39.8492, 52.1213 34.1508, 55.636 30.636 C 59.1508 27.1213, 64.8492 27.1213, 68.364 30.636" fill="#b29f8c" fill-opacity="0.501961" />
<path d="M 6.36396 75.636 C 9.87868 79.1508, 9.87868 84.8492, 6.36396 88.364 C 2.84924 91.8787, -2.84924 91.8787, -6.36396 88.364 C -9.87868 84.8492, -9.87868 79.1508, -6.36396 75.636 C -2.84924 72.1213, 2.84924 72.1213, 6.36396 75.636" fill="#033750" fill-opacity="0.501961" />
<path d="M 53.1924 84.8076 C 58.2692 89.8844, 58.2692 98.1156, 53.1924 103.192 C 48.1156 108.269, 39.8844 108.269, 34.8076 103.192 C 29.7308 98.1156, 29.7308 89.8844, 34.8076 84.8076 C 39.8844 79.7308, 48.1156 79.7308, 53.1924 84.8076" fill="#563f1d" fill-opacity="0.501961" />
<path d="M 119.243 82.7574 C 121.586 85.1005, 121.586 88.8995, 119.243 91.2426 C 116.899 93.5858, 113.101 93.5858, 110.757 91.2426 C 108.414 88.8995, 108.414 85.1005, 110.757 82.7574 C 113.101 80.4142, 116.899 80.4142, 119.243 82.7574" fill="#bb9879" fill-opacity="0.501961" />
<path d="M 48.364 56.636 C 51.8787 60.1508, 51.8787 65.8492, 48.364 69.364 C 44.8492 72.8787, 39.1508 72.8787, 35.636 69.364 C 32.1213 65.8492, 32.1213 60.1508, 35.636 56.636 C 39.1508 53.1213, 44.8492 53.1213, 48.364 56.636" fill="#743132" fill-opacity="0.501961" />
<path d="M 46.6569 73.3431 C 49.781 76.4673, 49.781 81.5327, 46.6569 84.6569 C 43.5327 87.781, 38.4673 87.781, 35.3431 84.6569 C 32.219 81.5327, 32.219 76.4673, 35.3431 73.3431 C 38.4673 70.219, 43.5327 70.219, 46.6569 73.3431" fill="#5e9f9a" fill-opacity="0.501961" />
<path d="M 111.314 63.6863 C 117.562 69.9347, 117.562 80.0653, 111.314 86.3137 C 105.065 92.5621, 94.9347 92.5621, 88.6863 86.3137 C 82.4379 80.0653, 82.4379 69.9347, 88.6863 63.6863 C 94.9347 57.4379, 105.065 57.4379, 111.314 63.6863" fill="#295054" fill-opacity="0.501961" />
<path d="M 79.0711 60.9289 C 82.9763 64.8342, 82.9763 71.1658, 79.0711 75.0711 C 75.1658 78.9763, 68.8342 78.9763, 64.9289 75.0711 C 61.0237 71.1658, 61.0237 64.8342, 64.9289 60.9289 C 68.8342 57.0237, 75.1658 57.0237, 79.0711 60.9289" fill="#273640" fill-opacity="0.501961" />
<path d="M 98.4853 32.5147 C 103.172 37.201, 103.172 44.799, 98.4853 49.4853 C 93.799 54.1716, 86.201 54.1716, 81.5147 49.4853 C 76.8284 44.799, 76.8284 37.201, 81.5147 32.5147 C 86.201 27.8284, 93.799 27.8284, 98.4853 32.5147" fill="#335b59" fill-opacity="0.501961" />
<path d="M 18.9497 72.0503 C 21.6834 74.7839, 21.6834 79.2161, 18.9497 81.9497 C 16.2161 84.6834, 11.7839 84.6834, 9.05025 81.9497 C 6.31658 79.2161, 6.31658 74.7839, 9.05025 72.0503 C 11.7839 69.3166, 16.2161 69.3166, 18.9497 72.0503" fill="#84b898" fill-opacity="0.501961" />
<path d="M 122.778 11.2218 C 127.074 15.5176, 127.074 22.4824, 122.778 26.7782 C 118.482 31.0739, 111.518 31.0739, 107.222 26.7782 C 102.926 22.4824, 102.926 15.5176, 107.222 11.2218 C 111.518 6.92606, 118.482 6.92606, 122.778 11.2218" fill="#4e4752" fill-opacity="0.501961" />
<path d="M 70.8284 41.1716 C 72.3905 42.7337, 72.3905 45.2663, 70.8284 46.8284 C 69.2663 48.3905, 66.7337 48.3905, 65.1716 46.8284 C 63.6095 45.2663, 63.6095 42.7337, 65.1716 41.1716 C 66.7337 39.6095, 69.2663 39.6095, 70.8284 41.1716" fill="#d9bdab" fill-opacity="0.501961" />
<path d="M 43.2426 40.7574 C 45.5858 43.1005, 45.5858 46.8995, 43.2426 49.2426 C 40.8995 51.5858, 37.1005 51.5858, 34.7574 49.2426 C 32.4142 46.8995, 32.4142 43.1005, 34.7574 40.7574 C 37.1005 38.4142, 40.8995 38.4142, 43.2426 40.7574" fill="#d7b87c" fill-opacity="0.501961" />
<path d="M 23.9497 88.0503 C 26.6834 90.7839, 26.6834 95.2161, 23.9497 97.9497 C 21.2161 100.683, 16.7839 100.683, 14.0503 97.9497 C 11.3166 95.2161, 11.3166 90.7839, 14.0503 88.0503 C 16.7839 85.3166, 21.2161 85.3166, 23.9497 88.0503" fill="#0e546e" fill-opacity="0.501961" />
<path d="M 137.607 30.3934 C 143.464 36.2513, 143.464 45.7487, 137.607 51.6066 C 131.749 57.4645, 122.251 57.4645, 116.393 51.6066 C 110.536 45.7487, 110.536 36.2513, 116.393 30.3934 C 122.251 24.5355, 131.749 24.5355, 137.607 30.3934" fill="#4a5a66" fill-opacity="0.501961" />
<path d="M 56.3137 8.68629 C 62.5621 14.9347, 62.5621 25.0653, 56.3137 31.3137 C 50.0653 37.5621, 39.9347 37.5621, 33.6863 31.3137 C 27.4379 25.0653, 27.4379 14.9347, 33.6863 8.68629 C 39.9347 2.4379, 50.0653 2.4379, 56.3137 8.68629" fill="#bea181" fill-opacity="0.501961" />
<path d="M 38.6569 51.3431 C 41.781 54.4673, 41.781 59.5327, 38.6569 62.6569 C 35.5327 65.781, 30.4673 65.781, 27.3431 62.6569 C 24.219 59.5327, 24.219 54.4673, 27.3431 51.3431 C 30.4673 48.219, 35.5327 48.219, 38.6569 51.3431" fill="#58423c" fill-opacity="0.501961" />
<path d="M 69.5355 20.4645 C 71.4882 22.4171, 71.4882 25.5829, 69.5355 27.5355 C 67.5829 29.4882, 64.4171 29.4882, 62.4645 27.5355 C 60.5118 25.5829, 60.5118 22.4171, 62.4645 20.4645 C 64.4171 18.5118, 67.5829 18.5118, 69.5355 20.4645" fill="#2a3b3a" fill-opacity="0.501961" />
<path d="M 31.5355 71.4645 C 33.4882 73.4171, 33.4882 76.5829, 31.5355 78.5355 C 29.5829 80.4882, 26.4171 80.4882, 24.4645 78.5355 C 22.5118 76.5829, 22.5118 73.4171, 24.4645 71.4645 C 26.4171 69.5118, 29.5829 69.5118, 31.5355 71.4645" fill="#2a3e3e" fill-opacity="0.501961" />
<path d="M 83.2426 21.7574 C 85.5858 24.1005, 85.5858 27.8995, 83.2426 30.2426 C 80.8995 32.5858, 77.1005 32.5858, 74.7574 30.2426 C 72.4142 27.8995, 72.4142 24.1005, 74.7574 21.7574 C 77.1005 19.4142, 80.8995 19.4142, 83.2426 21.7574" fill="#b38370" fill-opacity="0.501961" />
<path d="M 16.9497 60.0503 C 19.6834 62.7839, 19.6834 67.2161, 16.9497 69.9497 C 14.2161 72.6834, 9.78392 72.6834, 7.05025 69.9497 C 4.31658 67.2161, 4.31658 62.7839, 7.05025 60.0503 C 9.78392 57.3166, 14.2161 57.3166, 16.9497 60.0503" fill="#5c4041" fill-opacity="0.501961" />
<path d="M 35.3137 23.6863 C 41.5621 29.9347, 41.5621 40.0653, 35.3137 46.3137 C 29.0653 52.5621, 18.9347 52.5621, 12.6863 46.3137 C 6.4379 40.0653, 6.4379 29.9347, 12.6863 23.6863 C 18.9347 17.4379, 29.0653 17.4379, 35.3137 23.6863" fill="#b99e87" fill-opacity="0.501961" />
<path d="M 51.8284 35.1716 C 53.3905 36.7337, 53.3905 39.2663, 51.8284 40.8284 C 50.2663 42.3905, 47.7337 42.3905, 46.1716 40.8284 C 44.6095 39.2663, 44.6095 36.7337, 46.1716 35.1716 C 47.7337 33.6095, 50.2663 33.6095, 51.8284 35.1716" fill="#15444f" fill-opacity="0.501961" />
<path d="M 122.728 -12.7279 C 129.757 -5.69848, 129.757 5.69848, 122.728 12.7279 C 115.698 19.7574, 104.302 19.7574, 97.2721 12.7279 C 90.2426 5.69848, 90.2426 -5.69848, 97.2721 -12.7279 C 104.302 -19.7574, 115.698 -19.7574, 122.728 -12.7279" fill="#8f6a61" fill-opacity="0.501961" />
<path d="M 64.2426 77.7574 C 66.5858 80.1005, 66.5858 83.8995, 64.2426 86.2426 C 61.8995 88.5858, 58.1005 88.5858, 55.7574 86.2426 C 53.4142 83.8995, 53.4142 80.1005, 55.7574 77.7574 C 58.1005 75.4142, 61.8995 75.4142, 64.2426 77.7574" fill="#888b61" fill-opacity="0.501961" />
<path d="M 78.8284 32.1716 C 80.3905 33.7337, 80.3905 36.2663, 78.8284 37.8284 C 77.2663 39.3905, 74.7337 39.3905, 73.1716 37.8284 C 71.6095 36.2663, 71.6095 33.7337, 73.1716 32.1716 C 74.7337 30.6095, 77.2663 30.6095, 78.8284 32.1716" fill="#92beaf" fill-opacity="0.501961" />
<path d="M 27.7782 -7.77817 C 32.0739 -3.48241, 32.0739 3.48241, 27.7782 7.77817 C 23.4824 12.0739, 16.5176 12.0739, 12.2218 7.77817 C 7.92606 3.48241, 7.92606 -3.48241, 12.2218 -7.77817 C 16.5176 -12.0739, 23.4824 -12.0739, 27.7782 -7.77817" fill="#917157" fill-opacity="0.501961" />
<path d="M 101.435 39.565 C 108.855 46.9849, 108.855 59.0151, 101.435 66.435 C 94.0151 73.855, 81.9849 73.855, 74.565 66.435 C 67.145 59.0151, 67.145 46.9849, 74.565 39.565 C 81.9849 32.145, 94.0151 32.145, 101.435 39.565" fill="#3d6562" fill-opacity="0.501961" />
<path d="M 106.828 29.1716 C 108.391 30.7337, 108.391 33.2663, 106.828 34.8284 C 105.266 36.3905, 102.734 36.3905, 101.172 34.8284 C 99.6095 33.2663, 99.6095 30.7337, 101.172 29.1716 C 102.734 27.6095, 105.266 27.6095, 106.828 29.1716" fill="#a8cfb3" fill-opacity="0.501961" />
<path d="M 18.9497 46.0503 C 21.6834 48.7839, 21.6834 53.2161, 18.9497 55.9497 C 16.2161 58.6834, 11.7839 58.6834, 9.05025 55.9497 C 6.31658 53.2161, 6.31658 48.7839, 9.05025 46.0503 C 11.7839 43.3166, 16.2161 43.3166, 18.9497 46.0503" fill="#bda080" fill-opacity="0.501961" />
<path d="M 46.7782 86.2218 C 51.0739 90.5176, 51.0739 97.4824, 46.7782 101.778 C 42.4824 106.074, 35.5176 106.074, 31.2218 101.778 C 26.9261 97.4824, 26.9261 90.5176, 31.2218 86.2218 C 35.5176 81.9261, 42.4824 81.9261, 46.7782 86.2218" fill="#544730" fill-opacity="0.501961" />
<path d="M 13.5355 70.4645 C 15.4882 72.4171, 15.4882 75.5829, 13.5355 77.5355 C 11.5829 79.4882, 8.41709 79.4882, 6.46447 77.5355 C 4.51184 75.5829, 4.51184 72.4171, 6.46447 70.4645 C 8.41709 68.5118, 11.5829 68.5118, 13.5355 70.4645" fill="#a6ae8b" fill-opacity="0.501961" />
<path d="M 64.4853 46.5147 C 69.1716 51.201, 69.1716 58.799, 64.4853 63.4853 C 59.799 68.1716, 52.201 68.1716, 47.5147 63.4853 C 42.8284 58.799, 42.8284 51.201, 47.5147 46.5147 C 52.201 41.8284, 59.799 41.8284, 64.4853 46.5147" fill="#3b5a56" fill-opacity="0.501961" />
<path d="M 99.5355 82.4645 C 101.488 84.4171, 101.488 87.5829, 99.5355 89.5355 C 97.5829 91.4882, 94.4171 91.4882, 92.4645 89.5355 C 90.5118 87.5829, 90.5118 84.4171, 92.4645 82.4645 C 94.4171 80.5118, 97.5829 80.5118, 99.5355 82.4645" fill="#2d222b" fill-opacity="0.501961" />
<path d="M 76.8284 39.1716 C 78.3905 40.7337, 78.3905 43.2663, 76.8284 44.8284 C 75.2663 46.3905, 72.7337 46.3905, 71.1716 44.8284 C 69.6095 43.2663, 69.6095 40.7337, 71.1716 39.1716 C 72.7337 37.6095, 75.2663 37.6095, 76.8284 39.1716" fill="#283841" fill-opacity="0.501961" />
<path d="M 26.8284 49.1716 C 28.3905 50.7337, 28.3905 53.2663, 26.8284 54.8284 C 25.2663 56.3905, 22.7337 56.3905, 21.1716 54.8284 C 19.6095 53.2663, 19.6095 50.7337, 21.1716 49.1716 C 22.7337 47.6095, 25.2663 47.6095, 26.8284 49.1716" fill="#4a645d" fill-opacity="0.501961" />
<path d="M 63.8284 -2.82843 C 65.3905 -1.26633, 65.3905 1.26633, 63.8284 2.82843 C 62.2663 4.39052, 59.7337 4.39052, 58.1716 2.82843 C 56.6095 1.26633, 56.6095 -1.26633, 58.1716 -2.82843 C 59.7337 -4.39052, 62.2663 -4.39052, 63.8284 -2.82843" fill="#6e512b" fill-opacity="0.501961" />
<path d="M 65.1213 9.87868 C 66.2929 11.0503, 66.2929 12.9497, 65.1213 14.1213 C 63.9497 15.2929, 62.0503 15.2929, 60.8787 14.1213 C 59.7071 12.9497, 59.7071 11.0503, 60.8787 9.87868 C 62.0503 8.70711, 63.9497 8.70711, 65.1213 9.87868" fill="#903b2a" fill-opacity="0.501961" />
<path d="M 61.5355 35.4645 C 63.4882 37.4171, 63.4882 40.5829, 61.5355 42.5355 C 59.5829 44.4882, 56.4171 44.4882, 54.4645 42.5355 C 52.5118 40.5829, 52.5118 37.4171, 54.4645 35.4645 C 56.4171 33.5118, 59.5829 33.5118, 61.5355 35.4645" fill="#825047" fill-opacity="0.501961" />
<path d="M 40.8284 -0.828427 C 42.3905 0.73367, 42.3905 3.26633, 40.8284 4.82843 C 39.2663 6.39052, 36.7337 6.39052, 35.1716 4.82843 C 33.6095 3.26633, 33.6095 0.73367, 35.1716 -0.828427 C 36.7337 -2.39052, 39.2663 -2.39052, 40.8284 -0.828427" fill="#86552e" fill-opacity="0.501961" />
<path d="M 128.95 89.0503 C 131.683 91.7839, 131.683 96.2161, 128.95 98.9497 C 126.216 101.683, 121.784 101.683, 119.05 98.9497 C 116.317 96.2161, 116.317 91.7839, 119.05 89.0503 C 121.784 86.3166, 126.216 86.3166, 128.95 89.0503" fill="#2a2f3c" fill-opacity="0.501961" />
<path d="M 62.1213 66.8787 C 63.2929 68.0503, 63.2929 69.9497, 62.1213 71.1213 C 60.9497 72.2929, 59.0503 72.2929, 57.8787 71.1213 C 56.7071 69.9497, 56.7071 68.0503, 57.8787 66.8787 C 59.0503 65.7071, 60.9497 65.7071, 62.1213 66.8787" fill="#ae9b69" fill-opacity="0.501961" />
<path d="M 29.5355 80.4645 C 31.4882 82.4171, 31.4882 85.5829, 29.5355 87.5355 C 27.5829 89.4882, 24.4171 89.4882, 22.4645 87.5355 C 20.5118 85.5829, 20.5118 82.4171, 22.4645 80.4645 C 24.4171 78.5118, 27.5829 78.5118, 29.5355 80.4645" fill="#70a88b" fill-opacity="0.501961" />
<path d="M 36.8284 66.1716 C 38.3905 67.7337, 38.3905 70.2663, 36.8284 71.8284 C 35.2663 73.3905, 32.7337 73.3905, 31.1716 71.8284 C 29.6095 70.2663, 29.6095 67.7337, 31.1716 66.1716 C 32.7337 64.6095, 35.2663 64.6095, 36.8284 66.1716" fill="#93a794" fill-opacity="0.501961" />
<path d="M 121.657 67.3431 C 124.781 70.4673, 124.781 75.5327, 121.657 78.6569 C 118.533 81.781, 113.467 81.781, 110.343 78.6569 C 107.219 75.5327, 107.219 70.4673, 110.343 67.3431 C 113.467 64.219, 118.533 64.219, 121.657 67.3431" fill="#2e4345" fill-opacity="0.501961" />
<path d="M 68.8284 34.1716 C 70.3905 35.7337, 70.3905 38.2663, 68.8284 39.8284 C 67.2663 41.3905, 64.7337 41.3905, 63.1716 39.8284 C 61.6095 38.2663, 61.6095 35.7337, 63.1716 34.1716 C 64.7337 32.6095, 67.2663 32.6095, 68.8284 34.1716" fill="#bcc3a5" fill-opacity="0.501961" />
<path d="M 9.19239 76.8076 C 14.2692 81.8844, 14.2692 90.1156, 9.19239 95.1924 C 4.11557 100.269, -4.11557 100.269, -9.19239 95.1924 C -14.2692 90.1156, -14.2692 81.8844, -9.19239 76.8076 C -4.11557 71.7308, 4.11557 71.7308, 9.19239 76.8076" fill="#396064" fill-opacity="0.501961" />
<path d="M 12.9497 51.0503 C 15.6834 53.7839, 15.6834 58.2161, 12.9497 60.9497 C 10.2161 63.6834, 5.78392 63.6834, 3.05025 60.9497 C 0.316582 58.2161, 0.316582 53.7839, 3.05025 51.0503 C 5.78392 48.3166, 10.2161 48.3166, 12.9497 51.0503" fill="#957052" fill-opacity="0.501961" />
<path d="M 87.8284 0.171573 C 89.3905 1.73367, 89.3905 4.26633, 87.8284 5.82843 C 86.2663 7.39052, 83.7337 7.39052, 82.1716 5.82843 C 80.6095 4.26633, 80.6095 1.73367, 82.1716 0.171573 C 83.7337 -1.39052, 86.2663 -1.39052, 87.8284 0.171573" fill="#b26234" fill-opacity="0.501961" />
<path d="M 72.8284 26.1716 C 74.3905 27.7337, 74.3905 30.2663, 72.8284 31.8284 C 71.2663 33.3905, 68.7337 33.3905, 67.1716 31.8284 C 65.6095 30.2663, 65.6095 27.7337, 67.1716 26.1716 C 68.7337 24.6095, 71.2663 24.6095, 72.8284 26.1716" fill="#30454c" fill-opacity="0.501961" />
<path d="M 64.1213 25.8787 C 65.2929 27.0503, 65.2929 28.9497, 64.1213 30.1213 C 62.9497 31.2929, 61.0503 31.2929, 59.8787 30.1213 C 58.7071 28.9497, 58.7071 27.0503, 59.8787 25.8787 C 61.0503 24.7071, 62.9497 24.7071, 64.1213 25.8787" fill="#a7b79c" fill-opacity="0.501961" />
<path d="M 4.94975 61.0503 C 7.68342 63.7839, 7.68342 68.2161, 4.94975 70.9497 C 2.21608 73.6834, -2.21608 73.6834, -4.94975 70.9497 C -7.68342 68.2161, -7.68342 63.7839, -4.94975 61.0503 C -2.21608 58.3166, 2.21608 58.3166, 4.94975 61.0503" fill="#4d4943" fill-opacity="0.501961" />
<path d="M 70.8284 9.17157 C 72.3905 10.7337, 72.3905 13.2663, 70.8284 14.8284 C 69.2663 16.3905, 66.7337 16.3905, 65.1716 14.8284 C 63.6095 13.2663, 63.6095 10.7337, 65.1716 9.17157 C 66.7337 7.60948, 69.2663 7.60948, 70.8284 9.17157" fill="#d4a291" fill-opacity="0.501961" />
<path d="M 124.485 45.5147 C 129.172 50.201, 129.172 57.799, 124.485 62.4853 C 119.799 67.1716, 112.201 67.1716, 107.515 62.4853 C 102.828 57.799, 102.828 50.201, 107.515 45.5147 C 112.201 40.8284, 119.799 40.8284, 124.485 45.5147" fill="#3f6267" fill-opacity="0.501961" />
<path d="M 31.2426 59.7574 C 33.5858 62.1005, 33.5858 65.8995, 31.2426 68.2426 C 28.8995 70.5858, 25.1005 70.5858, 22.7574 68.2426 C 20.4142 65.8995, 20.4142 62.1005, 22.7574 59.7574 C 25.1005 57.4142, 28.8995 57.4142, 31.2426 59.7574" fill="#9f6859" fill-opacity="0.501961" />
<path d="M 37.5355 78.4645 C 39.4882 80.4171, 39.4882 83.5829, 37.5355 85.5355 C 35.5829 87.4882, 32.4171 87.4882, 30.4645 85.5355 C 28.5118 83.5829, 28.5118 80.4171, 30.4645 78.4645 C 32.4171 76.5118, 35.5829 76.5118, 37.5355 78.4645" fill="#589291" fill-opacity="0.501961" />
<path d="M 109.828 39.1716 C 111.391 40.7337, 111.391 43.2663, 109.828 44.8284 C 108.266 46.3905, 105.734 46.3905, 104.172 44.8284 C 102.609 43.2663, 102.609 40.7337, 104.172 39.1716 C 105.734 37.6095, 108.266 37.6095, 109.828 39.1716" fill="#d3b295" fill-opacity="0.501961" />
<path d="M 23.2426 57.7574 C 25.5858 60.1005, 25.5858 63.8995, 23.2426 66.2426 C 20.8995 68.5858, 17.1005 68.5858, 14.7574 66.2426 C 12.4142 63.8995, 12.4142 60.1005, 14.7574 57.7574 C 17.1005 55.4142, 20.8995 55.4142, 23.2426 57.7574" fill="#5c4751" fill-opacity="0.501961" />
<path d="M 114.243 -4.24264 C 116.586 -1.89949, 116.586 1.89949, 114.243 4.24264 C 111.899 6.58579, 108.101 6.58579, 105.757 4.24264 C 103.414 1.89949, 103.414 -1.89949, 105.757 -4.24264 C 108.101 -6.58579, 111.899 -6.58579, 114.243 -4.24264" fill="#724831" fill-opacity="0.501961" />
<path d="M 56.4142 17.5858 C 57.1953 18.3668, 57.1953 19.6332, 56.4142 20.4142 C 55.6332 21.1953, 54.3668 21.1953, 53.5858 20.4142 C 52.8047 19.6332, 52.8047 18.3668, 53.5858 17.5858 C 54.3668 16.8047, 55.6332 16.8047, 56.4142 17.5858" fill="#8e1c20" fill-opacity="0.501961" />
<path d="M 35.4142 34.5858 C 36.1953 35.3668, 36.1953 36.6332, 35.4142 37.4142 C 34.6332 38.1953, 33.3668 38.1953, 32.5858 37.4142 C 31.8047 36.6332, 31.8047 35.3668, 32.5858 34.5858 C 33.3668 33.8047, 34.6332 33.8047, 35.4142 34.5858" fill="#7b2b1e" fill-opacity="0.501961" />
<path d="M 52.1213 27.8787 C 53.2929 29.0503, 53.2929 30.9497, 52.1213 32.1213 C 50.9497 33.2929, 49.0503 33.2929, 47.8787 32.1213 C 46.7071 30.9497, 46.7071 29.0503, 47.8787 27.8787 C 49.0503 26.7071, 50.9497 26.7071, 52.1213 27.8787" fill="#578d8d" fill-opacity="0.501961" />
<path d="M 91.2426 69.7574 C 93.5858 72.1005, 93.5858 75.8995, 91.2426 78.2426 C 88.8995 80.5858, 85.1005 80.5858, 82.7574 78.2426 C 80.4142 75.8995, 80.4142 72.1005, 82.7574 69.7574 C 85.1005 67.4142, 88.8995 67.4142, 91.2426 69.7574" fill="#417f71" fill-opacity="0.501961" />
<path d="M 96.0711 9.92893 C 99.9763 13.8342, 99.9763 20.1658, 96.0711 24.0711 C 92.1658 27.9763, 85.8342 27.9763, 81.9289 24.0711 C 78.0237 20.1658, 78.0237 13.8342, 81.9289 9.92893 C 85.8342 6.02369, 92.1658 6.02369, 96.0711 9.92893" fill="#594e44" fill-opacity="0.501961" />
<path d="M 6.36396 30.636 C 9.87868 34.1508, 9.87868 39.8492, 6.36396 43.364 C 2.84924 46.8787, -2.84924 46.8787, -6.36396 43.364 C -9.87868 39.8492, -9.87868 34.1508, -6.36396 30.636 C -2.84924 27.1213, 2.84924 27.1213, 6.36396 30.636" fill="#a17357" fill-opacity="0.501961" />
<path d="M 130.536 -3.53553 C 132.488 -1.58291, 132.488 1.58291, 130.536 3.53553 C 128.583 5.48816, 125.417 5.48816, 123.464 3.53553 C 121.512 1.58291, 121.512 -1.58291, 123.464 -3.53553 C 125.417 -5.48816, 128.583 -5.48816, 130.536 -3.53553" fill="#b7b18b" fill-opacity="0.501961" />
<path d="M 78.8284 82.1716 C 80.3905 83.7337, 80.3905 86.2663, 78.8284 87.8284 C 77.2663 89.3905, 74.7337 89.3905, 73.1716 87.8284 C 71.6095 86.2663, 71.6095 83.7337, 73.1716 82.1716 C 74.7337 80.6095, 77.2663 80.6095, 78.8284 82.1716" fill="#a5945b" fill-opacity="0.501961" />
<path d="M 131.243 77.7574 C 133.586 80.1005, 133.586 83.8995, 131.243 86.2426 C 128.899 88.5858, 125.101 88.5858, 122.757 86.2426 C 120.414 83.8995, 120.414 80.1005, 122.757 77.7574 C 125.101 75.4142, 128.899 75.4142, 131.243 77.7574" fill="#2a3a40" fill-opacity="0.501961" />
<path d="M 41.8284 60.1716 C 43.3905 61.7337, 43.3905 64.2663, 41.8284 65.8284 C 40.2663 67.3905, 37.7337 67.3905, 36.1716 65.8284 C 34.6095 64.2663, 34.6095 61.7337, 36.1716 60.1716 C 37.7337 58.6095, 40.2663 58.6095, 41.8284 60.1716" fill="#ab4237" fill-opacity="0.501961" />
<path d="M 7.53553 13.4645 C 9.48816 15.4171, 9.48816 18.5829, 7.53553 20.5355 C 5.58291 22.4882, 2.41709 22.4882, 0.464466 20.5355 C -1.48816 18.5829, -1.48816 15.4171, 0.464466 13.4645 C 2.41709 11.5118, 5.58291 11.5118, 7.53553 13.4645" fill="#a36f4d" fill-opacity="0.501961" />
<path d="M 76.1213 4.87868 C 77.2929 6.05025, 77.2929 7.94975, 76.1213 9.12132 C 74.9497 10.2929, 73.0503 10.2929, 71.8787 9.12132 C 70.7071 7.94975, 70.7071 6.05025, 71.8787 4.87868 C 73.0503 3.70711, 74.9497 3.70711, 76.1213 4.87868" fill="#7a4341" fill-opacity="0.501961" />
<path d="M 105.536 3.46447 C 107.488 5.41709, 107.488 8.58291, 105.536 10.5355 C 103.583 12.4882, 100.417 12.4882, 98.4645 10.5355 C 96.5118 8.58291, 96.5118 5.41709, 98.4645 3.46447 C 100.417 1.51184, 103.583 1.51184, 105.536 3.46447" fill="#998e7e" fill-opacity="0.501961" />
<path d="M 62.8284 91.1716 C 64.3905 92.7337, 64.3905 95.2663, 62.8284 96.8284 C 61.2663 98.3905, 58.7337 98.3905, 57.1716 96.8284 C 55.6095 95.2663, 55.6095 92.7337, 57.1716 91.1716 C 58.7337 89.6095, 61.2663 89.6095, 62.8284 91.1716" fill="#1b5b69" fill-opacity="0.501961" />
<path d="M 119.778 11.2218 C 124.074 15.5176, 124.074 22.4824, 119.778 26.7782 C 115.482 31.0739, 108.518 31.0739, 104.222 26.7782 C 99.9261 22.4824, 99.9261 15.5176, 104.222 11.2218 C 108.518 6.92606, 115.482 6.92606, 119.778 11.2218" fill="#565a5a" fill-opacity="0.501961" />
<path d="M 56.5355 86.4645 C 58.4882 88.4171, 58.4882 91.5829, 56.5355 93.5355 C 54.5829 95.4882, 51.4171 95.4882, 49.4645 93.5355 C 47.5118 91.5829, 47.5118 88.4171, 49.4645 86.4645 C 51.4171 84.5118, 54.5829 84.5118, 56.5355 86.4645" fill="#68421d" fill-opacity="0.501961" />
<path d="M 68.1213 43.8787 C 69.2929 45.0503, 69.2929 46.9497, 68.1213 48.1213 C 66.9497 49.2929, 65.0503 49.2929, 63.8787 48.1213 C 62.7071 46.9497, 62.7071 45.0503, 63.8787 43.8787 C 65.0503 42.7071, 66.9497 42.7071, 68.1213 43.8787" fill="#b8a99b" fill-opacity="0.501961" />
<path d="M 115.121 28.8787 C 116.293 30.0503, 116.293 31.9497, 115.121 33.1213 C 113.95 34.2929, 112.05 34.2929, 110.879 33.1213 C 109.707 31.9497, 109.707 30.0503, 110.879 28.8787 C 112.05 27.7071, 113.95 27.7071, 115.121 28.8787" fill="#98b57d" fill-opacity="0.501961" />
<path d="M 22.1213 68.8787 C 23.2929 70.0503, 23.2929 71.9497, 22.1213 73.1213 C 20.9497 74.2929, 19.0503 74.2929, 17.8787 73.1213 C 16.7071 71.9497, 16.7071 70.0503, 17.8787 68.8787 C 19.0503 67.7071, 20.9497 67.7071, 22.1213 68.8787" fill="#91a49a" fill-opacity="0.501961" />
<path d="M 70.8284 86.1716 C 72.3905 87.7337, 72.3905 90.2663, 70.8284 91.8284 C 69.2663 93.3905, 66.7337 93.3905, 65.1716 91.8284 C 63.6095 90.2663, 63.6095 87.7337, 65.1716 86.1716 C 66.7337 84.6095, 69.2663 84.6095, 70.8284 86.1716" fill="#9b9874" fill-opacity="0.501961" />
<path d="M 129.657 33.3431 C 132.781 36.4673, 132.781 41.5327, 129.657 44.6569 C 126.533 47.781, 121.467 47.781, 118.343 44.6569 C 115.219 41.5327, 115.219 36.4673, 118.343 33.3431 C 121.467 30.219, 126.533 30.219, 129.657 33.3431" fill="#7d6d68" fill-opacity="0.501961" />
<path d="M 83.9497 89.0503 C 86.6834 91.7839, 86.6834 96.2161, 83.9497 98.9497 C 81.2161 101.683, 76.7839 101.683, 74.0503 98.9497 C 71.3166 96.2161, 71.3166 91.7839, 74.0503 89.0503 C 76.7839 86.3166, 81.2161 86.3166, 83.9497 89.0503" fill="#3a757f" fill-opacity="0.501961" />
<path d="M 113.828 86.1716 C 115.391 87.7337, 115.391 90.2663, 113.828 91.8284 C 112.266 93.3905, 109.734 93.3905, 108.172 91.8284 C 106.609 90.2663, 106.609 87.7337, 108.172 86.1716 C 109.734 84.6095, 112.266 84.6095, 113.828 86.1716" fill="#987d63" fill-opacity="0.501961" />
<path d="M 21.9497 77.0503 C 24.6834 79.7839, 24.6834 84.2161, 21.9497 86.9497 C 19.2161 89.6834, 14.7839 89.6834, 12.0503 86.9497 C 9.31658 84.2161, 9.31658 79.7839, 12.0503 77.0503 C 14.7839 74.3166, 19.2161 74.3166, 21.9497 77.0503" fill="#739581" fill-opacity="0.501961" />
<path d="M 50.2426 71.7574 C 52.5858 74.1005, 52.5858 77.8995, 50.2426 80.2426 C 47.8995 82.5858, 44.1005 82.5858, 41.7574 80.2426 C 39.4142 77.8995, 39.4142 74.1005, 41.7574 71.7574 C 44.1005 69.4142, 47.8995 69.4142, 50.2426 71.7574" fill="#759d84" fill-opacity="0.501961" />
<path d="M 88.5355 56.4645 C 90.4882 58.4171, 90.4882 61.5829, 88.5355 63.5355 C 86.5829 65.4882, 83.4171 65.4882, 81.4645 63.5355 C 79.5118 61.5829, 79.5118 58.4171, 81.4645 56.4645 C 83.4171 54.5118, 86.5829 54.5118, 88.5355 56.4645" fill="#344049" fill-opacity="0.501961" />
<path d="M 34.4853 8.51472 C 39.1716 13.201, 39.1716 20.799, 34.4853 25.4853 C 29.799 30.1716, 22.201 30.1716, 17.5147 25.4853 C 12.8284 20.799, 12.8284 13.201, 17.5147 8.51472 C 22.201 3.82843, 29.799 3.82843, 34.4853 8.51472" fill="#b29073" fill-opacity="0.501961" />
<path d="M 52.1213 64.8787 C 53.2929 66.0503, 53.2929 67.9497, 52.1213 69.1213 C 50.9497 70.2929, 49.0503 70.2929, 47.8787 69.1213 C 46.7071 67.9497, 46.7071 66.0503, 47.8787 64.8787 C 49.0503 63.7071, 50.9497 63.7071, 52.1213 64.8787" fill="#85433c" fill-opacity="0.501961" />
<path d="M 87.5355 82.4645 C 89.4882 84.4171, 89.4882 87.5829, 87.5355 89.5355 C 85.5829 91.4882, 82.4171 91.4882, 80.4645 89.5355 C 78.5118 87.5829, 78.5118 84.4171, 80.4645 82.4645 C 82.4171 80.5118, 85.5829 80.5118, 87.5355 82.4645" fill="#7b978d" fill-opacity="0.501961" />
<path d="M 127.536 24.4645 C 129.488 26.4171, 129.488 29.5829, 127.536 31.5355 C 125.583 33.4882, 122.417 33.4882, 120.464 31.5355 C 118.512 29.5829, 118.512 26.4171, 120.464 24.4645 C 122.417 22.5118, 125.583 22.5118, 127.536 24.4645" fill="#414952" fill-opacity="0.501961" />
<path d="M 55.1213 72.8787 C 56.2929 74.0503, 56.2929 75.9497, 55.1213 77.1213 C 53.9497 78.2929, 52.0503 78.2929, 50.8787 77.1213 C 49.7071 75.9497, 49.7071 74.0503, 50.8787 72.8787 C 52.0503 71.7071, 53.9497 71.7071, 55.1213 72.8787" fill="#afc2a8" fill-opacity="0.501961" />
<path d="M 48.9497 89.0503 C 51.6834 91.7839, 51.6834 96.2161, 48.9497 98.9497 C 46.2161 101.683, 41.7839 101.683, 39.0503 98.9497 C 36.3166 96.2161, 36.3166 91.7839, 39.0503 89.0503 C 41.7839 86.3166, 46.2161 86.3166, 48.9497 89.0503" fill="#736322" fill-opacity="0.501961" />
<path d="M 51.1213 53.8787 C 52.2929 55.0503, 52.2929 56.9497, 51.1213 58.1213 C 49.9497 59.2929, 48.0503 59.2929, 46.8787 58.1213 C 45.7071 56.9497, 45.7071 55.0503, 46.8787 53.8787 C 48.0503 52.7071, 49.9497 52.7071, 51.1213 53.8787" fill="#928d62" fill-opacity="0.501961" />
<path d="M 73.1213 32.8787 C 74.2929 34.0503, 74.2929 35.9497, 73.1213 37.1213 C 71.9497 38.2929, 70.0503 38.2929, 68.8787 37.1213 C 67.7071 35.9497, 67.7071 34.0503, 68.8787 32.8787 C 70.0503 31.7071, 71.9497 31.7071, 73.1213 32.8787" fill="#3d605f" fill-opacity="0.501961" />
<path d="M 119.536 51.4645 C 121.488 53.4171, 121.488 56.5829, 119.536 58.5355 C 117.583 60.4882, 114.417 60.4882, 112.464 58.5355 C 110.512 56.5829, 110.512 53.4171, 112.464 51.4645 C 114.417 49.5118, 117.583 49.5118, 119.536 51.4645" fill="#57817b" fill-opacity="0.501961" />
<path d="M 52.5355 36.4645 C 54.4882 38.4171, 54.4882 41.5829, 52.5355 43.5355 C 50.5829 45.4882, 47.4171 45.4882, 45.4645 43.5355 C 43.5118 41.5829, 43.5118 38.4171, 45.4645 36.4645 C 47.4171 34.5118, 50.5829 34.5118, 52.5355 36.4645" fill="#395b5c" fill-opacity="0.501961" />
<path d="M 43.8284 53.1716 C 45.3905 54.7337, 45.3905 57.2663, 43.8284 58.8284 C 42.2663 60.3905, 39.7337 60.3905, 38.1716 58.8284 C 36.6095 57.2663, 36.6095 54.7337, 38.1716 53.1716 C 39.7337 51.6095, 42.2663 51.6095, 43.8284 53.1716" fill="#3a504f" fill-opacity="0.501961" />
<path d="M 54.1213 -2.12132 C 55.2929 -0.949747, 55.2929 0.949747, 54.1213 2.12132 C 52.9497 3.29289, 51.0503 3.29289, 49.8787 2.12132 C 48.7071 0.949747, 48.7071 -0.949747, 49.8787 -2.12132 C 51.0503 -3.29289, 52.9497 -3.29289, 54.1213 -2.12132" fill="#795f34" fill-opacity="0.501961" />
<path d="M 52.8284 82.1716 C 54.3905 83.7337, 54.3905 86.2663, 52.8284 87.8284 C 51.2663 89.3905, 48.7337 89.3905, 47.1716 87.8284 C 45.6095 86.2663, 45.6095 83.7337, 47.1716 82.1716 C 48.7337 80.6095, 51.2663 80.6095, 52.8284 82.1716" fill="#313c4f" fill-opacity="0.501961" />
<path d="M 19.0711 25.9289 C 22.9763 29.8342, 22.9763 36.1658, 19.0711 40.0711 C 15.1658 43.9763, 8.83418 43.9763, 4.92893 40.0711 C 1.02369 36.1658, 1.02369 29.8342, 4.92893 25.9289 C 8.83418 22.0237, 15.1658 22.0237, 19.0711 25.9289" fill="#b7987a" fill-opacity="0.501961" />
<path d="M 71.1213 15.8787 C 72.2929 17.0503, 72.2929 18.9497, 71.1213 20.1213 C 69.9497 21.2929, 68.0503 21.2929, 66.8787 20.1213 C 65.7071 18.9497, 65.7071 17.0503, 66.8787 15.8787 C 68.0503 14.7071, 69.9497 14.7071, 71.1213 15.8787" fill="#92422b" fill-opacity="0.501961" />
<path d="M 96.1213 30.8787 C 97.2929 32.0503, 97.2929 33.9497, 96.1213 35.1213 C 94.9497 36.2929, 93.0503 36.2929, 91.8787 35.1213 C 90.7071 33.9497, 90.7071 32.0503, 91.8787 30.8787 C 93.0503 29.7071, 94.9497 29.7071, 96.1213 30.8787" fill="#844336" fill-opacity="0.501961" />
<path d="M 106.536 89.4645 C 108.488 91.4171, 108.488 94.5829, 106.536 96.5355 C 104.583 98.4882, 101.417 98.4882, 99.4645 96.5355 C 97.5118 94.5829, 97.5118 91.4171, 99.4645 89.4645 C 101.417 87.5118, 104.583 87.5118, 106.536 89.4645" fill="#43363b" fill-opacity="0.501961" />
<path d="M 43.8284 46.1716 C 45.3905 47.7337, 45.3905 50.2663, 43.8284 51.8284 C 42.2663 53.3905, 39.7337 53.3905, 38.1716 51.8284 C 36.6095 50.2663, 36.6095 47.7337, 38.1716 46.1716 C 39.7337 44.6095, 42.2663 44.6095, 43.8284 46.1716" fill="#bba56f" fill-opacity="0.501961" />
<path d="M 111.071 57.9289 C 114.976 61.8342, 114.976 68.1658, 111.071 72.0711 C 107.166 75.9763, 100.834 75.9763, 96.9289 72.0711 C 93.0237 68.1658, 93.0237 61.8342, 96.9289 57.9289 C 100.834 54.0237, 107.166 54.0237, 111.071 57.9289" fill="#2e6862" fill-opacity="0.501961" />
<path d="M 104.121 27.8787 C 105.293 29.0503, 105.293 30.9497, 104.121 32.1213 C 102.95 33.2929, 101.05 33.2929, 99.8787 32.1213 C 98.7071 30.9497, 98.7071 29.0503, 99.8787 27.8787 C 101.05 26.7071, 102.95 26.7071, 104.121 27.8787" fill="#8cbca3" fill-opacity="0.501961" />
<path d="M 44.4142 23.5858 C 45.1953 24.3668, 45.1953 25.6332, 44.4142 26.4142 C 43.6332 27.1953, 42.3668 27.1953, 41.5858 26.4142 C 40.8047 25.6332, 40.8047 24.3668, 41.5858 23.5858 C 42.3668 22.8047, 43.6332 22.8047, 44.4142 23.5858" fill="#8f4534" fill-opacity="0.501961" />
<path d="M 53.1213 30.8787 C 54.2929 32.0503, 54.2929 33.9497, 53.1213 35.1213 C 51.9497 36.2929, 50.0503 36.2929, 48.8787 35.1213 C 47.7071 33.9497, 47.7071 32.0503, 48.8787 30.8787 C 50.0503 29.7071, 51.9497 29.7071, 53.1213 30.8787" fill="#9fbfa4" fill-opacity="0.501961" />
<path d="M 59.8284 24.1716 C 61.3905 25.7337, 61.3905 28.2663, 59.8284 29.8284 C 58.2663 31.3905, 55.7337 31.3905, 54.1716 29.8284 C 52.6095 28.2663, 52.6095 25.7337, 54.1716 24.1716 C 55.7337 22.6095, 58.2663 22.6095, 59.8284 24.1716" fill="#c7b290" fill-opacity="0.501961" />
<path d="M 66.8284 30.1716 C 68.3905 31.7337, 68.3905 34.2663, 66.8284 35.8284 C 65.2663 37.3905, 62.7337 37.3905, 61.1716 35.8284 C 59.6095 34.2663, 59.6095 31.7337, 61.1716 30.1716 C 62.7337 28.6095, 65.2663 28.6095, 66.8284 30.1716" fill="#9dbd98" fill-opacity="0.501961" />
<path d="M 60.1213 31.8787 C 61.2929 33.0503, 61.2929 34.9497, 60.1213 36.1213 C 58.9497 37.2929, 57.0503 37.2929, 55.8787 36.1213 C 54.7071 34.9497, 54.7071 33.0503, 55.8787 31.8787 C 57.0503 30.7071, 58.9497 30.7071, 60.1213 31.8787" fill="#5d564e" fill-opacity="0.501961" />
<path d="M 118.121 2.87868 C 119.293 4.05025, 119.293 5.94975, 118.121 7.12132 C 116.95 8.29289, 115.05 8.29289, 113.879 7.12132 C 112.707 5.94975, 112.707 4.05025, 113.879 2.87868 C 115.05 1.70711, 116.95 1.70711, 118.121 2.87868" fill="#a7997e" fill-opacity="0.501961" />
<path d="M 43.4142 10.5858 C 44.1953 11.3668, 44.1953 12.6332, 43.4142 13.4142 C 42.6332 14.1953, 41.3668 14.1953, 40.5858 13.4142 C 39.8047 12.6332, 39.8047 11.3668, 40.5858 10.5858 C 41.3668 9.80474, 42.6332 9.80474, 43.4142 10.5858" fill="#b14931" fill-opacity="0.501961" />
<path d="M 46.4142 16.5858 C 47.1953 17.3668, 47.1953 18.6332, 46.4142 19.4142 C 45.6332 20.1953, 44.3668 20.1953, 43.5858 19.4142 C 42.8047 18.6332, 42.8047 17.3668, 43.5858 16.5858 C 44.3668 15.8047, 45.6332 15.8047, 46.4142 16.5858" fill="#894937" fill-opacity="0.501961" />
<path d="M 37.1213 15.8787 C 38.2929 17.0503, 38.2929 18.9497, 37.1213 20.1213 C 35.9497 21.2929, 34.0503 21.2929, 32.8787 20.1213 C 31.7071 18.9497, 31.7071 17.0503, 32.8787 15.8787 C 34.0503 14.7071, 35.9497 14.7071, 37.1213 15.8787" fill="#b55b51" fill-opacity="0.501961" />
<path d="M 93.1213 80.8787 C 94.2929 82.0503, 94.2929 83.9497, 93.1213 85.1213 C 91.9497 86.2929, 90.0503 86.2929, 88.8787 85.1213 C 87.7071 83.9497, 87.7071 82.0503, 88.8787 80.8787 C 90.0503 79.7071, 91.9497 79.7071, 93.1213 80.8787" fill="#2d232b" fill-opacity="0.501961" />
<path d="M 60.1213 4.87868 C 61.2929 6.05025, 61.2929 7.94975, 60.1213 9.12132 C 58.9497 10.2929, 57.0503 10.2929, 55.8787 9.12132 C 54.7071 7.94975, 54.7071 6.05025, 55.8787 4.87868 C 57.0503 3.70711, 58.9497 3.70711, 60.1213 4.87868" fill="#b8c2a6" fill-opacity="0.501961" />
<path d="M 20.8284 46.1716 C 22.3905 47.7337, 22.3905 50.2663, 20.8284 51.8284 C 19.2663 53.3905, 16.7337 53.3905, 15.1716 51.8284 C 13.6095 50.2663, 13.6095 47.7337, 15.1716 46.1716 C 16.7337 44.6095, 19.2663 44.6095, 20.8284 46.1716" fill="#c0b49b" fill-opacity="0.501961" />
<path d="M 87.8284 43.1716 C 89.3905 44.7337, 89.3905 47.2663, 87.8284 48.8284 C 86.2663 50.3905, 83.7337 50.3905, 82.1716 48.8284 C 80.6095 47.2663, 80.6095 44.7337, 82.1716 43.1716 C 83.7337 41.6095, 86.2663 41.6095, 87.8284 43.1716" fill="#0d6b52" fill-opacity="0.501961" />
<path d="M 94.2426 89.7574 C 96.5858 92.1005, 96.5858 95.8995, 94.2426 98.2426 C 91.8995 100.586, 88.1005 100.586, 85.7574 98.2426 C 83.4142 95.8995, 83.4142 92.1005, 85.7574 89.7574 C 88.1005 87.4142, 91.8995 87.4142, 94.2426 89.7574" fill="#478181" fill-opacity="0.501961" />
<path d="M 129.828 4.17157 C 131.391 5.73367, 131.391 8.26633, 129.828 9.82843 C 128.266 11.3905, 125.734 11.3905, 124.172 9.82843 C 122.609 8.26633, 122.609 5.73367, 124.172 4.17157 C 125.734 2.60948, 128.266 2.60948, 129.828 4.17157" fill="#a69978" fill-opacity="0.501961" />
<path d="M 124.121 7.87868 C 125.293 9.05025, 125.293 10.9497, 124.121 12.1213 C 122.95 13.2929, 121.05 13.2929, 119.879 12.1213 C 118.707 10.9497, 118.707 9.05025, 119.879 7.87868 C 121.05 6.70711, 122.95 6.70711, 124.121 7.87868" fill="#5f3f3e" fill-opacity="0.501961" />
<path d="M 85.1213 38.8787 C 86.2929 40.0503, 86.2929 41.9497, 85.1213 43.1213 C 83.9497 44.2929, 82.0503 44.2929, 80.8787 43.1213 C 79.7071 41.9497, 79.7071 40.0503, 80.8787 38.8787 C 82.0503 37.7071, 83.9497 37.7071, 85.1213 38.8787" fill="#63907e" fill-opacity="0.501961" />
<path d="M 68.1213 18.8787 C 69.2929 20.0503, 69.2929 21.9497, 68.1213 23.1213 C 66.9497 24.2929, 65.0503 24.2929, 63.8787 23.1213 C 62.7071 21.9497, 62.7071 20.0503, 63.8787 18.8787 C 65.0503 17.7071, 66.9497 17.7071, 68.1213 18.8787" fill="#303d37" fill-opacity="0.501961" />
<path d="M 107.828 16.1716 C 109.391 17.7337, 109.391 20.2663, 107.828 21.8284 C 106.266 23.3905, 103.734 23.3905, 102.172 21.8284 C 100.609 20.2663, 100.609 17.7337, 102.172 16.1716 C 103.734 14.6095, 106.266 14.6095, 107.828 16.1716" fill="#754235" fill-opacity="0.501961" />
<path d="M 80.5355 29.4645 C 82.4882 31.4171, 82.4882 34.5829, 80.5355 36.5355 C 78.5829 38.4882, 75.4171 38.4882, 73.4645 36.5355 C 71.5118 34.5829, 71.5118 31.4171, 73.4645 29.4645 C 75.4171 27.5118, 78.5829 27.5118, 80.5355 29.4645" fill="#919688" fill-opacity="0.501961" />
<path d="M 55.1213 5.87868 C 56.2929 7.05025, 56.2929 8.94975, 55.1213 10.1213 C 53.9497 11.2929, 52.0503 11.2929, 50.8787 10.1213 C 49.7071 8.94975, 49.7071 7.05025, 50.8787 5.87868 C 52.0503 4.70711, 53.9497 4.70711, 55.1213 5.87868" fill="#bf6258" fill-opacity="0.501961" />
<path d="M 41.4142 39.5858 C 42.1953 40.3668, 42.1953 41.6332, 41.4142 42.4142 C 40.6332 43.1953, 39.3668 43.1953, 38.5858 42.4142 C 37.8047 41.6332, 37.8047 40.3668, 38.5858 39.5858 C 39.3668 38.8047, 40.6332 38.8047, 41.4142 39.5858" fill="#8b5f44" fill-opacity="0.501961" />
<path d="M 84.6569 18.3431 C 87.781 21.4673, 87.781 26.5327, 84.6569 29.6569 C 81.5327 32.781, 76.4673 32.781, 73.3431 29.6569 C 70.219 26.5327, 70.219 21.4673, 73.3431 18.3431 C 76.4673 15.219, 81.5327 15.219, 84.6569 18.3431" fill="#90705c" fill-opacity="0.501961" />
<path d="M 5.24264 78.7574 C 7.58579 81.1005, 7.58579 84.8995, 5.24264 87.2426 C 2.89949 89.5858, -0.899495 89.5858, -3.24264 87.2426 C -5.58579 84.8995, -5.58579 81.1005, -3.24264 78.7574 C -0.899495 76.4142, 2.89949 76.4142, 5.24264 78.7574" fill="#303d47" fill-opacity="0.501961" />
<path d="M 17.1213 73.8787 C 18.2929 75.0503, 18.2929 76.9497, 17.1213 78.1213 C 15.9497 79.2929, 14.0503 79.2929, 12.8787 78.1213 C 11.7071 76.9497, 11.7071 75.0503, 12.8787 73.8787 C 14.0503 72.7071, 15.9497 72.7071, 17.1213 73.8787" fill="#b6b68c" fill-opacity="0.501961" />
<path d="M 59.8284 75.1716 C 61.3905 76.7337, 61.3905 79.2663, 59.8284 80.8284 C 58.2663 82.3905, 55.7337 82.3905, 54.1716 80.8284 C 52.6095 79.2663, 52.6095 76.7337, 54.1716 75.1716 C 55.7337 73.6095, 58.2663 73.6095, 59.8284 75.1716" fill="#5b8784" fill-opacity="0.501961" />
<path d="M 100.536 41.4645 C 102.488 43.4171, 102.488 46.5829, 100.536 48.5355 C 98.5829 50.4882, 95.4171 50.4882, 93.4645 48.5355 C 91.5118 46.5829, 91.5118 43.4171, 93.4645 41.4645 C 95.4171 39.5118, 98.5829 39.5118, 100.536 41.4645" fill="#5f6a6d" fill-opacity="0.501961" />
<path d="M 70.364 50.636 C 73.8787 54.1508, 73.8787 59.8492, 70.364 63.364 C 66.8492 66.8787, 61.1508 66.8787, 57.636 63.364 C 54.1213 59.8492, 54.1213 54.1508, 57.636 50.636 C 61.1508 47.1213, 66.8492 47.1213, 70.364 50.636" fill="#345252" fill-opacity="0.501961" />
<path d="M 118.536 83.4645 C 120.488 85.4171, 120.488 88.5829, 118.536 90.5355 C 116.583 92.4882, 113.417 92.4882, 111.464 90.5355 C 109.512 88.5829, 109.512 85.4171, 111.464 83.4645 C 113.417 81.5118, 116.583 81.5118, 118.536 83.4645" fill="#978a70" fill-opacity="0.501961" />
<path d="M 87.1213 30.8787 C 88.2929 32.0503, 88.2929 33.9497, 87.1213 35.1213 C 85.9497 36.2929, 84.0503 36.2929, 82.8787 35.1213 C 81.7071 33.9497, 81.7071 32.0503, 82.8787 30.8787 C 84.0503 29.7071, 85.9497 29.7071, 87.1213 30.8787" fill="#33393b" fill-opacity="0.501961" />
<path d="M 11.9497 89.0503 C 14.6834 91.7839, 14.6834 96.2161, 11.9497 98.9497 C 9.21608 101.683, 4.78392 101.683, 2.05025 98.9497 C -0.683418 96.2161, -0.683418 91.7839, 2.05025 89.0503 C 4.78392 86.3166, 9.21608 86.3166, 11.9497 89.0503" fill="#507c7b" fill-opacity="0.501961" />
<path d="M 72.4142 76.5858 C 73.1953 77.3668, 73.1953 78.6332, 72.4142 79.4142 C 71.6332 80.1953, 70.3668 80.1953, 69.5858 79.4142 C 68.8047 78.6332, 68.8047 77.3668, 69.5858 76.5858 C 70.3668 75.8047, 71.6332 75.8047, 72.4142 76.5858" fill="#393c3a" fill-opacity="0.501961" />
<path d="M 80.4142 58.5858 C 81.1953 59.3668, 81.1953 60.6332, 80.4142 61.4142 C 79.6332 62.1953, 78.3668 62.1953, 77.5858 61.4142 C 76.8047 60.6332, 76.8047 59.3668, 77.5858 58.5858 C 78.3668 57.8047, 79.6332 57.8047, 80.4142 58.5858" fill="#789288" fill-opacity="0.501961" />
<path d="M 31.1213 37.8787 C 32.2929 39.0503, 32.2929 40.9497, 31.1213 42.1213 C 29.9497 43.2929, 28.0503 43.2929, 26.8787 42.1213 C 25.7071 40.9497, 25.7071 39.0503, 26.8787 37.8787 C 28.0503 36.7071, 29.9497 36.7071, 31.1213 37.8787" fill="#d2bd9d" fill-opacity="0.501961" />
<path d="M 25.4142 74.5858 C 26.1953 75.3668, 26.1953 76.6332, 25.4142 77.4142 C 24.6332 78.1953, 23.3668 78.1953, 22.5858 77.4142 C 21.8047 76.6332, 21.8047 75.3668, 22.5858 74.5858 C 23.3668 73.8047, 24.6332 73.8047, 25.4142 74.5858" fill="#232626" fill-opacity="0.501961" />
<path d="M 84.4142 21.5858 C 85.1953 22.3668, 85.1953 23.6332, 84.4142 24.4142 C 83.6332 25.1953, 82.3668 25.1953, 81.5858 24.4142 C 80.8047 23.6332, 80.8047 22.3668, 81.5858 21.5858 C 82.3668 20.8047, 83.6332 20.8047, 84.4142 21.5858" fill="#254e60" fill-opacity="0.501961" />
<path d="M 110.121 24.8787 C 111.293 26.0503, 111.293 27.9497, 110.121 29.1213 C 108.95 30.2929, 107.05 30.2929, 105.879 29.1213 C 104.707 27.9497, 104.707 26.0503, 105.879 24.8787 C 107.05 23.7071, 108.95 23.7071, 110.121 24.8787" fill="#225b5f" fill-opacity="0.501961" />
<path d="M 66.4142 14.5858 C 67.1953 15.3668, 67.1953 16.6332, 66.4142 17.4142 C 65.6332 18.1953, 64.3668 18.1953, 63.5858 17.4142 C 62.8047 16.6332, 62.8047 15.3668, 63.5858 14.5858 C 64.3668 13.8047, 65.6332 13.8047, 66.4142 14.5858" fill="#d0bfa4" fill-opacity="0.501961" />
<path d="M 34.7071 33.2929 C 35.0976 33.6834, 35.0976 34.3166, 34.7071 34.7071 C 34.3166 35.0976, 33.6834 35.0976, 33.2929 34.7071 C 32.9024 34.3166, 32.9024 33.6834, 33.2929 33.2929 C 33.6834 32.9024, 34.3166 32.9024, 34.7071 33.2929" fill="#701d11" fill-opacity="0.501961" />
<path d="M 62.1213 71.8787 C 63.2929 73.0503, 63.2929 74.9497, 62.1213 76.1213 C 60.9497 77.2929, 59.0503 77.2929, 57.8787 76.1213 C 56.7071 74.9497, 56.7071 73.0503, 57.8787 71.8787 C 59.0503 70.7071, 60.9497 70.7071, 62.1213 71.8787" fill="#23464d" fill-opacity="0.501961" />
<path d="M 30.1213 0.87868 C 31.2929 2.05025, 31.2929 3.94975, 30.1213 5.12132 C 28.9497 6.29289, 27.0503 6.29289, 25.8787 5.12132 C 24.7071 3.94975, 24.7071 2.05025, 25.8787 0.87868 C 27.0503 -0.292893, 28.9497 -0.292893, 30.1213 0.87868" fill="#9c652f" fill-opacity="0.501961" />
<path d="M 15.8284 78.1716 C 17.3905 79.7337, 17.3905 82.2663, 15.8284 83.8284 C 14.2663 85.3905, 11.7337 85.3905, 10.1716 83.8284 C 8.60948 82.2663, 8.60948 79.7337, 10.1716 78.1716 C 11.7337 76.6095, 14.2663 76.6095, 15.8284 78.1716" fill="#4e7e73" fill-opacity="0.501961" />
<path d="M 43.8284 66.1716 C 45.3905 67.7337, 45.3905 70.2663, 43.8284 71.8284 C 42.2663 73.3905, 39.7337 73.3905, 38.1716 71.8284 C 36.6095 70.2663, 36.6095 67.7337, 38.1716 66.1716 C 39.7337 64.6095, 42.2663 64.6095, 43.8284 66.1716" fill="#6f3c3e" fill-opacity="0.501961" />
<path d="M 104.536 53.4645 C 106.488 55.4171, 106.488 58.5829, 104.536 60.5355 C 102.583 62.4882, 99.4171 62.4882, 97.4645 60.5355 C 95.5118 58.5829, 95.5118 55.4171, 97.4645 53.4645 C 99.4171 51.5118, 102.583 51.5118, 104.536 53.4645" fill="#477c73" fill-opacity="0.501961" />
<path d="M 49.1213 71.8787 C 50.2929 73.0503, 50.2929 74.9497, 49.1213 76.1213 C 47.9497 77.2929, 46.0503 77.2929, 44.8787 76.1213 C 43.7071 74.9497, 43.7071 73.0503, 44.8787 71.8787 C 46.0503 70.7071, 47.9497 70.7071, 49.1213 71.8787" fill="#3b9380" fill-opacity="0.501961" />
<path d="M 117.828 42.1716 C 119.391 43.7337, 119.391 46.2663, 117.828 47.8284 C 116.266 49.3905, 113.734 49.3905, 112.172 47.8284 C 110.609 46.2663, 110.609 43.7337, 112.172 42.1716 C 113.734 40.6095, 116.266 40.6095, 117.828 42.1716" fill="#3b494e" fill-opacity="0.501961" />
<path d="M 117.121 19.8787 C 118.293 21.0503, 118.293 22.9497, 117.121 24.1213 C 115.95 25.2929, 114.05 25.2929, 112.879 24.1213 C 111.707 22.9497, 111.707 21.0503, 112.879 19.8787 C 114.05 18.7071, 115.95 18.7071, 117.121 19.8787" fill="#7e7a7d" fill-opacity="0.501961" />
<path d="M 55.8284 79.1716 C 57.3905 80.7337, 57.3905 83.2663, 55.8284 84.8284 C 54.2663 86.3905, 51.7337 86.3905, 50.1716 84.8284 C 48.6095 83.2663, 48.6095 80.7337, 50.1716 79.1716 C 51.7337 77.6095, 54.2663 77.6095, 55.8284 79.1716" fill="#54453f" fill-opacity="0.501961" />
<path d="M 70.4142 83.5858 C 71.1953 84.3668, 71.1953 85.6332, 70.4142 86.4142 C 69.6332 87.1953, 68.3668 87.1953, 67.5858 86.4142 C 66.8047 85.6332, 66.8047 84.3668, 67.5858 83.5858 C 68.3668 82.8047, 69.6332 82.8047, 70.4142 83.5858" fill="#18677b" fill-opacity="0.501961" />
<path d="M 82.9497 63.0503 C 85.6834 65.7839, 85.6834 70.2161, 82.9497 72.9497 C 80.2161 75.6834, 75.7839 75.6834, 73.0503 72.9497 C 70.3166 70.2161, 70.3166 65.7839, 73.0503 63.0503 C 75.7839 60.3166, 80.2161 60.3166, 82.9497 63.0503" fill="#344347" fill-opacity="0.501961" />
<path d="M 102.95 73.0503 C 105.683 75.7839, 105.683 80.2161, 102.95 82.9497 C 100.216 85.6834, 95.7839 85.6834, 93.0503 82.9497 C 90.3166 80.2161, 90.3166 75.7839, 93.0503 73.0503 C 95.7839 70.3166, 100.216 70.3166, 102.95 73.0503" fill="#3e4756" fill-opacity="0.501961" />
<path d="M 46.1213 49.8787 C 47.2929 51.0503, 47.2929 52.9497, 46.1213 54.1213 C 44.9497 55.2929, 43.0503 55.2929, 41.8787 54.1213 C 40.7071 52.9497, 40.7071 51.0503, 41.8787 49.8787 C 43.0503 48.7071, 44.9497 48.7071, 46.1213 49.8787" fill="#6d7562" fill-opacity="0.501961" />
<path d="M 41.1213 33.8787 C 42.2929 35.0503, 42.2929 36.9497, 41.1213 38.1213 C 39.9497 39.2929, 38.0503 39.2929, 36.8787 38.1213 C 35.7071 36.9497, 35.7071 35.0503, 36.8787 33.8787 C 38.0503 32.7071, 39.9497 32.7071, 41.1213 33.8787" fill="#c8b99c" fill-opacity="0.501961" />
<path d="M 62.1213 43.8787 C 63.2929 45.0503, 63.2929 46.9497, 62.1213 48.1213 C 60.9497 49.2929, 59.0503 49.2929, 57.8787 48.1213 C 56.7071 46.9497, 56.7071 45.0503, 57.8787 43.8787 C 59.0503 42.7071, 60.9497 42.7071, 62.1213 43.8787" fill="#2b5662" fill-opacity="0.501961" />
<path d="M 7.12132 1.87868 C 8.29289 3.05025, 8.29289 4.94975, 7.12132 6.12132 C 5.94975 7.29289, 4.05025 7.29289, 2.87868 6.12132 C 1.70711 4.94975, 1.70711 3.05025, 2.87868 1.87868 C 4.05025 0.707107, 5.94975 0.707107, 7.12132 1.87868" fill="#6e4037" fill-opacity="0.501961" />
<path d="M 2.12132 31.8787 C 3.29289 33.0503, 3.29289 34.9497, 2.12132 36.1213 C 0.949747 37.2929, -0.949747 37.2929, -2.12132 36.1213 C -3.29289 34.9497, -3.29289 33.0503, -2.12132 31.8787 C -0.949747 30.7071, 0.949747 30.7071, 2.12132 31.8787" fill="#83523d" fill-opacity="0.501961" />
<path d="M 109.414 32.5858 C 110.195 33.3668, 110.195 34.6332, 109.414 35.4142 C 108.633 36.1953, 107.367 36.1953, 106.586 35.4142 C 105.805 34.6332, 105.805 33.3668, 106.586 32.5858 C 107.367 31.8047, 108.633 31.8047, 109.414 32.5858" fill="#d6d0b9" fill-opacity="0.501961" />
<path d="M 68.4142 81.5858 C 69.1953 82.3668, 69.1953 83.6332, 68.4142 84.4142 C 67.6332 85.1953, 66.3668 85.1953, 65.5858 84.4142 C 64.8047 83.6332, 64.8047 82.3668, 65.5858 81.5858 C 66.3668 80.8047, 67.6332 80.8047, 68.4142 81.5858" fill="#364a4d" fill-opacity="0.501961" />
<path d="M 122.414 2.58579 C 123.195 3.36684, 123.195 4.63316, 122.414 5.41421 C 121.633 6.19526, 120.367 6.19526, 119.586 5.41421 C 118.805 4.63316, 118.805 3.36684, 119.586 2.58579 C 120.367 1.80474, 121.633 1.80474, 122.414 2.58579" fill="#473e35" fill-opacity="0.501961" />
<path d="M 34.4142 73.5858 C 35.1953 74.3668, 35.1953 75.6332, 34.4142 76.4142 C 33.6332 77.1953, 32.3668 77.1953, 31.5858 76.4142 C 30.8047 75.6332, 30.8047 74.3668, 31.5858 73.5858 C 32.3668 72.8047, 33.6332 72.8047, 34.4142 73.5858" fill="#3a3b36" fill-opacity="0.501961" />
<path d="M 20.4142 76.5858 C 21.1953 77.3668, 21.1953 78.6332, 20.4142 79.4142 C 19.6332 80.1953, 18.3668 80.1953, 17.5858 79.4142 C 16.8047 78.6332, 16.8047 77.3668, 17.5858 76.5858 C 18.3668 75.8047, 19.6332 75.8047, 20.4142 76.5858" fill="#bebc91" fill-opacity="0.501961" />
<path d="M 80.1213 22.8787 C 81.2929 24.0503, 81.2929 25.9497, 80.1213 27.1213 C 78.9497 28.2929, 77.0503 28.2929, 75.8787 27.1213 C 74.7071 25.9497, 74.7071 24.0503, 75.8787 22.8787 C 77.0503 21.7071, 78.9497 21.7071, 80.1213 22.8787" fill="#c08a74" fill-opacity="0.501961" />
<path d="M 88.1213 75.8787 C 89.2929 77.0503, 89.2929 78.9497, 88.1213 80.1213 C 86.9497 81.2929, 85.0503 81.2929, 83.8787 80.1213 C 82.7071 78.9497, 82.7071 77.0503, 83.8787 75.8787 C 85.0503 74.7071, 86.9497 74.7071, 88.1213 75.8787" fill="#0b6a56" fill-opacity="0.501961" />
<path d="M 78.1213 10.8787 C 79.2929 12.0503, 79.2929 13.9497, 78.1213 15.1213 C 76.9497 16.2929, 75.0503 16.2929, 73.8787 15.1213 C 72.7071 13.9497, 72.7071 12.0503, 73.8787 10.8787 C 75.0503 9.70711, 76.9497 9.70711, 78.1213 10.8787" fill="#b3a097" fill-opacity="0.501961" />
<path d="M 42.8284 14.1716 C 44.3905 15.7337, 44.3905 18.2663, 42.8284 19.8284 C 41.2663 21.3905, 38.7337 21.3905, 37.1716 19.8284 C 35.6095 18.2663, 35.6095 15.7337, 37.1716 14.1716 C 38.7337 12.6095, 41.2663 12.6095, 42.8284 14.1716" fill="#c6a87b" fill-opacity="0.501961" />
<path d="M 28.4142 48.5858 C 29.1953 49.3668, 29.1953 50.6332, 28.4142 51.4142 C 27.6332 52.1953, 26.3668 52.1953, 25.5858 51.4142 C 24.8047 50.6332, 24.8047 49.3668, 25.5858 48.5858 C 26.3668 47.8047, 27.6332 47.8047, 28.4142 48.5858" fill="#b8b999" fill-opacity="0.501961" />
<path d="M 34.8284 89.1716 C 36.3905 90.7337, 36.3905 93.2663, 34.8284 94.8284 C 33.2663 96.3905, 30.7337 96.3905, 29.1716 94.8284 C 27.6095 93.2663, 27.6095 90.7337, 29.1716 89.1716 C 30.7337 87.6095, 33.2663 87.6095, 34.8284 89.1716" fill="#463335" fill-opacity="0.501961" />
<path d="M 128.121 17.8787 C 129.293 19.0503, 129.293 20.9497, 128.121 22.1213 C 126.95 23.2929, 125.05 23.2929, 123.879 22.1213 C 122.707 20.9497, 122.707 19.0503, 123.879 17.8787 C 125.05 16.7071, 126.95 16.7071, 128.121 17.8787" fill="#9f7762" fill-opacity="0.501961" />
<path d="M 51.8284 20.1716 C 53.3905 21.7337, 53.3905 24.2663, 51.8284 25.8284 C 50.2663 27.3905, 47.7337 27.3905, 46.1716 25.8284 C 44.6095 24.2663, 44.6095 21.7337, 46.1716 20.1716 C 47.7337 18.6095, 50.2663 18.6095, 51.8284 20.1716" fill="#c5b68d" fill-opacity="0.501961" />
<path d="M 28.1213 83.8787 C 29.2929 85.0503, 29.2929 86.9497, 28.1213 88.1213 C 26.9497 89.2929, 25.0503 89.2929, 23.8787 88.1213 C 22.7071 86.9497, 22.7071 85.0503, 23.8787 83.8787 C 25.0503 82.7071, 26.9497 82.7071, 28.1213 83.8787" fill="#a09e6d" fill-opacity="0.501961" />
<path d="M 94.2426 66.7574 C 96.5858 69.1005, 96.5858 72.8995, 94.2426 75.2426 C 91.8995 77.5858, 88.1005 77.5858, 85.7574 75.2426 C 83.4142 72.8995, 83.4142 69.1005, 85.7574 66.7574 C 88.1005 64.4142, 91.8995 64.4142, 94.2426 66.7574" fill="#4c756b" fill-opacity="0.501961" />
<path d="M 2.12132 68.8787 C 3.29289 70.0503, 3.29289 71.9497, 2.12132 73.1213 C 0.949747 74.2929, -0.949747 74.2929, -2.12132 73.1213 C -3.29289 71.9497, -3.29289 70.0503, -2.12132 68.8787 C -0.949747 67.7071, 0.949747 67.7071, 2.12132 68.8787" fill="#3d3835" fill-opacity="0.501961" />
<path d="M 100.121 -2.12132 C 101.293 -0.949747, 101.293 0.949747, 100.121 2.12132 C 98.9497 3.29289, 97.0503 3.29289, 95.8787 2.12132 C 94.7071 0.949747, 94.7071 -0.949747, 95.8787 -2.12132 C 97.0503 -3.29289, 98.9497 -3.29289, 100.121 -2.12132" fill="#6c3e38" fill-opacity="0.501961" />
<path d="M 60.1213 36.8787 C 61.2929 38.0503, 61.2929 39.9497, 60.1213 41.1213 C 58.9497 42.2929, 57.0503 42.2929, 55.8787 41.1213 C 54.7071 39.9497, 54.7071 38.0503, 55.8787 36.8787 C 57.0503 35.7071, 58.9497 35.7071, 60.1213 36.8787" fill="#b35b52" fill-opacity="0.501961" />
<path d="M 36.5355 50.4645 C 38.4882 52.4171, 38.4882 55.5829, 36.5355 57.5355 C 34.5829 59.4882, 31.4171 59.4882, 29.4645 57.5355 C 27.5118 55.5829, 27.5118 52.4171, 29.4645 50.4645 C 31.4171 48.5118, 34.5829 48.5118, 36.5355 50.4645" fill="#4a554a" fill-opacity="0.501961" />
<path d="M 49.1213 81.8787 C 50.2929 83.0503, 50.2929 84.9497, 49.1213 86.1213 C 47.9497 87.2929, 46.0503 87.2929, 44.8787 86.1213 C 43.7071 84.9497, 43.7071 83.0503, 44.8787 81.8787 C 46.0503 80.7071, 47.9497 80.7071, 49.1213 81.8787" fill="#386c77" fill-opacity="0.501961" />
<path d="M 82.1213 2.87868 C 83.2929 4.05025, 83.2929 5.94975, 82.1213 7.12132 C 80.9497 8.29289, 79.0503 8.29289, 77.8787 7.12132 C 76.7071 5.94975, 76.7071 4.05025, 77.8787 2.87868 C 79.0503 1.70711, 80.9497 1.70711, 82.1213 2.87868" fill="#b8a272" fill-opacity="0.501961" />
<path d="M 117.828 32.1716 C 119.391 33.7337, 119.391 36.2663, 117.828 37.8284 C 116.266 39.3905, 113.734 39.3905, 112.172 37.8284 C 110.609 36.2663, 110.609 33.7337, 112.172 32.1716 C 113.734 30.6095, 116.266 30.6095, 117.828 32.1716" fill="#6a907c" fill-opacity="0.501961" />
<path d="M 63.4142 86.5858 C 64.1953 87.3668, 64.1953 88.6332, 63.4142 89.4142 C 62.6332 90.1953, 61.3668 90.1953, 60.5858 89.4142 C 59.8047 88.6332, 59.8047 87.3668, 60.5858 86.5858 C 61.3668 85.8047, 62.6332 85.8047, 63.4142 86.5858" fill="#656029" fill-opacity="0.501961" />
<path d="M 70.4142 92.5858 C 71.1953 93.3668, 71.1953 94.6332, 70.4142 95.4142 C 69.6332 96.1953, 68.3668 96.1953, 67.5858 95.4142 C 66.8047 94.6332, 66.8047 93.3668, 67.5858 92.5858 C 68.3668 91.8047, 69.6332 91.8047, 70.4142 92.5858" fill="#115567" fill-opacity="0.501961" />
<path d="M 95.5355 -3.53553 C 97.4882 -1.58291, 97.4882 1.58291, 95.5355 3.53553 C 93.5829 5.48816, 90.4171 5.48816, 88.4645 3.53553 C 86.5118 1.58291, 86.5118 -1.58291, 88.4645 -3.53553 C 90.4171 -5.48816, 93.5829 -5.48816, 95.5355 -3.53553" fill="#947074" fill-opacity="0.501961" />
<path d="M 64.1213 10.8787 C 65.2929 12.0503, 65.2929 13.9497, 64.1213 15.1213 C 62.9497 16.2929, 61.0503 16.2929, 59.8787 15.1213 C 58.7071 13.9497, 58.7071 12.0503, 59.8787 10.8787 C 61.0503 9.70711, 62.9497 9.70711, 64.1213 10.8787" fill="#9a5139" fill-opacity="0.501961" />
<path d="M 109.414 36.5858 C 110.195 37.3668, 110.195 38.6332, 109.414 39.4142 C 108.633 40.1953, 107.367 40.1953, 106.586 39.4142 C 105.805 38.6332, 105.805 37.3668, 106.586 36.5858 C 107.367 35.8047, 108.633 35.8047, 109.414 36.5858" fill="#a05e59" fill-opacity="0.501961" />
<path d="M 58.8284 9.17157 C 60.3905 10.7337, 60.3905 13.2663, 58.8284 14.8284 C 57.2663 16.3905, 54.7337 16.3905, 53.1716 14.8284 C 51.6095 13.2663, 51.6095 10.7337, 53.1716 9.17157 C 54.7337 7.60948, 57.2663 7.60948, 58.8284 9.17157" fill="#b8ac8f" fill-opacity="0.501961" />
<path d="M 100.121 6.87868 C 101.293 8.05025, 101.293 9.94975, 100.121 11.1213 C 98.9497 12.2929, 97.0503 12.2929, 95.8787 11.1213 C 94.7071 9.94975, 94.7071 8.05025, 95.8787 6.87868 C 97.0503 5.70711, 98.9497 5.70711, 100.121 6.87868" fill="#8e544f" fill-opacity="0.501961" />
<path d="M 58.1213 1.87868 C 59.2929 3.05025, 59.2929 4.94975, 58.1213 6.12132 C 56.9497 7.29289, 55.0503 7.29289, 53.8787 6.12132 C 52.7071 4.94975, 52.7071 3.05025, 53.8787 1.87868 C 55.0503 0.707107, 56.9497 0.707107, 58.1213 1.87868" fill="#b7b99a" fill-opacity="0.501961" />
</g>
</svg>
