<svg version="1" xmlns="http://www.w3.org/2000/svg" width="480" height="702.4" viewBox="0 0 360 526.8"><g fill="#778a9d"><path d="M177.6 3.6h2.4c1.2-1.2 0-1.2-1.2-1.2s-2.4 0-1.2 1.2zM182.4 2.4c0 1.2 0 1.2 1.2 1.2V2.4h-1.2zM189.6 3.6h3.6c1.2-1.2 0-1.2-1.2-1.2-2.4 0-3.6 0-2.4 1.2zM213.6 3.6h7.2c1.2-1.2 0-1.2-3.6-1.2s-4.8 0-3.6 1.2zM337.2 31.2c-1.2 1.2-2.4 2.4-3.6 2.4-1.2 0-3.6 1.2-6 2.4-4.8 2.4-4.8 2.4-3.6 3.6 3.6 3.6 2.4 3.6-6 1.2-13.2-4.8-27.6-2.4-20.4 2.4 2.4 1.2 3.6 2.4 4.8 2.4 0 0 2.4 1.2 3.6 3.6 1.2 2.4 4.8 4.8 7.2 6 3.6 1.2 4.8 3.6 1.2 6-1.2 1.2-3.6 1.2-7.2-1.2-7.2-2.4-12-2.4-12 1.2 1.2 1.2 1.2 2.4 1.2 2.4 0 1.2 2.4 1.2 4.8 1.2 3.6-1.2 6 0 8.4 1.2 1.2 0 4.8 1.2 7.2 1.2 2.4 0 3.6 0 3.6 1.2s-4.8 2.4-22.8 3.6c-13.2 1.2-25.2 2.4-27.6 2.4-2.4 1.2-6 1.2-7.2 2.4-1.2 0-8.4 1.2-15.6 1.2-7.2 0-13.2 1.2-14.4 1.2-1.2 0-2.4-1.2-2.4-6-1.2-10.8-6-15.6-7.2-9.6-1.2 2.4-2.4 3.6-3.6 3.6-3.6 0-9.6 4.8-10.8 8.4 0 1.2-1.2 3.6-2.4 3.6-2.4 1.2-4.8 2.4-6 3.6-1.2 0-4.8 1.2-7.2 1.2-6 0-8.4 6-6 10.8 3.6 4.8 16.8 16.8 19.2 16.8 1.2 0 2.4 1.2 3.6 2.4 1.2 1.2 1.2 1.2 3.6 0 4.8-2.4 6-1.2 3.6 2.4-1.2 2.4-2.4 3.6-4.8 3.6s-3.6 1.2-4.8 2.4c0 1.2-1.2 4.8-2.4 6-4.8 4.8-6 7.2-1.2 7.2 3.6-1.2 2.4-2.4 9.6 15.6 2.4 6 3.6 10.8 2.4 10.8-1.2 1.2-9.6 3.6-10.8 2.4-1.2 0-3.6-1.2-6-2.4s-4.8-3.6-6-4.8c-2.4-4.8-7.2-10.8-9.6-10.8l-2.4-2.4c0-2.4 7.2-9.6 12-13.2 2.4-1.2 1.2-10.8-1.2-12-2.4-1.2-3.6 0-9.6 6-10.8 9.6-21.6 18-27.6 18-1.2 0 0 1.2 1.2 2.4 6 2.4 4.8 7.2-2.4 14.4-3.6 3.6-6 8.4-8.4 14.4-3.6 7.2-7.2 12-9.6 9.6-1.2 0 0-1.2 0-2.4 1.2-1.2 2.4-2.4 2.4-3.6 0-3.6-7.2 4.8-10.8 12-1.2 3.6-7.2 10.8-16.8 19.2-8.4 8.4-16.8 16.8-18 19.2-1.2 3.6-4.8 7.2-7.2 9.6-4.8 3.6-6 4.8-7.2 13.2-1.2 4.8-1.2 9.6-2.4 10.8 0 1.2 0 2.4 1.2 2.4 6 0 4.8 4.8-1.2 8.4-3.6 2.4-4.8 1.2-4.8-8.4 0-4.8-1.2-8.4-1.2-9.6-2.4-2.4-2.4-3.6-1.2-6s2.4-3.6 1.2-3.6c0-1.2 1.2-1.2 1.2-2.4 2.4-2.4 2.4-6 0-6l-3.6 3.6c-1.2 4.8-4.8 7.2-7.2 4.8 0-1.2-4.8-1.2-9.6-2.4-10.8 0-10.8 0-6-2.4 3.6-2.4 10.8-2.4 14.4-1.2 1.2 1.2 2.4 1.2 3.6 0 3.6-2.4 2.4-3.6-1.2-3.6-2.4 0-3.6 0-2.4-3.6 0-1.2 0-3.6 1.2-3.6 3.6-2.4-2.4-2.4-8.4-1.2-18 3.6-28.8 6-27.6 3.6 0-1.2-1.2-2.4-1.2-3.6-3.6-3.6-1.2-4.8 2.4-4.8 6 1.2 22.8-1.2 26.4-2.4 2.4-1.2 3.6-2.4 3.6-4.8s0-3.6 2.4-3.6c1.2 0 2.4 0 3.6-1.2 0 0 4.8-1.2 9.6-1.2 8.4-1.2 9.6-1.2 10.8 1.2 1.2 1.2 2.4 2.4 3.6 2.4 2.4 0 1.2 2.4-1.2 4.8-3.6 2.4 1.2 1.2 4.8-1.2 3.6-2.4 4.8-7.2 2.4-7.2-2.4-1.2 2.4-9.6 4.8-10.8 1.2 0 3.6-1.2 6-2.4 1.2-2.4 3.6-4.8 6-6 10.8-8.4 16.8-15.6 15.6-16.8 0-1.2-1.2-2.4 0-2.4 1.2-2.4-6 0-8.4 1.2-1.2 1.2-1.2 1.2-2.4 0-2.4-2.4 6-7.2 27.6-16.8 2.4 0 3.6-2.4 3.6-3.6 0-3.6-2.4-3.6-10.8 0-4.8 1.2-9.6 2.4-12 2.4-2.4 0-6 0-8.4 1.2-1.2 1.2-9.6 1.2-18 2.4-8.4 0-16.8 0-16.8 1.2-1.2 0-1.2 7.2 0 7.2s1.2 1.2 1.2 2.4c-1.2 1.2-10.8 2.4-26.4 3.6-19.2 0-26.4 1.2-26.4 3.6 1.2 1.2 4.8 1.2 15.6 1.2 18 0 22.8 1.2 15.6 3.6-2.4 1.2-8.4 2.4-12 2.4-6 0-8.4 0-8.4 1.2-1.2 1.2-1.2 2.4 0 2.4 3.6 2.4 30 1.2 30-2.4l1.2-1.2c1.2 0 1.2 0 0-1.2-1.2-2.4-1.2-2.4 2.4-3.6 2.4 0 3.6 0 3.6 1.2 1.2 2.4 2.4 2.4 3.6 1.2 2.4-2.4 19.2-4.8 20.4-3.6 2.4 2.4-7.2 6-10.8 4.8-4.8-1.2-7.2 0-6 2.4 1.2 1.2 2.4 1.2 3.6 1.2 0 0 1.2 0 1.2 1.2 0 0 1.2 1.2 3.6 1.2l2.4 1.2-2.4 2.4c-4.8 3.6-22.8 6-26.4 3.6 0-1.2-2.4 0-7.2 1.2-8.4 3.6-27.6 3.6-38.4 0-4.8-2.4-9.6-3.6-10.8-2.4-2.4 0-2.4 7.2 0 9.6 1.2 1.2 1.2 1.2-1.2 3.6-3.6 3.6-4.8 10.8-2.4 15.6 1.2 2.4 1.2 3.6 0 4.8-3.6 3.6-2.4 33.6 1.2 38.4 1.2 2.4 1.2 2.4 0 6-3.6 6-3.6 27.6 0 31.2 3.6 2.4 13.2 3.6 18 1.2 3.6-1.2 9.6-1.2 9.6 1.2s-8.4 4.8-16.8 4.8c-9.6 1.2-12 3.6-9.6 6 3.6 4.8 22.8 0 38.4-7.2 3.6-2.4 10.8-3.6 14.4-4.8 3.6 0 8.4-1.2 9.6-2.4l7.2-3.6c4.8-2.4 24-6 25.2-3.6 1.2 0-1.2 1.2-6 3.6-4.8 1.2-8.4 3.6-8.4 3.6-1.2 0-6 2.4-12 3.6-6 1.2-14.4 4.8-19.2 7.2l-14.4 7.2c-7.2 3.6-12 8.4-12 10.8 0 4.8-6 6-8.4 2.4-2.4-2.4-4.8-1.2-8.4 1.2-2.4 2.4-2.4 2.4 0 2.4l3.6 3.6c1.2 1.2 2.4 2.4 3.6 2.4 3.6 0 4.8 1.2 7.2 3.6 2.4 6-1.2 7.2-7.2 2.4-3.6-3.6-10.8-6-10.8-3.6 0 1.2-1.2 1.2-1.2 1.2-2.4 0-3.6 3.6-2.4 6 1.2 2.4 1.2 3.6 0 6-3.6 8.4 2.4 13.2 21.6 13.2 8.4 0 8.4-1.2 8.4-3.6 0-3.6 3.6-6 9.6-3.6 2.4 0 7.2 1.2 10.8 1.2 6 1.2 6 1.2 10.8-3.6 3.6-4.8 4.8-7.2 0-8.4-2.4 0-3.6-2.4 0-2.4 1.2 0 2.4-1.2 4.8-2.4 2.4-2.4 2.4-2.4 3.6 0 2.4 1.2 2.4 1.2 6-2.4 4.8-6 8.4-4.8 7.2 3.6-2.4 10.8 0 16.8 6 19.2 6 3.6 12 8.4 12 9.6 0 1.2-4.8 1.2-7.2 0-3.6-1.2-4.8 1.2-1.2 3.6 1.2 1.2 3.6 2.4 4.8 2.4 2.4 0 7.2 1.2 9.6 3.6 3.6 1.2 7.2 2.4 8.4 2.4 3.6 0 3.6 2.4 0 3.6-2.4 1.2-2.4 7.2 0 7.2 3.6 0 7.2 3.6 4.8 6 0 1.2-2.4 3.6-3.6 6-1.2 2.4-2.4 4.8-4.8 4.8-1.2 1.2-4.8 3.6-7.2 4.8-7.2 3.6-28.8 4.8-37.2 2.4-7.2-2.4-8.4-1.2-2.4 3.6 4.8 2.4 6 2.4 21.6 2.4 12 0 15.6 1.2 14.4 2.4l-1.2 1.2s-1.2 1.2-1.2 2.4-2.4 2.4-9.6 2.4c-4.8 0-9.6 0-13.2 1.2-7.2 3.6-8.4 2.4-8.4-3.6 1.2-4.8 1.2-4.8-2.4-3.6-4.8 0-9.6-2.4-9.6-7.2 0-4.8-10.8-1.2-10.8 3.6-1.2 3.6-3.6 3.6-7.2 1.2-2.4-2.4-16.8-8.4-18-8.4-1.2 1.2 3.6 6 6 6l2.4 2.4s2.4 1.2 6 2.4c4.8 0 8.4 2.4 14.4 8.4 3.6 3.6 3.6 4.8 2.4 8.4 0 7.2-2.4 8.4-4.8 6-1.2-2.4-1.2-2.4-3.6-1.2-1.2 1.2-3.6 2.4-4.8 3.6-3.6 0-4.8 3.6-1.2 3.6 2.4 0 8.4 2.4 8.4 3.6 0 1.2-1.2 1.2-4.8 0-1.2 0-4.8-1.2-8.4-2.4-4.8-1.2-4.8-1.2-4.8-4.8 0-3.6-1.2-4.8-7.2-9.6-10.8-8.4-9.6-16.8 1.2-8.4 8.4 6 9.6 7.2 12 6 1.2-1.2-4.8-9.6-7.2-9.6-2.4 0-10.8-4.8-10.8-7.2l-2.4-2.4c-2.4-1.2-6-8.4-4.8-9.6 1.2 0 2.4-2.4 3.6-4.8 1.2-2.4 1.2-3.6 3.6-2.4 2.4 0 3.6 0 3.6-1.2 1.2-1.2 3.6 0 3.6 2.4s2.4 3.6 3.6 0c1.2-4.8 6-9.6 9.6-9.6 1.2 0 4.8-1.2 7.2-2.4l4.8-2.4-2.4-2.4-2.4-2.4 4.8-4.8c3.6-3.6 6-7.2 6-7.2 0-1.2-4.8-1.2-9.6-1.2s-9.6 1.2-9.6 1.2c0 1.2-1.2 1.2-1.2 1.2-1.2 0-1.2 0-2.4 1.2L36 384c1.2 0 2.4 1.2 2.4 2.4 0 2.4 0 2.4-2.4 1.2-1.2-1.2-2.4-2.4-2.4-3.6 0-1.2-2.4-2.4-4.8-2.4-8.4-1.2-9.6-1.2-9.6 1.2 0 4.8-3.6 10.8-6 10.8-1.2 0-1.2-1.2-1.2-4.8 1.2-2.4 1.2-4.8 1.2-6 0 0 1.2-1.2 2.4-1.2 2.4-1.2 1.2-3.6-1.2-4.8-1.2 0-3.6-1.2-3.6-1.2-1.2-1.2-1.2 0-2.4 1.2 0 2.4-1.2 3.6-1.2 2.4-3.6-1.2-3.6 4.8 0 9.6 2.4 4.8 2.4 4.8 0 4.8-2.4-1.2-2.4 0-1.2 6 0 2.4 1.2 3.6 2.4 3.6 0 0 1.2 1.2 0 2.4 0 2.4 0 2.4 1.2 1.2 1.2-3.6 3.6-2.4 2.4 0 0 1.2-1.2 3.6-1.2 3.6s-1.2 2.4-1.2 3.6c0 2.4 0 4.8-1.2 6-1.2 1.2-1.2 2.4 0 2.4 1.2 1.2 1.2 2.4 1.2 3.6 0 0 0 1.2-1.2 1.2 0-1.2-1.2 0-2.4 0-2.4 1.2 1.2 8.4 6 12 2.4 2.4 3.6 7.2 1.2 7.2 0 0-2.4-1.2-4.8-1.2-3.6-1.2-4.8-1.2-6 0-1.2 1.2-1.2 58.8 0 68.4v8.4h4.8c3.6-1.2 6 0 8.4 1.2 2.4 1.2 6 1.2 24 1.2 20.4-1.2 21.6-1.2 24-3.6l2.4-2.4 2.4 2.4c3.6 2.4 10.8 2.4 10.8 0 0 0 2.4-1.2 3.6-1.2 4.8-1.2 6 0 2.4 2.4-1.2 2.4-1.2 2.4 2.4 2.4 3.6 0 7.2-2.4 7.2-4.8s0-3.6 3.6-3.6c4.8-1.2 15.6 0 15.6 1.2s10.8 3.6 20.4 4.8c6 0 8.4 0 7.2-1.2-1.2-1.2-1.2-1.2 0-1.2s1.2-3.6-1.2-6-3.6-4.8-1.2-4.8c1.2 0 1.2 0 1.2-1.2s-1.2-1.2-2.4-1.2c-2.4 0-4.8-1.2-4.8-1.2-1.2-2.4-3.6-2.4-7.2-1.2s-4.8 1.2-6 0c-1.2 0-3.6-1.2-7.2-1.2-2.4 0-4.8 0-4.8-1.2V498c0-1.2-1.2-1.2-2.4-2.4-2.4 0-4.8-1.2-6-3.6-2.4-2.4-4.8-3.6-4.8-3.6-2.4 0-15.6-13.2-14.4-14.4 0-1.2 4.8-1.2 4.8 0 1.2 1.2 2.4 1.2 3.6 0 3.6-2.4 6 0 3.6 3.6-2.4 1.2-2.4 3.6 0 3.6 1.2 0 2.4 1.2 3.6 2.4 1.2 1.2 3.6 1.2 10.8 1.2 8.4-1.2 10.8 0 7.2 4.8-1.2 2.4 2.4 9.6 6 9.6 2.4 0 8.4-6 8.4-8.4 0-2.4-8.4-9.6-12-9.6 0 0-1.2 0 0-1.2 0-1.2 0-1.2-1.2-1.2 0 1.2-1.2 0-1.2-2.4-1.2-1.2-1.2-2.4-1.2-2.4 3.6-2.4 14.4-4.8 19.2-6 2.4 0 6-1.2 7.2-1.2 0-1.2 2.4-1.2 3.6 0 3.6 2.4 7.2 1.2 7.2-1.2 1.2-2.4 1.2-2.4 3.6-2.4 3.6 2.4 7.2 0 6-2.4 0-2.4 0-2.4 1.2-2.4s2.4 2.4 2.4 4.8 1.2 3.6 4.8 3.6c3.6 0 4.8 0 4.8 2.4 0 3.6 3.6 7.2 9.6 9.6 7.2 2.4 8.4 3.6 4.8 6-1.2 1.2-3.6 2.4-4.8 3.6-6 4.8-12 8.4-14.4 8.4-4.8 0-9.6 2.4-10.8 4.8 0 1.2-2.4 3.6-4.8 4.8-2.4 1.2-3.6 1.2-2.4 2.4 1.2 0 1.2 1.2 1.2 2.4-1.2 2.4 1.2 8.4 3.6 8.4 1.2 0 1.2 0 0 1.2s-1.2 1.2 2.4 1.2c2.4 0 3.6 0 3.6-1.2-1.2 0 0-1.2 1.2-1.2 2.4 0 2.4-1.2 1.2-2.4-6-6 0-8.4 9.6-4.8 3.6 2.4 4.8 4.8 0 6-2.4 0-2.4 1.2-1.2 3.6 2.4 2.4 3.6 2.4 9.6 2.4 7.2-1.2 7.2-1.2 25.2-1.2 7.2 0 18 0 24-1.2h12c2.4 1.2 56.4 3.6 70.8 2.4h25.2c19.2 0 20.4 0 19.2-6 0-2.4 0-2.4-7.2-2.4-3.6 1.2-8.4 1.2-10.8 2.4-2.4 0-2.4 0-2.4-1.2s3.6-2.4 8.4-2.4c12-1.2 12-1.2 12-10.8v-8.4l-2.4 4.8c0 2.4-1.2 3.6-2.4 2.4-1.2 0-1.2-3.6 0-3.6 1.2-1.2 1.2-1.2-1.2-2.4s-2.4-1.2-6 2.4l-3.6 2.4-1.2-2.4c-2.4-7.2-2.4-9.6 0-9.6 1.2-1.2 1.2-1.2-2.4-1.2-4.8-1.2-6-3.6-4.8-8.4 0-4.8 4.8-8.4 10.8-10.8l4.8-2.4c2.4-2.4 3.6-1.2 3.6 3.6-1.2 4.8 0 6 3.6 3.6 2.4-1.2 2.4-28.8 0-32.4-1.2-1.2-1.2-2.4 0-3.6 0-1.2 1.2-8.4 1.2-20.4v-22.8c1.2-3.6 1.2-4.8-1.2-8.4-3.6-3.6-3.6-3.6-1.2-6 1.2-1.2 2.4-4.8 2.4-7.2 1.2-9.6 0-25.2-1.2-28.8-1.2-1.2-2.4-3.6-2.4-6-1.2-2.4-1.2-2.4 1.2-4.8 4.8-6 1.2-20.4-4.8-20.4-1.2 0-1.2-1.2 0-2.4 0-2.4 0-3.6-1.2-3.6-1.2-1.2-1.2-2.4-1.2-3.6 0-3.6-2.4-3.6-6-1.2-4.8 3.6-14.4 3.6-15.6 1.2 0-2.4 1.2-2.4 2.4-2.4 3.6 0 3.6 0 3.6-4.8l1.2-4.8 6-1.2h6l4.8 7.2c4.8 7.2 7.2 8.4 7.2 0 0-3.6 0-6-1.2-6s-1.2-1.2 0-2.4c2.4-2.4 2.4-28.8-1.2-31.2-1.2-1.2-1.2-2.4 1.2-4.8 2.4-1.2 2.4-28.8 0-40.8-1.2-7.2-1.2-8.4 0-9.6 2.4-1.2 1.2-7.2-2.4-8.4-2.4 0-3.6-1.2-3.6-2.4 0 0 1.2-1.2 3.6-2.4 3.6-1.2 3.6-2.4 3.6-7.2 0-6 0-6-2.4-3.6-1.2 1.2-2.4 2.4-4.8 1.2-2.4 0-3.6 0-3.6 1.2-1.2 1.2-2.4 1.2-2.4 1.2-1.2 0-1.2-1.2 0-2.4 1.2 0 2.4-1.2 3.6-1.2 0 0 2.4-2.4 2.4-3.6 1.2-2.4 2.4-4.8 3.6-4.8 2.4-2.4 1.2-3.6-2.4-3.6-2.4 0-4.8 0-4.8-1.2 0-2.4 3.6-7.2 7.2-8.4 3.6-1.2 4.8-7.2 2.4-8.4-1.2-1.2-1.2-1.2 0-3.6 1.2-2.4 1.2-14.4 0-14.4s-1.2 0-1.2 1.2-4.8 1.2-4.8 0c-1.2 0 0-1.2 1.2-2.4 2.4-1.2-8.4 0-12 1.2-1.2 1.2-4.8 1.2-7.2 1.2-3.6-1.2-6 0-7.2 0 0 2.4-6 1.2-7.2-1.2-2.4-1.2-3.6-1.2-3.6 1.2 0 3.6 1.2 3.6 12 4.8 7.2 0 14.4 2.4 12 3.6-1.2 1.2-19.2 3.6-25.2 3.6-3.6 0-6 0-6 1.2s-1.2 1.2-2.4 1.2-2.4 1.2-2.4 1.2c0 1.2 1.2 3.6 2.4 4.8 2.4 2.4 3.6 6 1.2 6 0 0-2.4-2.4-3.6-4.8l-3.6-3.6c-1.2 0-3.6-4.8-4.8-10.8 0-2.4-1.2-7.2-3.6-9.6l-4.8-9.6c-2.4-6-2.4-4.8-3.6-3.6-2.4 1.2-8.4-1.2-18-10.8-3.6-2.4-6-4.8-7.2-4.8-1.2 0-1.2 0-1.2-1.2 1.2 0 3.6-1.2 6 0 3.6 0 3.6 0 3.6-1.2-1.2-2.4 0-2.4 4.8-2.4 7.2 0 7.2 0 3.6 2.4-1.2 2.4-2.4 2.4-4.8 2.4l-3.6-1.2 2.4 2.4c1.2 1.2 4.8 3.6 6 4.8 7.2 7.2 12 8.4 7.2 3.6-4.8-6 6-8.4 15.6-2.4 4.8 2.4 6 2.4 10.8 1.2 6-1.2 13.2 1.2 16.8 4.8 2.4 2.4 2.4 2.4-1.2 2.4-2.4 1.2-7.2 1.2-10.8 0-6-1.2-15.6-1.2-15.6 1.2 0 1.2 4.8 6 9.6 7.2 2.4 0 4.8 1.2 6 1.2 1.2 1.2 2.4 1.2 3.6 0 1.2 0 4.8-1.2 8.4-1.2 3.6 0 7.2-1.2 12-2.4 4.8-3.6 8.4-3.6 8.4-1.2 0 2.4 4.8 1.2 7.2-3.6 3.6-4.8 3.6-4.8 4.8-1.2 1.2 2.4 1.2 1.2 2.4-3.6 1.2-10.8 0-20.4-3.6-22.8-2.4-1.2-2.4-2.4-2.4-4.8 1.2-1.2 1.2-3.6 0-4.8-2.4-1.2-1.2-4.8 2.4-4.8 2.4 0 3.6-9.6 3.6-30V36l-7.2-3.6c-7.2-2.4-10.8-3.6-14.4-1.2z"/><path fill="#ebeae8" d="M343.2 37.2c0 1.2 0 1.2-1.2 1.2s-1.2 0 0-1.2c0-1.2 0-1.2 1.2-1.2v1.2zM336 68.4h-2.4c-1.2-1.2-1.2-1.2 0-1.2s2.4 0 2.4 1.2zM208.8 90c0 1.2 0 2.4-1.2 2.4V90s0-1.2 1.2-1.2 1.2 1.2 0 1.2zM253.2 90h-2.4c-1.2-1.2 0-1.2 1.2-1.2s2.4 0 1.2 1.2zM244.8 96c-1.2 0-2.4 1.2-3.6 0-2.4 0-1.2-1.2 1.2-1.2 1.2 0 2.4 0 2.4 1.2zM346.8 97.2c0 3.6-4.8 4.8-6 2.4-2.4-2.4 0-4.8 2.4-4.8s3.6 1.2 3.6 2.4zM255.6 105.6c1.2 1.2 4.8 2.4 7.2 3.6 7.2 3.6 9.6 7.2 7.2 12-2.4 2.4-2.4 3.6-1.2 3.6 2.4 1.2 0 7.2-2.4 8.4-3.6 2.4-10.8-2.4-14.4-9.6-2.4-4.8-3.6-6-6-7.2-7.2-1.2-7.2-6 0-7.2h3.6s-1.2-1.2-3.6-2.4c-3.6-2.4-4.8-4.8-1.2-4.8 2.4-1.2 7.2 1.2 10.8 3.6zM336 110.4v1.2c-1.2 0-1.2 0-1.2-1.2h1.2zM219.6 128.4c0 1.2 0 2.4-1.2 2.4s-2.4 0-2.4-2.4c0-1.2 3.6-1.2 3.6 0zM241.2 128.4c2.4 2.4 1.2 3.6-2.4 4.8-4.8 2.4-3.6 2.4-7.2 0-3.6-3.6-3.6-6 2.4-6 3.6 0 6 1.2 7.2 1.2zM246 144c1.2 1.2 1.2 1.2 0 2.4 0 1.2-1.2 2.4-1.2 4.8 0 1.2 0 2.4-1.2 2.4s-1.2-2.4-1.2-6c0-4.8 0-6 3.6-3.6zM224.4 162c1.2 2.4-1.2 2.4-3.6 2.4-1.2-1.2-2.4-2.4-1.2-2.4 0-1.2 3.6-1.2 4.8 0zM201.6 165.6c0 1.2 1.2 1.2 1.2 1.2 10.8-1.2 14.4 2.4 6 6-4.8 2.4-3.6 3.6 4.8 2.4 4.8 0 7.2-1.2 8.4-2.4 2.4-3.6 4.8 0 2.4 3.6-1.2 2.4-1.2 10.8 0 14.4 1.2 4.8 0 4.8-4.8 3.6-4.8-1.2-6-1.2-3.6 2.4 1.2 3.6 9.6 3.6 13.2 1.2 2.4-2.4 2.4-3.6 2.4-10.8-1.2-9.6 0-13.2 4.8-10.8 1.2 1.2 3.6 1.2 3.6 1.2s2.4 1.2 3.6 2.4c2.4 2.4 2.4 2.4 1.2 6-2.4 8.4-1.2 18 2.4 14.4 2.4-2.4 4.8-1.2 4.8 1.2 0 8.4-1.2 10.8-10.8 16.8-9.6 6-9.6 7.2-7.2 7.2 2.4 0 3.6 1.2 4.8 2.4 0 2.4 1.2 3.6 2.4 3.6 1.2 1.2 1.2 2.4 0 3.6-2.4 1.2-10.8 1.2-16.8 0-6-2.4-7.2-2.4-4.8 1.2 3.6 6-1.2 9.6-4.8 4.8-1.2-1.2-2.4-2.4-3.6-1.2l1.2 1.2 1.2 1.2c0 1.2 1.2 2.4 2.4 3.6 2.4 1.2 2.4 2.4 1.2 6 0 2.4-1.2 6-1.2 8.4 0 3.6-1.2 6-3.6 9.6-4.8 6-9.6 16.8-9.6 21.6 0 0-1.2 3.6-2.4 6-2.4 4.8-2.4 6-1.2 10.8 1.2 6 1.2 9.6-4.8 14.4-1.2 2.4-3.6 6-3.6 8.4-1.2 2.4-2.4 7.2-3.6 9.6-1.2 2.4-2.4 7.2-2.4 8.4-1.2 3.6-1.2 3.6-3.6 2.4-1.2-1.2-2.4-1.2-3.6-1.2 0 1.2 4.8 15.6 7.2 19.2 1.2 1.2 1.2 3.6 1.2 8.4-1.2 9.6 3.6 16.8 8.4 10.8 2.4-2.4 7.2-1.2 7.2 1.2 0 4.8 7.2 8.4 14.4 7.2 6-1.2 13.2-1.2 20.4 1.2 6 2.4 19.2-2.4 24-8.4 3.6-4.8 6-4.8 6 1.2 1.2 3.6 2.4 6 6 9.6 6 4.8 6 7.2 4.8 12-3.6 7.2-3.6 7.2 2.4 6 6 0 8.4 1.2 4.8 3.6-1.2 2.4-4.8 2.4-9.6 2.4h-6v4.8c0 4.8 0 4.8-3.6 4.8-2.4 0-4.8 1.2-6 2.4-3.6 1.2-8.4 1.2-9.6-1.2 0-1.2-2.4-1.2-4.8 0s-4.8 2.4-6 2.4c-2.4 0-6 1.2-8.4 2.4-3.6 1.2-4.8 1.2-6 0-2.4-1.2 1.2-4.8 4.8-4.8 3.6-1.2 6-7.2 2.4-9.6 0 0-1.2-1.2-1.2-2.4s-2.4-1.2-4.8-1.2-4.8 0-4.8-1.2 7.2-1.2 14.4 1.2c2.4 0 6 1.2 7.2 1.2 2.4 1.2 3.6 2.4 4.8 2.4 2.4 2.4 4.8 1.2 4.8-1.2 0-3.6 3.6-8.4 8.4-8.4 6 0 8.4-8.4 6-15.6-2.4-4.8-7.2-1.2-6 3.6 0 3.6-3.6 6-7.2 3.6-4.8-2.4-14.4-2.4-18-1.2-2.4 1.2-7.2 3.6-10.8 4.8-7.2 1.2-7.2 1.2-6 4.8l2.4 2.4c0 1.2-13.2 3.6-14.4 2.4-3.6 0-3.6 2.4-2.4 7.2 0 2.4 2.4 3.6 7.2 6 2.4 1.2 6 3.6 6 4.8 0 2.4-6 3.6-9.6 1.2-1.2 0-4.8-1.2-8.4-2.4-9.6 0-14.4-4.8-9.6-7.2 1.2-1.2 2.4-1.2 2.4-2.4-1.2-1.2 1.2-10.8 3.6-13.2 1.2-1.2 1.2-2.4 0-2.4s-1.2-3.6 0-4.8c2.4-1.2 3.6-8.4 2.4-12 0-2.4-2.4-2.4-8.4 0-4.8 2.4-6 2.4-8.4 0-8.4-3.6-12 0-9.6 9.6 1.2 7.2 0 18-2.4 22.8-1.2 2.4-1.2 3.6 0 4.8 0 1.2 1.2 2.4 1.2 4.8s0 2.4-7.2 2.4H156c0 2.4-6 1.2-6 0-1.2-1.2 0-3.6 2.4-4.8 4.8-1.2 6-7.2 3.6-8.4-3.6-2.4-2.4-6 0-6 1.2 0 2.4-1.2 2.4-1.2 0-2.4-4.8-7.2-4.8-4.8v2.4c0 2.4 0 2.4-3.6 2.4-4.8-1.2-7.2 1.2-12 8.4-1.2 2.4-3.6 3.6-4.8 4.8-3.6 1.2-6 4.8-6 8.4 0 1.2 1.2 2.4 8.4 4.8 8.4 2.4 9.6 3.6 10.8 8.4 1.2 3.6-1.2 3.6-3.6 0 0-1.2-3.6-2.4-6-2.4-2.4-1.2-4.8-2.4-6-2.4-4.8-2.4-10.8-3.6-15.6-2.4-6 0-6 0-3.6-8.4 1.2-8.4 3.6-9.6 13.2-9.6 7.2-1.2 8.4-4.8 2.4-4.8s-4.8-2.4 1.2-6c4.8-2.4 6-2.4 4.8 2.4v3.6l2.4-2.4c2.4-1.2 3.6-4.8 4.8-6 3.6-8.4 12-13.2 15.6-9.6 2.4 3.6 3.6 2.4 3.6 0-1.2-1.2 0-3.6 1.2-4.8 2.4-2.4 3.6-4.8 3.6-6 1.2-1.2 2.4-2.4 3.6-2.4 1.2 0 2.4-1.2 2.4-3.6 0-1.2 0-2.4 1.2-2.4 2.4 0 1.2-2.4-1.2-6-4.8-6-4.8-15.6 2.4-43.2 1.2-9.6 1.2-9.6 0-18 0-4.8 0-6 1.2-7.2 2.4 0 2.4-13.2-1.2-15.6-1.2-1.2-1.2-2.4 0-9.6 1.2-3.6 1.2-9.6 2.4-13.2 0-2.4 1.2-6 4.8-8.4 3.6-3.6 9.6-14.4 13.2-26.4 1.2-3.6 3.6-7.2 6-8.4 2.4-3.6 2.4-3.6 1.2-4.8-1.2-1.2-1.2-3.6-1.2-4.8 1.2-3.6 7.2-3.6 10.8 0 2.4 2.4 3.6 3.6 3.6 0 0 0 0-1.2-1.2-1.2s-1.2-1.2-1.2-3.6c1.2-1.2 1.2-2.4 0-1.2 0 2.4-2.4 1.2-1.2-1.2 0-1.2 0-1.2-2.4-2.4-1.2 0-1.2-1.2-1.2-6 0-8.4-2.4-21.6-6-31.2-3.6-9.6-3.6-10.8-2.4-10.8 1.2 0 2.4 0 3.6 1.2zM339.6 168h-4.8c-1.2-1.2 0-1.2 2.4-1.2s3.6 0 2.4 1.2zM108 172.8c-3.6 2.4-6 2.4-3.6 0 1.2 0 2.4-1.2 3.6-1.2 2.4 0 2.4 0 0 1.2zM153.6 187.2c-3.6 8.4-9.6 13.2-12 12-1.2-1.2 0-2.4 4.8-7.2 3.6-3.6 6-7.2 6-8.4 0-1.2 1.2-3.6 2.4-4.8 3.6-6 2.4 1.2-1.2 8.4zM320.4 181.2c-1.2 0-1.2 0-1.2-1.2s0-1.2 1.2-1.2v2.4zM338.4 188.4c1.2 1.2-2.4 3.6-4.8 3.6-3.6 0-2.4-3.6 0-3.6 3.6-1.2 4.8-1.2 4.8 0zM297.6 194.4v2.4c-1.2 0-1.2-1.2-1.2-2.4-1.2 0-1.2-1.2 0-1.2s1.2 1.2 1.2 1.2z"/><path fill="#ebeae8" d="M199.2 199.2c-1.2 1.2-8.4 0-8.4-2.4 0 0 1.2-1.2 3.6-1.2 3.6-1.2 7.2 1.2 4.8 3.6zM14.4 198c0 1.2-1.2 1.2-2.4 0 0 0-1.2-1.2 0-1.2 0-1.2 1.2-1.2 2.4 0 0 0 1.2 1.2 0 1.2zM302.4 196.8H300c0-1.2 0-1.2 1.2-1.2s1.2 0 1.2 1.2zM326.4 204c-1.2 0-1.2 0-1.2-1.2s0-1.2 1.2-1.2v2.4zM171.6 206.4c0 1.2-1.2 2.4-3.6 3.6-1.2 0-4.8 1.2-7.2 2.4-2.4 1.2-4.8 1.2-6 1.2-2.4-2.4 1.2-4.8 4.8-4.8 2.4-1.2 6-2.4 7.2-2.4 2.4-2.4 3.6-2.4 4.8 0zM19.2 207.6v1.2c-1.2 0-1.2 0-1.2-1.2h1.2zM30 210v1.2c-1.2 0-1.2 0-1.2-1.2H30zM48 212.4c0 1.2-1.2 2.4-1.2 1.2-2.4 0-1.2-2.4 0-2.4s2.4 1.2 1.2 1.2zM90 212.4h-2.4c-1.2-1.2-1.2-1.2 0-1.2s2.4 0 2.4 1.2zM146.4 214.8c0 2.4-2.4 3.6-6 3.6-2.4 0-3.6-2.4 0-3.6 2.4-1.2 6-1.2 6 0zM303.6 218.4c-1.2 0-1.2 0-1.2-1.2s0-1.2 1.2-1.2v2.4zM15.6 222c0 1.2 0 1.2-1.2 0-1.2 0-1.2-1.2-1.2-1.2 0-1.2 0-1.2 1.2-1.2 1.2 1.2 1.2 2.4 1.2 2.4zM121.2 224.4c1.2 1.2 2.4 2.4 4.8 2.4s2.4 0 1.2 1.2c-2.4 3.6-9.6 0-9.6-3.6 0-1.2 1.2-1.2 3.6 0zM320.4 229.2c1.2 1.2 3.6 4.8 4.8 9.6 6 13.2 3.6 18-4.8 13.2-4.8-3.6-4.8-3.6-3.6-14.4 0-9.6 0-10.8 3.6-8.4zM144 230.4c1.2 1.2-1.2 2.4-2.4 1.2-1.2 0 0-2.4 1.2-2.4 0 0 1.2 0 1.2 1.2zM298.8 230.4v1.2c-1.2 0-1.2 0-1.2-1.2h1.2zM303.6 230.4v1.2c-1.2 0-1.2 0-1.2-1.2h1.2zM18 237.6l2.4 2.4-3.6 1.2c-3.6 1.2-7.2 1.2-10.8-2.4-2.4-2.4-2.4-2.4-1.2-3.6 3.6-2.4 8.4-1.2 13.2 2.4zM331.2 235.2c-1.2 0-1.2 0-1.2-1.2s0-1.2 1.2-1.2v2.4zM334.8 234c0 1.2 0 1.2-1.2 1.2s-1.2 0-1.2-1.2v-1.2c1.2 0 1.2 0 2.4 1.2zM92.4 242.4c0 8.4-8.4 18-10.8 13.2-2.4-3.6-1.2-7.2 3.6-12 6-7.2 7.2-7.2 7.2-1.2zM288 248.4c0 2.4 0 2.4-2.4 0-1.2-4.8-1.2-6 1.2-3.6 0 1.2 1.2 2.4 1.2 3.6zM36 247.2c2.4 2.4 2.4 2.4 1.2 2.4-10.8 1.2-19.2-1.2-15.6-3.6 3.6-2.4 10.8-1.2 14.4 1.2zM123.6 249.6c-2.4 1.2-3.6 1.2-3.6 0s1.2-1.2 2.4-1.2c2.4 0 2.4 0 1.2 1.2zM234 249.6c3.6 2.4-1.2 19.2-4.8 19.2-2.4 0-2.4-1.2-2.4-8.4 1.2-10.8 3.6-13.2 7.2-10.8zM98.4 254.4c0 2.4-7.2 9.6-9.6 9.6-3.6-1.2-2.4-4.8 2.4-9.6 4.8-3.6 6-4.8 7.2 0zM345.6 254.4c1.2 1.2 0 1.2-1.2 1.2s-2.4-1.2-2.4-2.4c0-2.4 3.6-1.2 3.6 1.2zM52.8 256.8c0 1.2-3.6 2.4-4.8 1.2-1.2 0-1.2-1.2 0-1.2 0-1.2 4.8-1.2 4.8 0zM351.6 259.2c0 3.6 0 3.6-3.6 1.2-2.4-2.4-2.4-3.6 1.2-3.6l2.4 2.4zM20.4 258v1.2c-1.2 0-1.2 0-1.2-1.2h1.2zM327.6 268.8c-1.2 6-1.2 6 0 3.6s4.8-3.6 4.8-1.2c0 1.2-1.2 2.4-2.4 4.8-2.4 1.2-3.6 3.6-3.6 4.8 0 7.2-6 6-7.2-1.2 0-1.2 0-4.8 1.2-7.2 1.2-1.2 1.2-4.8 1.2-7.2 0-1.2 1.2-3.6 1.2-4.8 2.4-2.4 4.8 2.4 4.8 8.4zM318 261.6c1.2 0 0 1.2-1.2 1.2 0 1.2-1.2 0-1.2-1.2s2.4-2.4 2.4 0zM265.2 268.8c-2.4 2.4 2.4 4.8 6 4.8 4.8-1.2 3.6-3.6 3.6 19.2 0 18 0 16.8-4.8 20.4-6 2.4-9.6 8.4-7.2 10.8 1.2 2.4 2.4 2.4 3.6 1.2 2.4-2.4 8.4-4.8 8.4-4.8 2.4 3.6 3.6 6 3.6 8.4 0 3.6-6 7.2-9.6 6-2.4 0-2.4 0-2.4 1.2s2.4 2.4 3.6 2.4c3.6 0 3.6 1.2 2.4 3.6-1.2 1.2-1.2 1.2-4.8-1.2-2.4-1.2-2.4-1.2-2.4 0 1.2 1.2 1.2 3.6 2.4 6 1.2 4.8 2.4 6 4.8 4.8 3.6-1.2 8.4 2.4 8.4 6 0 7.2-8.4 8.4-12 1.2-2.4-6-3.6-4.8-3.6 6 1.2 10.8-1.2 14.4-4.8 10.8-1.2-2.4-1.2-2.4 1.2-4.8 2.4-4.8 1.2-12-3.6-22.8-3.6-7.2-3.6-8.4-7.2-6-1.2 1.2-2.4 1.2-2.4 0-1.2 0-2.4-1.2-4.8 0-6 1.2-3.6-4.8 3.6-7.2 3.6-1.2 3.6-1.2 3.6-4.8 0-4.8 2.4-13.2 3.6-13.2 2.4 0 1.2-3.6-1.2-7.2-1.2-2.4-1.2-2.4 2.4-2.4 4.8 0 7.2-2.4 4.8-3.6 0-1.2-1.2-4.8-1.2-7.2 0-3.6-1.2-7.2-1.2-8.4-2.4-2.4 0-10.8 3.6-14.4 0-1.2 1.2-2.4 1.2-3.6 0-1.2 0-2.4 1.2-2.4s1.2 0 1.2 1.2zM43.2 277.2c10.8 2.4 7.2 6-4.8 4.8-6-1.2-13.2-3.6-8.4-3.6 0 0 1.2 0 1.2-1.2 0-2.4 0-2.4 2.4-2.4 1.2 1.2 6 2.4 9.6 2.4zM219.6 277.2c-1.2 0-1.2 0-1.2-1.2s0-1.2 1.2-1.2v2.4zM25.2 278.4c2.4 3.6 0 4.8-6 3.6-6 0-7.2-1.2-4.8-4.8 2.4-2.4 9.6-1.2 10.8 1.2zM138 277.2c1.2 1.2 0 3.6-2.4 3.6-3.6 0-6 1.2-6 3.6 0 0-1.2 1.2-3.6 1.2-1.2 0-4.8 0-6 1.2-2.4 0-2.4 0-1.2-1.2 0 0 2.4-1.2 3.6-1.2 1.2 0 4.8-2.4 7.2-4.8 3.6-3.6 7.2-4.8 8.4-2.4zM166.8 278.4v1.2c-1.2 0-1.2 0-1.2-1.2h1.2zM243.6 284.4c0 2.4 1.2 6 2.4 8.4 0 3.6 0 3.6-1.2 2.4-2.4 0-7.2-7.2-4.8-7.2l-2.4-2.4c-1.2-2.4-1.2-2.4 0-4.8 3.6-2.4 4.8-1.2 6 3.6zM31.2 284.4c0 1.2 0 1.2-1.2 1.2s-2.4-1.2-2.4-2.4 0-1.2 1.2-1.2 2.4 1.2 2.4 2.4zM14.4 286.8c0 1.2 0 2.4-1.2 1.2-1.2 0-1.2-1.2-1.2-2.4 0 0 0-1.2 1.2-1.2s1.2 1.2 1.2 2.4zM121.2 291.6c-1.2 2.4-2.4 2.4-3.6 0 0-1.2 1.2-2.4 2.4-2.4s1.2 1.2 1.2 2.4zM60 292.8c3.6 2.4 1.2 3.6-4.8 4.8-6 1.2-8.4 0-4.8-3.6 3.6-2.4 4.8-3.6 9.6-1.2zM355.2 292.8c0 1.2 0 1.2-1.2 1.2s-1.2 0-1.2-1.2v-1.2c1.2 0 1.2 0 2.4 1.2zM325.2 295.2c0 2.4-3.6 1.2-4.8-1.2 0 0 1.2-1.2 2.4 0 1.2 0 2.4 1.2 2.4 1.2zM40.8 298.8h-2.4c0-1.2 0-1.2 1.2-1.2s1.2 0 1.2 1.2zM226.8 301.2c1.2 0 1.2 2.4 1.2 3.6-1.2 1.2-1.2 1.2-4.8-1.2-1.2-1.2-2.4-3.6-2.4-4.8 0-1.2 3.6 0 6 2.4z"/><path fill="#ebeae8" d="M250.8 304.8c0 2.4 0 2.4-2.4 0s-3.6-4.8-2.4-6c1.2-2.4 4.8 2.4 4.8 6zM324 298.8c0 2.4-1.2 4.8-3.6 4.8-1.2 0-2.4-2.4 0-3.6 0-1.2 3.6-1.2 3.6-1.2zM217.2 306v1.2c-1.2 0-1.2 0-1.2-1.2h1.2zM166.8 310.8c0 3.6-2.4 3.6-3.6-1.2 0-1.2 0-2.4 1.2-2.4s2.4 2.4 2.4 3.6zM284.4 327.6c0 2.4 0 2.4-1.2 1.2s-2.4-3.6-2.4-7.2v-6l1.2 4.8c1.2 2.4 1.2 6 2.4 7.2zM289.2 328.8c0 2.4 0 2.4-2.4 1.2-1.2-1.2-1.2-2.4-1.2-3.6 2.4-2.4 3.6-1.2 3.6 2.4zM196.8 331.2c-1.2 1.2-1.2 1.2-1.2-1.2s0-2.4 1.2-1.2 1.2 1.2 0 2.4zM166.8 332.4c1.2 8.4-12 21.6-19.2 19.2-2.4 0-4.8 0-6 1.2-1.2 1.2-3.6 2.4-4.8 2.4-2.4 0-2.4 0-1.2 1.2 2.4 0 3.6 3.6 3.6 4.8-1.2 1.2-10.8 3.6-15.6 3.6-2.4 0-4.8 0-4.8 1.2-1.2 1.2-2.4 1.2-4.8 1.2-3.6 0-7.2-3.6-8.4-9.6 0-2.4-1.2-4.8-2.4-6-4.8-3.6 7.2-12 19.2-12h7.2c1.2 4.8 3.6 6 14.4 6 12-1.2 13.2-1.2 16.8-9.6 2.4-7.2 4.8-8.4 6-3.6zM229.2 332.4c6 3.6 7.2 7.2 2.4 10.8 0 1.2-1.2 2.4-1.2 3.6 0 1.2-1.2 1.2-1.2 1.2-1.2 0-1.2-2.4-1.2-4.8 0-3.6-1.2-6-2.4-6-2.4-2.4-3.6-7.2-1.2-7.2l4.8 2.4zM240 338.4c-1.2 0-1.2 0-1.2-1.2s0-1.2 1.2-1.2v2.4zM290.4 336v1.2c-1.2 0-1.2 0-1.2-1.2h1.2zM103.2 340.8h-2.4c-1.2-1.2-1.2-1.2 0-1.2s2.4 0 2.4 1.2zM96 342h-2.4c0-1.2 0-1.2 1.2-1.2s1.2 0 1.2 1.2zM79.2 344.4v1.2c-1.2 0-1.2 0-1.2-1.2h1.2zM52.8 349.2c-3.6 0-6-1.2-6-2.4s1.2 0 3.6 0c3.6 1.2 3.6 2.4 2.4 2.4zM14.4 348v1.2c-1.2 0-1.2 0-1.2-1.2h1.2zM228 363.6c1.2 2.4-2.4 3.6-7.2 3.6-6 1.2-8.4 0-7.2-2.4 1.2-2.4 13.2-3.6 14.4-1.2zM132 367.2s1.2 1.2 3.6 1.2c3.6 0 4.8 0 4.8 1.2 0 7.2-19.2 7.2-19.2 1.2 0-1.2 6-4.8 8.4-4.8 1.2 0 2.4 0 2.4 1.2zM295.2 369.6c0 1.2-1.2 1.2-1.2 0-1.2-1.2 0-3.6 1.2-2.4 1.2 0 1.2 1.2 0 2.4zM152.4 370.8c0 1.2 0 1.2-1.2 1.2s-2.4-1.2-2.4-2.4 0-1.2 1.2-1.2 2.4 1.2 2.4 2.4zM201.6 372c0 2.4-3.6 13.2-4.8 13.2-1.2 0 0-9.6 1.2-13.2 1.2-2.4 3.6-3.6 3.6 0zM211.2 373.2c0 1.2-1.2 2.4-2.4 3.6-2.4 2.4-3.6 1.2-2.4-2.4 0-2.4 2.4-3.6 4.8-1.2zM237.6 374.4c0 1.2-2.4 2.4-2.4 1.2-1.2-1.2 0-1.2 0-1.2h2.4zM280.8 376.8c-1.2 1.2-1.2 3.6-1.2 6 0 3.6 0 3.6-1.2 2.4-1.2-1.2-2.4-2.4-1.2-2.4V378c0-2.4 0-3.6 2.4-3.6s2.4 0 1.2 2.4zM224.4 379.2c1.2 1.2 1.2 1.2 0 1.2-3.6 0-6-1.2-6-2.4s4.8 0 6 1.2zM10.8 380.4v1.2c-1.2 0-1.2 0-1.2-1.2h1.2zM42 388.8c0 1.2 0 2.4 1.2 2.4 0 1.2 0 2.4-1.2 2.4s-2.4-1.2-2.4-2.4c-1.2-1.2 0-2.4 1.2-2.4H42zM126 390v1.2c-1.2 0-1.2 0-1.2-1.2h1.2zM10.8 393.6v1.2c-1.2 0-1.2 0-1.2-1.2h1.2zM278.4 398.4s1.2 1.2 2.4 1.2c2.4 1.2 3.6 4.8 1.2 4.8-2.4 0-7.2-7.2-4.8-7.2 1.2 0 1.2 0 1.2 1.2zM19.2 402c0 1.2-1.2 1.2-2.4 1.2 0 0-1.2 0 0-1.2 0-1.2 1.2-1.2 1.2-1.2 1.2 0 1.2 0 1.2 1.2zM12 403.2v1.2c-1.2 0-1.2 0-1.2-1.2H12zM26.4 404.4H24c0-1.2 0-1.2 1.2-1.2s1.2 0 1.2 1.2zM348 406.8h-2.4c0-1.2 0-1.2 1.2-1.2s1.2 0 1.2 1.2zM297.6 410.4c0 2.4-2.4 6-3.6 4.8-1.2 0-1.2-1.2-1.2-3.6 0-4.8 3.6-4.8 4.8-1.2zM316.8 418.8c0 3.6-3.6 4.8-6 2.4-1.2-2.4-1.2-2.4 0-4.8 3.6-2.4 6-1.2 6 2.4zM148.8 423.6c0 2.4-2.4 3.6-2.4 1.2 0-1.2 1.2-2.4 2.4-2.4s1.2 1.2 0 1.2zM346.8 423.6c0 3.6-3.6 4.8-7.2 3.6-6-2.4-4.8-4.8 2.4-4.8 3.6 0 4.8 0 4.8 1.2zM304.8 428.4l7.2 3.6c8.4 1.2 9.6 6 3.6 8.4-6 2.4-6 6 0 8.4 7.2 2.4 8.4 4.8 2.4 4.8h-6c-1.2 1.2-10.8 0-12-1.2-1.2 0-2.4-1.2-3.6-1.2-1.2 0-1.2-7.2 1.2-14.4 0-3.6 0-3.6-2.4-3.6-3.6 0-3.6-6 0-7.2 4.8-1.2 6-1.2 9.6 2.4zM276 441.6c0 2.4-8.4 7.2-12 7.2-2.4 0-1.2 2.4 1.2 2.4 1.2 1.2 6 1.2 9.6 1.2 8.4 1.2 9.6 4.8 1.2 4.8-2.4 0-6 1.2-8.4 2.4-6 2.4-18 4.8-20.4 3.6-3.6-1.2-1.2-4.8 3.6-4.8 2.4 0 3.6 0 3.6-1.2 0-2.4-3.6-3.6-7.2-3.6-1.2 1.2-2.4 0-2.4 0-1.2-2.4 0-2.4 1.2-2.4 2.4 0 10.8-3.6 10.8-4.8 0 0 2.4-1.2 6-1.2 3.6-1.2 6-2.4 6-3.6 1.2-1.2 7.2-1.2 7.2 0zM183.6 444c2.4 4.8-8.4 10.8-14.4 7.2-1.2-1.2-1.2-1.2 2.4-2.4 2.4-1.2 3.6-2.4 2.4-2.4-2.4-3.6-1.2-4.8 3.6-4.8 3.6 0 4.8 1.2 6 2.4zM344.4 442.8c1.2 1.2 1.2 2.4 0 2.4-1.2 1.2-1.2 2.4 0 3.6 1.2 1.2 1.2 1.2 0 2.4-2.4 2.4-6 1.2-7.2-1.2-1.2-1.2-2.4-2.4-6-1.2h-4.8l1.2-2.4c2.4-2.4 3.6-3.6 7.2-3.6 2.4 0 4.8-1.2 6-1.2 1.2 0 2.4 1.2 3.6 1.2zM93.6 447.6c3.6 3.6 3.6 7.2 0 9.6-3.6 4.8-6 4.8-9.6 1.2-6-6-2.4-12 6-13.2 0 0 2.4 1.2 3.6 2.4zM232.8 446.4c0 1.2-1.2 1.2-3.6 1.2-2.4 0-2.4 0 0-1.2s3.6-1.2 3.6 0zM75.6 447.6c1.2 1.2-1.2 2.4-6 2.4-1.2 0-2.4-1.2-2.4-2.4s7.2-2.4 8.4 0zM8.4 451.2c4.8 1.2 4.8 4.8 0 4.8-3.6 0-4.8-1.2-4.8-4.8 1.2-1.2 1.2-1.2 4.8 0zM196.8 452.4c1.2 1.2 1.2 2.4-1.2 2.4-2.4 1.2-7.2 0-7.2-2.4s4.8-2.4 8.4 0zM200.4 451.2H198c0-1.2 0-1.2 1.2-1.2s1.2 0 1.2 1.2zM213.6 452.4c1.2 1.2 3.6 2.4 6 3.6 4.8 2.4 3.6 3.6-2.4 4.8-2.4 1.2-6 1.2-7.2 2.4-3.6 0-3.6 0-4.8-2.4-1.2-2.4-2.4-3.6-2.4-3.6-1.2 0-1.2 0-1.2-1.2s1.2-1.2 2.4-1.2c2.4 0 2.4 0 2.4-1.2-2.4-3.6 3.6-4.8 7.2-1.2zM292.8 450c0 1.2-1.2 1.2-2.4 2.4-2.4 1.2-2.4 1.2-2.4 0s1.2-2.4 2.4-2.4h2.4zM108 457.2c1.2 2.4 1.2 2.4 0 3.6-2.4 0-7.2-2.4-6-3.6 0-1.2 4.8-1.2 6 0zM350.4 457.2H348c0-1.2 0-1.2 1.2-1.2s1.2 0 1.2 1.2zM19.2 458.4c0 1.2 1.2 3.6 3.6 6 1.2 1.2 2.4 3.6 2.4 4.8 0 1.2 1.2 3.6 2.4 4.8 2.4 7.2 1.2 13.2-4.8 10.8-1.2-1.2-2.4-2.4-2.4-6-1.2-2.4-2.4-7.2-3.6-9.6-2.4-4.8-2.4-12 1.2-12l1.2 1.2zM134.4 458.4H132c-1.2-1.2-1.2-1.2 0-1.2s2.4 0 2.4 1.2zM316.8 459.6v1.2c-1.2 0-1.2 0-1.2-1.2h1.2zM74.4 463.2c3.6 3.6 3.6 4.8-2.4 8.4-7.2 3.6-12 3.6-15.6 2.4-2.4-1.2-3.6-6-1.2-6 1.2 0 2.4-1.2 3.6-2.4 6-4.8 10.8-6 15.6-2.4zM92.4 460.8v1.2c-1.2 0-1.2 0-1.2-1.2h1.2zM240 463.2c2.4 1.2-4.8 3.6-8.4 3.6-1.2-1.2-3.6 0-6 1.2-4.8 2.4-4.8 2.4-4.8 1.2 0-2.4 4.8-4.8 9.6-6 2.4 0 4.8 0 4.8-1.2 1.2 0 2.4 0 4.8 1.2zM319.2 468l-3.6 3.6c-2.4 3.6-2.4 7.2 0 9.6 6 4.8-3.6 8.4-14.4 4.8-7.2-2.4-7.2-4.8-1.2-8.4 3.6-1.2 7.2-3.6 8.4-6 4.8-4.8 14.4-8.4 10.8-3.6zM205.2 469.2c0 1.2-2.4 2.4-6 2.4-1.2 0-1.2 0 0-2.4 3.6-1.2 6-1.2 6 0zM182.4 470.4v1.2c-1.2 0-1.2 0-1.2-1.2h1.2zM331.2 471.6c0 1.2-8.4 9.6-9.6 9.6-2.4 0 1.2-6 3.6-8.4 3.6-2.4 6-3.6 6-1.2zM184.8 472.8h-2.4c0-1.2 0-1.2 1.2-1.2s1.2 0 1.2 1.2zM195.6 474c-3.6 1.2-8.4 0-8.4-1.2h4.8c3.6 0 4.8 0 3.6 1.2zM97.2 476.4v1.2c-1.2 0-1.2 0-1.2-1.2h1.2zM266.4 477.6s-1.2 2.4-3.6 4.8l-2.4 3.6-3.6-2.4-2.4-3.6h3.6c2.4 0 3.6 0 3.6-2.4 0 0 1.2-1.2 2.4-1.2s2.4 0 2.4 1.2zM80.4 484.8c0 1.2 0 1.2-1.2 0-1.2 0-1.2-1.2-1.2-1.2 0-1.2 0-1.2 1.2-1.2 1.2 1.2 1.2 2.4 1.2 2.4zM255.6 487.2c3.6 3.6 0 8.4-3.6 6-3.6-3.6-3.6-7.2-1.2-7.2 2.4 0 3.6 1.2 4.8 1.2zM272.4 488.4c0 1.2-7.2 3.6-8.4 2.4-1.2 0 0-1.2 1.2-2.4 2.4-2.4 6-2.4 7.2 0zM45.6 488.4c1.2 1.2-4.8 3.6-4.8 2.4-1.2 0-1.2-1.2 0-2.4 0-1.2 4.8-2.4 4.8 0zM49.2 488.4v1.2c-1.2 0-1.2 0-1.2-1.2h1.2zM70.8 490.8c1.2 2.4-1.2 2.4-2.4 1.2-2.4-2.4-2.4-3.6 0-3.6l2.4 2.4zM57.6 490.8l2.4 2.4c3.6 1.2 4.8 6 2.4 6-1.2 0-3.6 0-4.8 1.2-3.6 2.4-12-7.2-8.4-9.6 1.2-1.2 8.4-1.2 8.4 0zM84 492c1.2 0 2.4 2.4 2.4 3.6 0 1.2 1.2 2.4 3.6 4.8l2.4 2.4-4.8 2.4-7.2 2.4c-1.2 0-2.4-6-2.4-13.2 0-4.8 1.2-6 6-2.4zM26.4 496.8c3.6 4.8 1.2 13.2-3.6 13.2-1.2 0-6-6-7.2-10.8-1.2-8.4 4.8-9.6 10.8-2.4zM40.8 492v1.2c-1.2 0-1.2 0-1.2-1.2h1.2zM282 494.4c0 2.4-3.6 3.6-4.8 2.4-1.2 0-1.2-1.2-1.2-2.4 1.2-1.2 6-1.2 6 0zM42 494.4v1.2c-1.2 0-1.2 0-1.2-1.2H42zM316.8 498c4.8 2.4 4.8 4.8 0 8.4l-4.8 2.4c0 1.2-1.2 1.2-2.4 1.2s-2.4 1.2-1.2 2.4c0 1.2 0 1.2-1.2 0s-1.2-1.2-3.6 0c-3.6 3.6-19.2 3.6-24 0-3.6-3.6-4.8-7.2-1.2-7.2 1.2 0 2.4 1.2 2.4 1.2 2.4 4.8 16.8 1.2 22.8-6 3.6-3.6 6-4.8 13.2-2.4zM328.8 498c1.2 0 0 2.4-1.2 3.6-1.2 1.2-1.2 1.2-1.2-1.2 0-3.6 1.2-4.8 2.4-2.4zM288 498v1.2c-1.2 0-1.2 0-1.2-1.2h1.2zM102 499.2v1.2c-1.2 0-1.2 0-1.2-1.2h1.2zM189.6 500.4c1.2 1.2 1.2 2.4 1.2 3.6-1.2 2.4 2.4 2.4 7.2 0 3.6-1.2 4.8-1.2 4.8 1.2s-3.6 3.6-10.8 3.6c-6 0-6 0-7.2-4.8-1.2-4.8 1.2-7.2 4.8-3.6z"/><path fill="#ebeae8" d="M289.2 501.6c1.2 0 0 1.2-1.2 1.2-2.4 1.2-2.4 1.2-2.4-1.2 1.2-1.2 3.6-1.2 3.6 0zM270 502.8c0 1.2 0 1.2-1.2 1.2s-1.2 0-1.2-1.2 0-1.2 1.2-1.2 1.2 0 1.2 1.2zM40.8 506.4s-1.2 1.2-1.2 2.4c-1.2 1.2-1.2 2.4-2.4 1.2-1.2 0-1.2-1.2 0-1.2 1.2-1.2 1.2-2.4 1.2-3.6 0-2.4 0-2.4 2.4-1.2 0 1.2 1.2 2.4 0 2.4zM54 516l2.4 2.4h-3.6c-3.6 0-4.8 0-4.8-2.4 0-1.2 0-2.4 1.2-2.4s2.4 1.2 4.8 2.4zM274.8 514.8c0 1.2-1.2 1.2-2.4 1.2-2.4 0-3.6 0-3.6-1.2-1.2-1.2 0-1.2 2.4-1.2s3.6 0 3.6 1.2zM156 518.4h-2.4c0-1.2 0-1.2 1.2-1.2s1.2 0 1.2 1.2zM160.8 518.4h-2.4c-1.2-1.2-1.2-1.2 0-1.2s2.4 0 2.4 1.2zM336 518.4h-2.4c-1.2-1.2-1.2-1.2 0-1.2s2.4 0 2.4 1.2zM49.2 519.6v1.2c-1.2 0-1.2 0-1.2-1.2h1.2z"/><path d="M216 204c-1.2 1.2 3.6 4.8 7.2 4.8 1.2-1.2 1.2-1.2 0-3.6-4.8-3.6-7.2-3.6-7.2-1.2zM218.4 219.6c0 1.2 1.2 2.4 1.2 4.8 2.4 1.2 2.4 1.2 3.6 0 0-1.2 0-3.6-1.2-3.6-2.4-2.4-3.6-2.4-3.6-1.2zM213.6 225.6c0 1.2 0 1.2 1.2 1.2v-2.4c-1.2 0-1.2 0-1.2 1.2zM175.2 346.8c0 1.2 0 1.2 1.2 1.2v-1.2h-1.2zM172.8 388.8c0 1.2 2.4 3.6 3.6 3.6 2.4 0 1.2-2.4-1.2-3.6-1.2-1.2-2.4-1.2-2.4 0zM205.2 406.8c-1.2 2.4 1.2 6 4.8 7.2 4.8 0 4.8-2.4 0-6-3.6-2.4-2.4-2.4-4.8-1.2zM259.2 427.2h2.4c0-1.2 0-1.2-1.2-1.2s-1.2 0-1.2 1.2zM302.4 435.6c-1.2 3.6-1.2 3.6 1.2 3.6s3.6 0 2.4-2.4c0-3.6-2.4-3.6-3.6-1.2zM211.2 457.2c0 1.2 2.4 2.4 2.4 0 1.2 0 0-1.2-1.2-1.2 0-1.2-1.2 0-1.2 1.2zM85.2 501.6c0 1.2 0 1.2 1.2 1.2v-1.2h-1.2zM22.8 34.8c-2.4 0-6 1.2-8.4 2.4-1.2 0-3.6 1.2-7.2 2.4-4.8 1.2-4.8 1.2-6 7.2 0 6 0 16.8 2.4 18 1.2 1.2 1.2 3.6 0 6-2.4 2.4-2.4 8.4 0 9.6 1.2 1.2 0 2.4-1.2 3.6-4.8 6 3.6 8.4 24 7.2 8.4 0 18-1.2 20.4 0 2.4 0 4.8 0 6-2.4l2.4-2.4H30c-15.6-1.2-14.4-1.2-19.2-1.2-6 1.2-6-2.4 0-3.6 2.4-1.2 6-1.2 9.6 0 3.6 1.2 8.4 1.2 10.8 0 2.4 0 7.2-1.2 10.8-1.2h7.2c2.4-2.4 13.2 0 14.4 2.4 0 2.4 1.2 2.4 8.4 1.2 4.8 0 9.6-1.2 10.8-1.2l3.6-1.2-3.6-1.2c-2.4-1.2-2.4-1.2-1.2-3.6 2.4 0 4.8-1.2 7.2-2.4 6 0 7.2-2.4 2.4-2.4-4.8 0-7.2-1.2-4.8-3.6C87.6 67.2 90 66 90 66c3.6 0 4.8-2.4 3.6-3.6-1.2-2.4-1.2-2.4 1.2-2.4 1.2 0 6-2.4 10.8-4.8 4.8-1.2 8.4-3.6 9.6-3.6 1.2 0 3.6-1.2 6-3.6 3.6-1.2 7.2-2.4 12-3.6 3.6 0 7.2-1.2 8.4-1.2 0-1.2 1.2-1.2 3.6-1.2 1.2 0 2.4 0 2.4-1.2-1.2-4.8-57.6-9.6-62.4-6-3.6 2.4-20.4 3.6-32.4 1.2-9.6-2.4-22.8-2.4-30-1.2z"/><path fill="#ebeae8" d="M50.4 45.6c0 2.4 1.2 2.4 3.6 2.4 2.4 0 3.6 0 3.6 2.4 0 0 0 1.2 1.2 1.2 0-1.2 1.2-1.2 1.2 0 1.2 1.2-6 2.4-8.4 2.4-1.2-1.2-1.2-2.4-1.2-3.6 0-1.2-1.2-2.4-4.8-2.4-2.4 0-4.8-1.2-4.8-2.4 0-2.4 0-2.4 4.8-2.4s4.8 1.2 4.8 2.4zM78 48c3.6 2.4-1.2 3.6-13.2 3.6-3.6 0-2.4-3.6 1.2-4.8 2.4-1.2 10.8 0 12 1.2zM98.4 46.8V48c-1.2 0-1.2 0-1.2-1.2h1.2zM24 51.6c0 1.2 0 1.2-1.2 1.2s-1.2 0-1.2-1.2 0-1.2 1.2-1.2 1.2 0 1.2 1.2zM33.6 57.6c0 2.4-1.2 2.4-4.8 2.4-2.4 0-7.2 1.2-9.6 2.4-2.4 1.2-4.8 1.2-4.8 0-2.4-2.4 1.2-4.8 7.2-4.8 2.4 0 6 0 6-1.2 1.2-1.2 6 0 6 1.2zM69.6 63.6c-1.2 1.2-15.6 1.2-15.6 0s3.6-1.2 8.4-1.2c3.6 0 7.2 0 7.2 1.2z"/><path d="M199.2 37.2h2.4c0-1.2-1.2-1.2-2.4-1.2s-1.2 0 0 1.2z"/><path d="M204 37.2c-1.2 1.2-2.4 1.2-4.8 1.2-4.8 0-1.2 2.4 6 2.4 7.2 1.2 8.4-1.2 2.4-3.6-3.6-1.2-3.6-1.2-3.6 0zM243.6 39.6s1.2 1.2 1.2 3.6c2.4 1.2 2.4 1.2 2.4-1.2s-1.2-3.6-1.2-3.6c-1.2 0-2.4 0-2.4 1.2zM291.6 38.4c0 1.2 0 1.2 1.2 1.2v-1.2h-1.2zM283.2 50.4c0 1.2 3.6 3.6 4.8 3.6 2.4 0 1.2-2.4-1.2-3.6-2.4-1.2-3.6-1.2-3.6 0zM292.8 51.6c0 1.2 1.2 1.2 2.4 1.2s2.4 0 2.4-1.2c-1.2-1.2-2.4-1.2-3.6-1.2 0 0-1.2 0-1.2 1.2zM246 69.6c-2.4 0-3.6 1.2-3.6 2.4 1.2 1.2 13.2 2.4 16.8 2.4 4.8-1.2 4.8-4.8-1.2-4.8-2.4-1.2-4.8-1.2-6-1.2-1.2-1.2-3.6 0-6 1.2zM86.4 81.6c0 1.2 1.2 1.2 3.6 1.2 2.4 0 3.6 0 4.8-1.2 0-1.2-1.2-1.2-3.6-1.2-2.4 0-4.8 0-4.8 1.2zM104.4 82.8c0 1.2 0 1.2 1.2 1.2v-1.2h-1.2zM106.8 85.2c0 1.2 2.4 1.2 4.8 1.2 4.8 0 4.8 0 2.4-1.2-4.8-1.2-8.4-1.2-7.2 0zM135.6 85.2c-2.4 1.2-1.2 1.2 3.6 1.2 3.6 0 6 0 6-1.2-1.2-1.2-4.8-1.2-9.6 0zM122.4 86.4h2.4c0-1.2 0-1.2-1.2-1.2s-1.2 0-1.2 1.2zM164.4 86.4c-2.4 3.6 0 6 3.6 6s4.8-1.2 6-4.8c1.2-3.6-7.2-3.6-9.6-1.2zM168 106.8c-2.4 1.2-6 2.4-7.2 3.6-1.2 1.2-2.4 2.4-3.6 2.4-1.2 0-2.4 0-2.4 1.2 1.2 0-1.2 3.6-4.8 6-3.6 2.4-6 4.8-6 6 1.2 1.2 14.4-6 16.8-9.6 2.4-2.4 4.8-3.6 7.2-3.6 3.6-1.2 7.2-2.4 8.4-4.8l3.6-3.6h-3.6c-2.4 0-6 1.2-8.4 2.4zM152.4 112.8c0 1.2 0 1.2 1.2 1.2v-1.2c0-1.2 0-1.2-1.2-1.2s-1.2 0 0 1.2zM139.2 118.8c-2.4 0-4.8 1.2-7.2 1.2-7.2 0-9.6 1.2-4.8 3.6 3.6 1.2 9.6 1.2 12-2.4 1.2 0 2.4-1.2 3.6-1.2 0 0 1.2 0 2.4-1.2 0-1.2-3.6-1.2-6 0zM184.8 118.8c-1.2 1.2-1.2 1.2 0 1.2s1.2 0 1.2-1.2v-1.2c-1.2 0-1.2 0-1.2 1.2zM4.8 123.6c0 1.2 12 1.2 18 0 2.4-1.2 0-1.2-8.4-1.2-7.2 0-10.8 0-9.6 1.2zM354 128.4c0 1.2 0 1.2 1.2 1.2v-1.2H354zM16.8 132h4.8c1.2-1.2 0-1.2-2.4-1.2-3.6 0-3.6 0-2.4 1.2zM38.4 135.6c1.2 1.2 3.6 2.4 4.8 2.4 1.2 0 2.4 1.2 2.4 2.4 0 0 1.2 1.2 2.4 1.2 2.4 0 2.4 0 1.2-1.2s1.2-2.4 6-2.4c6 0-1.2-2.4-10.8-3.6-8.4 0-8.4 0-6 1.2zM98.4 136.8c-8.4 0-12 1.2-12 2.4 1.2 1.2 12 0 20.4-1.2 8.4-1.2 2.4-2.4-8.4-1.2zM130.8 140.4c-2.4 1.2-4.8 2.4-6 2.4 0 1.2-1.2 1.2-2.4 1.2-2.4 0-9.6 3.6-10.8 4.8 0 1.2 1.2 1.2 14.4-1.2 4.8-1.2 14.4-6 14.4-7.2 0-1.2-4.8-1.2-9.6 0zM97.2 150c-2.4 1.2-1.2 3.6 2.4 3.6 3.6 0 7.2-2.4 6-3.6 0-1.2-6-1.2-8.4 0zM127.2 168l-3.6 1.2h3.6c2.4 0 4.8-1.2 4.8-2.4s-1.2-1.2-4.8 1.2zM104.4 196.8c0 1.2 0 1.2 1.2 1.2v-1.2h-1.2zM100.8 201.6s0 1.2 1.2 0c1.2 0 1.2-1.2 1.2-1.2 0-1.2 0-1.2-1.2-1.2s-1.2 1.2-1.2 2.4zM68.4 214.8c-1.2 1.2-1.2 1.2 0 2.4 2.4 1.2 4.8 1.2 4.8-1.2s-2.4-2.4-4.8-1.2zM67.2 226.8c-2.4 0-2.4 1.2-1.2 1.2 1.2 1.2 1.2 2.4 0 3.6-1.2 1.2 0 2.4 3.6 0 1.2 0 3.6-1.2 4.8-2.4 7.2-2.4 1.2-4.8-7.2-2.4zM63.6 232.8c0 1.2 0 1.2 1.2 1.2v-1.2h-1.2zM67.2 381.6c0 1.2-3.6 2.4-6 3.6-3.6 0-3.6 1.2-3.6 4.8 0 3.6 9.6 6 9.6 2.4 0-1.2 2.4-1.2 4.8-1.2 4.8 0 4.8 0 3.6-1.2-1.2-1.2-1.2-2.4-1.2-3.6 0 0-1.2-2.4-2.4-3.6-2.4-3.6-2.4-3.6-4.8-1.2zM76.8 379.2c0 1.2 0 1.2 1.2 1.2v-1.2h-1.2zM97.2 396c-1.2 1.2-3.6 1.2-4.8 1.2-6 0-9.6 4.8-8.4 8.4 4.8 10.8 10.8 10.8 27.6-2.4 4.8-3.6 4.8-3.6 2.4-4.8-2.4-2.4-14.4-3.6-16.8-2.4zM62.4 408c-2.4 1.2-4.8 2.4-7.2 2.4-8.4 0-12 1.2-12 3.6 0 2.4 8.4 4.8 14.4 4.8 7.2 0 19.2-8.4 15.6-10.8-3.6-2.4-8.4-2.4-10.8 0zM110.4 412.8h2.4c0-1.2 0-1.2-1.2-1.2s-1.2 0-1.2 1.2zM153.6 466.8c0 1.2 0 1.2 1.2 1.2v-1.2h-1.2zM159.6 470.4h2.4c0-1.2 0-1.2-1.2-1.2s-1.2 0-1.2 1.2zM163.2 470.4v3.6l1.2 2.4 2.4-2.4c2.4-3.6 2.4-3.6 0-3.6-1.2-1.2-2.4 0-3.6 0zM158.4 477.6c-1.2 1.2-2.4 2.4-1.2 2.4 0 1.2-1.2 1.2-3.6 1.2-3.6-1.2-4.8-1.2-4.8 1.2-1.2 2.4 0 3.6 3.6 2.4 7.2-1.2 10.8-1.2 14.4 0 3.6 1.2 4.8 1.2 3.6-2.4-1.2-1.2-2.4-2.4-4.8-2.4-1.2 0-2.4-1.2-2.4-2.4s-1.2-1.2-4.8 0zM124.8 481.2c0 1.2 0 1.2 1.2 1.2V480c-1.2 0-1.2 0-1.2 1.2zM129.6 482.4c0 1.2 1.2 1.2 1.2 1.2 1.2 0 1.2 0 1.2-1.2-1.2-1.2-2.4-1.2-2.4-1.2-1.2 0-1.2 0 0 1.2zM342 489.6c0 1.2 1.2 1.2 2.4 1.2 1.2 1.2 2.4 0 2.4 0 0-1.2-1.2-1.2-2.4-1.2H342zM153.6 493.2c0 1.2 1.2 1.2 2.4 1.2 0 0 1.2 0 1.2-1.2S156 492 156 492c-1.2 0-2.4 0-2.4 1.2zM100.8 518.4c0 1.2 2.4 1.2 4.8 1.2 1.2 0 3.6 0 3.6-1.2s-2.4-1.2-3.6-1.2c-2.4 0-4.8 0-4.8 1.2zM2.4 523.2c0 1.2 0 1.2 1.2 1.2v-1.2H2.4z"/></g></svg>