<svg version="1.1" width="1220" height="713" xmlns="http://www.w3.org/2000/svg">
<rect x="0" y="0" width="1220" height="713" fill="#9e9a8b" />
<g transform="scale(9.53125, 9.63514)">
<path d="M 0 56 L 127 56 L 127 73 L 0 73 Z" fill="#5a5b52" fill-opacity="0.501961" />
<path d="M 2 2 L 113 2 L 113 35 L 2 35 Z" fill="#d7c7aa" fill-opacity="0.501961" />
<path d="M 106 36 L 127 36 L 127 73 L 106 73 Z" fill="#5e5f64" fill-opacity="0.501961" />
<path d="M 55 20 L 77 20 L 77 49 L 55 49 Z" fill="#ccd3c8" fill-opacity="0.501961" />
<path d="M 0 33 L 10 33 L 10 73 L 0 73 Z" fill="#4d768d" fill-opacity="0.501961" />
<path d="M 5 42 L 47 42 L 47 60 L 5 60 Z" fill="#90999f" fill-opacity="0.501961" />
<path d="M 92 52 L 115 52 L 115 62 L 92 62 Z" fill="#bb9782" fill-opacity="0.501961" />
<path d="M 36 0 L 96 0 L 96 20 L 36 20 Z" fill="#c8a880" fill-opacity="0.501961" />
<path d="M 34 43 L 45 43 L 45 50 L 34 50 Z" fill="#57a7ed" fill-opacity="0.501961" />
<path d="M 35 56 L 92 56 L 92 73 L 35 73 Z" fill="#918054" fill-opacity="0.501961" />
<path d="M 1 0 L 23 0 L 23 28 L 1 28 Z" fill="#92afab" fill-opacity="0.501961" />
<path d="M 72 43 L 99 43 L 99 53 L 72 53 Z" fill="#9db4bc" fill-opacity="0.501961" />
<path d="M 94 36 L 105 36 L 105 44 L 94 44 Z" fill="#4884a9" fill-opacity="0.501961" />
<path d="M 53 57 L 70 57 L 70 64 L 53 64 Z" fill="#456d3a" fill-opacity="0.501961" />
<path d="M 119 0 L 127 0 L 127 36 L 119 36 Z" fill="#719ea1" fill-opacity="0.501961" />
<path d="M 0 63 L 22 63 L 22 73 L 0 73 Z" fill="#3e6c84" fill-opacity="0.501961" />
<path d="M 103 73 L 127 73 L 127 62 L 103 62 Z" fill="#47637d" fill-opacity="0.501961" />
<path d="M 53 24 L 69 24 L 69 35 L 53 35 Z" fill="#d2dcdd" fill-opacity="0.501961" />
<path d="M 49 65 L 82 65 L 82 70 L 49 70 Z" fill="#9a8e8b" fill-opacity="0.501961" />
<path d="M 9 37 L 27 37 L 27 61 L 9 61 Z" fill="#958e7d" fill-opacity="0.501961" />
<path d="M 104 38 L 127 38 L 127 51 L 104 51 Z" fill="#8b7556" fill-opacity="0.501961" />
<path d="M 103 2 L 121 2 L 121 30 L 103 30 Z" fill="#a89f8c" fill-opacity="0.501961" />
<path d="M 27 36 L 45 36 L 45 39 L 27 39 Z" fill="#82accd" fill-opacity="0.501961" />
<path d="M 42 52 L 57 52 L 57 55 L 42 55 Z" fill="#a3bbd6" fill-opacity="0.501961" />
<path d="M 59 51 L 69 51 L 69 55 L 59 55 Z" fill="#b88f3f" fill-opacity="0.501961" />
<path d="M 122 44 L 127 44 L 127 66 L 122 66 Z" fill="#416071" fill-opacity="0.501961" />
<path d="M 90 52 L 112 52 L 112 64 L 90 64 Z" fill="#a38975" fill-opacity="0.501961" />
<path d="M 6 56 L 45 56 L 45 60 L 6 60 Z" fill="#9f9b95" fill-opacity="0.501961" />
<path d="M 21 15 L 77 15 L 77 25 L 21 25 Z" fill="#cdbba0" fill-opacity="0.501961" />
<path d="M 44 38 L 88 38 L 88 50 L 44 50 Z" fill="#aaaa93" fill-opacity="0.501961" />
<path d="M 31 62 L 45 62 L 45 73 L 31 73 Z" fill="#896b3f" fill-opacity="0.501961" />
<path d="M 61 15 L 65 15 L 65 48 L 61 48 Z" fill="#cad0cf" fill-opacity="0.501961" />
<path d="M 77 0 L 82 0 L 82 19 L 77 19 Z" fill="#c09661" fill-opacity="0.501961" />
<path d="M 56 71 L 100 71 L 100 73 L 56 73 Z" fill="#b0665c" fill-opacity="0.501961" />
<path d="M 87 37 L 108 37 L 108 40 L 87 40 Z" fill="#5e807d" fill-opacity="0.501961" />
<path d="M 72 46 L 84 46 L 84 54 L 72 54 Z" fill="#9cbac7" fill-opacity="0.501961" />
<path d="M 90 33 L 127 33 L 127 35 L 90 35 Z" fill="#a5bbbf" fill-opacity="0.501961" />
<path d="M 18 31 L 26 31 L 26 37 L 18 37 Z" fill="#95b7ce" fill-opacity="0.501961" />
<path d="M 104 60 L 115 60 L 115 66 L 104 66 Z" fill="#7f6d4a" fill-opacity="0.501961" />
<path d="M 82 0 L 116 0 L 116 9 L 82 9 Z" fill="#a79b97" fill-opacity="0.501961" />
<path d="M 47 61 L 53 61 L 53 73 L 47 73 Z" fill="#828990" fill-opacity="0.501961" />
<path d="M 0 34 L 14 34 L 14 37 L 0 37 Z" fill="#918768" fill-opacity="0.501961" />
<path d="M 62 67 L 64 67 L 64 70 L 62 70 Z" fill="#2a4642" fill-opacity="0.501961" />
<path d="M 103 22 L 127 22 L 127 23 L 103 23 Z" fill="#b68e57" fill-opacity="0.501961" />
<path d="M 23 50 L 39 50 L 39 63 L 23 63 Z" fill="#90887e" fill-opacity="0.501961" />
<path d="M 18 0 L 26 0 L 26 4 L 18 4 Z" fill="#76a5c3" fill-opacity="0.501961" />
<path d="M 0 17 L 3 17 L 3 34 L 0 34 Z" fill="#b2c3b4" fill-opacity="0.501961" />
<path d="M 74 9 L 86 9 L 86 29 L 74 29 Z" fill="#c8ad83" fill-opacity="0.501961" />
<path d="M 21 9 L 53 9 L 53 30 L 21 30 Z" fill="#c6af8d" fill-opacity="0.501961" />
<path d="M 66 9 L 72 9 L 72 16 L 66 16 Z" fill="#c8ccc0" fill-opacity="0.501961" />
<path d="M 67 56 L 90 56 L 90 63 L 67 63 Z" fill="#868445" fill-opacity="0.501961" />
<path d="M 127 54 L 102 54 L 102 58 L 127 58 Z" fill="#97918a" fill-opacity="0.501961" />
<path d="M 118 28 L 127 28 L 127 33 L 118 33 Z" fill="#66a2b7" fill-opacity="0.501961" />
<path d="M 32 0 L 40 0 L 40 2 L 32 2 Z" fill="#bfc8cc" fill-opacity="0.501961" />
<path d="M 105 69 L 117 69 L 117 73 L 105 73 Z" fill="#4b6ea0" fill-opacity="0.501961" />
<path d="M 111 58 L 118 58 L 118 59 L 111 59 Z" fill="#316174" fill-opacity="0.501961" />
<path d="M 95 42 L 104 42 L 104 44 L 95 44 Z" fill="#68a1dd" fill-opacity="0.501961" />
<path d="M 114 37 L 122 37 L 122 43 L 114 43 Z" fill="#b17b61" fill-opacity="0.501961" />
<path d="M 4 25 L 38 25 L 38 28 L 4 28 Z" fill="#b1bcb7" fill-opacity="0.501961" />
<path d="M 50 41 L 59 41 L 59 44 L 50 44 Z" fill="#bc9a60" fill-opacity="0.501961" />
<path d="M 0 30 L 41 30 L 41 29 L 0 29 Z" fill="#ba9474" fill-opacity="0.501961" />
<path d="M 32 66 L 38 66 L 38 70 L 32 70 Z" fill="#4d5c6b" fill-opacity="0.501961" />
<path d="M 3 48 L 11 48 L 11 50 L 3 50 Z" fill="#af785f" fill-opacity="0.501961" />
<path d="M 86 35 L 95 35 L 95 37 L 86 37 Z" fill="#85a8c8" fill-opacity="0.501961" />
<path d="M 45 2 L 65 2 L 65 18 L 45 18 Z" fill="#c1a982" fill-opacity="0.501961" />
<path d="M 122 7 L 127 7 L 127 9 L 122 9 Z" fill="#ae7b57" fill-opacity="0.501961" />
<path d="M 85 54 L 96 54 L 96 55 L 85 55 Z" fill="#a66952" fill-opacity="0.501961" />
<path d="M 122 61 L 127 61 L 127 65 L 122 65 Z" fill="#164a77" fill-opacity="0.501961" />
<path d="M 121 72 L 124 72 L 124 73 L 121 73 Z" fill="#9e3f1f" fill-opacity="0.501961" />
<path d="M 77 64 L 83 64 L 83 73 L 77 73 Z" fill="#b68e75" fill-opacity="0.501961" />
<path d="M 24 57 L 30 57 L 30 60 L 24 60 Z" fill="#5a7478" fill-opacity="0.501961" />
<path d="M 9 16 L 14 16 L 14 17 L 9 17 Z" fill="#ca7759" fill-opacity="0.501961" />
<path d="M 67 45 L 75 45 L 75 50 L 67 50 Z" fill="#80a4ac" fill-opacity="0.501961" />
<path d="M 116 0 L 127 0 L 127 6 L 116 6 Z" fill="#739196" fill-opacity="0.501961" />
<path d="M 101 45 L 110 45 L 110 48 L 101 48 Z" fill="#a1795b" fill-opacity="0.501961" />
<path d="M 29 54 L 36 54 L 36 59 L 29 59 Z" fill="#afa99b" fill-opacity="0.501961" />
<path d="M 1 59 L 6 59 L 6 73 L 1 73 Z" fill="#457398" fill-opacity="0.501961" />
<path d="M 3 54 L 26 54 L 26 56 L 3 56 Z" fill="#6e8c9a" fill-opacity="0.501961" />
<path d="M 8 64 L 9 64 L 9 69 L 8 69 Z" fill="#394c2f" fill-opacity="0.501961" />
<path d="M 35 14 L 42 14 L 42 21 L 35 21 Z" fill="#c6beb9" fill-opacity="0.501961" />
<path d="M 52 58 L 61 58 L 61 62 L 52 62 Z" fill="#456d49" fill-opacity="0.501961" />
<path d="M 95 56 L 98 56 L 98 62 L 95 62 Z" fill="#aeaca5" fill-opacity="0.501961" />
<path d="M 97 50 L 100 50 L 100 57 L 97 57 Z" fill="#a17a61" fill-opacity="0.501961" />
<path d="M 79 41 L 102 41 L 102 40 L 79 40 Z" fill="#998c6d" fill-opacity="0.501961" />
<path d="M 92 10 L 103 10 L 103 24 L 92 24 Z" fill="#bea7ac" fill-opacity="0.501961" />
<path d="M 27 65 L 32 65 L 32 70 L 27 70 Z" fill="#ae705b" fill-opacity="0.501961" />
<path d="M 66 41 L 67 41 L 67 52 L 66 52 Z" fill="#ad8c65" fill-opacity="0.501961" />
<path d="M 37 43 L 42 43 L 42 52 L 37 52 Z" fill="#6b9fce" fill-opacity="0.501961" />
<path d="M 54 46 L 58 46 L 58 51 L 54 51 Z" fill="#7ba5b6" fill-opacity="0.501961" />
<path d="M 73 16 L 75 16 L 75 20 L 73 20 Z" fill="#cdd8d3" fill-opacity="0.501961" />
<path d="M 0 13 L 4 13 L 4 14 L 0 14 Z" fill="#d2845a" fill-opacity="0.501961" />
<path d="M 118 56 L 127 56 L 127 59 L 118 59 Z" fill="#826d55" fill-opacity="0.501961" />
<path d="M 32 9 L 35 9 L 35 11 L 32 11 Z" fill="#d7e3d9" fill-opacity="0.501961" />
<path d="M 49 57 L 52 57 L 52 59 L 49 59 Z" fill="#386c40" fill-opacity="0.501961" />
<path d="M 93 41 L 98 41 L 98 50 L 93 50 Z" fill="#93adbe" fill-opacity="0.501961" />
<path d="M 4 57 L 19 57 L 19 59 L 4 59 Z" fill="#b7a188" fill-opacity="0.501961" />
<path d="M 86 61 L 90 61 L 90 65 L 86 65 Z" fill="#bc8968" fill-opacity="0.501961" />
<path d="M 109 72 L 113 72 L 113 73 L 109 73 Z" fill="#a77283" fill-opacity="0.501961" />
<path d="M 33 43 L 36 43 L 36 47 L 33 47 Z" fill="#5698d4" fill-opacity="0.501961" />
<path d="M 69 53 L 75 53 L 75 55 L 69 55 Z" fill="#81a5c3" fill-opacity="0.501961" />
<path d="M 40 0 L 66 0 L 66 3 L 40 3 Z" fill="#a69b88" fill-opacity="0.501961" />
<path d="M 83 52 L 91 52 L 91 53 L 83 53 Z" fill="#6e99cc" fill-opacity="0.501961" />
<path d="M 52 71 L 57 71 L 57 72 L 52 72 Z" fill="#3d595d" fill-opacity="0.501961" />
<path d="M 123 23 L 127 23 L 127 32 L 123 32 Z" fill="#62959a" fill-opacity="0.501961" />
<path d="M 93 36 L 127 36 L 127 36 L 93 36 Z" fill="#5e94bc" fill-opacity="0.501961" />
<path d="M 83 55 L 87 55 L 87 61 L 83 61 Z" fill="#6a7747" fill-opacity="0.501961" />
<path d="M 57 63 L 74 63 L 74 65 L 57 65 Z" fill="#666a48" fill-opacity="0.501961" />
<path d="M 4 31 L 39 31 L 39 32 L 4 32 Z" fill="#b8c0b8" fill-opacity="0.501961" />
<path d="M 2 41 L 6 41 L 6 48 L 2 48 Z" fill="#618fab" fill-opacity="0.501961" />
<path d="M 86 47 L 91 47 L 91 49 L 86 49 Z" fill="#c29c6a" fill-opacity="0.501961" />
<path d="M 59 21 L 70 21 L 70 34 L 59 34 Z" fill="#ccd3d0" fill-opacity="0.501961" />
<path d="M 43 37 L 56 37 L 56 38 L 43 38 Z" fill="#838978" fill-opacity="0.501961" />
<path d="M 122 38 L 127 38 L 127 46 L 122 46 Z" fill="#816a48" fill-opacity="0.501961" />
<path d="M 39 23 L 41 23 L 41 34 L 39 34 Z" fill="#ccaf6d" fill-opacity="0.501961" />
<path d="M 10 37 L 20 37 L 20 52 L 10 52 Z" fill="#8f8b7a" fill-opacity="0.501961" />
<path d="M 53 67 L 60 67 L 60 69 L 53 69 Z" fill="#b0a59b" fill-opacity="0.501961" />
<path d="M 39 61 L 41 61 L 41 64 L 39 64 Z" fill="#415949" fill-opacity="0.501961" />
<path d="M 103 54 L 112 54 L 112 57 L 103 57 Z" fill="#ada79c" fill-opacity="0.501961" />
<path d="M 35 59 L 49 59 L 49 60 L 35 60 Z" fill="#a09b9f" fill-opacity="0.501961" />
<path d="M 100 45 L 102 45 L 102 43 L 100 43 Z" fill="#55a3df" fill-opacity="0.501961" />
<path d="M 15 17 L 26 17 L 26 20 L 15 20 Z" fill="#b3a07a" fill-opacity="0.501961" />
<path d="M 15 3 L 30 3 L 30 9 L 15 9 Z" fill="#9ea59b" fill-opacity="0.501961" />
<path d="M 49 45 L 51 45 L 51 53 L 49 53 Z" fill="#c29a73" fill-opacity="0.501961" />
<path d="M 68 36 L 83 36 L 83 44 L 68 44 Z" fill="#b1a48b" fill-opacity="0.501961" />
<path d="M 39 55 L 43 55 L 43 56 L 39 56 Z" fill="#9e724e" fill-opacity="0.501961" />
<path d="M 104 19 L 111 19 L 111 24 L 104 24 Z" fill="#c19474" fill-opacity="0.501961" />
<path d="M 44 39 L 48 39 L 48 45 L 44 45 Z" fill="#81abaf" fill-opacity="0.501961" />
<path d="M 106 40 L 111 40 L 111 45 L 106 45 Z" fill="#a98d79" fill-opacity="0.501961" />
<path d="M 8 1 L 11 1 L 11 0 L 8 0 Z" fill="#d68655" fill-opacity="0.501961" />
<path d="M 98 62 L 102 62 L 102 68 L 98 68 Z" fill="#6b8389" fill-opacity="0.501961" />
<path d="M 103 30 L 119 30 L 119 32 L 103 32 Z" fill="#b0b5a0" fill-opacity="0.501961" />
<path d="M 86 66 L 98 66 L 98 71 L 86 71 Z" fill="#7c7e7d" fill-opacity="0.501961" />
<path d="M 30 45 L 32 45 L 32 51 L 30 51 Z" fill="#977c64" fill-opacity="0.501961" />
<path d="M 116 67 L 118 67 L 118 69 L 116 69 Z" fill="#a36b52" fill-opacity="0.501961" />
<path d="M 30 71 L 39 71 L 39 73 L 30 73 Z" fill="#b07747" fill-opacity="0.501961" />
<path d="M 50 15 L 52 15 L 52 16 L 50 16 Z" fill="#c7d8e2" fill-opacity="0.501961" />
<path d="M 2 52 L 9 52 L 9 53 L 2 53 Z" fill="#497190" fill-opacity="0.501961" />
<path d="M 1 8 L 17 8 L 17 12 L 1 12 Z" fill="#96b2b6" fill-opacity="0.501961" />
<path d="M 124 71 L 127 71 L 127 73 L 124 73 Z" fill="#21485e" fill-opacity="0.501961" />
<path d="M 17 36 L 40 36 L 40 36 L 17 36 Z" fill="#71a6d0" fill-opacity="0.501961" />
<path d="M 89 53 L 99 53 L 99 56 L 89 56 Z" fill="#b57f6a" fill-opacity="0.501961" />
<path d="M 9 61 L 16 61 L 16 70 L 9 70 Z" fill="#5a726c" fill-opacity="0.501961" />
<path d="M 16 58 L 23 58 L 23 61 L 16 61 Z" fill="#afa399" fill-opacity="0.501961" />
<path d="M 102 71 L 106 71 L 106 73 L 102 73 Z" fill="#35506b" fill-opacity="0.501961" />
<path d="M 59 14 L 61 14 L 61 16 L 59 16 Z" fill="#cdd5db" fill-opacity="0.501961" />
<path d="M 33 52 L 37 52 L 37 54 L 33 54 Z" fill="#a17d58" fill-opacity="0.501961" />
<path d="M 0 50 L 5 50 L 5 51 L 0 51 Z" fill="#b88469" fill-opacity="0.501961" />
<path d="M 124 9 L 127 9 L 127 20 L 124 20 Z" fill="#6f9fa3" fill-opacity="0.501961" />
<path d="M 81 66 L 89 66 L 89 68 L 81 68 Z" fill="#86634a" fill-opacity="0.501961" />
<path d="M 116 51 L 119 51 L 119 55 L 116 55 Z" fill="#a1714f" fill-opacity="0.501961" />
<path d="M 122 21 L 127 21 L 127 22 L 122 22 Z" fill="#a47c4b" fill-opacity="0.501961" />
<path d="M 61 42 L 64 42 L 64 50 L 61 50 Z" fill="#bdc5cc" fill-opacity="0.501961" />
<path d="M 39 66 L 43 66 L 43 71 L 39 71 Z" fill="#ab8d41" fill-opacity="0.501961" />
<path d="M 8 21 L 18 21 L 18 25 L 8 25 Z" fill="#89adad" fill-opacity="0.501961" />
<path d="M 79 63 L 82 63 L 82 65 L 79 65 Z" fill="#a9afa4" fill-opacity="0.501961" />
<path d="M 72 23 L 95 23 L 95 35 L 72 35 Z" fill="#c4b69a" fill-opacity="0.501961" />
<path d="M 59 38 L 71 38 L 71 40 L 59 40 Z" fill="#c9c4b2" fill-opacity="0.501961" />
<path d="M 1 16 L 7 16 L 7 21 L 1 21 Z" fill="#96bcc3" fill-opacity="0.501961" />
<path d="M 5 33 L 8 33 L 8 39 L 5 39 Z" fill="#637567" fill-opacity="0.501961" />
<path d="M 83 20 L 90 20 L 90 21 L 83 21 Z" fill="#ab9263" fill-opacity="0.501961" />
<path d="M 25 72 L 28 72 L 28 73 L 25 73 Z" fill="#3d699f" fill-opacity="0.501961" />
<path d="M 56 56 L 71 56 L 71 58 L 56 58 Z" fill="#6b6f4c" fill-opacity="0.501961" />
<path d="M 116 26 L 125 26 L 125 26 L 116 26 Z" fill="#c5a247" fill-opacity="0.501961" />
<path d="M 61 67 L 63 67 L 63 69 L 61 69 Z" fill="#384f3e" fill-opacity="0.501961" />
<path d="M 53 17 L 57 17 L 57 31 L 53 31 Z" fill="#cdcab6" fill-opacity="0.501961" />
<path d="M 64 65 L 66 65 L 66 73 L 64 73 Z" fill="#8c8283" fill-opacity="0.501961" />
<path d="M 113 12 L 121 12 L 121 9 L 113 9 Z" fill="#bba477" fill-opacity="0.501961" />
<path d="M 117 12 L 127 12 L 127 16 L 117 16 Z" fill="#96aea7" fill-opacity="0.501961" />
<path d="M 22 38 L 26 38 L 26 46 L 22 46 Z" fill="#b79c7f" fill-opacity="0.501961" />
<path d="M 0 62 L 4 62 L 4 66 L 0 66 Z" fill="#728c98" fill-opacity="0.501961" />
<path d="M 121 53 L 127 53 L 127 55 L 121 55 Z" fill="#507291" fill-opacity="0.501961" />
<path d="M 73 66 L 79 66 L 79 68 L 73 68 Z" fill="#b3a88f" fill-opacity="0.501961" />
<path d="M 48 61 L 51 61 L 51 64 L 48 64 Z" fill="#a29aa2" fill-opacity="0.501961" />
<path d="M 43 27 L 45 27 L 45 35 L 43 35 Z" fill="#cab7c2" fill-opacity="0.501961" />
<path d="M 82 11 L 95 11 L 95 14 L 82 14 Z" fill="#c19878" fill-opacity="0.501961" />
<path d="M 111 0 L 127 0 L 127 0 L 111 0 Z" fill="#848062" fill-opacity="0.501961" />
<path d="M 116 64 L 119 64 L 119 66 L 116 66 Z" fill="#477fa8" fill-opacity="0.501961" />
<path d="M 113 19 L 118 19 L 118 22 L 113 22 Z" fill="#8daea6" fill-opacity="0.501961" />
<path d="M 6 42 L 10 42 L 10 44 L 6 44 Z" fill="#a0aeb5" fill-opacity="0.501961" />
<path d="M 44 9 L 47 9 L 47 13 L 44 13 Z" fill="#d0cbaf" fill-opacity="0.501961" />
<path d="M 122 66 L 127 66 L 127 69 L 122 69 Z" fill="#627b95" fill-opacity="0.501961" />
<path d="M 91 24 L 103 24 L 103 26 L 91 26 Z" fill="#b1988e" fill-opacity="0.501961" />
<path d="M 74 51 L 57 51 L 57 51 L 74 51 Z" fill="#b49858" fill-opacity="0.501961" />
<path d="M 68 0 L 82 0 L 82 1 L 68 1 Z" fill="#b48a61" fill-opacity="0.501961" />
<path d="M 37 8 L 42 8 L 42 13 L 37 13 Z" fill="#cba16c" fill-opacity="0.501961" />
<path d="M 20 6 L 22 6 L 22 21 L 20 21 Z" fill="#b1a87f" fill-opacity="0.501961" />
<path d="M 71 7 L 74 7 L 74 12 L 71 12 Z" fill="#c7cbb3" fill-opacity="0.501961" />
<path d="M 28 39 L 31 39 L 31 40 L 28 40 Z" fill="#68a7da" fill-opacity="0.501961" />
<path d="M 59 45 L 60 45 L 60 51 L 59 51 Z" fill="#bb9767" fill-opacity="0.501961" />
<path d="M 53 14 L 57 14 L 57 15 L 53 15 Z" fill="#c5805a" fill-opacity="0.501961" />
<path d="M 0 53 L 2 53 L 2 56 L 0 56 Z" fill="#656d59" fill-opacity="0.501961" />
<path d="M 90 43 L 95 43 L 95 48 L 90 48 Z" fill="#a6b6b3" fill-opacity="0.501961" />
<path d="M 70 20 L 76 20 L 76 23 L 70 23 Z" fill="#c4af86" fill-opacity="0.501961" />
<path d="M 74 52 L 79 52 L 79 55 L 74 55 Z" fill="#b5bbc5" fill-opacity="0.501961" />
<path d="M 0 69 L 5 69 L 5 73 L 0 73 Z" fill="#315d85" fill-opacity="0.501961" />
<path d="M 78 41 L 89 41 L 89 42 L 78 42 Z" fill="#ae8d64" fill-opacity="0.501961" />
<path d="M 99 10 L 101 10 L 101 14 L 99 14 Z" fill="#c9c6d0" fill-opacity="0.501961" />
<path d="M 12 1 L 16 1 L 16 8 L 12 8 Z" fill="#baa989" fill-opacity="0.501961" />
<path d="M 108 68 L 115 68 L 115 69 L 108 69 Z" fill="#2d6594" fill-opacity="0.501961" />
<path d="M 31 24 L 33 24 L 33 28 L 31 28 Z" fill="#c0bed3" fill-opacity="0.501961" />
</g>
</svg>
