<?xml version="1.0" standalone="no"?>
<!DOCTYPE svg PUBLIC "-//W3C//DTD SVG 20010904//EN"
 "http://www.w3.org/TR/2001/REC-SVG-20010904/DTD/svg10.dtd">
<svg version="1.0" xmlns="http://www.w3.org/2000/svg"
 width="360.000000pt" height="526.800000pt" viewBox="0 0 360.000000 526.800000"
 preserveAspectRatio="xMidYMid meet">
<metadata>
Created by potrace 1.15, written by Peter Selinger 2001-2017
</metadata>
<g transform="translate(0.000000,526.800000) scale(1.200000,-1.200000)"
fill="#778a9d" stroke="none">
<path fill="#778a9d" stroke="none" d="M148 436 c0 0 2 0 2 0 1 1 0 1 -1 1 -1
0 -2 0 -1 -1z"/>
<path fill="#778a9d" stroke="none" d="M152 437 c0 -1 0 -1 1 -1 0 0 0 0 0 1
0 0 0 0 0 0 -1 0 -1 0 -1 0z"/>
<path fill="#778a9d" stroke="none" d="M158 436 c1 0 3 0 3 0 1 1 0 1 -1 1 -2
0 -3 0 -2 -1z"/>
<path fill="#778a9d" stroke="none" d="M178 436 c2 0 4 0 6 0 1 1 0 1 -3 1 -3
0 -4 0 -3 -1z"/>
<path fill="#778a9d" stroke="none" d="M281 413 c-1 -1 -2 -2 -3 -2 -1 0 -3
-1 -5 -2 -4 -2 -4 -2 -3 -3 3 -3 2 -3 -5 -1 -11 4 -23 2 -17 -2 2 -1 3 -2 4
-2 0 0 2 -1 3 -3 1 -2 4 -4 6 -5 3 -1 4 -3 1 -5 -1 -1 -3 -1 -6 1 -6 2 -10 2
-10 -1 1 -1 1 -2 1 -2 0 -1 2 -1 4 -1 3 1 5 0 7 -1 1 0 4 -1 6 -1 2 0 3 0 3
-1 0 -1 -4 -2 -19 -3 -11 -1 -21 -2 -23 -2 -2 -1 -5 -1 -6 -2 -1 0 -7 -1 -13
-1 -6 0 -11 -1 -12 -1 -1 0 -2 1 -2 5 -1 9 -5 13 -6 8 -1 -2 -2 -3 -3 -3 -3 0
-8 -4 -9 -7 0 -1 -1 -3 -2 -3 -2 -1 -4 -2 -5 -3 -1 0 -4 -1 -6 -1 -5 0 -7 -5
-5 -9 3 -4 14 -14 16 -14 1 0 2 -1 3 -2 1 -1 1 -1 3 0 4 2 5 1 3 -2 -1 -2 -2
-3 -4 -3 -2 0 -3 -1 -4 -2 0 -1 -1 -4 -2 -5 -4 -4 -5 -6 -1 -6 3 1 2 2 8 -13
2 -5 3 -9 2 -9 -1 -1 -8 -3 -9 -2 -1 0 -3 1 -5 2 -2 1 -4 3 -5 4 -2 4 -6 9 -8
9 0 0 -1 1 -2 2 0 2 6 8 10 11 2 1 1 9 -1 10 -2 1 -3 0 -8 -5 -9 -8 -18 -15
-23 -15 -1 0 0 -1 1 -2 5 -2 4 -6 -2 -12 -3 -3 -5 -7 -7 -12 -3 -6 -6 -10 -8
-8 -1 0 0 1 0 2 1 1 2 2 2 3 0 3 -6 -4 -9 -10 -1 -3 -6 -9 -14 -16 -7 -7 -14
-14 -15 -16 -1 -3 -4 -6 -6 -8 -4 -3 -5 -4 -6 -11 -1 -4 -1 -8 -2 -9 0 -1 0
-2 1 -2 5 0 4 -4 -1 -7 -3 -2 -4 -1 -4 7 0 4 -1 7 -1 8 -2 2 -2 3 -1 5 1 2 2
3 1 3 0 1 1 1 1 2 2 2 2 5 0 5 0 0 -2 -2 -3 -3 -1 -4 -4 -6 -6 -4 0 1 -4 1 -8
2 -9 0 -9 0 -5 2 3 2 9 2 12 1 1 -1 2 -1 3 0 3 2 2 3 -1 3 -2 0 -3 0 -2 3 0 1
0 3 1 3 3 2 -2 2 -7 1 -15 -3 -24 -5 -23 -3 0 1 -1 2 -1 3 -3 3 -1 4 2 4 5 -1
19 1 22 2 2 1 3 2 3 4 0 2 0 3 2 3 1 0 2 0 3 1 0 0 4 1 8 1 7 1 8 1 9 -1 1 -1
2 -2 3 -2 2 0 1 -2 -1 -4 -3 -2 1 -1 4 1 3 2 4 6 2 6 -2 1 2 8 4 9 1 0 3 1 5
2 1 2 3 4 5 5 9 7 14 13 13 14 0 1 -1 2 0 2 1 2 -5 0 -7 -1 -1 -1 -1 -1 -2 0
-2 2 5 6 23 14 2 0 3 2 3 3 0 3 -2 3 -9 0 -4 -1 -8 -2 -10 -2 -2 0 -5 0 -7 -1
-1 -1 -8 -1 -15 -2 -7 0 -14 0 -14 -1 -1 0 -1 -6 0 -6 1 0 1 -1 1 -2 -1 -1 -9
-2 -22 -3 -16 0 -22 -1 -22 -3 1 -1 4 -1 13 -1 15 0 19 -1 13 -3 -2 -1 -7 -2
-10 -2 -5 0 -7 0 -7 -1 -1 -1 -1 -2 0 -2 3 -2 25 -1 25 2 0 0 1 1 1 1 1 0 1 0
0 1 -1 2 -1 2 2 3 2 0 3 0 3 -1 1 -2 2 -2 3 -1 2 2 16 4 17 3 2 -2 -6 -5 -9
-4 -4 1 -6 0 -5 -2 1 -1 2 -1 3 -1 0 0 1 0 1 -1 0 0 1 -1 3 -1 l2 -1 -2 -2
c-4 -3 -19 -5 -22 -3 0 1 -2 0 -6 -1 -7 -3 -23 -3 -32 0 -4 2 -8 3 -9 2 -2 0
-2 -6 0 -8 1 -1 1 -1 -1 -3 -3 -3 -4 -9 -2 -13 1 -2 1 -3 0 -4 -3 -3 -2 -28 1
-32 1 -2 1 -2 0 -5 -3 -5 -3 -23 0 -26 3 -2 11 -3 15 -1 3 1 8 1 8 -1 0 -2 -7
-4 -14 -4 -8 -1 -10 -3 -8 -5 3 -4 19 0 32 6 3 2 9 3 12 4 3 0 7 1 8 2 2 1 4
2 6 3 4 2 20 5 21 3 1 0 -1 -1 -5 -3 -4 -1 -7 -3 -7 -3 -1 0 -5 -2 -10 -3 -5
-1 -12 -4 -16 -6 -4 -2 -10 -5 -12 -6 -6 -3 -10 -7 -10 -9 0 -4 -5 -5 -7 -2
-2 2 -4 1 -7 -1 -2 -2 -2 -2 0 -2 1 -1 2 -2 3 -3 1 -1 2 -2 3 -2 3 0 4 -1 6
-3 2 -5 -1 -6 -6 -2 -3 3 -9 5 -9 3 0 -1 -1 -1 -1 -1 -2 0 -3 -3 -2 -5 1 -2 1
-3 0 -5 -3 -7 2 -11 18 -11 7 0 7 1 7 3 0 3 3 5 8 3 2 0 6 -1 9 -1 5 -1 5 -1
9 3 3 4 4 6 0 7 -2 0 -3 2 0 2 1 0 2 1 4 2 2 2 2 2 3 0 2 -1 2 -1 5 2 4 5 7 4
6 -3 -2 -9 0 -14 5 -16 5 -3 10 -7 10 -8 0 -1 -4 -1 -6 0 -3 1 -4 -1 -1 -3 1
-1 3 -2 4 -2 2 0 6 -1 8 -3 3 -1 6 -2 7 -2 3 0 3 -2 0 -3 -2 -1 -2 -6 0 -6 3
0 6 -3 4 -5 0 -1 -2 -3 -3 -5 -1 -2 -2 -4 -4 -4 -1 -1 -4 -3 -6 -4 -6 -3 -24
-4 -31 -2 -6 2 -7 1 -2 -3 4 -2 5 -2 18 -2 10 0 13 -1 12 -2 0 0 -1 -1 -1 -1
0 0 -1 -1 -1 -2 0 -1 -2 -2 -8 -2 -4 0 -8 0 -11 -1 -6 -3 -7 -2 -7 3 1 4 1 4
-2 3 -4 0 -8 2 -8 6 0 4 -9 1 -9 -3 -1 -3 -3 -3 -6 -1 -2 2 -14 7 -15 7 -1 -1
3 -5 5 -5 0 0 1 -1 2 -2 0 0 2 -1 5 -2 4 0 7 -2 12 -7 3 -3 3 -4 2 -7 0 -6 -2
-7 -4 -5 -1 2 -1 2 -3 1 -1 -1 -3 -2 -4 -3 -3 0 -4 -3 -1 -3 2 0 7 -2 7 -3 0
-1 -1 -1 -4 0 -1 0 -4 1 -7 2 -4 1 -4 1 -4 4 0 3 -1 4 -6 8 -9 7 -8 14 1 7 7
-5 8 -6 10 -5 1 1 -4 8 -6 8 -2 0 -9 4 -9 6 0 0 -1 1 -2 2 -2 1 -5 7 -4 8 1 0
2 2 3 4 1 2 1 3 3 2 2 0 3 0 3 1 1 1 3 0 3 -2 0 -2 2 -3 3 0 1 4 5 8 8 8 1 0
4 1 6 2 l4 2 -2 2 -2 2 4 4 c3 3 5 6 5 6 0 1 -4 1 -8 1 -4 0 -8 -1 -8 -1 0 -1
-1 -1 -1 -1 -1 0 -1 0 -2 -1 0 0 1 -1 1 -1 1 0 2 -1 2 -2 0 -2 0 -2 -2 -1 -1
1 -2 2 -2 3 0 1 -2 2 -4 2 -7 1 -8 1 -8 -1 0 -4 -3 -9 -5 -9 -1 0 -1 1 -1 4 1
2 1 4 1 5 0 0 1 1 2 1 2 1 1 3 -1 4 -1 0 -3 1 -3 1 -1 1 -1 0 -2 -1 0 -2 -1
-3 -1 -2 -3 1 -3 -4 0 -8 2 -4 2 -4 0 -4 -2 1 -2 0 -1 -5 0 -2 1 -3 2 -3 0 0
1 -1 0 -2 0 -2 0 -2 1 -1 1 3 3 2 2 0 0 -1 -1 -3 -1 -3 0 0 -1 -2 -1 -3 0 -2
0 -4 -1 -5 -1 -1 -1 -2 0 -2 1 -1 1 -2 1 -3 0 0 0 -1 -1 -1 0 1 -1 0 -2 0 -2
-1 1 -7 5 -10 2 -2 3 -6 1 -6 0 0 -2 1 -4 1 -3 1 -4 1 -5 0 -1 -1 -1 -49 0
-57 l0 -7 4 0 c3 1 5 0 7 -1 2 -1 5 -1 20 -1 17 1 18 1 20 3 l2 2 2 -2 c3 -2
9 -2 9 0 0 0 2 1 3 1 4 1 5 0 2 -2 -1 -2 -1 -2 2 -2 3 0 6 2 6 4 0 2 0 3 3 3
4 1 13 0 13 -1 0 -1 9 -3 17 -4 5 0 7 0 6 1 -1 1 -1 1 0 1 1 0 1 3 -1 5 -2 2
-3 4 -1 4 1 0 1 0 1 1 0 1 -1 1 -2 1 -2 0 -4 1 -4 1 -1 2 -3 2 -6 1 -3 -1 -4
-1 -5 0 -1 0 -3 1 -6 1 -2 0 -4 0 -4 1 0 1 0 2 0 3 0 1 -1 1 -2 2 -2 0 -4 1
-5 3 -2 2 -4 3 -4 3 -2 0 -13 11 -12 12 0 1 4 1 4 0 1 -1 2 -1 3 0 3 2 5 0 3
-3 -2 -1 -2 -3 0 -3 1 0 2 -1 3 -2 1 -1 3 -1 9 -1 7 1 9 0 6 -4 -1 -2 2 -8 5
-8 2 0 7 5 7 7 0 2 -7 8 -10 8 0 0 -1 0 0 1 0 1 0 1 -1 1 0 -1 -1 0 -1 2 -1 1
-1 2 -1 2 3 2 12 4 16 5 2 0 5 1 6 1 0 1 2 1 3 0 3 -2 6 -1 6 1 1 2 1 2 3 2 3
-2 6 0 5 2 0 2 0 2 1 2 1 0 2 -2 2 -4 0 -2 1 -3 4 -3 3 0 4 0 4 -2 0 -3 3 -6
8 -8 6 -2 7 -3 4 -5 -1 -1 -3 -2 -4 -3 -5 -4 -10 -7 -12 -7 -4 0 -8 -2 -9 -4
0 -1 -2 -3 -4 -4 -2 -1 -3 -1 -2 -2 1 0 1 -1 1 -2 -1 -2 1 -7 3 -7 1 0 1 0 0
-1 -1 -1 -1 -1 2 -1 2 0 3 0 3 1 -1 0 0 1 1 1 2 0 2 1 1 2 -5 5 0 7 8 4 3 -2
4 -4 0 -5 -2 0 -2 -1 -1 -3 2 -2 3 -2 8 -2 6 1 6 1 21 1 6 0 15 0 20 1 4 0 9
0 10 0 2 -1 47 -3 59 -2 3 0 12 0 21 0 16 0 17 0 16 5 0 2 0 2 -6 2 -3 -1 -7
-1 -9 -2 -2 0 -2 0 -2 1 0 1 3 2 7 2 10 1 10 1 10 9 l0 7 -2 -4 c0 -2 -1 -3
-2 -2 -1 0 -1 3 0 3 1 1 1 1 -1 2 -2 1 -2 1 -5 -2 l-3 -2 -1 2 c-2 6 -2 8 0 8
1 1 1 1 -2 1 -4 1 -5 3 -4 7 0 4 4 7 9 9 2 1 4 2 4 2 2 2 3 1 3 -3 -1 -4 0 -5
3 -3 2 1 2 24 0 27 -1 1 -1 2 0 3 0 1 1 7 1 17 0 8 0 16 0 19 1 3 1 4 -1 7 -3
3 -3 3 -1 5 1 1 2 4 2 6 1 8 0 21 -1 24 -1 1 -2 3 -2 5 -1 2 -1 2 1 4 4 5 1
17 -4 17 -1 0 -1 1 0 2 0 2 0 3 -1 3 -1 1 -1 2 -1 3 0 3 -2 3 -5 1 -4 -3 -12
-3 -13 -1 0 2 1 2 2 2 3 0 3 0 3 4 l1 4 5 1 5 0 4 -6 c4 -6 6 -7 6 0 0 3 0 5
-1 5 -1 0 -1 1 0 2 2 2 2 24 -1 26 -1 1 -1 2 1 4 2 1 2 24 0 34 -1 6 -1 7 0 8
2 1 1 6 -2 7 -2 0 -3 1 -3 2 0 0 1 1 3 2 3 1 3 2 3 6 0 5 0 5 -2 3 -1 -1 -2
-2 -4 -1 -2 0 -3 0 -3 -1 -1 -1 -2 -1 -2 -1 -1 0 -1 1 0 2 1 0 2 1 3 1 0 0 2
2 2 3 1 2 2 4 3 4 2 2 1 3 -2 3 -2 0 -4 0 -4 1 0 2 3 6 6 7 3 1 4 6 2 7 -1 1
-1 1 0 3 1 2 1 12 0 12 -1 0 -1 0 -1 -1 0 -1 -4 -1 -4 0 -1 0 0 1 1 2 2 1 -7
0 -10 -1 -1 -1 -4 -1 -6 -1 -3 1 -5 0 -6 0 0 -2 -5 -1 -6 1 -2 1 -3 1 -3 -1 0
-3 1 -3 10 -4 6 0 12 -2 10 -3 -1 -1 -16 -3 -21 -3 -3 0 -5 0 -5 -1 0 -1 -1
-1 -2 -1 -1 0 -2 -1 -2 -1 0 -1 1 -3 2 -4 2 -2 3 -5 1 -5 0 0 -2 2 -3 4 -1 1
-3 3 -3 3 -1 0 -3 4 -4 9 0 2 -1 6 -3 8 -1 2 -3 6 -4 8 -2 5 -2 4 -3 3 -2 -1
-7 1 -15 9 -3 2 -5 4 -6 4 -1 0 -1 0 -1 1 1 0 3 1 5 0 3 0 3 0 3 1 -1 2 0 2 4
2 6 0 6 0 3 -2 -1 -2 -2 -2 -4 -2 l-3 1 2 -2 c1 -1 4 -3 5 -4 6 -6 10 -7 6 -3
-4 5 5 7 13 2 4 -2 5 -2 9 -1 5 1 11 -1 14 -4 2 -2 2 -2 -1 -2 -2 -1 -6 -1 -9
0 -5 1 -13 1 -13 -1 0 -1 4 -5 8 -6 2 0 4 -1 5 -1 1 -1 2 -1 3 0 1 0 4 1 7 1
3 0 6 1 10 2 4 3 7 3 7 1 0 -2 4 -1 6 3 3 4 3 4 4 1 1 -2 1 -1 2 3 1 9 0 17
-3 19 -2 1 -2 2 -2 4 1 1 1 3 0 4 -2 1 -1 4 2 4 2 0 3 8 3 25 l0 8 -6 3 c-6 2
-9 3 -12 1z"/>
<path fill="#ebeae8" stroke="none" d="M286 408 c0 -1 0 -1 -1 -1 -1 0 -1 0 0
1 0 1 0 1 1 1 0 0 0 0 0 -1z"/>
<path fill="#ebeae8" stroke="none" d="M280 382 c-1 0 -1 0 -2 0 -1 1 -1 1 0
1 1 0 2 0 2 -1z"/>
<path fill="#ebeae8" stroke="none" d="M174 364 c0 -1 0 -2 -1 -2 0 0 0 1 0 2
0 0 0 1 1 1 1 0 1 -1 0 -1z"/>
<path fill="#ebeae8" stroke="none" d="M211 364 c0 0 -2 0 -2 0 -1 1 0 1 1 1
1 0 2 0 1 -1z"/>
<path fill="#ebeae8" stroke="none" d="M204 359 c-1 0 -2 -1 -3 0 -2 0 -1 1 1
1 1 0 2 0 2 -1z"/>
<path fill="#ebeae8" stroke="none" d="M289 358 c0 -3 -4 -4 -5 -2 -2 2 0 4 2
4 2 0 3 -1 3 -2z"/>
<path fill="#ebeae8" stroke="none" d="M213 351 c1 -1 4 -2 6 -3 6 -3 8 -6 6
-10 -2 -2 -2 -3 -1 -3 2 -1 0 -6 -2 -7 -3 -2 -9 2 -12 8 -2 4 -3 5 -5 6 -6 1
-6 5 0 6 1 0 3 0 3 0 0 0 -1 1 -3 2 -3 2 -4 4 -1 4 2 1 6 -1 9 -3z"/>
<path fill="#ebeae8" stroke="none" d="M280 347 c0 -1 0 -1 0 -1 -1 0 -1 0 -1
1 0 0 0 0 1 0 0 0 0 0 0 0z"/>
<path fill="#ebeae8" stroke="none" d="M183 332 c0 -1 0 -2 -1 -2 -1 0 -2 0
-2 2 0 1 3 1 3 0z"/>
<path fill="#ebeae8" stroke="none" d="M201 332 c2 -2 1 -3 -2 -4 -4 -2 -3 -2
-6 0 -3 3 -3 5 2 5 3 0 5 -1 6 -1z"/>
<path fill="#ebeae8" stroke="none" d="M205 319 c1 -1 1 -1 0 -2 0 -1 -1 -2
-1 -4 0 -1 0 -2 -1 -2 -1 0 -1 2 -1 5 0 4 0 5 3 3z"/>
<path fill="#ebeae8" stroke="none" d="M187 304 c1 -2 -1 -2 -3 -2 -1 1 -2 2
-1 2 0 1 3 1 4 0z"/>
<path fill="#ebeae8" stroke="none" d="M168 301 c0 -1 1 -1 1 -1 9 1 12 -2 5
-5 -4 -2 -3 -3 4 -2 4 0 6 1 7 2 2 3 4 0 2 -3 -1 -2 -1 -9 0 -12 1 -4 0 -4 -4
-3 -4 1 -5 1 -3 -2 1 -3 8 -3 11 -1 2 2 2 3 2 9 -1 8 0 11 4 9 1 -1 3 -1 3 -1
0 0 2 -1 3 -2 2 -2 2 -2 1 -5 -2 -7 -1 -15 2 -12 2 2 4 1 4 -1 0 -7 -1 -9 -9
-14 -8 -5 -8 -6 -6 -6 2 0 3 -1 4 -2 0 -2 1 -3 2 -3 1 -1 1 -2 0 -3 -2 -1 -9
-1 -14 0 -5 2 -6 2 -4 -1 3 -5 -1 -8 -4 -4 -1 1 -2 2 -3 1 0 0 0 0 1 -1 0 0 1
-1 1 -1 0 -1 1 -2 2 -3 2 -1 2 -2 1 -5 0 -2 -1 -5 -1 -7 0 -3 -1 -5 -3 -8 -4
-5 -8 -14 -8 -18 0 0 -1 -3 -2 -5 -2 -4 -2 -5 -1 -9 1 -5 1 -8 -4 -12 -1 -2
-3 -5 -3 -7 -1 -2 -2 -6 -3 -8 -1 -2 -2 -6 -2 -7 -1 -3 -1 -3 -3 -2 -1 1 -2 1
-3 1 0 -1 4 -13 6 -16 1 -1 1 -3 1 -7 -1 -8 3 -14 7 -9 2 2 6 1 6 -1 0 -4 6
-7 12 -6 5 1 11 1 17 -1 5 -2 16 2 20 7 3 4 5 4 5 -1 1 -3 2 -5 5 -8 5 -4 5
-6 4 -10 -3 -6 -3 -6 2 -5 5 0 7 -1 4 -3 -1 -2 -4 -2 -8 -2 l-5 0 0 -4 c0 -4
0 -4 -3 -4 -2 0 -4 -1 -5 -2 -3 -1 -7 -1 -8 1 0 1 -2 1 -4 0 -2 -1 -4 -2 -5
-2 -2 0 -5 -1 -7 -2 -3 -1 -4 -1 -5 0 -2 1 1 4 4 4 3 1 5 6 2 8 0 0 -1 1 -1 2
0 1 -2 1 -4 1 -2 0 -4 0 -4 1 0 1 6 1 12 -1 2 0 5 -1 6 -1 2 -1 3 -2 4 -2 2
-2 4 -1 4 1 0 3 3 7 7 7 5 0 7 7 5 13 -2 4 -6 1 -5 -3 0 -3 -3 -5 -6 -3 -4 2
-12 2 -15 1 -2 -1 -6 -3 -9 -4 -6 -1 -6 -1 -5 -4 1 -1 2 -2 2 -2 0 -1 -11 -3
-12 -2 -3 0 -3 -2 -2 -6 0 -2 2 -3 6 -5 2 -1 5 -3 5 -4 0 -2 -5 -3 -8 -1 -1 0
-4 1 -7 2 -8 0 -12 4 -8 6 1 1 2 1 2 2 -1 1 1 9 3 11 1 1 1 2 0 2 -1 0 -1 3 0
4 2 1 3 7 2 10 0 2 -2 2 -7 0 -4 -2 -5 -2 -7 0 -7 3 -10 0 -8 -8 1 -6 0 -15
-2 -19 -1 -2 -1 -3 0 -4 0 -1 1 -2 1 -4 0 -2 0 -2 -6 -2 -3 0 -5 0 -6 0 0 -2
-5 -1 -5 0 -1 1 0 3 2 4 4 1 5 6 3 7 -3 2 -2 5 0 5 1 0 2 1 2 1 0 2 -4 6 -4 4
0 0 0 -1 0 -2 0 -2 0 -2 -3 -2 -4 1 -6 -1 -10 -7 -1 -2 -3 -3 -4 -4 -3 -1 -5
-4 -5 -7 0 -1 1 -2 7 -4 7 -2 8 -3 9 -7 1 -3 -1 -3 -3 0 0 1 -3 2 -5 2 -2 1
-4 2 -5 2 -4 2 -9 3 -13 2 -5 0 -5 0 -3 7 1 7 3 8 11 8 6 1 7 4 2 4 -5 0 -4 2
1 5 4 2 5 2 4 -2 l0 -3 2 2 c2 1 3 4 4 5 3 7 10 11 13 8 2 -3 3 -2 3 0 -1 1 0
3 1 4 2 2 3 4 3 5 1 1 2 2 3 2 1 0 2 1 2 3 0 1 0 2 1 2 2 0 1 2 -1 5 -4 5 -4
13 2 36 1 8 1 8 0 15 0 4 0 5 1 6 2 0 2 11 -1 13 -1 1 -1 2 0 8 1 3 1 8 2 11
0 2 1 5 4 7 3 3 8 12 11 22 1 3 3 6 5 7 2 3 2 3 1 4 -1 1 -1 3 -1 4 1 3 6 3 9
0 2 -2 3 -3 3 0 0 0 0 1 -1 1 -1 0 -1 1 -1 3 1 1 1 2 0 1 0 -2 -2 -1 -1 1 0 1
0 1 -2 2 -1 0 -1 1 -1 5 0 7 -2 18 -5 26 -3 8 -3 9 -2 9 1 0 2 0 3 -1z"/>
<path fill="#ebeae8" stroke="none" d="M283 299 c-1 0 -3 0 -4 0 -1 1 0 1 2 1
2 0 3 0 2 -1z"/>
<path fill="#ebeae8" stroke="none" d="M90 295 c-3 -2 -5 -2 -3 0 1 0 2 1 3 1
2 0 2 0 0 -1z"/>
<path fill="#ebeae8" stroke="none" d="M128 283 c-3 -7 -8 -11 -10 -10 -1 1 0
2 4 6 3 3 5 6 5 7 0 1 1 3 2 4 3 5 2 -1 -1 -7z"/>
<path fill="#ebeae8" stroke="none" d="M267 288 c-1 0 -1 0 -1 1 0 1 0 1 1 1
0 -1 0 -1 0 -2z"/>
<path fill="#ebeae8" stroke="none" d="M282 282 c1 -1 -2 -3 -4 -3 -3 0 -2 3
0 3 3 1 4 1 4 0z"/>
<path fill="#ebeae8" stroke="none" d="M248 277 c0 -1 0 -2 0 -2 -1 0 -1 1 -1
2 -1 0 -1 1 0 1 1 0 1 -1 1 -1z"/>
<path fill="#ebeae8" stroke="none" d="M166 273 c-1 -1 -7 0 -7 2 0 0 1 1 3 1
3 1 6 -1 4 -3z"/>
<path fill="#ebeae8" stroke="none" d="M12 274 c0 -1 -1 -1 -2 0 0 0 -1 1 0 1
0 1 1 1 2 0 0 0 1 -1 0 -1z"/>
<path fill="#ebeae8" stroke="none" d="M252 275 c-1 0 -1 0 -2 0 0 1 0 1 1 1
1 0 1 0 1 -1z"/>
<path fill="#ebeae8" stroke="none" d="M272 269 c-1 0 -1 0 -1 1 0 1 0 1 1 1
0 -1 0 -1 0 -2z"/>
<path fill="#ebeae8" stroke="none" d="M143 267 c0 -1 -1 -2 -3 -3 -1 0 -4 -1
-6 -2 -2 -1 -4 -1 -5 -1 -2 2 1 4 4 4 2 1 5 2 6 2 2 2 3 2 4 0z"/>
<path fill="#ebeae8" stroke="none" d="M16 266 c0 -1 0 -1 0 -1 -1 0 -1 0 -1
1 0 0 0 0 1 0 0 0 0 0 0 0z"/>
<path fill="#ebeae8" stroke="none" d="M25 264 c0 -1 0 -1 0 -1 -1 0 -1 0 -1
1 0 0 0 0 1 0 0 0 0 0 0 0z"/>
<path fill="#ebeae8" stroke="none" d="M40 262 c0 -1 -1 -2 -1 -1 -2 0 -1 2 0
2 1 0 2 -1 1 -1z"/>
<path fill="#ebeae8" stroke="none" d="M75 262 c-1 0 -1 0 -2 0 -1 1 -1 1 0 1
1 0 2 0 2 -1z"/>
<path fill="#ebeae8" stroke="none" d="M122 260 c0 -2 -2 -3 -5 -3 -2 0 -3 2
0 3 2 1 5 1 5 0z"/>
<path fill="#ebeae8" stroke="none" d="M253 257 c-1 0 -1 0 -1 1 0 1 0 1 1 1
0 -1 0 -1 0 -2z"/>
<path fill="#ebeae8" stroke="none" d="M13 254 c0 -1 0 -1 -1 0 -1 0 -1 1 -1
1 0 1 0 1 1 1 1 -1 1 -2 1 -2z"/>
<path fill="#ebeae8" stroke="none" d="M101 252 c1 -1 2 -2 4 -2 2 0 2 0 1 -1
-2 -3 -8 0 -8 3 0 1 1 1 3 0z"/>
<path fill="#ebeae8" stroke="none" d="M267 248 c1 -1 3 -4 4 -8 5 -11 3 -15
-4 -11 -4 3 -4 3 -3 12 0 8 0 9 3 7z"/>
<path fill="#ebeae8" stroke="none" d="M120 247 c1 -1 -1 -2 -2 -1 -1 0 0 2 1
2 0 0 1 0 1 -1z"/>
<path fill="#ebeae8" stroke="none" d="M249 247 c0 -1 0 -1 0 -1 -1 0 -1 0 -1
1 0 0 0 0 1 0 0 0 0 0 0 0z"/>
<path fill="#ebeae8" stroke="none" d="M253 247 c0 -1 0 -1 0 -1 -1 0 -1 0 -1
1 0 0 0 0 1 0 0 0 0 0 0 0z"/>
<path fill="#ebeae8" stroke="none" d="M15 241 l2 -2 -3 -1 c-3 -1 -6 -1 -9 2
-2 2 -2 2 -1 3 3 2 7 1 11 -2z"/>
<path fill="#ebeae8" stroke="none" d="M276 243 c-1 0 -1 0 -1 1 0 1 0 1 1 1
0 -1 0 -1 0 -2z"/>
<path fill="#ebeae8" stroke="none" d="M279 244 c0 -1 0 -1 -1 -1 -1 0 -1 0
-1 1 0 1 0 1 0 1 1 0 1 0 2 -1z"/>
<path fill="#ebeae8" stroke="none" d="M77 237 c0 -7 -7 -15 -9 -11 -2 3 -1 6
3 10 5 6 6 6 6 1z"/>
<path fill="#ebeae8" stroke="none" d="M240 232 c0 -2 0 -2 -2 0 -1 4 -1 5 1
3 0 -1 1 -2 1 -3z"/>
<path fill="#ebeae8" stroke="none" d="M30 233 c2 -2 2 -2 1 -2 -9 -1 -16 1
-13 3 3 2 9 1 12 -1z"/>
<path fill="#ebeae8" stroke="none" d="M103 231 c-2 -1 -3 -1 -3 0 0 1 1 1 2
1 2 0 2 0 1 -1z"/>
<path fill="#ebeae8" stroke="none" d="M195 231 c3 -2 -1 -16 -4 -16 -2 0 -2
1 -2 7 1 9 3 11 6 9z"/>
<path fill="#ebeae8" stroke="none" d="M82 227 c0 -2 -6 -8 -8 -8 -3 1 -2 4 2
8 4 3 5 4 6 0z"/>
<path fill="#ebeae8" stroke="none" d="M288 227 c1 -1 0 -1 -1 -1 -1 0 -2 1
-2 2 0 2 3 1 3 -1z"/>
<path fill="#ebeae8" stroke="none" d="M44 225 c0 -1 -3 -2 -4 -1 -1 0 -1 1 0
1 0 1 4 1 4 0z"/>
<path fill="#ebeae8" stroke="none" d="M293 223 c0 -3 0 -3 -3 -1 -2 2 -2 3 1
3 0 0 1 -1 2 -2z"/>
<path fill="#ebeae8" stroke="none" d="M17 224 c0 -1 0 -1 0 -1 -1 0 -1 0 -1
1 0 0 0 0 1 0 0 0 0 0 0 0z"/>
<path fill="#ebeae8" stroke="none" d="M273 215 c-1 -5 -1 -5 0 -3 1 2 4 3 4
1 0 -1 -1 -2 -2 -4 -2 -1 -3 -3 -3 -4 0 -6 -5 -5 -6 1 0 1 0 4 1 6 1 1 1 4 1
6 0 1 1 3 1 4 2 2 4 -2 4 -7z"/>
<path fill="#ebeae8" stroke="none" d="M265 221 c1 0 0 -1 -1 -1 0 -1 -1 0 -1
1 0 1 2 2 2 0z"/>
<path fill="#ebeae8" stroke="none" d="M221 215 c-2 -2 2 -4 5 -4 4 1 3 3 3
-16 0 -15 0 -14 -4 -17 -5 -2 -8 -7 -6 -9 1 -2 2 -2 3 -1 2 2 7 4 7 4 2 -3 3
-5 3 -7 0 -3 -5 -6 -8 -5 -2 0 -2 0 -2 -1 0 -1 2 -2 3 -2 3 0 3 -1 2 -3 -1 -1
-1 -1 -4 1 -2 1 -2 1 -2 0 1 -1 1 -3 2 -5 1 -4 2 -5 4 -4 3 1 7 -2 7 -5 0 -6
-7 -7 -10 -1 -2 5 -3 4 -3 -5 1 -9 -1 -12 -4 -9 -1 2 -1 2 1 4 2 4 1 10 -3 19
-3 6 -3 7 -6 5 -1 -1 -2 -1 -2 0 -1 0 -2 1 -4 0 -5 -1 -3 4 3 6 3 1 3 1 3 4 0
4 2 11 3 11 2 0 1 3 -1 6 -1 2 -1 2 2 2 4 0 6 2 4 3 0 1 -1 4 -1 6 0 3 -1 6
-1 7 -2 2 0 9 3 12 0 1 1 2 1 3 0 1 0 2 1 2 1 0 1 0 1 -1z"/>
<path fill="#ebeae8" stroke="none" d="M36 208 c9 -2 6 -5 -4 -4 -5 1 -11 3
-7 3 0 0 1 0 1 1 0 2 0 2 2 2 1 -1 5 -2 8 -2z"/>
<path fill="#ebeae8" stroke="none" d="M183 208 c-1 0 -1 0 -1 1 0 1 0 1 1 1
0 -1 0 -1 0 -2z"/>
<path fill="#ebeae8" stroke="none" d="M21 207 c2 -3 0 -4 -5 -3 -5 0 -6 1 -4
4 2 2 8 1 9 -1z"/>
<path fill="#ebeae8" stroke="none" d="M115 208 c1 -1 0 -3 -2 -3 -3 0 -5 -1
-5 -3 0 0 -1 -1 -3 -1 -1 0 -4 0 -5 -1 -2 0 -2 0 -1 1 0 0 2 1 3 1 1 0 4 2 6
4 3 3 6 4 7 2z"/>
<path fill="#ebeae8" stroke="none" d="M139 207 c0 -1 0 -1 0 -1 -1 0 -1 0 -1
1 0 0 0 0 1 0 0 0 0 0 0 0z"/>
<path fill="#ebeae8" stroke="none" d="M203 202 c0 -2 1 -5 2 -7 0 -3 0 -3 -1
-2 -2 0 -6 6 -4 6 0 0 -1 1 -2 2 -1 2 -1 2 0 4 3 2 4 1 5 -3z"/>
<path fill="#ebeae8" stroke="none" d="M26 202 c0 -1 0 -1 -1 -1 -1 0 -2 1 -2
2 0 1 0 1 1 1 1 0 2 -1 2 -2z"/>
<path fill="#ebeae8" stroke="none" d="M12 200 c0 -1 0 -2 -1 -1 -1 0 -1 1 -1
2 0 0 0 1 1 1 1 0 1 -1 1 -2z"/>
<path fill="#ebeae8" stroke="none" d="M101 196 c-1 -2 -2 -2 -3 0 0 1 1 2 2
2 1 0 1 -1 1 -2z"/>
<path fill="#ebeae8" stroke="none" d="M50 195 c3 -2 1 -3 -4 -4 -5 -1 -7 0
-4 3 3 2 4 3 8 1z"/>
<path fill="#ebeae8" stroke="none" d="M296 195 c0 -1 0 -1 -1 -1 -1 0 -1 0
-1 1 0 1 0 1 0 1 1 0 1 0 2 -1z"/>
<path fill="#ebeae8" stroke="none" d="M271 193 c0 -2 -3 -1 -4 1 0 0 1 1 2 0
1 0 2 -1 2 -1z"/>
<path fill="#ebeae8" stroke="none" d="M34 190 c-1 0 -1 0 -2 0 0 1 0 1 1 1 1
0 1 0 1 -1z"/>
<path fill="#ebeae8" stroke="none" d="M189 188 c1 0 1 -2 1 -3 -1 -1 -1 -1
-4 1 -1 1 -2 3 -2 4 0 1 3 0 5 -2z"/>
<path fill="#ebeae8" stroke="none" d="M209 185 c0 -2 0 -2 -2 0 -2 2 -3 4 -2
5 1 2 4 -2 4 -5z"/>
<path fill="#ebeae8" stroke="none" d="M270 190 c0 -2 -1 -4 -3 -4 -1 0 -2 2
0 3 0 1 3 1 3 1z"/>
<path fill="#ebeae8" stroke="none" d="M181 184 c0 -1 0 -1 0 -1 -1 0 -1 0 -1
1 0 0 0 0 1 0 0 0 0 0 0 0z"/>
<path fill="#ebeae8" stroke="none" d="M139 180 c0 -3 -2 -3 -3 1 0 1 0 2 1 2
1 0 2 -2 2 -3z"/>
<path fill="#ebeae8" stroke="none" d="M237 166 c0 -2 0 -2 -1 -1 -1 1 -2 3
-2 6 l0 5 1 -4 c1 -2 1 -5 2 -6z"/>
<path fill="#ebeae8" stroke="none" d="M241 165 c0 -2 0 -2 -2 -1 -1 1 -1 2
-1 3 2 2 3 1 3 -2z"/>
<path fill="#ebeae8" stroke="none" d="M164 163 c-1 -1 -1 -1 -1 1 0 2 0 2 1
1 1 -1 1 -1 0 -2z"/>
<path fill="#ebeae8" stroke="none" d="M139 162 c1 -7 -10 -18 -16 -16 -2 0
-4 0 -5 -1 -1 -1 -3 -2 -4 -2 -2 0 -2 0 -1 -1 2 0 3 -3 3 -4 -1 -1 -9 -3 -13
-3 -2 0 -4 0 -4 -1 -1 -1 -2 -1 -4 -1 -3 0 -6 3 -7 8 0 2 -1 4 -2 5 -4 3 6 10
16 10 3 0 6 0 6 0 1 -4 3 -5 12 -5 10 1 11 1 14 8 2 6 4 7 5 3z"/>
<path fill="#ebeae8" stroke="none" d="M191 162 c5 -3 6 -6 2 -9 0 -1 -1 -2
-1 -3 0 -1 -1 -1 -1 -1 -1 0 -1 2 -1 4 0 3 -1 5 -2 5 -2 2 -3 6 -1 6 0 0 2 -1
4 -2z"/>
<path fill="#ebeae8" stroke="none" d="M200 157 c-1 0 -1 0 -1 1 0 1 0 1 1 1
0 -1 0 -1 0 -2z"/>
<path fill="#ebeae8" stroke="none" d="M242 159 c0 -1 0 -1 0 -1 -1 0 -1 0 -1
1 0 0 0 0 1 0 0 0 0 0 0 0z"/>
<path fill="#ebeae8" stroke="none" d="M86 155 c-1 0 -1 0 -2 0 -1 1 -1 1 0 1
1 0 2 0 2 -1z"/>
<path fill="#ebeae8" stroke="none" d="M80 154 c-1 0 -1 0 -2 0 0 1 0 1 1 1 1
0 1 0 1 -1z"/>
<path fill="#ebeae8" stroke="none" d="M66 152 c0 -1 0 -1 0 -1 -1 0 -1 0 -1
1 0 0 0 0 1 0 0 0 0 0 0 0z"/>
<path fill="#ebeae8" stroke="none" d="M44 148 c-3 0 -5 1 -5 2 0 1 1 0 3 0 3
-1 3 -2 2 -2z"/>
<path fill="#ebeae8" stroke="none" d="M12 149 c0 -1 0 -1 0 -1 -1 0 -1 0 -1
1 0 0 0 0 1 0 0 0 0 0 0 0z"/>
<path fill="#ebeae8" stroke="none" d="M190 136 c1 -2 -2 -3 -6 -3 -5 -1 -7 0
-6 2 1 2 11 3 12 1z"/>
<path fill="#ebeae8" stroke="none" d="M110 133 c0 0 1 -1 3 -1 3 0 4 0 4 -1
0 -6 -16 -6 -16 -1 0 1 5 4 7 4 1 0 2 0 2 -1z"/>
<path fill="#ebeae8" stroke="none" d="M246 131 c0 -1 -1 -1 -1 0 -1 1 0 3 1
2 1 0 1 -1 0 -2z"/>
<path fill="#ebeae8" stroke="none" d="M127 130 c0 -1 0 -1 -1 -1 -1 0 -2 1
-2 2 0 1 0 1 1 1 1 0 2 -1 2 -2z"/>
<path fill="#ebeae8" stroke="none" d="M168 129 c0 -2 -3 -11 -4 -11 -1 0 0 8
1 11 1 2 3 3 3 0z"/>
<path fill="#ebeae8" stroke="none" d="M176 128 c0 -1 -1 -2 -2 -3 -2 -2 -3
-1 -2 2 0 2 2 3 4 1z"/>
<path fill="#ebeae8" stroke="none" d="M198 127 c0 -1 -2 -2 -2 -1 -1 1 0 1 0
1 1 0 2 0 2 0z"/>
<path fill="#ebeae8" stroke="none" d="M234 125 c-1 -1 -1 -3 -1 -5 0 -3 0 -3
-1 -2 -1 1 -2 2 -1 2 0 1 0 3 0 4 0 2 0 3 2 3 2 0 2 0 1 -2z"/>
<path fill="#ebeae8" stroke="none" d="M187 123 c1 -1 1 -1 0 -1 -3 0 -5 1 -5
2 0 1 4 0 5 -1z"/>
<path fill="#ebeae8" stroke="none" d="M9 122 c0 -1 0 -1 0 -1 -1 0 -1 0 -1 1
0 0 0 0 1 0 0 0 0 0 0 0z"/>
<path fill="#ebeae8" stroke="none" d="M35 115 c0 -1 0 -2 1 -2 0 -1 0 -2 -1
-2 -1 0 -2 1 -2 2 -1 1 0 2 1 2 0 0 1 0 1 0z"/>
<path fill="#ebeae8" stroke="none" d="M105 114 c0 -1 0 -1 0 -1 -1 0 -1 0 -1
1 0 0 0 0 1 0 0 0 0 0 0 0z"/>
<path fill="#ebeae8" stroke="none" d="M9 111 c0 -1 0 -1 0 -1 -1 0 -1 0 -1 1
0 0 0 0 1 0 0 0 0 0 0 0z"/>
<path fill="#ebeae8" stroke="none" d="M232 107 c0 0 1 -1 2 -1 2 -1 3 -4 1
-4 -2 0 -6 6 -4 6 1 0 1 0 1 -1z"/>
<path fill="#ebeae8" stroke="none" d="M16 104 c0 -1 -1 -1 -2 -1 0 0 -1 0 0
1 0 1 1 1 1 1 1 0 1 0 1 -1z"/>
<path fill="#ebeae8" stroke="none" d="M10 103 c0 -1 0 -1 0 -1 -1 0 -1 0 -1
1 0 0 0 0 1 0 0 0 0 0 0 0z"/>
<path fill="#ebeae8" stroke="none" d="M22 102 c-1 0 -1 0 -2 0 0 1 0 1 1 1 1
0 1 0 1 -1z"/>
<path fill="#ebeae8" stroke="none" d="M290 100 c-1 0 -1 0 -2 0 0 1 0 1 1 1
1 0 1 0 1 -1z"/>
<path fill="#ebeae8" stroke="none" d="M248 97 c0 -2 -2 -5 -3 -4 -1 0 -1 1
-1 3 0 4 3 4 4 1z"/>
<path fill="#ebeae8" stroke="none" d="M264 90 c0 -3 -3 -4 -5 -2 -1 2 -1 2 0
4 3 2 5 1 5 -2z"/>
<path fill="#ebeae8" stroke="none" d="M124 86 c0 -2 -2 -3 -2 -1 0 1 1 2 2 2
1 0 1 -1 0 -1z"/>
<path fill="#ebeae8" stroke="none" d="M289 86 c0 -3 -3 -4 -6 -3 -5 2 -4 4 2
4 3 0 4 0 4 -1z"/>
<path fill="#ebeae8" stroke="none" d="M254 82 c2 -1 4 -2 6 -3 7 -1 8 -5 3
-7 -5 -2 -5 -5 0 -7 6 -2 7 -4 2 -4 -2 0 -4 0 -5 0 -1 -1 -9 0 -10 1 -1 0 -2
1 -3 1 -1 0 -1 6 1 12 0 3 0 3 -2 3 -3 0 -3 5 0 6 4 1 5 1 8 -2z"/>
<path fill="#ebeae8" stroke="none" d="M230 71 c0 -2 -7 -6 -10 -6 -2 0 -1 -2
1 -2 1 -1 5 -1 8 -1 7 -1 8 -4 1 -4 -2 0 -5 -1 -7 -2 -5 -2 -15 -4 -17 -3 -3
1 -1 4 3 4 2 0 3 0 3 1 0 2 -3 3 -6 3 -1 -1 -2 0 -2 0 -1 2 0 2 1 2 2 0 9 3 9
4 0 0 2 1 5 1 3 1 5 2 5 3 1 1 6 1 6 0z"/>
<path fill="#ebeae8" stroke="none" d="M153 69 c2 -4 -7 -9 -12 -6 -1 1 -1 1
2 2 2 1 3 2 2 2 -2 3 -1 4 3 4 3 0 4 -1 5 -2z"/>
<path fill="#ebeae8" stroke="none" d="M287 70 c1 -1 1 -2 0 -2 -1 -1 -1 -2 0
-3 1 -1 1 -1 0 -2 -2 -2 -5 -1 -6 1 -1 1 -2 2 -5 1 l-4 0 1 2 c2 2 3 3 6 3 2
0 4 1 5 1 1 0 2 -1 3 -1z"/>
<path fill="#ebeae8" stroke="none" d="M78 66 c3 -3 3 -6 0 -8 -3 -4 -5 -4 -8
-1 -5 5 -2 10 5 11 0 0 2 -1 3 -2z"/>
<path fill="#ebeae8" stroke="none" d="M194 67 c0 -1 -1 -1 -3 -1 -2 0 -2 0 0
1 2 1 3 1 3 0z"/>
<path fill="#ebeae8" stroke="none" d="M63 66 c1 -1 -1 -2 -5 -2 -1 0 -2 1 -2
2 0 1 6 2 7 0z"/>
<path fill="#ebeae8" stroke="none" d="M7 63 c4 -1 4 -4 0 -4 -3 0 -4 1 -4 4
1 1 1 1 4 0z"/>
<path fill="#ebeae8" stroke="none" d="M164 62 c1 -1 1 -2 -1 -2 -2 -1 -6 0
-6 2 0 2 4 2 7 0z"/>
<path fill="#ebeae8" stroke="none" d="M167 63 c-1 0 -1 0 -2 0 0 1 0 1 1 1 1
0 1 0 1 -1z"/>
<path fill="#ebeae8" stroke="none" d="M178 62 c1 -1 3 -2 5 -3 4 -2 3 -3 -2
-4 -2 -1 -5 -1 -6 -2 -3 0 -3 0 -4 2 -1 2 -2 3 -2 3 -1 0 -1 0 -1 1 0 1 1 1 2
1 2 0 2 0 2 1 -2 3 3 4 6 1z"/>
<path fill="#ebeae8" stroke="none" d="M244 64 c0 -1 -1 -1 -2 -2 -2 -1 -2 -1
-2 0 0 1 1 2 2 2 1 0 2 0 2 0z"/>
<path fill="#ebeae8" stroke="none" d="M90 58 c1 -2 1 -2 0 -3 -2 0 -6 2 -5 3
0 1 4 1 5 0z"/>
<path fill="#ebeae8" stroke="none" d="M292 58 c-1 0 -1 0 -2 0 0 1 0 1 1 1 1
0 1 0 1 -1z"/>
<path fill="#ebeae8" stroke="none" d="M16 57 c0 -1 1 -3 3 -5 1 -1 2 -3 2 -4
0 -1 1 -3 2 -4 2 -6 1 -11 -4 -9 -1 1 -2 2 -2 5 -1 2 -2 6 -3 8 -2 4 -2 10 1
10 0 0 1 -1 1 -1z"/>
<path fill="#ebeae8" stroke="none" d="M112 57 c-1 0 -1 0 -2 0 -1 1 -1 1 0 1
1 0 2 0 2 -1z"/>
<path fill="#ebeae8" stroke="none" d="M264 56 c0 -1 0 -1 0 -1 -1 0 -1 0 -1
1 0 0 0 0 1 0 0 0 0 0 0 0z"/>
<path fill="#ebeae8" stroke="none" d="M62 53 c3 -3 3 -4 -2 -7 -6 -3 -10 -3
-13 -2 -2 1 -3 5 -1 5 1 0 2 1 3 2 5 4 9 5 13 2z"/>
<path fill="#ebeae8" stroke="none" d="M77 55 c0 -1 0 -1 0 -1 -1 0 -1 0 -1 1
0 0 0 0 1 0 0 0 0 0 0 0z"/>
<path fill="#ebeae8" stroke="none" d="M200 53 c2 -1 -4 -3 -7 -3 -1 1 -3 0
-5 -1 -4 -2 -4 -2 -4 -1 0 2 4 4 8 5 2 0 4 0 4 1 1 0 2 0 4 -1z"/>
<path fill="#ebeae8" stroke="none" d="M266 49 c-1 -1 -2 -2 -3 -3 -2 -3 -2
-6 0 -8 5 -4 -3 -7 -12 -4 -6 2 -6 4 -1 7 3 1 6 3 7 5 4 4 12 7 9 3z"/>
<path fill="#ebeae8" stroke="none" d="M171 48 c0 -1 -2 -2 -5 -2 -1 0 -1 0 0
2 3 1 5 1 5 0z"/>
<path fill="#ebeae8" stroke="none" d="M152 47 c0 -1 0 -1 0 -1 -1 0 -1 0 -1
1 0 0 0 0 1 0 0 0 0 0 0 0z"/>
<path fill="#ebeae8" stroke="none" d="M276 46 c0 -1 -7 -8 -8 -8 -2 0 1 5 3
7 3 2 5 3 5 1z"/>
<path fill="#ebeae8" stroke="none" d="M154 45 c-1 0 -1 0 -2 0 0 1 0 1 1 1 1
0 1 0 1 -1z"/>
<path fill="#ebeae8" stroke="none" d="M163 44 c-3 -1 -7 0 -7 1 0 0 2 0 4 0
3 0 4 0 3 -1z"/>
<path fill="#ebeae8" stroke="none" d="M81 42 c0 -1 0 -1 0 -1 -1 0 -1 0 -1 1
0 0 0 0 1 0 0 0 0 0 0 0z"/>
<path fill="#ebeae8" stroke="none" d="M222 41 c0 0 -1 -2 -3 -4 l-2 -3 -3 2
-2 3 3 0 c2 0 3 0 3 2 0 0 1 1 2 1 1 0 2 0 2 -1z"/>
<path fill="#ebeae8" stroke="none" d="M67 35 c0 -1 0 -1 -1 0 -1 0 -1 1 -1 1
0 1 0 1 1 1 1 -1 1 -2 1 -2z"/>
<path fill="#ebeae8" stroke="none" d="M213 33 c3 -3 0 -7 -3 -5 -3 3 -3 6 -1
6 2 0 3 -1 4 -1z"/>
<path fill="#ebeae8" stroke="none" d="M227 32 c0 -1 -6 -3 -7 -2 -1 0 0 1 1
2 2 2 5 2 6 0z"/>
<path fill="#ebeae8" stroke="none" d="M38 32 c1 -1 -4 -3 -4 -2 -1 0 -1 1 0
2 0 1 4 2 4 0z"/>
<path fill="#ebeae8" stroke="none" d="M41 32 c0 -1 0 -1 0 -1 -1 0 -1 0 -1 1
0 0 0 0 1 0 0 0 0 0 0 0z"/>
<path fill="#ebeae8" stroke="none" d="M59 30 c1 -2 -1 -2 -2 -1 -2 2 -2 3 0
3 0 0 1 -1 2 -2z"/>
<path fill="#ebeae8" stroke="none" d="M48 30 c0 0 1 -1 2 -2 3 -1 4 -5 2 -5
-1 0 -3 0 -4 -1 -3 -2 -10 6 -7 8 1 1 7 1 7 0z"/>
<path fill="#ebeae8" stroke="none" d="M70 29 c1 0 2 -2 2 -3 0 -1 1 -2 3 -4
l2 -2 -4 -2 c-3 -1 -6 -2 -6 -2 -1 0 -2 5 -2 11 0 4 1 5 5 2z"/>
<path fill="#ebeae8" stroke="none" d="M22 25 c3 -4 1 -11 -3 -11 -1 0 -5 5
-6 9 -1 7 4 8 9 2z"/>
<path fill="#ebeae8" stroke="none" d="M34 29 c0 -1 0 -1 0 -1 -1 0 -1 0 -1 1
0 0 0 0 1 0 0 0 0 0 0 0z"/>
<path fill="#ebeae8" stroke="none" d="M235 27 c0 -2 -3 -3 -4 -2 -1 0 -1 1
-1 2 1 1 5 1 5 0z"/>
<path fill="#ebeae8" stroke="none" d="M35 27 c0 -1 0 -1 0 -1 -1 0 -1 0 -1 1
0 0 0 0 1 0 0 0 0 0 0 0z"/>
<path fill="#ebeae8" stroke="none" d="M264 24 c4 -2 4 -4 0 -7 -2 -1 -4 -2
-4 -2 0 -1 -1 -1 -2 -1 -1 0 -2 -1 -1 -2 0 -1 0 -1 -1 0 -1 1 -1 1 -3 0 -3 -3
-16 -3 -20 0 -3 3 -4 6 -1 6 1 0 2 -1 2 -1 2 -4 14 -1 19 5 3 3 5 4 11 2z"/>
<path fill="#ebeae8" stroke="none" d="M274 24 c1 0 0 -2 -1 -3 -1 -1 -1 -1
-1 1 0 3 1 4 2 2z"/>
<path fill="#ebeae8" stroke="none" d="M240 24 c0 -1 0 -1 0 -1 -1 0 -1 0 -1
1 0 0 0 0 1 0 0 0 0 0 0 0z"/>
<path fill="#ebeae8" stroke="none" d="M85 23 c0 -1 0 -1 0 -1 -1 0 -1 0 -1 1
0 0 0 0 1 0 0 0 0 0 0 0z"/>
<path fill="#ebeae8" stroke="none" d="M158 22 c1 -1 1 -2 1 -3 -1 -2 2 -2 6
0 3 1 4 1 4 -1 0 -2 -3 -3 -9 -3 -5 0 -5 0 -6 4 -1 4 1 6 4 3z"/>
<path fill="#ebeae8" stroke="none" d="M241 21 c1 0 0 -1 -1 -1 -2 -1 -2 -1
-2 1 1 1 3 1 3 0z"/>
<path fill="#ebeae8" stroke="none" d="M225 20 c0 -1 0 -1 -1 -1 -1 0 -1 0 -1
1 0 1 0 1 1 1 1 0 1 0 1 -1z"/>
<path fill="#ebeae8" stroke="none" d="M34 17 c0 0 -1 -1 -1 -2 -1 -1 -1 -2
-2 -1 -1 0 -1 1 0 1 1 1 1 2 1 3 0 2 0 2 2 1 0 -1 1 -2 0 -2z"/>
<path fill="#ebeae8" stroke="none" d="M45 9 l2 -2 -3 0 c-3 0 -4 0 -4 2 0 1
0 2 1 2 1 0 2 -1 4 -2z"/>
<path fill="#ebeae8" stroke="none" d="M229 10 c0 -1 -1 -1 -2 -1 -2 0 -3 0
-3 1 -1 1 0 1 2 1 2 0 3 0 3 -1z"/>
<path fill="#ebeae8" stroke="none" d="M130 7 c-1 0 -1 0 -2 0 0 1 0 1 1 1 1
0 1 0 1 -1z"/>
<path fill="#ebeae8" stroke="none" d="M134 7 c-1 0 -1 0 -2 0 -1 1 -1 1 0 1
1 0 2 0 2 -1z"/>
<path fill="#ebeae8" stroke="none" d="M280 7 c-1 0 -1 0 -2 0 -1 1 -1 1 0 1
1 0 2 0 2 -1z"/>
<path fill="#ebeae8" stroke="none" d="M41 6 c0 -1 0 -1 0 -1 -1 0 -1 0 -1 1
0 0 0 0 1 0 0 0 0 0 0 0z"/>
<path fill="#778a9d" stroke="none" d="M180 269 c-1 -1 3 -4 6 -4 1 1 1 1 0 3
-4 3 -6 3 -6 1z"/>
<path fill="#778a9d" stroke="none" d="M182 256 c0 -1 1 -2 1 -4 2 -1 2 -1 3
0 0 1 0 3 -1 3 -2 2 -3 2 -3 1z"/>
<path fill="#778a9d" stroke="none" d="M178 251 c0 -1 0 -1 1 -1 0 1 0 1 0 2
-1 0 -1 0 -1 -1z"/>
<path fill="#778a9d" stroke="none" d="M146 150 c0 -1 0 -1 1 -1 0 0 0 0 0 1
0 0 0 0 0 0 -1 0 -1 0 -1 0z"/>
<path fill="#778a9d" stroke="none" d="M144 115 c0 -1 2 -3 3 -3 2 0 1 2 -1 3
-1 1 -2 1 -2 0z"/>
<path fill="#778a9d" stroke="none" d="M171 100 c-1 -2 1 -5 4 -6 4 0 4 2 0 5
-3 2 -2 2 -4 1z"/>
<path fill="#778a9d" stroke="none" d="M216 83 c1 0 1 0 2 0 0 1 0 1 -1 1 -1
0 -1 0 -1 -1z"/>
<path fill="#778a9d" stroke="none" d="M252 76 c-1 -3 -1 -3 1 -3 2 0 3 0 2 2
0 3 -2 3 -3 1z"/>
<path fill="#778a9d" stroke="none" d="M176 58 c0 -1 2 -2 2 0 1 0 0 1 -1 1 0
1 -1 0 -1 -1z"/>
<path fill="#778a9d" stroke="none" d="M71 21 c0 -1 0 -1 1 -1 0 0 0 0 0 1 0
0 0 0 0 0 -1 0 -1 0 -1 0z"/>
<path fill="#778a9d" stroke="none" d="M19 410 c-2 0 -5 -1 -7 -2 -1 0 -3 -1
-6 -2 -4 -1 -4 -1 -5 -6 0 -5 0 -14 2 -15 1 -1 1 -3 0 -5 -2 -2 -2 -7 0 -8 1
-1 0 -2 -1 -3 -4 -5 3 -7 20 -6 7 0 15 1 17 0 2 0 4 0 5 2 l2 2 -3 0 c-1 0 -4
0 -5 0 -2 0 -8 0 -13 0 -13 1 -12 1 -16 1 -5 -1 -5 2 0 3 2 1 5 1 8 0 3 -1 7
-1 9 0 2 0 6 1 9 1 3 0 5 0 6 0 2 2 11 0 12 -2 0 -2 1 -2 7 -1 4 0 8 1 9 1 l3
1 -3 1 c-2 1 -2 1 -1 3 2 0 4 1 6 2 5 0 6 2 2 2 -4 0 -6 1 -4 3 1 1 3 2 3 2 3
0 4 2 3 3 -1 2 -1 2 1 2 1 0 5 2 9 4 4 1 7 3 8 3 1 0 3 1 5 3 3 1 6 2 10 3 3
0 6 1 7 1 0 1 1 1 3 1 1 0 2 0 2 1 -1 4 -48 8 -52 5 -3 -2 -17 -3 -27 -1 -8 2
-19 2 -25 1z"/>
<path fill="#ebeae8" stroke="none" d="M42 401 c0 -2 1 -2 3 -2 2 0 3 0 3 -2
0 0 0 -1 1 -1 0 1 1 1 1 0 1 -1 -5 -2 -7 -2 -1 1 -1 2 -1 3 0 1 -1 2 -4 2 -2
0 -4 1 -4 2 0 2 0 2 4 2 4 0 4 -1 4 -2z"/>
<path fill="#ebeae8" stroke="none" d="M65 399 c3 -2 -1 -3 -11 -3 -3 0 -2 3
1 4 2 1 9 0 10 -1z"/>
<path fill="#ebeae8" stroke="none" d="M82 400 c0 -1 0 -1 0 -1 -1 0 -1 0 -1
1 0 0 0 0 1 0 0 0 0 0 0 0z"/>
<path fill="#ebeae8" stroke="none" d="M20 396 c0 -1 0 -1 -1 -1 -1 0 -1 0 -1
1 0 1 0 1 1 1 1 0 1 0 1 -1z"/>
<path fill="#ebeae8" stroke="none" d="M28 391 c0 -2 -1 -2 -4 -2 -2 0 -6 -1
-8 -2 -2 -1 -4 -1 -4 0 -2 2 1 4 6 4 2 0 5 0 5 1 1 1 5 0 5 -1z"/>
<path fill="#ebeae8" stroke="none" d="M58 386 c-1 -1 -13 -1 -13 0 0 1 3 1 7
1 3 0 6 0 6 -1z"/>
<path fill="#778a9d" stroke="none" d="M166 408 c1 0 1 0 2 0 0 1 -1 1 -2 1
-1 0 -1 0 0 -1z"/>
<path fill="#778a9d" stroke="none" d="M170 408 c-1 -1 -2 -1 -4 -1 -4 0 -1
-2 5 -2 6 -1 7 1 2 3 -3 1 -3 1 -3 0z"/>
<path fill="#778a9d" stroke="none" d="M203 406 c0 0 1 -1 1 -3 2 -1 2 -1 2 1
0 2 -1 3 -1 3 -1 0 -2 0 -2 -1z"/>
<path fill="#778a9d" stroke="none" d="M243 407 c0 -1 0 -1 1 -1 0 0 0 0 0 1
0 0 0 0 0 0 -1 0 -1 0 -1 0z"/>
<path fill="#778a9d" stroke="none" d="M236 397 c0 -1 3 -3 4 -3 2 0 1 2 -1 3
-2 1 -3 1 -3 0z"/>
<path fill="#778a9d" stroke="none" d="M244 396 c0 -1 1 -1 2 -1 1 0 2 0 2 1
-1 1 -2 1 -3 1 0 0 -1 0 -1 -1z"/>
<path fill="#778a9d" stroke="none" d="M205 381 c-2 0 -3 -1 -3 -2 1 -1 11 -2
14 -2 4 1 4 4 -1 4 -2 1 -4 1 -5 1 -1 1 -3 0 -5 -1z"/>
<path fill="#778a9d" stroke="none" d="M72 371 c0 -1 1 -1 3 -1 2 0 3 0 4 1 0
1 -1 1 -3 1 -2 0 -4 0 -4 -1z"/>
<path fill="#778a9d" stroke="none" d="M87 370 c0 -1 0 -1 1 -1 0 0 0 0 0 1 0
0 0 0 0 0 -1 0 -1 0 -1 0z"/>
<path fill="#778a9d" stroke="none" d="M89 368 c0 -1 2 -1 4 -1 4 0 4 0 2 1
-4 1 -7 1 -6 0z"/>
<path fill="#778a9d" stroke="none" d="M113 368 c-2 -1 -1 -1 3 -1 3 0 5 0 5
1 -1 1 -4 1 -8 0z"/>
<path fill="#778a9d" stroke="none" d="M102 367 c1 0 1 0 2 0 0 1 0 1 -1 1 -1
0 -1 0 -1 -1z"/>
<path fill="#778a9d" stroke="none" d="M137 367 c-2 -3 0 -5 3 -5 3 0 4 1 5 4
1 3 -6 3 -8 1z"/>
<path fill="#778a9d" stroke="none" d="M140 350 c-2 -1 -5 -2 -6 -3 -1 -1 -2
-2 -3 -2 -1 0 -2 0 -2 -1 1 0 -1 -3 -4 -5 -3 -2 -5 -4 -5 -5 1 -1 12 5 14 8 2
2 4 3 6 3 3 1 6 2 7 4 l3 3 -3 0 c-2 0 -5 -1 -7 -2z"/>
<path fill="#778a9d" stroke="none" d="M127 345 c0 -1 0 -1 1 -1 0 0 0 0 0 1
0 1 0 1 -1 1 -1 0 -1 0 0 -1z"/>
<path fill="#778a9d" stroke="none" d="M116 340 c-2 0 -4 -1 -6 -1 -6 0 -8 -1
-4 -3 3 -1 8 -1 10 2 1 0 2 1 3 1 0 0 1 0 2 1 0 1 -3 1 -5 0z"/>
<path fill="#778a9d" stroke="none" d="M154 340 c-1 -1 -1 -1 0 -1 1 0 1 0 1
1 0 1 0 1 0 1 -1 0 -1 0 -1 -1z"/>
<path fill="#778a9d" stroke="none" d="M4 336 c0 -1 10 -1 15 0 2 1 0 1 -7 1
-6 0 -9 0 -8 -1z"/>
<path fill="#778a9d" stroke="none" d="M295 332 c0 -1 0 -1 1 -1 0 0 0 0 0 1
0 0 0 0 0 0 -1 0 -1 0 -1 0z"/>
<path fill="#778a9d" stroke="none" d="M14 329 c1 0 3 0 4 0 1 1 0 1 -2 1 -3
0 -3 0 -2 -1z"/>
<path fill="#778a9d" stroke="none" d="M32 326 c1 -1 3 -2 4 -2 1 0 2 -1 2 -2
0 0 1 -1 2 -1 2 0 2 0 1 1 -1 1 1 2 5 2 5 0 -1 2 -9 3 -7 0 -7 0 -5 -1z"/>
<path fill="#778a9d" stroke="none" d="M82 325 c-7 0 -10 -1 -10 -2 1 -1 10 0
17 1 7 1 2 2 -7 1z"/>
<path fill="#778a9d" stroke="none" d="M109 322 c-2 -1 -4 -2 -5 -2 0 -1 -1
-1 -2 -1 -2 0 -8 -3 -9 -4 0 -1 1 -1 12 1 4 1 12 5 12 6 0 1 -4 1 -8 0z"/>
<path fill="#778a9d" stroke="none" d="M81 314 c-2 -1 -1 -3 2 -3 3 0 6 2 5 3
0 1 -5 1 -7 0z"/>
<path fill="#778a9d" stroke="none" d="M106 299 l-3 -1 3 0 c2 0 4 1 4 2 0 1
-1 1 -4 -1z"/>
<path fill="#778a9d" stroke="none" d="M87 275 c0 -1 0 -1 1 -1 0 0 0 0 0 1 0
0 0 0 0 0 -1 0 -1 0 -1 0z"/>
<path fill="#778a9d" stroke="none" d="M84 271 c0 0 0 -1 1 0 1 0 1 1 1 1 0 1
0 1 -1 1 -1 0 -1 -1 -1 -2z"/>
<path fill="#778a9d" stroke="none" d="M57 260 c-1 -1 -1 -1 0 -2 2 -1 4 -1 4
1 0 2 -2 2 -4 1z"/>
<path fill="#778a9d" stroke="none" d="M56 250 c-2 0 -2 -1 -1 -1 1 -1 1 -2 0
-3 -1 -1 0 -2 3 0 1 0 3 1 4 2 6 2 1 4 -6 2z"/>
<path fill="#778a9d" stroke="none" d="M53 245 c0 -1 0 -1 1 -1 0 0 0 0 0 1 0
0 0 0 0 0 -1 0 -1 0 -1 0z"/>
<path fill="#778a9d" stroke="none" d="M56 121 c0 -1 -3 -2 -5 -3 -3 0 -3 -1
-3 -4 0 -3 8 -5 8 -2 0 1 2 1 4 1 4 0 4 0 3 1 -1 1 -1 2 -1 3 0 0 -1 2 -2 3
-2 3 -2 3 -4 1z"/>
<path fill="#778a9d" stroke="none" d="M64 123 c0 -1 0 -1 1 -1 0 0 0 0 0 1 0
0 0 0 0 0 -1 0 -1 0 -1 0z"/>
<path fill="#778a9d" stroke="none" d="M81 109 c-1 -1 -3 -1 -4 -1 -5 0 -8 -4
-7 -7 4 -9 9 -9 23 2 4 3 4 3 2 4 -2 2 -12 3 -14 2z"/>
<path fill="#778a9d" stroke="none" d="M52 99 c-2 -1 -4 -2 -6 -2 -7 0 -10 -1
-10 -3 0 -2 7 -4 12 -4 6 0 16 7 13 9 -3 2 -7 2 -9 0z"/>
<path fill="#778a9d" stroke="none" d="M92 95 c1 0 1 0 2 0 0 1 0 1 -1 1 -1 0
-1 0 -1 -1z"/>
<path fill="#778a9d" stroke="none" d="M128 50 c0 -1 0 -1 1 -1 0 0 0 0 0 1 0
0 0 0 0 0 -1 0 -1 0 -1 0z"/>
<path fill="#778a9d" stroke="none" d="M133 47 c1 0 1 0 2 0 0 1 0 1 -1 1 -1
0 -1 0 -1 -1z"/>
<path fill="#778a9d" stroke="none" d="M136 47 c0 0 0 -1 0 -3 l1 -2 2 2 c2 3
2 3 0 3 -1 1 -2 0 -3 0z"/>
<path fill="#778a9d" stroke="none" d="M132 41 c-1 -1 -2 -2 -1 -2 0 -1 -1 -1
-3 -1 -3 1 -4 1 -4 -1 -1 -2 0 -3 3 -2 6 1 9 1 12 0 3 -1 4 -1 3 2 -1 1 -2 2
-4 2 -1 0 -2 1 -2 2 0 1 -1 1 -4 0z"/>
<path fill="#778a9d" stroke="none" d="M104 38 c0 -1 0 -1 1 -1 0 1 0 1 0 2
-1 0 -1 0 -1 -1z"/>
<path fill="#778a9d" stroke="none" d="M108 37 c0 -1 1 -1 1 -1 1 0 1 0 1 1
-1 1 -2 1 -2 1 -1 0 -1 0 0 -1z"/>
<path fill="#778a9d" stroke="none" d="M285 31 c0 -1 1 -1 2 -1 1 -1 2 0 2 0
0 1 -1 1 -2 1 -1 0 -2 0 -2 0z"/>
<path fill="#778a9d" stroke="none" d="M128 28 c0 -1 1 -1 2 -1 0 0 1 0 1 1 0
1 -1 1 -1 1 -1 0 -2 0 -2 -1z"/>
<path fill="#778a9d" stroke="none" d="M84 7 c0 -1 2 -1 4 -1 1 0 3 0 3 1 0 1
-2 1 -3 1 -2 0 -4 0 -4 -1z"/>
<path fill="#778a9d" stroke="none" d="M2 3 c0 -1 0 -1 1 -1 0 0 0 0 0 1 0 0
0 0 0 0 -1 0 -1 0 -1 0z"/>
</g>
</svg>
